# https://github.com/mikedh/trimesh
v -0.00891614 0.09439909 0.00029111
v -0.00913680 0.09368932 -0.00004176
v -0.00570404 0.09418171 0.00218284
v -0.00550401 0.09438908 0.00266767
v -0.00555855 0.09443747 0.00266528
v -0.01370412 0.09424453 -0.00067186
v -0.00624317 0.09322071 0.00096059
v -0.00989520 0.09280669 -0.00043236
v -0.00964105 0.09334075 -0.00027719
v -0.00533783 0.09467518 0.00337762
v -0.00855631 0.09500521 0.00082575
v -0.00851422 0.09559965 0.00130063
v -0.00795489 0.09553384 0.00158781
v -0.01515311 0.09384995 -0.00071283
v -0.06255620 0.01277095 0.01856940
v -0.06199121 0.01527947 0.01856940
v -0.06214010 0.01531600 0.01580345
v -0.00529474 0.09481227 0.00371116
v -0.00518948 0.09499728 0.00467557
v -0.00800145 0.09617114 0.00229686
v -0.01154047 0.09609067 0.00022537
v -0.01575934 0.09352678 -0.00065771
v -0.01151889 0.09692764 0.00076008
v -0.01055419 0.09636461 0.00079526
v -0.00772226 0.09640288 0.00297707
v -0.01047992 0.09712123 0.00146782
v -0.01035690 0.09715682 0.00157708
v -0.00822401 0.09712839 0.00366348
v -0.00761914 0.09684777 0.00423861
v -0.01160812 0.09772968 0.00141716
v -0.01050448 0.09856516 0.00386751
v -0.00963968 0.09789574 0.00338125
v -0.01141178 0.09711354 0.00095621
v -0.01097875 0.09748554 0.00151586
v -0.01092475 0.09822297 0.00251389
v -0.00725329 0.09664916 0.00459355
v -0.00725478 0.09673273 0.00552994
v -0.00951725 0.09820556 0.00487888
v -0.01105177 0.09790742 0.00197828
v -0.01178407 0.09879124 0.00268531
v -0.00954032 0.09811037 0.00426227
v -0.00952381 0.09814798 0.00450849
v -0.01040023 0.09860146 0.00423157
v -0.01184087 0.09907805 0.00330466
v -0.01048177 0.09869301 0.00447452
v -0.01191812 0.09949177 0.00509477
v -0.01140600 0.09922564 0.00578487
v -0.03947138 -0.02164727 0.08605045
v -0.04500347 -0.00107294 0.08604997
v -0.04216969 -0.01572644 0.08604955
v -0.00783515 0.09678709 0.00730228
v -0.00532955 0.09476423 0.00741714
v -0.00517851 0.09491825 0.00661135
v -0.00594693 0.09385877 0.00164401
v -0.06256699 0.01016795 0.02130180
v -0.01016795 -0.06256699 0.02130186
v -0.01267910 -0.06210660 0.02130186
v -0.01277089 -0.06255614 0.01856946
v -0.05666899 0.02974224 0.01580345
v -0.05782061 0.02743631 0.01580345
v -0.05768191 0.02737051 0.01856940
v 0.05357480 0.03387862 0.02130180
v 0.05216699 0.03600823 0.02130180
v -0.05726778 0.02717369 0.02130180
v -0.05873727 0.02502566 0.01856940
v -0.01116478 0.09857875 0.00770736
v -0.00306869 0.09297853 0.00599307
v -0.01557403 0.09363818 0.01120734
v -0.00519973 0.09496450 0.00648105
v -0.00515401 0.09500145 0.00602502
v -0.00740313 0.09671187 0.00649512
v -0.01624178 0.09310209 0.01102060
v -0.05969732 0.02264010 0.01856940
v -0.05926865 0.02247744 0.02130180
v -0.05831551 0.02484571 0.02130180
v -0.02264004 -0.05969727 0.01856946
v -0.02247744 -0.05926865 0.02130186
v -0.02484571 -0.05831551 0.02130186
v -0.01019906 0.09853506 0.00623626
v -0.01040637 0.09866869 0.00619578
v -0.00848711 0.09754896 0.00605035
v -0.01060175 0.09856474 0.00706738
v -0.01072072 0.09887093 0.00580841
v -0.01660531 0.09262478 0.01082015
v -0.01190268 0.09940874 0.00622946
v -0.01147186 0.09913748 0.00657082
v -0.00989765 0.09788984 0.00769168
v -0.01047247 0.09826874 0.00756854
v 0.04373151 0.01060909 0.08604997
v -0.01184034 0.09907430 0.00731736
v -0.00534534 -0.04468894 0.08605003
v -0.00214112 -0.04494893 0.08605003
v -0.00000000 -0.04499971 0.08605003
v -0.01111435 0.09871822 0.00733590
v 0.03600823 -0.05216699 0.02130186
v 0.04317700 0.01267778 0.08604997
v 0.03950864 0.02157413 0.08605164
v -0.01668679 0.09249460 0.00038615
v -0.01666635 0.09253650 0.00801170
v -0.01632004 0.09304165 -0.00050398
v -0.01274168 0.09449738 -0.00054919
v -0.01595211 0.09336942 0.01104295
v -0.01190286 0.09939193 0.00420874
v -0.01217329 0.09480398 -0.00040864
v -0.01184713 0.09515875 -0.00027060
v -0.01164466 0.09560739 -0.00002953
v -0.00257075 -0.06379467 0.01856946
v -0.00255233 -0.06333643 0.02130186
v -0.00510055 -0.06318229 0.02130186
v -0.01173245 0.09848862 0.00835282
v -0.00126201 0.04499381 0.08604997
v -0.00427741 0.04479610 0.08604997
v -0.00640416 0.04454201 0.08604997
v -0.00851625 0.04418683 0.08604997
v -0.01164597 0.04347467 0.08604919
v -0.02026671 -0.06070613 0.01580351
v -0.01780587 -0.06147313 0.01580351
v -0.01776301 -0.06132555 0.01856946
v 0.05873727 0.02502566 0.01856940
v 0.05969732 0.02264010 0.01856940
v 0.05984085 0.02269452 0.01580345
v -0.02271908 0.03888082 0.08604967
v -0.02710765 0.03593564 0.08605182
v -0.03041642 0.03318119 0.08604925
v -0.03256785 0.03105360 0.08604997
v -0.03400868 0.02946877 0.08604997
v -0.03683894 0.02590084 0.08604997
v -0.03897094 0.02249985 0.08604997
v -0.03999739 0.02062004 0.08604997
v -0.04287004 0.01370716 0.08605009
v -0.04418677 0.00851631 0.08604997
v 0.04418677 0.00851631 0.08604997
v -0.04467022 -0.00553221 0.08605003
v -0.04396378 -0.00966251 0.08604967
v -0.04317700 -0.01267772 0.08604997
v -0.04093343 -0.01869362 0.08604997
v -0.03330469 -0.03027397 0.08604812
v -0.03027921 -0.03331089 0.08605003
v -0.02781713 -0.03537213 0.08605003
v -0.02432864 -0.03785634 0.08605003
v -0.01294410 -0.04313200 0.08604985
v -0.00851625 -0.04418671 0.08605003
v -0.06056070 0.02021813 0.01856940
v -0.05984085 0.02269452 0.01580345
v 0.03897094 -0.02249974 0.08604997
v 0.04910033 0.04008919 0.02130180
v -0.00000000 -0.06338781 0.02130186
v -0.03412359 -0.05396229 0.01856946
v -0.03192323 -0.05529248 0.01856946
v -0.03169393 -0.05489546 0.02130186
v 0.02432864 -0.03785634 0.08605003
v 0.03835529 -0.05104160 0.01856946
v 0.03626883 -0.05254459 0.01856946
v 0.03635615 -0.05267077 0.01580351
v 0.03807955 -0.05067491 0.02130186
v -0.00000000 -0.06399995 0.01580351
v 0.00257695 -0.06394809 0.01580351
v 0.00257075 -0.06379467 0.01856946
v 0.03387862 -0.05357474 0.02130186
v -0.02021813 -0.06056070 0.01856946
v -0.02007269 -0.06012547 0.02130186
v -0.04778975 -0.04233801 0.01856946
v -0.04744637 -0.04203391 0.02130186
v -0.04910033 -0.04008919 0.02130186
v -0.02967095 -0.05653303 0.01856946
v -0.02945762 -0.05612713 0.02130186
v 0.06333643 -0.00255233 0.02130180
v 0.06056070 0.02021813 0.01856940
v 0.06132555 0.01776301 0.01856940
v 0.06147313 0.01780593 0.01580345
v -0.06210666 0.01267910 0.02130180
v -0.05529248 0.03192323 0.01856940
v -0.05489546 0.03169393 0.02130180
v -0.05357480 0.03387862 0.02130180
v 0.06301969 -0.01024150 0.01856946
v 0.06255620 -0.01277089 0.01856946
v 0.06270658 -0.01280140 0.01580345
v -0.06256699 -0.01016789 0.02130180
v -0.06210666 -0.01267910 0.02130180
v 0.00513750 -0.06363940 0.01856946
v 0.00769579 -0.06338095 0.01856946
v 0.00764054 -0.06292569 0.02130186
v 0.06256699 -0.01016789 0.02130180
v 0.06210666 -0.01267910 0.02130180
v -0.05855983 0.02220875 0.02396643
v -0.01498824 -0.06080979 0.02396649
v -0.02220875 -0.05855977 0.02396649
v -0.05293405 -0.03347343 0.02396649
v 0.06199121 -0.01527941 0.01856946
v 0.06136405 -0.01252734 0.02396649
v -0.01280146 -0.06270658 0.01580351
v -0.01026630 -0.06317120 0.01580351
v -0.00896865 -0.06320029 0.01856946
v -0.01763558 -0.06088513 0.02130186
v -0.01516968 -0.06154572 0.02130186
v -0.01527947 -0.06199121 0.01856946
v -0.01531600 -0.06214004 0.01580351
v 0.06379467 0.00257075 0.01856946
v 0.06363946 0.00513750 0.01856946
v 0.06318229 0.00510055 0.02130180
v 0.04945582 -0.04037940 0.01856946
v 0.04778975 -0.04233801 0.01856946
v 0.04790467 -0.04243963 0.01580351
v -0.06012552 -0.02007269 0.02130180
v -0.02269452 -0.05984079 0.01580351
v 0.05409198 -0.03420579 0.01580351
v 0.05542558 -0.03199976 0.01580351
v 0.05462735 -0.03302335 0.01856946
v -0.05726778 -0.02717369 0.02130180
v -0.02717369 -0.05726778 0.02130186
v -0.02502566 -0.05873727 0.01856946
v -0.02508586 -0.05887866 0.01580351
v 0.02945762 -0.05612713 0.02130186
v -0.02737051 -0.05768191 0.01856946
v -0.02743631 -0.05782061 0.01580351
v -0.02974224 -0.05666899 0.01580351
v -0.03387862 -0.05357474 0.02130186
v -0.03200000 -0.05542558 0.01580351
v -0.03600823 -0.05216699 0.02130186
v -0.04604607 -0.04422783 0.01856946
v -0.04571545 -0.04391026 0.02130186
v 0.03412359 -0.05396229 0.01856946
v 0.03169393 -0.05489546 0.02130186
v -0.03420579 -0.05409193 0.01580351
v -0.03807955 -0.05067491 0.02130186
v 0.04243963 -0.04790467 0.01580351
v 0.04233801 -0.04778975 0.01856946
v 0.04037940 -0.04945576 0.01856946
v -0.03626883 -0.05254459 0.01856946
v -0.03635615 -0.05267077 0.01580351
v 0.00514984 -0.06379246 0.01580351
v 0.00771433 -0.06353336 0.01580351
v -0.03835529 -0.05104160 0.01856946
v -0.03844738 -0.05116415 0.01580351
v -0.04008919 -0.04910033 0.02130186
v -0.04037940 -0.04945576 0.01856946
v -0.04047650 -0.04957467 0.01580351
v -0.04391032 -0.04571545 0.02130186
v -0.04203391 -0.04744637 0.02130186
v -0.04233801 -0.04778975 0.01856946
v -0.04243963 -0.04790467 0.01580351
v -0.04422783 -0.04604601 0.01856946
v -0.04615694 -0.04433435 0.01580351
v -0.04433435 -0.04615694 0.01580351
v -0.04790467 -0.04243963 0.01580351
v 0.05489546 -0.03169369 0.02130180
v -0.05067497 -0.03807955 0.02130186
v -0.04945582 -0.04037940 0.01856946
v -0.04957467 -0.04047650 0.01580351
v -0.05104160 -0.03835523 0.01856946
v -0.05216699 -0.03600817 0.02130180
v -0.05116415 -0.03844738 0.01580351
v -0.05357480 -0.03387862 0.02130180
v 0.06088519 0.01763558 0.02130180
v 0.06012552 0.02007269 0.02130180
v -0.05267077 -0.03635609 0.01580351
v -0.05325341 -0.03519624 0.01856946
v -0.05489546 -0.03169369 0.02130180
v -0.05409198 -0.03420579 0.01580351
v 0.05887866 -0.02508562 0.01580345
v 0.05984085 -0.02269452 0.01580345
v 0.05969732 -0.02264004 0.01856946
v -0.05612713 -0.02945762 0.02130180
v -0.05529248 -0.03192323 0.01856946
v -0.05542558 -0.03199976 0.01580351
v -0.05653303 -0.02967089 0.01856946
v -0.05666899 -0.02974224 0.01580351
v 0.05653303 -0.02967089 0.01856946
v 0.05612713 -0.02945762 0.02130180
v -0.05768191 -0.02737051 0.01856946
v -0.05831551 -0.02484571 0.02130180
v 0.03183078 -0.03183209 0.08605182
v -0.05782061 -0.02743631 0.01580345
v -0.05926865 -0.02247744 0.02130180
v -0.05873727 -0.02502566 0.01856946
v -0.05887866 -0.02508562 0.01580345
v -0.05969732 -0.02264004 0.01856946
v -0.05984085 -0.02269452 0.01580345
v -0.06088519 -0.01763558 0.02130180
v -0.06070613 -0.02026671 0.01580345
v -0.06056070 -0.02021813 0.01856946
v -0.06154572 -0.01516968 0.02130180
v -0.06132555 -0.01776301 0.01856946
v -0.06147313 -0.01780587 0.01580345
v -0.06199121 -0.01527941 0.01856946
v -0.06214010 -0.01531600 0.01580345
v 0.02342855 0.03844010 0.08604997
v 0.01966488 0.04048764 0.08605104
v -0.06255620 -0.01277089 0.01856946
v -0.06270658 -0.01280140 0.01580345
v -0.06301969 -0.01024150 0.01856946
v -0.06317120 -0.01026630 0.01580345
v -0.06318229 -0.00510055 0.02130180
v -0.06292569 -0.00764054 0.02130180
v -0.06338095 -0.00769579 0.01856946
v -0.06353336 -0.00771433 0.01580345
v 0.05104160 -0.03835523 0.01856946
v 0.05116415 -0.03844738 0.01580351
v 0.05267077 -0.03635609 0.01580351
v -0.06333643 -0.00255233 0.02130180
v -0.06363946 -0.00513744 0.01856946
v -0.06379246 -0.00514984 0.01580345
v -0.06338787 0.00000000 0.02130180
v -0.06394809 -0.00257695 0.01580345
v -0.06333643 0.00255233 0.02130180
v 0.06338787 -0.00000000 0.02130180
v -0.06379467 -0.00257075 0.01856946
v -0.06400001 0.00000000 0.01580345
v -0.06384646 0.00000000 0.01856946
v 0.06384646 -0.00000000 0.01856946
v 0.06400001 -0.00000000 0.01580345
v -0.06154572 0.01516968 0.02130180
v -0.06318229 0.00510055 0.02130180
v -0.04148185 0.01747483 0.08604907
v -0.06379467 0.00257075 0.01856946
v -0.06394809 0.00257695 0.01580345
v -0.06292569 0.00764054 0.02130180
v -0.06363946 0.00513750 0.01856946
v -0.06379246 0.00514984 0.01580345
v 0.05396229 0.03412359 0.01856940
v 0.05529248 0.03192323 0.01856940
v 0.05542558 0.03200000 0.01580345
v -0.06338095 0.00769579 0.01856946
v -0.06353336 0.00771433 0.01580345
v -0.06301969 0.01024150 0.01856940
v -0.06317120 0.01026630 0.01580345
v -0.06270658 0.01280146 0.01580345
v -0.06088519 0.01763558 0.02130180
v 0.02717369 -0.05726778 0.02130186
v -0.06012552 0.02007269 0.02130180
v -0.06147313 0.01780593 0.01580345
v -0.06132555 0.01776301 0.01856940
v -0.06070613 0.02026671 0.01580345
v -0.05887866 0.02508586 0.01580345
v -0.05612713 0.02945762 0.02130180
v 0.00553221 0.04467040 0.08605015
v -0.05653303 0.02967095 0.01856940
v 0.05768191 0.02737051 0.01856940
v 0.05653303 0.02967095 0.01856940
v 0.05612713 0.02945762 0.02130180
v -0.05542558 0.03200000 0.01580345
v 0.05831551 0.02484571 0.02130180
v -0.05216699 0.03600823 0.02130180
v -0.05396229 0.03412359 0.01856940
v -0.05409198 0.03420579 0.01580345
v -0.05254459 0.03626883 0.01856940
v 0.06214010 -0.01531600 0.01580345
v 0.00255233 -0.06333643 0.02130186
v -0.00000000 -0.06384646 0.01856946
v -0.00257695 -0.06394809 0.01580351
v -0.00764054 -0.06292569 0.02130186
v -0.00513750 -0.06363940 0.01856946
v -0.00514984 -0.06379246 0.01580351
v -0.02249979 -0.03897088 0.08605003
v -0.03537219 -0.02781707 0.08604997
v -0.00771433 -0.06353336 0.01580351
v 0.01267910 -0.06210660 0.02130186
v -0.05579555 0.03137207 0.00000000
v -0.05762481 0.02784526 0.00000000
v -0.05868268 0.02554059 0.00000000
v -0.06162726 0.01731109 0.00000000
v -0.06280797 0.01235955 0.00000000
v -0.06343370 0.00849468 0.00000000
v -0.06384259 0.00468159 -0.00000050
v -0.06401193 -0.00028367 0.00000000
v -0.06386482 -0.00415754 0.00000000
v -0.06352341 -0.00789827 0.00000000
v -0.06292098 -0.01170229 0.00000000
v -0.06240797 -0.01418572 0.00000000
v -0.06179702 -0.01664716 0.00000000
v -0.06070995 -0.02029228 0.00000000
v -0.05487602 -0.03293323 0.00000000
v -0.04976069 -0.04026407 0.00000000
v -0.04732000 -0.04309058 0.00000000
v -0.04557579 -0.04493135 0.00000000
v -0.04275888 -0.04763787 0.00000000
v -0.03884500 -0.05088043 0.00000000
v -0.03467547 -0.05380630 0.00000000
v -0.03019148 -0.05644589 0.00000000
v -0.02572244 -0.05861657 0.00000000
v -0.02234381 -0.05997294 0.00000000
v -0.01856791 -0.06126070 0.00000000
v -0.01507323 -0.06219959 0.00000000
v -0.01259750 -0.06274789 0.00000000
v -0.00864118 -0.06342566 0.00000000
v -0.00506681 -0.06379908 0.00000000
v -0.00126576 -0.06399506 0.00000000
v 0.00214112 -0.04494893 0.08605003
v -0.01789253 0.04130202 0.08604943
v -0.02061998 -0.03999733 0.08605003
v -0.01771891 -0.04137235 0.08605003
v 0.06379467 -0.00257075 0.01856946
v 0.04899007 -0.04118210 0.00000000
v 0.05132281 -0.03825378 0.00000000
v 0.04857629 0.04169076 0.00000000
v 0.03884112 -0.05088227 0.00000000
v 0.02702164 -0.05801576 0.00000000
v 0.05890929 -0.02504730 0.00000000
v 0.01995033 -0.06081098 0.00000000
v 0.01364123 -0.06254124 0.00000000
v 0.04241216 0.04792898 0.00000000
v 0.01010161 -0.06319773 0.00000000
v 0.06333518 -0.00920063 0.00000000
v -0.06005656 0.02215188 0.00000000
v 0.00759023 -0.06354826 0.00000000
v 0.00506681 -0.06379908 0.00000000
v 0.00253534 -0.06394976 0.00000000
v 0.06401193 -0.00028379 0.00000000
v 0.06390714 0.00344592 0.00000000
v -0.05209666 -0.03717434 0.00000000
v -0.05352830 -0.03508114 0.00000000
v -0.05312907 0.03570550 0.00000000
v -0.05673205 -0.02964776 0.00000000
v 0.06372046 0.00597501 0.00000000
v 0.06343370 0.00849468 0.00000000
v -0.05890929 -0.02504730 0.00000000
v 0.06280750 0.01236343 0.00000000
v 0.06162637 0.01731109 0.00000000
v 0.05444914 0.03366070 0.00000000
v 0.04744637 0.04203391 0.02130180
v 0.04778975 0.04233807 0.01856940
v 0.04604607 0.04422783 0.01856940
v 0.01026630 -0.06317120 0.01580351
v 0.01280146 -0.06270658 0.01580351
v 0.01531600 -0.06214004 0.01580351
v 0.01752567 -0.06155341 0.00000000
v 0.01780587 -0.06147313 0.01580351
v 0.02026671 -0.06070613 0.01580351
v 0.02336680 -0.05959415 0.00000000
v 0.02269452 -0.05984079 0.01580351
v 0.02508586 -0.05887866 0.01580351
v 0.02743631 -0.05782061 0.01580351
v 0.03029626 -0.05639261 0.00000000
v 0.02974224 -0.05666899 0.01580351
v 0.03200000 -0.05542558 0.01580351
v 0.03467547 -0.05380630 0.00000000
v 0.03420579 -0.05409193 0.01580351
v 0.03844738 -0.05116415 0.01580351
v 0.04047650 -0.04957467 0.01580351
v 0.04275888 -0.04763787 0.00000000
v 0.04433435 -0.04615694 0.01580351
v 0.04557579 -0.04493135 0.00000000
v 0.04615694 -0.04433435 0.01580351
v 0.04732000 -0.04309058 0.00000000
v 0.04957467 -0.04047650 0.01580351
v 0.05426013 -0.03396987 0.00000000
v 0.05673205 -0.02965164 0.00000000
v 0.05666899 -0.02974224 0.01580351
v 0.05782061 -0.02743631 0.01580345
v 0.06071084 -0.02029412 0.00000000
v 0.06070613 -0.02026671 0.01580345
v 0.06147313 -0.01780587 0.01580345
v 0.06179702 -0.01664716 0.00000000
v 0.06269526 -0.01291841 0.00000000
v 0.06317120 -0.01026630 0.01580345
v 0.06353336 -0.00771433 0.01580345
v 0.06378716 -0.00536770 0.00000000
v 0.06387025 -0.00386339 0.01580345
v 0.06394809 0.00257695 0.01580345
v 0.06379246 0.00514984 0.01580345
v 0.06353336 0.00771433 0.01580345
v 0.06317120 0.01026630 0.01580345
v 0.06270658 0.01280146 0.01580345
v 0.06214010 0.01531600 0.01580345
v 0.06070613 0.02026671 0.01580345
v 0.06005567 0.02215576 0.00000000
v 0.05887866 0.02508586 0.01580345
v 0.05816161 0.02674102 0.00000000
v 0.05782061 0.02743631 0.01580345
v 0.05666899 0.02974224 0.01580345
v 0.05647659 0.03010624 0.00000000
v 0.05409198 0.03420579 0.01580345
v 0.05267077 0.03635615 0.01580345
v 0.05166804 0.03778839 0.00000000
v 0.05116415 0.03844738 0.01580345
v 0.04957467 0.04047650 0.01580345
v 0.04790467 0.04243963 0.01580345
v 0.04615694 0.04433435 0.01580345
v 0.04503250 0.04548829 0.00000000
v 0.04433435 0.04615694 0.01580345
v 0.04008919 -0.04910033 0.02130186
v 0.04744637 -0.04203391 0.02130186
v 0.01146620 0.04352670 0.08604949
v 0.03192323 -0.05529248 0.01856946
v 0.02967095 -0.05653303 0.01856946
v 0.01277089 -0.06255614 0.01856946
v 0.01016795 -0.06256699 0.02130186
v 0.01527947 -0.06199121 0.01856946
v 0.01516968 -0.06154572 0.02130186
v 0.02484571 -0.05831551 0.02130186
v 0.02737051 -0.05768191 0.01856946
v 0.02502566 -0.05873727 0.01856946
v 0.02247744 -0.05926865 0.02130186
v 0.06154572 -0.01516968 0.02130180
v 0.02007269 -0.06012547 0.02130186
v 0.02264004 -0.05969727 0.01856946
v 0.02021813 -0.06056070 0.01856946
v 0.01763558 -0.06088513 0.02130186
v 0.01776301 -0.06132555 0.01856946
v 0.05926865 -0.02247744 0.02130180
v 0.05831551 -0.02484571 0.02130180
v -0.04488307 0.00339800 0.08604997
v 0.01024150 -0.06301969 0.01856946
v 0.04422783 0.04604607 0.01856940
v 0.00510055 -0.06318229 0.02130186
v 0.04203391 0.04744637 0.02130180
v 0.04571545 0.04391032 0.02130180
v 0.04391032 0.04571551 0.02130180
v 0.05067497 0.03807955 0.02130180
v 0.04203391 -0.04744637 0.02130186
v 0.04945582 0.04037940 0.01856940
v 0.05104160 0.03835529 0.01856940
v 0.05254459 0.03626883 0.01856940
v 0.05489546 0.03169393 0.02130180
v 0.05726778 0.02717369 0.02130180
v 0.05926865 0.02247744 0.02130180
v 0.03537219 -0.02781707 0.08604997
v 0.03400868 -0.02946865 0.08605003
v 0.06154572 0.01516968 0.02130180
v 0.06210666 0.01267910 0.02130180
v 0.06199121 0.01527947 0.01856940
v 0.06274634 0.00890428 0.02130180
v 0.06181854 0.01004648 0.02396649
v 0.06255620 0.01277095 0.01856940
v 0.06301969 0.01024150 0.01856940
v 0.06217288 0.00754917 0.02396649
v 0.06242644 0.00503951 0.02396649
v 0.06338095 0.00769579 0.01856946
v 0.06333643 0.00255233 0.02130180
v 0.06318229 -0.00510055 0.02130180
v 0.06292569 -0.00764054 0.02130180
v 0.06363946 -0.00513744 0.01856946
v 0.06338095 -0.00769579 0.01856946
v 0.06088519 -0.01763558 0.02130180
v 0.06012552 -0.02007269 0.02130180
v 0.06132555 -0.01776301 0.01856946
v 0.06056070 -0.02021813 0.01856946
v 0.05761808 -0.02454859 0.02396649
v 0.05726778 -0.02717369 0.02130180
v 0.05873727 -0.02502566 0.01856946
v 0.05768191 -0.02737051 0.01856946
v 0.05357480 -0.03387862 0.02130180
v 0.05216699 -0.03600817 0.02130180
v 0.05067497 -0.03807955 0.02130186
v 0.05254459 -0.03626883 0.01856946
v 0.04910033 -0.04008919 0.02130186
v -0.03727245 -0.02522468 0.08605116
v 0.04571545 -0.04391026 0.02130186
v 0.04391032 -0.04571545 0.02130186
v 0.04604607 -0.04422783 0.01856946
v 0.04422783 -0.04604601 0.01856946
v 0.04061025 -0.01941448 0.08604913
v 0.03013706 0.03343391 0.08605122
v 0.00534534 -0.04469770 0.08605003
v 0.01183128 -0.04342818 0.08605015
v 0.01471787 -0.04252493 0.08605003
v 0.01797538 -0.04126769 0.08604961
v 0.02173727 -0.03941458 0.08604818
v 0.02610254 -0.03665584 0.08605003
v 0.02874475 -0.03463411 0.08605146
v 0.03717041 -0.02538490 0.08605062
v 0.04224020 -0.01555025 0.08605003
v 0.04489296 -0.00320864 0.08604997
v 0.04500281 0.00088397 0.08604997
v 0.04469782 0.00534511 0.08604991
v 0.04223966 0.01555240 0.08605074
v 0.04093343 0.01869368 0.08604997
v 0.03733921 0.02512937 0.08604818
v 0.03537219 0.02781713 0.08604997
v 0.02781713 0.03537225 0.08604997
v 0.02610254 0.03665596 0.08604997
v 0.01573061 0.04217875 0.08605039
v 0.00851625 0.04418683 0.08604997
v 0.00214112 0.04494905 0.08604997
v 0.00851625 -0.04418671 0.08605003
v 0.04352641 -0.01146692 0.08605027
v 0.03400868 0.02946877 0.08604997
v 0.03256785 0.03105360 0.08604997
v -0.02610254 -0.03665584 0.08605003
v -0.04373151 0.01060909 0.08604997
v -0.04454195 0.00640422 0.08604997
v -0.01471787 0.04252505 0.08604997
v 0.04441988 -0.00729155 0.08604991
v -0.01142334 0.09900647 0.00360662
f 547 272 123
f 84 72 46
f 364 14 365
f 364 363 14
f 362 361 14
f 14 363 362
f 336 111 123
f 123 288 336
f 272 547 142
f 123 272 97
f 97 288 123
f 326 362 363
f 129 130 123
f 343 127 72
f 72 84 343
f 40 30 14
f 14 6 419
f 102 90 72
f 72 68 102
f 102 68 90
f 114 582 123
f 99 84 46
f 100 99 46
f 111 336 574
f 502 547 123
f 123 130 502
f 130 581 502
f 272 142 91
f 547 135 48
f 133 135 547
f 133 502 49
f 547 502 133
f 576 97 272
f 272 561 576
f 576 561 562
f 288 97 553
f 571 287 553
f 553 287 288
f 56 91 142
f 385 384 14
f 14 378 377
f 14 380 379
f 379 378 14
f 361 362 17
f 72 127 126
f 126 125 72
f 126 127 123
f 123 125 126
f 124 68 72
f 72 125 124
f 123 68 124
f 124 125 123
f 123 127 128
f 128 129 123
f 335 129 128
f 64 129 335
f 3 401 54
f 9 401 8
f 4 401 3
f 11 1 24
f 24 1 21
f 6 21 105
f 14 466 418
f 418 417 14
f 123 582 389
f 389 122 123
f 123 111 112
f 582 114 115
f 22 40 14
f 40 22 44
f 44 22 100
f 361 333 404
f 14 361 404
f 404 360 14
f 572 336 288
f 328 580 130
f 312 580 328
f 328 143 332
f 16 328 332
f 312 328 16
f 272 91 92
f 136 135 50
f 136 48 135
f 571 553 570
f 569 553 97
f 566 564 565
f 97 564 566
f 566 567 97
f 342 567 566
f 407 387 14
f 93 348 388
f 14 387 386
f 386 385 14
f 385 386 356
f 381 380 14
f 14 382 381
f 14 384 383
f 383 382 14
f 376 375 14
f 14 377 376
f 332 143 331
f 331 143 333
f 331 16 332
f 17 16 331
f 331 333 361
f 361 17 331
f 14 368 367
f 14 416 371
f 305 502 313
f 49 502 305
f 50 135 204
f 204 274 50
f 185 74 130
f 129 64 314
f 130 129 314
f 64 75 314
f 314 185 130
f 74 185 314
f 314 75 74
f 127 343 174
f 174 128 127
f 100 22 412
f 346 343 84
f 84 344 346
f 346 174 343
f 344 174 346
f 30 40 39
f 46 72 85
f 72 90 85
f 51 287 571
f 51 87 287
f 571 570 51
f 288 287 66
f 287 87 66
f 480 478 479
f 479 478 395
f 18 19 479
f 395 6 479
f 401 4 479
f 508 504 53
f 71 51 53
f 2 401 9
f 2 1 401
f 9 105 2
f 2 105 1
f 7 54 401
f 7 1 11
f 401 1 7
f 11 24 12
f 13 20 3
f 3 54 13
f 54 7 13
f 13 7 11
f 11 12 13
f 101 8 401
f 101 479 6
f 401 479 101
f 6 105 101
f 3 20 5
f 5 4 3
f 23 24 21
f 14 30 23
f 23 6 14
f 23 21 6
f 21 1 106
f 106 105 21
f 1 105 106
f 468 467 466
f 468 466 14
f 408 14 409
f 14 414 409
f 14 417 415
f 415 414 14
f 113 114 123
f 123 112 113
f 582 115 110
f 110 389 582
f 110 115 114
f 122 389 110
f 114 113 110
f 123 122 110
f 110 113 112
f 110 68 123
f 90 68 110
f 110 112 111
f 111 574 110
f 110 574 336
f 110 66 90
f 483 572 110
f 288 66 110
f 110 572 288
f 336 572 573
f 573 572 483
f 573 110 336
f 483 110 573
f 130 74 330
f 330 328 130
f 74 143 330
f 143 328 330
f 327 16 17
f 362 326 327
f 327 17 362
f 581 55 317
f 313 502 317
f 317 502 581
f 317 55 325
f 171 580 312
f 147 348 93
f 263 48 209
f 48 136 209
f 294 178 133
f 562 561 145
f 145 552 562
f 269 552 145
f 97 576 563
f 563 564 97
f 568 569 97
f 508 553 578
f 578 507 508
f 132 566 565
f 408 458 457
f 457 14 408
f 457 403 14
f 562 552 538
f 557 558 151
f 560 510 272
f 560 151 559
f 555 556 560
f 560 556 557
f 557 151 560
f 560 554 555
f 388 554 560
f 93 388 560
f 560 92 93
f 272 92 560
f 549 548 272
f 272 510 549
f 549 550 548
f 348 147 349
f 350 386 387
f 230 377 378
f 57 56 142
f 142 195 57
f 186 195 142
f 365 14 366
f 14 367 366
f 367 302 366
f 14 371 370
f 370 371 284
f 292 367 368
f 304 302 301
f 365 366 304
f 304 366 302
f 363 364 324
f 364 319 324
f 324 326 363
f 324 325 326
f 316 364 365
f 316 319 364
f 278 371 416
f 416 276 278
f 14 375 374
f 374 373 14
f 410 411 14
f 14 373 410
f 73 143 74
f 172 174 344
f 335 128 173
f 128 174 173
f 174 172 173
f 99 100 98
f 98 412 99
f 100 412 98
f 84 99 345
f 99 412 345
f 345 344 84
f 14 360 359
f 40 44 584
f 20 39 35
f 35 39 40
f 395 476 474
f 474 6 395
f 474 419 6
f 62 568 97
f 97 514 62
f 467 468 469
f 46 85 47
f 47 85 80
f 86 85 90
f 80 85 86
f 511 476 421
f 18 28 29
f 29 19 18
f 29 28 41
f 41 42 29
f 67 19 70
f 67 479 19
f 480 479 67
f 67 504 480
f 67 70 504
f 504 70 69
f 69 53 504
f 69 70 71
f 71 53 69
f 506 553 508
f 508 53 506
f 26 12 24
f 26 13 12
f 8 101 104
f 104 101 105
f 9 8 104
f 104 105 9
f 25 5 20
f 20 35 25
f 25 28 18
f 414 415 461
f 580 171 131
f 131 581 130
f 130 580 131
f 131 55 581
f 131 171 55
f 312 16 15
f 15 171 312
f 16 327 15
f 325 55 15
f 55 171 15
f 326 325 15
f 15 327 326
f 271 209 136
f 50 274 271
f 271 136 50
f 279 204 135
f 553 569 577
f 577 578 553
f 569 146 577
f 96 566 89
f 566 132 89
f 89 132 520
f 89 254 96
f 565 564 527
f 565 526 522
f 342 566 516
f 255 566 96
f 96 254 255
f 255 516 566
f 529 564 306
f 177 455 176
f 393 444 14
f 14 394 393
f 539 552 269
f 440 396 14
f 14 396 436
f 396 154 436
f 402 400 424
f 14 400 402
f 428 427 399
f 555 554 575
f 348 349 158
f 489 498 555
f 555 575 489
f 489 575 357
f 490 557 493
f 557 556 493
f 495 556 555
f 555 498 495
f 495 493 556
f 544 543 561
f 297 544 201
f 201 544 546
f 108 349 147
f 108 147 93
f 93 92 108
f 353 356 386
f 386 350 353
f 231 158 157
f 157 158 349
f 384 385 192
f 385 356 192
f 191 383 384
f 191 197 383
f 384 192 191
f 378 379 218
f 237 376 377
f 141 186 142
f 194 195 141
f 195 186 141
f 369 368 14
f 14 370 369
f 289 179 178
f 301 302 296
f 296 302 367
f 367 292 296
f 307 304 301
f 301 300 307
f 318 324 319
f 319 316 318
f 316 315 318
f 313 317 318
f 318 305 313
f 318 315 305
f 365 304 308
f 308 316 365
f 308 307 309
f 304 307 308
f 309 315 308
f 308 315 316
f 303 315 309
f 305 315 303
f 309 307 303
f 303 307 300
f 49 305 303
f 303 300 49
f 301 294 293
f 293 300 301
f 293 294 133
f 293 133 49
f 49 300 293
f 284 371 280
f 371 278 280
f 413 416 14
f 263 209 270
f 267 413 265
f 360 404 334
f 74 75 65
f 65 73 74
f 65 75 64
f 65 334 73
f 358 345 412
f 358 359 59
f 358 412 22
f 358 22 14
f 14 359 358
f 83 47 80
f 46 47 83
f 46 45 103
f 103 584 44
f 103 100 46
f 103 44 100
f 419 474 473
f 340 514 97
f 512 476 511
f 14 419 471
f 471 468 14
f 90 66 94
f 422 421 478
f 507 421 422
f 422 504 508
f 508 507 422
f 477 421 476
f 478 421 477
f 477 476 395
f 395 478 477
f 420 421 507
f 420 577 146
f 420 146 511
f 511 421 420
f 507 578 420
f 578 577 420
f 38 29 42
f 38 42 45
f 38 45 46
f 46 83 38
f 81 51 71
f 80 79 81
f 81 83 80
f 81 38 83
f 70 19 37
f 71 70 37
f 37 81 71
f 38 81 37
f 553 506 52
f 52 506 53
f 52 570 553
f 52 53 51
f 52 51 570
f 30 39 34
f 24 23 33
f 33 26 24
f 33 34 26
f 33 23 30
f 30 34 33
f 20 13 27
f 13 26 27
f 27 39 20
f 27 34 39
f 26 34 27
f 28 25 32
f 32 25 35
f 584 31 32
f 40 584 32
f 32 35 40
f 41 28 32
f 32 31 41
f 10 25 18
f 5 25 10
f 4 5 10
f 18 479 10
f 10 479 4
f 460 409 414
f 414 461 460
f 282 279 135
f 179 289 282
f 178 179 134
f 179 282 134
f 133 178 134
f 134 282 135
f 135 133 134
f 519 89 520
f 254 89 519
f 520 522 525
f 520 132 523
f 523 522 520
f 523 132 565
f 565 522 523
f 516 255 168
f 168 255 254
f 417 418 464
f 418 170 464
f 563 530 167
f 564 563 167
f 167 306 564
f 176 183 184
f 456 457 458
f 403 457 456
f 456 455 403
f 531 530 563
f 176 455 175
f 175 183 176
f 455 456 175
f 175 456 533
f 175 531 183
f 533 531 175
f 269 145 246
f 446 394 14
f 446 299 394
f 396 440 439
f 14 444 442
f 442 440 14
f 433 397 14
f 14 436 433
f 435 434 433
f 433 436 435
f 435 436 437
f 437 436 154
f 231 157 406
f 406 157 407
f 406 407 14
f 497 427 428
f 497 495 498
f 493 495 497
f 426 400 14
f 14 399 426
f 426 399 427
f 554 182 487
f 487 575 554
f 357 575 487
f 182 503 487
f 348 158 505
f 505 388 348
f 505 182 554
f 505 554 388
f 423 503 232
f 423 402 424
f 423 232 402
f 181 503 182
f 231 232 181
f 232 503 181
f 357 487 486
f 486 487 503
f 486 423 424
f 503 423 486
f 152 439 228
f 485 434 435
f 559 151 95
f 151 159 95
f 546 518 482
f 482 201 546
f 272 548 482
f 482 518 272
f 517 544 561
f 517 561 272
f 272 518 517
f 517 518 546
f 546 544 517
f 394 299 298
f 298 299 297
f 444 393 203
f 91 56 351
f 109 108 92
f 109 92 91
f 91 351 109
f 349 350 156
f 156 157 349
f 156 350 387
f 387 407 156
f 407 157 156
f 196 57 195
f 197 191 196
f 196 195 194
f 224 230 378
f 378 218 224
f 215 379 380
f 377 230 234
f 234 237 377
f 375 376 244
f 391 141 142
f 391 142 547
f 547 390 391
f 355 138 547
f 178 294 291
f 291 289 178
f 292 289 291
f 291 296 292
f 286 370 284
f 286 369 370
f 325 324 323
f 324 318 323
f 323 317 325
f 323 318 317
f 281 280 278
f 283 284 281
f 284 280 281
f 274 204 281
f 281 279 283
f 204 279 281
f 273 413 267
f 273 270 276
f 267 270 273
f 273 276 416
f 416 413 273
f 209 271 275
f 275 270 209
f 275 271 274
f 276 270 275
f 372 265 413
f 14 411 372
f 372 413 14
f 266 270 267
f 263 270 266
f 73 334 144
f 333 143 144
f 143 73 144
f 144 404 333
f 144 334 404
f 59 359 60
f 60 359 360
f 360 334 60
f 337 64 335
f 335 173 337
f 337 173 172
f 341 358 59
f 345 358 341
f 59 337 341
f 341 337 172
f 341 172 344
f 344 345 341
f 43 31 584
f 43 103 45
f 584 103 43
f 41 31 43
f 43 42 41
f 45 42 43
f 475 474 476
f 475 473 474
f 476 512 475
f 475 512 473
f 419 473 472
f 515 340 97
f 97 567 515
f 515 567 342
f 320 62 321
f 321 62 514
f 513 62 320
f 473 512 513
f 320 472 513
f 513 472 473
f 509 513 512
f 511 146 509
f 509 512 511
f 509 146 569
f 569 568 509
f 88 66 87
f 19 29 36
f 36 37 19
f 29 38 36
f 38 37 36
f 408 409 459
f 409 460 459
f 285 282 289
f 283 279 285
f 279 282 285
f 285 284 283
f 285 286 284
f 199 460 461
f 199 459 460
f 524 519 520
f 520 525 524
f 465 168 170
f 465 418 466
f 465 170 418
f 342 516 119
f 119 515 342
f 462 415 417
f 462 461 415
f 462 525 461
f 462 524 525
f 532 167 530
f 530 531 532
f 532 531 533
f 532 456 458
f 533 456 532
f 583 563 576
f 583 531 563
f 183 531 583
f 583 184 183
f 576 534 494
f 494 184 576
f 176 184 494
f 14 403 454
f 454 453 14
f 403 455 454
f 455 177 454
f 450 261 398
f 450 398 14
f 14 453 450
f 452 450 453
f 297 299 545
f 545 544 297
f 543 544 545
f 207 446 447
f 14 398 447
f 447 446 14
f 206 446 207
f 299 446 206
f 206 545 299
f 432 431 397
f 397 433 432
f 432 433 434
f 430 497 428
f 438 154 396
f 396 439 438
f 438 152 154
f 439 152 438
f 440 442 441
f 405 232 231
f 231 406 405
f 402 232 405
f 14 402 405
f 405 406 14
f 493 497 496
f 496 430 431
f 497 430 496
f 182 505 180
f 180 181 182
f 180 505 158
f 180 158 231
f 231 181 180
f 424 400 425
f 400 426 425
f 425 426 427
f 488 425 427
f 488 486 424
f 424 425 488
f 498 489 488
f 488 489 357
f 357 486 488
f 155 152 228
f 559 95 155
f 155 560 559
f 435 437 222
f 329 557 490
f 329 558 557
f 201 482 202
f 548 550 202
f 202 482 548
f 297 201 445
f 445 298 297
f 201 202 445
f 445 202 203
f 445 203 393
f 445 393 394
f 394 298 445
f 193 192 356
f 193 351 56
f 356 353 352
f 352 193 356
f 352 109 351
f 351 193 352
f 148 224 218
f 216 218 379
f 379 215 216
f 380 381 205
f 210 391 390
f 237 234 233
f 233 234 230
f 376 237 241
f 241 244 376
f 243 374 375
f 375 244 243
f 547 138 139
f 139 579 547
f 140 579 219
f 547 579 140
f 138 355 137
f 295 294 301
f 295 291 294
f 301 296 295
f 296 291 295
f 290 289 292
f 290 292 368
f 290 285 289
f 286 285 290
f 368 369 290
f 369 286 290
f 277 281 278
f 277 278 276
f 276 275 277
f 274 281 277
f 277 275 274
f 61 65 64
f 64 337 61
f 334 65 61
f 61 60 334
f 59 60 61
f 61 337 59
f 322 472 320
f 320 321 322
f 322 471 419
f 419 472 322
f 340 515 339
f 514 340 339
f 339 321 514
f 339 322 321
f 62 513 63
f 513 509 63
f 568 62 63
f 63 509 568
f 82 94 66
f 66 88 82
f 82 79 80
f 82 88 87
f 80 86 82
f 87 51 82
f 82 86 90
f 90 94 82
f 51 81 82
f 82 81 79
f 311 458 408
f 408 459 311
f 529 199 200
f 200 564 529
f 200 527 564
f 200 522 526
f 200 526 565
f 565 527 200
f 528 525 522
f 522 200 528
f 528 200 199
f 461 525 528
f 528 199 461
f 459 199 198
f 310 311 198
f 198 311 459
f 198 199 529
f 529 306 198
f 306 310 198
f 254 519 521
f 519 524 521
f 521 464 170
f 168 465 121
f 466 467 121
f 121 465 466
f 516 168 120
f 120 119 516
f 168 121 120
f 467 119 120
f 120 121 467
f 524 462 463
f 464 521 463
f 463 521 524
f 417 464 463
f 463 462 417
f 167 532 392
f 306 167 392
f 392 310 306
f 392 532 458
f 458 311 392
f 392 311 310
f 576 184 190
f 190 583 576
f 184 583 190
f 262 500 540
f 347 452 453
f 347 454 177
f 453 454 347
f 261 450 451
f 450 452 451
f 543 545 542
f 561 543 542
f 542 246 145
f 542 145 561
f 208 206 207
f 545 206 208
f 246 542 208
f 208 542 545
f 431 432 491
f 434 485 491
f 491 432 434
f 485 329 491
f 428 399 429
f 429 430 428
f 14 397 429
f 429 399 14
f 397 431 429
f 431 430 429
f 226 439 440
f 440 441 226
f 551 441 550
f 550 549 551
f 443 441 442
f 443 442 444
f 444 203 443
f 550 441 443
f 443 202 550
f 203 202 443
f 427 497 499
f 499 488 427
f 499 497 498
f 498 488 499
f 560 155 481
f 510 560 481
f 228 510 481
f 481 155 228
f 484 485 435
f 435 222 484
f 153 95 159
f 159 222 153
f 152 155 153
f 153 155 95
f 154 152 153
f 153 437 154
f 153 222 437
f 485 484 223
f 223 222 159
f 223 484 222
f 223 159 151
f 223 151 558
f 57 196 58
f 56 57 58
f 58 193 56
f 58 196 191
f 58 191 192
f 192 193 58
f 107 350 349
f 349 108 107
f 107 353 350
f 107 352 353
f 108 109 107
f 109 352 107
f 230 224 229
f 224 148 229
f 229 233 230
f 212 215 380
f 380 205 212
f 116 381 382
f 116 205 381
f 141 391 187
f 244 241 240
f 240 241 237
f 373 374 245
f 374 243 245
f 515 119 338
f 338 339 515
f 467 469 338
f 338 119 467
f 322 339 470
f 471 322 470
f 470 338 469
f 339 338 470
f 470 469 468
f 468 471 470
f 169 168 254
f 254 521 169
f 170 168 169
f 169 521 170
f 562 500 535
f 535 576 562
f 535 534 576
f 562 538 501
f 501 500 562
f 501 538 552
f 552 539 501
f 539 540 501
f 501 540 500
f 261 262 260
f 262 540 260
f 398 261 260
f 189 494 534
f 534 536 189
f 176 494 189
f 189 177 176
f 189 347 177
f 452 347 189
f 189 536 452
f 492 496 431
f 431 491 492
f 490 493 492
f 493 496 492
f 492 329 490
f 492 491 329
f 227 226 441
f 441 551 227
f 228 439 227
f 439 226 227
f 227 510 228
f 227 549 510
f 227 551 549
f 213 329 485
f 485 223 213
f 558 329 213
f 213 223 558
f 76 212 205
f 117 116 382
f 382 383 117
f 383 197 117
f 197 196 117
f 166 210 390
f 354 390 547
f 547 140 354
f 354 166 390
f 150 166 354
f 237 233 236
f 236 240 237
f 244 240 242
f 252 410 373
f 537 500 262
f 537 535 500
f 537 536 534
f 534 535 537
f 537 262 261
f 261 451 537
f 537 451 452
f 452 536 537
f 449 447 398
f 398 260 449
f 212 76 211
f 141 187 77
f 77 211 76
f 77 187 391
f 118 117 196
f 118 196 194
f 150 354 217
f 217 354 140
f 217 140 219
f 148 150 217
f 219 229 217
f 217 229 148
f 225 236 233
f 225 229 219
f 233 229 225
f 219 579 225
f 579 139 225
f 240 236 239
f 373 245 249
f 249 252 373
f 411 410 256
f 410 252 256
f 207 447 448
f 447 449 448
f 541 260 540
f 541 449 260
f 541 448 449
f 541 539 269
f 541 540 539
f 210 166 165
f 218 216 165
f 165 166 150
f 78 77 391
f 391 210 78
f 210 211 78
f 211 77 78
f 116 117 160
f 117 118 160
f 205 116 160
f 160 76 205
f 160 77 76
f 160 118 194
f 236 225 235
f 235 239 236
f 235 225 139
f 138 239 235
f 235 139 138
f 162 249 245
f 162 245 243
f 411 256 259
f 259 372 411
f 265 372 259
f 448 541 268
f 268 208 207
f 207 448 268
f 268 541 269
f 269 246 268
f 246 208 268
f 214 211 210
f 210 165 214
f 215 212 214
f 212 211 214
f 214 216 215
f 214 165 216
f 149 150 148
f 149 165 150
f 149 148 218
f 218 165 149
f 161 160 194
f 77 160 161
f 194 141 161
f 141 77 161
f 252 249 250
f 250 256 252
f 265 259 264
f 267 265 264
f 264 266 267
f 263 266 264
f 220 162 243
f 220 243 244
f 244 242 220
f 249 162 248
f 248 250 249
f 257 264 259
f 257 259 256
f 256 250 257
f 162 220 221
f 138 137 221
f 250 248 247
f 247 355 547
f 163 248 162
f 162 221 163
f 163 221 137
f 238 220 242
f 238 221 220
f 238 242 240
f 240 239 238
f 238 239 138
f 138 221 238
f 264 257 253
f 251 257 250
f 250 247 251
f 251 253 257
f 251 247 547
f 547 253 251
f 164 247 248
f 248 163 164
f 355 247 164
f 164 137 355
f 164 163 137
f 263 264 258
f 264 253 258
f 258 48 263
f 258 253 48
f 547 48 188
f 188 253 547
f 48 253 188
f 422 478 480
f 480 504 422

