# https://github.com/mikedh/trimesh
v -0.03442025 0.00651544 0.07816061
v -0.03297775 0.01179504 0.07816066
v -0.00490046 0.03472304 0.07816066
v 0.00294751 0.03494310 0.07816066
v -0.03506106 -0.00032854 0.07816066
v -0.01135230 0.03313732 0.07816066
v -0.03019881 -0.01781654 0.07816055
v -0.02361083 0.02592653 0.07816066
v -0.02953696 0.01900291 0.07816061
v -0.02061057 -0.02832031 0.07816066
v 0.00889468 -0.03643178 0.06946262
v 0.02217030 -0.03009128 0.06964268
v 0.01855492 -0.03255081 0.06954845
v 0.02683186 -0.02606773 0.06959744
v 0.02599161 -0.02711480 0.06895777
v 0.02945542 -0.02323341 0.06935485
v 0.03218555 -0.01924717 0.06919970
v 0.03442209 -0.01457977 0.06957926
v 0.03620260 -0.01001828 0.06917830
v 0.03718298 -0.00499058 0.06932761
v -0.00257707 -0.03695297 0.05436190
v -0.03310745 -0.01809757 0.00225994
v -0.02268767 -0.01671266 0.00410864
v -0.02449584 -0.01956129 0.00554732
v -0.03962987 -0.01538676 -0.00021002
v -0.03258484 -0.01334953 -0.00035950
v -0.01643252 -0.03092205 0.02356216
v -0.00572753 -0.02979665 0.02565744
v -0.00516099 -0.03227925 0.03123584
v -0.03125017 -0.02223539 0.00604865
v -0.01978278 -0.02258127 0.00964901
v -0.00673300 -0.03519469 0.04113438
v -0.01647251 -0.03256011 0.02822789
v -0.00505423 -0.03418546 0.03716632
v -0.02377861 -0.02573984 0.01209620
v -0.01345801 -0.02297592 0.01257113
v -0.01252913 -0.02632075 0.01683787
v -0.03961449 -0.01229679 -0.00170597
v 0.03743553 -0.00261778 0.06514420
v 0.03717809 -0.00169027 0.06090089
v 0.03720086 0.00179750 0.05993911
v 0.03691524 -0.00593489 0.06268182
v 0.03623312 -0.00790215 0.05895200
v 0.03556323 -0.00585747 0.05312695
v 0.03647923 0.00183010 0.05557033
v 0.03527665 -0.00042725 0.05073704
v 0.03506112 -0.01317971 0.06183597
v 0.03370118 0.00193685 0.04634639
v 0.03449642 -0.01011991 0.05346467
v 0.03154397 -0.00688267 0.04318394
v 0.03119492 -0.00388479 0.04168483
v -0.01529091 -0.02878803 0.01954910
v 0.03377366 -0.01461601 0.05668606
v 0.02951073 0.00219154 0.03852626
v 0.03322565 -0.01691883 0.06117555
v 0.03184145 -0.01548665 0.05092784
v 0.03383272 -0.01634591 0.06920590
v 0.03091830 -0.02108192 0.06174084
v 0.03077721 -0.01188939 0.04445042
v 0.02721810 -0.00445938 0.03578349
v 0.02506661 0.00096893 0.03236553
v 0.02995872 -0.02243947 0.06394454
v 0.03068178 -0.01992791 0.05551311
v 0.02671831 -0.01283735 0.03825536
v 0.02861863 -0.01092761 0.04019358
v 0.02864098 -0.01645272 0.04421302
v 0.02336519 -0.00648683 0.03114482
v 0.02013802 -0.00103539 0.02651378
v -0.03394001 -0.02510923 0.00877449
v 0.02580505 -0.01034605 0.03579595
v 0.02654290 -0.02626419 0.06079163
v 0.02823656 -0.02283096 0.05394622
v 0.01736855 -0.00695795 0.02464458
v -0.02591484 -0.02806270 0.01504728
v 0.02750802 -0.02037811 0.04724666
v 0.02276277 -0.02980244 0.06776865
v 0.02173370 -0.01051706 0.03078523
v 0.01419907 -0.00496978 0.02124658
v 0.01395815 0.00298309 0.02061626
v 0.02587151 -0.02539062 0.05378314
v 0.00977731 -0.00472450 0.01739666
v 0.00783181 -0.00029421 0.01533297
v 0.02553445 -0.01880991 0.04161294
v 0.02041208 -0.01115047 0.02951553
v 0.02259653 -0.02970695 0.06065532
v 0.02208352 -0.01835823 0.03614971
v 0.02493262 -0.02410721 0.04843428
v 0.02431893 -0.02231216 0.04399647
v 0.02020537 -0.01397442 0.03076294
v 0.01931542 -0.01505857 0.03046909
v 0.01373696 -0.01077836 0.02240154
v 0.02151894 -0.02264595 0.04002162
v 0.01902115 -0.01392376 0.02940002
v 0.02102303 -0.02662175 0.04564442
v 0.02076929 -0.02928441 0.05175563
v 0.01826882 -0.03269284 0.06315579
v 0.01196396 -0.00945514 0.02040019
v 0.00333810 -0.00459290 0.01242229
v 0.01352715 -0.03500121 0.06527104
v 0.01344650 -0.03486466 0.06965264
v 0.01855570 -0.01871943 0.03237184
v 0.00159854 0.00021172 0.01085064
v 0.01369643 -0.01480031 0.02451011
v 0.00523400 -0.01072877 0.01529864
v -0.03196811 -0.02964133 0.01710168
v 0.01980626 -0.02505344 0.04120424
v 0.01489681 -0.01819586 0.02807589
v -0.03677207 -0.02749443 0.01204279
v 0.01763361 -0.03248780 0.05738415
v -0.00312394 -0.00477409 0.00833294
v 0.02029055 -0.02603840 0.04344334
v 0.01581972 -0.02358627 0.03410503
v 0.01209199 -0.01472961 0.02299192
v -0.00154465 -0.00893402 0.01014879
v 0.01651406 -0.02144902 0.03266474
v -0.00587058 -0.00089073 0.00636462
v 0.01546120 -0.02137571 0.03144857
v 0.01793801 -0.02536779 0.03917255
v 0.00872064 -0.03638535 0.06131186
v 0.01277947 -0.03503513 0.06005301
v 0.01612871 -0.03239911 0.05258533
v 0.01153510 -0.01922392 0.02563676
v 0.01560235 -0.02906411 0.04224362
v 0.00741220 -0.01726239 0.02031108
v 0.00323892 -0.01413911 0.01555041
v -0.01057785 -0.00453657 0.00431994
v -0.01025748 0.00211906 0.00424358
v 0.01380181 -0.03206914 0.04734673
v 0.01499581 -0.02495956 0.03482982
v 0.01033926 -0.02102172 0.02610173
v 0.01184099 -0.03460073 0.05437919
v 0.00441235 -0.03723621 0.06949188
v 0.00599307 -0.02059173 0.02209255
v 0.00001225 -0.01421350 0.01345518
v -0.01755881 -0.00338548 0.00126246
v -0.01786392 0.00243837 0.00098971
v 0.01231020 -0.03157275 0.04403468
v 0.00346738 -0.03712731 0.05869146
v 0.00858057 -0.02412503 0.02776660
v 0.00971627 -0.03438115 0.04958977
v 0.01240402 -0.02884620 0.03839942
v 0.01010066 -0.02841794 0.03520152
v -0.01126456 -0.00931549 0.00521258
v -0.00707603 -0.01319313 0.00866100
v -0.00064445 -0.01735115 0.01487133
v 0.00751895 -0.02513659 0.02785656
v 0.00652814 -0.03610420 0.05403205
v -0.01782584 -0.00722075 0.00188038
v -0.02464270 -0.00171125 -0.00130108
v 0.00583160 -0.02199798 0.02327659
v 0.00540566 -0.03354388 0.04195949
v -0.00045344 -0.03744864 0.06263664
v -0.00035867 -0.03748655 0.06956120
v -0.02447867 -0.00524831 -0.00085279
v -0.00058630 -0.01968872 0.01660565
v 0.00515962 -0.03108549 0.03553554
v 0.00223637 -0.02405732 0.02266094
v -0.00960898 -0.01852512 0.01051501
v -0.00228810 -0.02052402 0.01622668
v 0.00399923 -0.02803993 0.02924397
v -0.01233732 -0.01377934 0.00650230
v -0.03215759 -0.00427151 -0.00297502
v -0.03451126 0.00078970 -0.00370142
v -0.01843619 -0.01266098 0.00342533
v 0.00251740 -0.03537029 0.04591819
v 0.00266904 -0.02754467 0.02747977
v -0.02502036 -0.00923902 -0.00004032
v -0.00496262 -0.02397251 0.01770946
v -0.03935664 -0.00445318 -0.00390056
v -0.00281876 -0.02607107 0.02159860
v -0.00840729 -0.02167230 0.01382038
v -0.01301044 -0.01680767 0.00785867
v -0.00077254 -0.03624165 0.04862269
v -0.02534842 -0.01345008 0.00155422
v -0.00005138 -0.03037667 0.03031966
v -0.03259921 -0.00936299 -0.00190857
v -0.01685684 -0.01948922 0.00795290
v -0.03952103 -0.00922340 -0.00283179
v -0.00568807 -0.02711546 0.02144196
v 0.02684140 0.02607148 0.06963875
v 0.03734833 0.00334811 0.06958940
v 0.01020830 0.03608036 0.06373515
v 0.00594634 0.03698325 0.06158938
v 0.00624788 0.02721852 0.02980735
v -0.00067496 0.02820587 0.02586534
v 0.00583291 0.02992886 0.03405544
v 0.03725332 0.00408745 0.06276669
v 0.03574681 0.01103585 0.06173672
v 0.03651177 0.00832868 0.06470176
v 0.02617484 0.01760149 0.04138907
v 0.02577233 0.02088165 0.04439320
v 0.02929925 0.01698851 0.04662575
v 0.03527474 0.01088517 0.05764552
v 0.02340734 0.01890188 0.03868022
v 0.01983368 0.02012473 0.03520074
v 0.02228188 0.02138519 0.03960957
v 0.00581759 0.02610397 0.02789470
v 0.03493326 0.00711054 0.05198070
v 0.03386133 0.01406860 0.05594798
v 0.03267884 0.01284790 0.04995509
v 0.03023141 0.01703989 0.04901542
v 0.02778649 0.01544952 0.04184886
v -0.02390336 0.03119975 0.02267035
v -0.01055490 0.03413736 0.03542980
v -0.01392722 0.03238552 0.02831146
v 0.03026223 0.01202386 0.04377147
v 0.01703542 0.02089726 0.03267279
v 0.02100777 0.02415841 0.04150929
v 0.01549935 0.02193069 0.03201458
v 0.03608626 0.00563878 0.05594226
v 0.01088911 0.02767401 0.03475883
v 0.01332491 0.02243036 0.03006908
v -0.00116956 0.03711813 0.05592861
v 0.00129241 0.03744316 0.06272664
v -0.01334160 0.03060036 0.02379778
v -0.00398803 0.02928185 0.02576896
v -0.00342917 0.03174489 0.03116390
v 0.02237701 0.01663345 0.03527358
v 0.03335309 0.00823814 0.04828342
v -0.00210023 0.02644866 0.02270999
v 0.01894360 0.01792412 0.03216847
v 0.02445697 0.01441490 0.03636935
v 0.00305623 0.03654527 0.05294343
v 0.00365853 0.02374988 0.02328655
v 0.03092592 0.00689697 0.04210063
v -0.02549958 0.02959460 0.01813742
v 0.02736365 0.01088649 0.03829809
v 0.02548623 0.01203531 0.03596660
v 0.01817542 0.01717394 0.03066220
v -0.00553989 0.03613102 0.04712316
v -0.01233249 0.02831137 0.01998391
v -0.00697678 0.02627134 0.01956340
v 0.01901859 0.01531910 0.03030327
v 0.00941968 0.03583663 0.05746116
v 0.01486223 0.03431320 0.06144091
v 0.00793099 0.01970672 0.02284404
v 0.02817934 0.00744432 0.03770222
v -0.02274101 0.02748304 0.01478645
v 0.01333492 0.01579838 0.02476927
v -0.00270188 0.02275896 0.01801976
v 0.01968407 0.03189468 0.06375667
v 0.01995873 0.03173160 0.06950977
v -0.01295059 0.02528834 0.01543209
v 0.01131963 0.01680833 0.02358743
v -0.00484920 0.02308732 0.01710627
v 0.00219369 0.01829433 0.01726696
v 0.02125185 0.00997949 0.02980199
v -0.00106949 0.03591310 0.04644032
v 0.00761056 0.01530259 0.01947948
v 0.01292055 0.01419544 0.02327129
v 0.02455401 0.00544626 0.03251823
v 0.00968856 0.01304250 0.02001771
v 0.00710028 0.03538864 0.05058350
v -0.01156204 0.02252483 0.01294872
v -0.00188464 0.01931214 0.01549581
v 0.02035921 0.00438684 0.02728435
v 0.01474803 0.01048284 0.02333477
v 0.02472513 0.02826309 0.06727435
v 0.02337282 0.02927017 0.06946739
v 0.01881432 0.03175538 0.05681535
v -0.02330756 0.02477461 0.01091460
v 0.01331353 0.03399324 0.05417599
v 0.00987649 0.01055717 0.01898357
v -0.00691575 0.01739794 0.01114437
v 0.01421374 0.00746751 0.02183732
v 0.00026345 0.01250553 0.01262835
v -0.03746753 0.02683472 0.01089069
v -0.03236842 0.02467024 0.00858191
v 0.00926614 0.00757021 0.01755687
v -0.01729178 0.02178347 0.00982741
v 0.00233334 0.03488045 0.04384633
v -0.01330924 0.01902151 0.00913409
v -0.02597779 0.02189069 0.00706557
v 0.01076531 0.03381109 0.04870006
v 0.02456498 0.02825158 0.06257411
v 0.00996804 0.00322717 0.01722118
v -0.02128952 0.01804924 0.00538138
v -0.01158970 0.01508277 0.00750616
v -0.01243263 0.01505410 0.00710401
v -0.01721930 0.01459312 0.00477001
v 0.00234628 0.00603920 0.01210186
v -0.00600028 0.01124852 0.00845119
v 0.02846544 0.02446937 0.06431010
v -0.03369784 0.02152985 0.00500026
v -0.03060317 0.01794773 0.00264958
v -0.01196640 0.01043027 0.00527355
v -0.00504661 0.00628465 0.00754711
v 0.02216547 0.02931588 0.05622639
v -0.02530258 0.01363897 0.00153515
v -0.01764273 0.00937688 0.00244495
v 0.01703947 0.03049707 0.04766907
v -0.03966861 0.01812887 0.00151858
v -0.01222580 0.00520968 0.00374004
v -0.03278899 0.01455605 0.00018117
v -0.02418106 0.00760382 -0.00024626
v -0.02981925 0.01023072 -0.00108579
v 0.00687426 0.03315377 0.04226848
v 0.02772355 0.02471542 0.05891200
v 0.02156472 0.02880096 0.05223628
v -0.02287650 0.00360680 -0.00058964
v -0.03862553 0.01035678 -0.00241217
v -0.02718329 0.00290138 -0.00196007
v -0.03193736 0.00546855 -0.00272897
v -0.03644776 0.00584775 -0.00337389
v 0.03176897 0.01976776 0.06236049
v 0.00207925 0.03258150 0.03666469
v 0.02447152 0.02549362 0.04996272
v -0.00579995 0.03345811 0.03440156
v 0.01017785 0.03100293 0.04017421
v 0.03468823 0.01455688 0.06928255
v 0.02901285 0.02195733 0.05456754
v 0.02960735 0.02192360 0.05745949
v 0.01652932 0.02747529 0.04053654
v 0.01881814 0.02738380 0.04353496
v 0.03312963 0.01721954 0.06201985
v 0.02292275 0.02546685 0.04688426
v 0.01427829 0.02800899 0.03899219
v 0.03076761 0.01904290 0.05352654
v 0.02716535 0.02116280 0.04786356
v 0.01186090 0.02784311 0.03602644
v 0.00043935 0.03754132 0.06918504
v 0.03664749 0.00803185 0.06918850
v 0.00577217 0.03707885 0.06922384
v 0.03589361 0.01027482 0.06964090
v 0.03192162 0.01961517 0.06955811
v 0.02923315 0.02340507 0.06953706
v 0.01513028 0.03432512 0.06935348
v 0.01056361 0.03597474 0.06943770
v 0.00928855 0.03377264 0.07816084
v 0.01673722 0.03087800 0.07816066
v 0.03507518 0.00131261 0.07816066
v 0.03425550 -0.00747967 0.07816066
v 0.00673747 -0.03437262 0.07816066
v 0.03327012 0.01124668 0.07816066
v 0.01311469 -0.03252196 0.07816078
v 0.01882761 -0.02953720 0.07816120
v 0.02408814 -0.02548027 0.07816066
v 0.02915501 -0.01947784 0.07816013
v 0.03219240 -0.01379388 0.07816055
v -0.01491993 -0.03173393 0.07816078
v -0.00748181 -0.03425949 0.07816061
v 0.00032848 -0.03506571 0.07816066
v 0.02915501 0.01948356 0.07816090
v -0.02547615 -0.02409172 0.07816043
v -0.01724791 0.03053188 0.07816066
v -0.03382468 -0.00945091 0.07816061
v 0.02408814 0.02548408 0.07816066
v -0.21600740 -0.03147631 0.06979950
v -0.21402431 0.03156054 0.06979950
v -0.24463680 0.00011152 0.06979950
v -0.24158260 -0.01349061 0.06979944
v -0.23205920 0.02511590 0.06979950
v -0.23674940 -0.02082443 0.06979962
v -0.23524059 0.02232354 0.06979813
v -0.23205160 -0.02510452 0.06979813
v -0.24273460 0.01052856 0.06979956
v -0.22562470 -0.02900457 0.06979968
v -0.24384110 0.00640881 0.06979950
v -0.22041290 0.03063702 0.06979950
v -0.23944061 0.01728439 0.06979968
v -0.24363780 -0.00740814 0.06979956
v -0.22655080 0.02855491 0.06979927
v -0.04549998 0.00461328 -0.00445863
v -0.22144289 -0.02648985 -0.01500437
v -0.21975300 -0.02608776 -0.01564053
v -0.21689960 -0.02724814 -0.01533612
v -0.22383460 -0.02229118 -0.01610187
v -0.22937360 -0.01885223 -0.01563188
v -0.23813429 -0.01204252 -0.01400152
v -0.20611501 -0.02471166 -0.01701823
v -0.20607920 -0.02223396 -0.01764563
v -0.20088901 -0.02085065 -0.01787773
v -0.23629160 -0.01946061 -0.01070431
v -0.23702680 -0.01490402 -0.01375010
v -0.23634490 -0.01885539 -0.01144388
v -0.23844621 -0.01273781 -0.01353344
v -0.20254301 -0.02356815 -0.01714417
v -0.23759820 -0.01611059 -0.01250383
v -0.23788799 -0.01596999 -0.01225105
v -0.23634760 -0.01819115 -0.01225009
v -0.21908160 -0.02956557 -0.01162287
v -0.21825190 -0.02923375 -0.01273659
v -0.21478270 -0.02970194 -0.01276067
v -0.21437630 -0.03024446 -0.01134434
v -0.20296070 -0.02547788 -0.01614359
v -0.23804270 -0.01562553 -0.01232919
v -0.23803499 -0.01590865 -0.01209155
v -0.23893289 -0.01099503 -0.01372620
v -0.23679700 -0.01082032 -0.01490804
v -0.23787670 -0.00945645 -0.01462296
v -0.23427171 -0.02185058 -0.00983456
v -0.22328161 -0.02647560 -0.01431867
v -0.21805730 -0.02854287 -0.01388100
v -0.22150961 -0.02791309 -0.01355764
v -0.23677310 -0.01805627 -0.01175669
v -0.23858170 -0.01529961 -0.01175418
v -0.23748980 -0.01522642 -0.01321909
v -0.22430770 -0.02463722 -0.01531294
v -0.21950880 -0.02482169 -0.01620296
v -0.23806021 -0.01610416 -0.01186207
v -0.18980440 -0.00398111 -0.01870265
v -0.19274330 -0.00800014 -0.01882997
v -0.19128090 0.00090662 -0.01894775
v -0.23870219 -0.01288038 -0.01326117
v -0.23832160 -0.01601535 -0.01149085
v -0.21771470 -0.03010869 -0.00985852
v -0.23971300 -0.01021593 -0.01332989
v -0.24003570 -0.01367378 -0.01084736
v -0.21310130 -0.03046977 -0.01025316
v -0.23833200 -0.01618313 -0.01123497
v -0.23721500 -0.01773595 -0.01136651
v -0.23914251 -0.01313173 -0.01265713
v -0.23779650 -0.01773071 -0.00977918
v -0.23764150 -0.00406498 -0.01493254
v -0.23540850 -0.01181793 -0.01510647
v -0.23920910 -0.00938672 -0.01396194
v -0.23712499 -0.01336854 -0.01421186
v -0.23971620 -0.01135945 -0.01288745
v -0.23959079 -0.01130044 -0.01304641
v -0.22124010 -0.02870815 -0.01224425
v -0.19158480 -0.00850582 -0.01871928
v -0.23894919 -0.00883240 -0.01422915
v -0.23948219 -0.01295346 -0.01233366
v -0.23986410 -0.00886297 -0.01363972
v -0.22273611 -0.02408981 -0.01586655
v -0.22648200 -0.02179139 -0.01575926
v -0.23950480 -0.01315498 -0.01216194
v -0.23974501 -0.00777918 -0.01391581
v -0.23969109 -0.01288557 -0.01207450
v -0.23990580 -0.01145750 -0.01261011
v -0.22866030 -0.02307122 -0.01463362
v -0.22649349 -0.02575773 -0.01353291
v -0.23864320 -0.01637232 -0.00980398
v -0.22300310 -0.02742379 -0.01339558
v -0.21242690 -0.02385139 -0.01709822
v -0.23935100 -0.01544564 -0.00919989
v -0.22863930 -0.02173656 -0.01512477
v -0.20521370 -0.02749913 -0.01492265
v -0.23975930 -0.00672442 -0.01408055
v -0.22464740 -0.02704918 -0.01293030
v -0.24072739 -0.00999600 -0.01229343
v -0.24076700 -0.01026386 -0.01209274
v -0.22601560 -0.02531218 -0.01411447
v -0.24064650 -0.01105117 -0.01177236
v -0.24007291 -0.01221722 -0.01191988
v -0.23999390 -0.01287060 -0.01156518
v -0.24159309 -0.00431931 -0.01304558
v -0.24054430 -0.00831199 -0.01313749
v -0.24166040 -0.00768626 -0.01192811
v -0.20721500 -0.02683120 -0.01586863
v -0.22618520 -0.02685153 -0.01196763
v -0.24148130 -0.00856060 -0.01179561
v -0.24093769 -0.01008552 -0.01191696
v -0.24116060 -0.01043915 -0.01123080
v -0.24126761 -0.01023000 -0.01115402
v -0.24245191 -0.00820303 -0.00899127
v -0.24175380 -0.00807923 -0.01154950
v -0.24074920 -0.01118648 -0.01146927
v -0.24150510 -0.00629049 -0.01261708
v -0.24163380 -0.00869071 -0.01142779
v -0.23951501 -0.00448847 -0.01450559
v -0.22404830 -0.02747726 -0.01264623
v -0.22557400 -0.02687054 -0.01249316
v -0.21296330 -0.02548187 -0.01666316
v -0.24178210 -0.00867015 -0.01109263
v -0.24137411 -0.01002013 -0.01107582
v -0.22901590 -0.02495390 -0.01240918
v -0.24145530 -0.00749087 -0.01234224
v -0.24166539 -0.00736827 -0.01207045
v -0.24156681 -0.00722796 -0.01227572
v -0.24090929 -0.00846863 -0.01264027
v -0.22647600 -0.02657228 -0.01224270
v -0.24137150 -0.01080828 -0.01014879
v -0.24198370 -0.00882715 -0.01031294
v -0.24114931 -0.00988334 -0.01163724
v -0.24170350 -0.00991434 -0.01010361
v -0.24132881 -0.01133728 -0.00951215
v -0.19296619 -0.01288598 -0.01839879
v -0.19619480 -0.01524907 -0.01845512
v -0.21256730 -0.02667540 -0.01615873
v -0.24173920 -0.00865364 -0.01120928
v -0.24202600 -0.00736499 -0.01140907
v -0.23215070 -0.01830285 -0.01511410
v -0.24252480 -0.00691223 -0.01039341
v -0.24214379 -0.00740176 -0.01111570
v -0.24227200 -0.00775248 -0.01046243
v -0.24225530 -0.00479704 -0.01197097
v -0.22729561 -0.02600568 -0.01241687
v -0.24235480 -0.00481605 -0.01179239
v -0.24201840 -0.00677371 -0.01167330
v -0.22901981 -0.02507245 -0.01222548
v -0.24236859 -0.00778925 -0.00999322
v -0.24241900 -0.00482857 -0.01166895
v -0.24248770 -0.00491619 -0.01150200
v -0.24258710 -0.00501043 -0.01124987
v -0.24258161 -0.00471216 -0.01137230
v -0.22852930 -0.02561557 -0.01180389
v -0.22495100 -0.02743858 -0.01194933
v -0.24266700 -0.00502711 -0.01104632
v -0.24266140 -0.00472766 -0.01118287
v -0.22965591 -0.02365487 -0.01348325
v -0.24296060 -0.00442123 -0.01046112
v -0.22329780 -0.02838701 -0.01157924
v -0.24267910 -0.00473112 -0.01113811
v -0.24269120 -0.00473344 -0.01110694
v -0.24271481 -0.00473815 -0.01104423
v -0.22826540 -0.02585411 -0.01165345
v -0.22857641 -0.02619934 -0.01031712
v -0.24298750 -0.00479585 -0.01006260
v -0.24300499 -0.00502956 -0.00971529
v -0.24308370 -0.00482935 -0.00939771
v -0.22185390 -0.02918291 -0.00992557
v -0.21035109 -0.02834248 -0.01482281
v -0.23138019 -0.02439117 -0.01054975
v -0.19528840 -0.01583331 -0.01824930
v -0.23147200 -0.02319633 -0.01231906
v -0.22990771 -0.02513122 -0.01097706
v -0.23105811 -0.02360641 -0.01223209
v -0.20998190 -0.02944988 -0.01318726
v -0.22590610 -0.02741718 -0.01100036
v -0.23277161 -0.02233535 -0.01189944
v -0.23258010 -0.02202016 -0.01256958
v -0.23126000 -0.02101993 -0.01442650
v -0.23291580 -0.02207690 -0.01209369
v -0.21434639 -0.02866017 -0.01443764
v -0.23162819 -0.02240413 -0.01311245
v -0.21091659 -0.03003484 -0.01203176
v -0.21296480 -0.02964794 -0.01301184
v -0.23371480 -0.02046585 -0.01325062
v -0.23537029 -0.01585388 -0.01444837
v -0.23380511 -0.02101939 -0.01239505
v -0.23138770 -0.02305567 -0.01258579
v -0.23264940 -0.01954281 -0.01439997
v -0.23497930 -0.01977479 -0.01231459
v -0.23576710 -0.01411432 -0.01470014
v -0.23563179 -0.01510554 -0.01451841
v -0.23521639 -0.01787549 -0.01364401
v -0.23394389 -0.02147763 -0.01154330
v -0.23517480 -0.01999855 -0.01174679
v -0.23538920 -0.01787739 -0.01350167
v -0.23385499 -0.02163726 -0.01141718
v -0.23637579 -0.01717936 -0.01307019
v -0.23546261 -0.01820868 -0.01322576
v -0.23662570 -0.01549959 -0.01377842
v -0.23594950 -0.01851153 -0.01245901
v -0.23678771 -0.01607447 -0.01337162
v -0.20053940 -0.01804053 -0.01816711
v -0.23611990 -0.01873695 -0.01198533
v -0.23454110 -0.02087360 -0.01150122
v -0.23605090 0.02258229 0.00392541
v -0.23604891 0.02258086 0.00379220
v -0.23802979 0.02033448 0.00481227
v -0.23655111 0.02206224 0.00410751
v -0.23674551 0.02180665 0.00335428
v -0.24144140 0.01534271 0.00737211
v -0.23926130 0.01869195 0.00405285
v -0.23931900 0.01868325 0.00508878
v -0.23875780 0.01951599 0.00656489
v -0.24037521 0.01715081 0.00694439
v -0.24258859 0.01320832 0.00749180
v -0.24299970 0.01191711 0.00560168
v -0.24322221 0.01132410 0.00579974
v -0.24355949 0.01037901 0.00591400
v -0.24301679 0.01204293 0.00761387
v -0.24420480 0.00821590 0.00582817
v -0.24453330 0.00684512 0.00604281
v -0.24520759 0.00261301 0.00831971
v -0.24460950 0.00666803 0.00801632
v -0.24504440 0.00410461 0.00812510
v -0.21149340 0.03213268 -0.00234714
v -0.21192810 0.03220534 0.00003180
v -0.24508920 0.00372481 0.00813458
v -0.21490350 0.03208452 -0.00196007
v -0.21518870 0.03214377 0.00087544
v -0.24510120 0.00350952 0.00644085
v -0.24492881 0.00466502 0.00600889
v -0.24492709 0.00466472 0.00590333
v -0.21966480 0.03157049 0.00196013
v -0.21866199 0.03172653 -0.00029918
v -0.24532370 -0.00089407 0.00579569
v -0.24519500 0.00233275 0.00667599
v -0.24522801 0.00123322 0.00614992
v -0.24521510 -0.00257683 0.00803980
v -0.22188540 0.03093624 -0.00007275
v -0.22489350 0.02996915 0.00114027
v -0.23375671 0.02476876 0.00348827
v -0.23147170 0.02640908 0.00228855
v -0.23081200 0.02689778 0.00281349
v -0.22695130 0.02913182 0.00140265
v -0.24426620 -0.00807190 0.00801775
v -0.24369010 -0.01010125 0.00779316
v -0.24492230 -0.00509644 0.00817081
v -0.24522720 -0.00234461 0.00823423
v -0.24513310 -0.00334161 0.00814864
v -0.23282211 -0.02562332 0.00513581
v -0.22906080 -0.02805417 0.00428483
v -0.23679700 -0.02189636 0.00615856
v -0.24100940 -0.01618283 0.00710181
v -0.23846731 0.00426173 -0.01484874
v -0.24339600 0.00146866 -0.00821701
v -0.24347910 -0.00144851 -0.00774231
v -0.22309470 0.02878087 -0.00993773
v -0.23501560 0.02112191 -0.00920603
v -0.21873870 -0.03172290 0.00174073
v -0.21532489 -0.03212708 0.00089941
v -0.23641180 0.02220535 0.00615570
v -0.23313870 0.02532380 0.00526497
v -0.22937170 0.02787011 0.00437948
v -0.22318190 -0.03067636 0.00277487
v -0.19666730 0.01527953 -0.01845834
v -0.19906490 0.01256936 -0.01828649
v -0.22984290 0.01848602 -0.01559618
v -0.20145540 0.00317156 -0.01808610
v -0.21367620 0.02404618 -0.01697346
v -0.20368931 0.02106714 -0.01785794
v -0.20016439 0.01429176 -0.01819178
v -0.22608539 -0.02948945 0.00143024
v -0.22220960 -0.03093045 0.00243834
v -0.21984071 -0.03138917 -0.00092533
v -0.21575610 -0.03203701 -0.00159100
v -0.21153469 -0.03213530 -0.00239685
v -0.24487279 -0.00541305 0.00807694
v -0.24461380 -0.00647116 0.00602254
v -0.24500760 -0.00354379 0.00525090
v -0.24433200 -0.00775528 0.00546190
v -0.24311320 -0.01187515 0.00763682
v -0.24472640 -0.00631326 0.00805065
v -0.24320699 -0.01134932 0.00549415
v -0.24241230 -0.01338189 0.00746516
v -0.24248859 -0.01311665 0.00564137
v -0.23962180 -0.01844590 0.00432471
v -0.24087080 -0.01628184 0.00553295
v -0.23298620 -0.02536964 0.00250796
v -0.21018030 0.02957928 -0.01298287
v -0.23383731 0.02103585 -0.01233253
v -0.23340730 0.02150231 -0.01229259
v -0.23099700 0.02345603 -0.01250586
v -0.20031260 0.02195966 -0.01747504
v -0.20448470 0.02351814 -0.01735017
v -0.20261070 0.02385473 -0.01704463
v -0.23105940 0.02363443 -0.01218715
v -0.23402810 0.02105367 -0.01204929
v -0.22161449 0.02427196 -0.01600572
v -0.22153440 0.02308845 -0.01628807
v -0.23017280 0.01957035 -0.01541832
v -0.20381521 0.02609992 -0.01586726
v -0.20846660 0.02676260 -0.01606920
v -0.23030020 0.02408713 -0.01231554
v -0.23264579 0.02233582 -0.01206383
v -0.20846219 0.02833706 -0.01467302
v -0.23576280 0.01955753 -0.01140532
v -0.22732900 0.02281183 -0.01524970
v -0.23110960 0.02387225 -0.01171669
v -0.23395120 0.02154260 -0.01140877
v -0.23222700 0.02340310 -0.01104191
v -0.22818729 0.02618980 -0.01117822
v -0.23981071 0.00442696 -0.01429579
v -0.24063160 0.00436765 -0.01380363
v -0.23781180 0.00926208 -0.01467630
v -0.19030020 0.00518316 -0.01873329
v -0.22813010 0.02378082 -0.01437017
v -0.23186080 0.02223294 -0.01318577
v -0.23458339 0.02129161 -0.01039556
v -0.24209461 0.00416517 -0.01242569
v -0.23087560 0.02318608 -0.01296028
v -0.23137990 0.02414435 -0.01046619
v -0.23871200 0.00821686 -0.01449796
v -0.22277230 0.02599138 -0.01492527
v -0.24144670 0.00475031 -0.01304611
v -0.24175230 0.00617218 -0.01260015
v -0.22819699 0.02529472 -0.01270345
v -0.22658350 0.02602469 -0.01294967
v -0.23128530 0.02430427 -0.01003846
v -0.24054930 0.00760472 -0.01332220
v -0.22587159 0.02658641 -0.01268700
v -0.22794659 0.02543818 -0.01272014
v -0.22963460 0.02465099 -0.01215336
v -0.24246570 0.00470751 -0.01161417
v -0.22674280 0.02626574 -0.01244703
v -0.23990260 0.00849348 -0.01365951
v -0.23935521 0.00952536 -0.01382044
v -0.22679560 0.02642828 -0.01210371
v -0.22828349 0.02570015 -0.01194921
v -0.23563740 0.01257324 -0.01500341
v -0.23113960 0.02393150 -0.01155385
v -0.24291390 0.00467676 -0.01078251
v -0.22032900 0.02588742 -0.01557520
v -0.22489630 0.02668720 -0.01327190
v -0.22674911 0.02560615 -0.01344040
v -0.22948430 0.02434873 -0.01281193
v -0.23690000 0.01213830 -0.01462957
v -0.24306829 0.00472635 -0.00986317
v -0.22637340 0.02740669 -0.01020262
v -0.23484389 0.01576226 -0.01479646
v -0.22486261 0.02697914 -0.01288614
v -0.22358640 0.02736300 -0.01309767
v -0.21673749 0.02570247 -0.01626006
v -0.22512670 0.02707767 -0.01253328
v -0.24196100 0.00742155 -0.01151684
v -0.23844750 0.01114279 -0.01404479
v -0.23747361 0.01223748 -0.01433030
v -0.22503451 0.02717810 -0.01243171
v -0.23145171 0.02431958 -0.00937441
v -0.22519350 0.02734816 -0.01195088
v -0.24241801 0.00771713 -0.00982502
v -0.23964760 0.01081752 -0.01319763
v -0.24021740 0.01018476 -0.01285228
v -0.23834130 0.01167702 -0.01396617
v -0.23994800 0.00699711 -0.01397160
v -0.22368179 0.02781164 -0.01227185
v -0.22475220 0.02744865 -0.01212612
v -0.24215560 0.00748301 -0.01103309
v -0.24202091 0.00791204 -0.01107678
v -0.23828641 0.01198077 -0.01391384
v -0.22046050 0.02798306 -0.01385900
v -0.24124549 0.00951689 -0.01168969
v -0.22515340 0.02743440 -0.01179704
v -0.21840540 0.02726936 -0.01513132
v -0.23894560 0.01188105 -0.01343348
v -0.24154259 0.00876558 -0.01156232
v -0.24202380 0.00744116 -0.01137301
v -0.22145340 0.02914565 -0.01107481
v -0.24017020 0.01123666 -0.01238611
v -0.24232531 0.00786173 -0.01009521
v -0.23940320 0.01161170 -0.01313224
v -0.22237919 0.02809441 -0.01271888
v -0.24020679 0.01156061 -0.01217118
v -0.24242930 0.00757801 -0.00996384
v -0.23762470 0.01361799 -0.01382580
v -0.24050120 0.01121586 -0.01192251
v -0.22094820 0.02847844 -0.01282754
v -0.22031030 0.02838766 -0.01327494
v -0.23949359 0.01212990 -0.01278415
v -0.22079980 0.02840644 -0.01302990
v -0.23736160 0.01534271 -0.01328871
v -0.24237031 0.00817108 -0.00921270
v -0.23952220 0.01265454 -0.01245454
v -0.22187839 0.02861863 -0.01198742
v -0.24211380 0.00875461 -0.00990054
v -0.21590470 0.02873253 -0.01416793
v -0.23964100 0.01271355 -0.01225158
v -0.22058710 0.02874320 -0.01253417
v -0.23653680 0.01482129 -0.01411977
v -0.22035541 0.02894961 -0.01223138
v -0.24022290 0.01204913 -0.01182487
v -0.21206400 0.02607071 -0.01648214
v -0.23850200 0.01415824 -0.01278040
v -0.24030410 0.01208555 -0.01165065
v -0.19492111 0.01590919 -0.01820645
v -0.19229241 0.00994444 -0.01871636
v -0.23999830 0.01292628 -0.01147702
v -0.24045190 0.01217353 -0.01126751
v -0.22798370 0.02661466 -0.00967625
v -0.21800581 0.02937614 -0.01257375
v -0.24050020 0.01221466 -0.01111188
v -0.23579650 0.01613295 -0.01407227
v -0.23935460 0.01354110 -0.01210043
v -0.23923610 0.01404756 -0.01185313
v -0.21765780 0.02986240 -0.01151040
v -0.23604850 0.01669275 -0.01362595
v -0.23956700 0.01367276 -0.01163336
v -0.21375249 0.02739030 -0.01561424
v -0.23771890 0.01566070 -0.01269492
v -0.24077091 0.01235312 -0.00997880
v -0.23987170 0.01408386 -0.01056698
v -0.23972701 0.01377630 -0.01119122
v -0.24151960 0.01049423 -0.01050785
v -0.24080519 0.01234900 -0.00977340
v -0.23751810 0.01632452 -0.01241472
v -0.23698850 0.01600658 -0.01324102
v -0.23986410 0.01449579 -0.00933865
v -0.24131750 0.01132202 -0.00932911
v -0.20846890 0.02425426 -0.01722547
v -0.23802631 0.01636195 -0.01162067
v -0.23669121 0.01721352 -0.01268861
v -0.23868760 0.01547861 -0.01141301
v -0.23875029 0.01552730 -0.01121554
v -0.23306970 0.01920509 -0.01431247
v -0.23431750 0.01827234 -0.01400539
v -0.23277840 0.01871532 -0.01466837
v -0.23724040 0.01760756 -0.01146641
v -0.21370570 0.02949798 -0.01323792
v -0.23896959 0.01571315 -0.01023468
v -0.23896670 0.01571041 -0.01025376
v -0.23795640 0.01678425 -0.01122358
v -0.23857839 0.01636177 -0.01013908
v -0.23272760 0.01943230 -0.01441142
v -0.23770490 0.01746368 -0.01063374
v -0.21365111 0.03016805 -0.01175210
v -0.23599429 0.01889270 -0.01197860
v -0.23789340 0.01625311 -0.01196483
v -0.23178610 0.02005267 -0.01458379
v -0.23610130 0.01900523 -0.01165870
v -0.23551381 0.01919823 -0.01230922
v -0.23797290 0.01576262 -0.01226726
v -0.23950930 0.01513290 -0.00927302
v -0.23659991 0.01871448 -0.01112404
v -0.23563559 0.01932770 -0.01199344
v -0.23301290 0.02086251 -0.01338795
v -0.23262100 0.02051180 -0.01387450
v -0.23590539 0.01963770 -0.01098499
v -0.23410900 0.02048039 -0.01260933
v -0.23580210 0.01869869 -0.01245209
v -0.23818760 0.01701277 -0.01002344
v -0.23451281 0.02137911 -0.01032951
v -0.23581950 0.02002125 -0.01014796
v -0.23677769 0.01893091 -0.01006856
v -0.23439769 0.02095800 -0.01162091
v -0.23504861 0.02040201 -0.01135203
v -0.23437880 0.02142930 -0.01072076
v -0.23343250 0.02081292 -0.01299885
v -0.23765540 0.01787948 -0.00987080
v -0.23688290 -0.02179718 0.00391618
v -0.22999540 -0.02740669 0.00190708
v -0.22685590 -0.02902984 0.00112704
v -0.22316520 -0.03058624 0.00015906
v -0.24445120 0.00699610 0.00527927
v -0.20882240 -0.03188556 -0.00318047
v -0.24252780 -0.01301574 0.00533268
v -0.24117251 0.01577752 0.00453064
v -0.20060770 0.02038550 -0.01791212
v -0.20045049 0.01805007 -0.01813820
v -0.24316850 -0.00410795 -0.00924519
v -0.24107710 -0.00392145 -0.01342419
v -0.23904771 -0.00433272 -0.01465157
v -0.24246570 -0.00399971 -0.01174375
v -0.24244849 -0.00438034 -0.01174375
v -0.24297591 -0.00431013 -0.01045629
v -0.24246000 -0.00437939 -0.01171711
v -0.24010959 0.00391102 -0.01416823
v -0.23916690 0.00431627 -0.01459864
v -0.24284980 0.00401306 -0.01101085
v -0.24163030 0.00419426 -0.01292065
v -0.24468210 0.00625145 0.00810626
v -0.24444351 0.00752258 0.00803211
v -0.24370930 0.01010888 0.00788376
v -0.23862050 0.01971435 0.00657341
v -0.23720130 0.02141571 0.00620154
v -0.22327490 0.03064721 0.00275633
v -0.22509740 0.02991002 0.00332758
v -0.20092550 0.01461601 -0.01812598
v -0.19867741 -0.01215910 -0.01833626
f 355 353 595
f 571 574 321
f 573 574 571
f 335 336 333
f 597 353 631
f 597 595 353
f 355 595 596
f 596 357 355
f 238 226 215
f 215 226 203
f 205 215 203
f 308 215 205
f 259 347 180
f 355 357 10
f 595 597 813
f 813 597 631
f 357 596 617
f 336 329 8
f 264 272 254
f 647 284 285
f 308 205 204
f 238 215 231
f 217 215 308
f 308 306 217
f 217 306 185
f 647 285 646
f 414 841 613
f 311 298 312
f 324 334 322
f 187 181 39
f 187 322 181
f 6 329 3
f 330 347 259
f 326 180 347
f 325 326 343
f 343 326 347
f 347 330 343
f 343 330 329
f 343 329 336
f 334 343 331
f 181 322 331
f 331 322 334
f 331 336 332
f 331 343 336
f 6 3 359
f 264 254 255
f 236 224 212
f 7 10 346
f 346 10 340
f 340 10 357
f 605 153 348
f 605 621 152
f 152 153 605
f 348 153 342
f 342 333 336
f 336 340 342
f 335 333 11
f 631 598 632
f 357 617 609
f 618 348 609
f 348 357 609
f 814 596 595
f 814 617 596
f 600 601 580
f 346 340 5
f 5 340 336
f 820 560 555
f 820 771 768
f 273 285 284
f 284 268 273
f 303 304 296
f 203 226 634
f 308 204 248
f 230 213 248
f 214 571 321
f 238 231 243
f 243 232 254
f 231 232 243
f 208 212 313
f 212 320 313
f 185 306 186
f 197 224 185
f 212 224 197
f 216 217 185
f 215 217 216
f 216 231 215
f 185 232 216
f 216 232 231
f 647 646 640
f 646 294 640
f 614 773 615
f 821 304 749
f 638 304 821
f 749 610 821
f 610 615 821
f 749 304 363
f 278 272 264
f 135 136 127
f 127 136 293
f 293 287 127
f 286 287 293
f 652 644 645
f 611 610 403
f 389 414 415
f 48 225 219
f 283 326 325
f 180 326 283
f 188 322 189
f 189 187 188
f 322 187 189
f 210 187 41
f 41 187 39
f 198 48 219
f 193 199 188
f 193 187 210
f 188 187 193
f 210 198 193
f 318 319 311
f 311 312 318
f 325 343 310
f 310 343 334
f 324 322 310
f 310 322 188
f 310 334 324
f 305 283 325
f 325 310 305
f 305 318 312
f 305 312 298
f 298 283 305
f 4 3 329
f 321 574 349
f 349 359 3
f 349 4 321
f 3 4 349
f 346 5 361
f 591 626 361
f 345 329 6
f 345 8 329
f 224 236 246
f 246 240 224
f 255 240 246
f 264 255 246
f 344 7 353
f 10 7 344
f 344 353 355
f 355 10 344
f 32 173 621
f 152 621 21
f 621 173 21
f 604 348 618
f 604 605 348
f 348 342 341
f 341 342 340
f 341 357 348
f 341 340 357
f 132 11 333
f 333 342 132
f 132 342 153
f 132 153 152
f 165 32 34
f 173 32 165
f 14 337 15
f 436 413 631
f 410 413 408
f 633 814 595
f 595 813 633
f 580 567 581
f 581 567 575
f 836 565 835
f 670 709 658
f 580 601 823
f 823 511 580
f 601 600 828
f 828 823 601
f 511 823 828
f 686 828 600
f 580 511 624
f 511 623 624
f 563 565 836
f 836 562 563
f 564 562 836
f 560 562 564
f 561 563 562
f 561 562 560
f 560 820 561
f 6 359 362
f 362 345 6
f 768 764 767
f 713 712 767
f 563 561 767
f 767 739 565
f 565 563 767
f 270 254 272
f 270 243 254
f 261 268 238
f 261 273 268
f 238 243 261
f 261 270 273
f 243 270 261
f 303 296 295
f 238 268 267
f 267 226 238
f 267 634 226
f 570 248 204
f 230 248 570
f 570 213 230
f 570 214 213
f 573 571 570
f 571 214 570
f 650 782 634
f 650 284 647
f 650 268 284
f 650 267 268
f 634 267 650
f 782 650 740
f 718 740 762
f 762 650 647
f 762 740 650
f 839 362 359
f 208 313 314
f 317 313 320
f 211 320 212
f 212 197 211
f 292 646 285
f 285 294 292
f 292 294 646
f 296 294 289
f 289 295 296
f 289 294 285
f 639 640 638
f 638 821 639
f 639 773 647
f 647 640 639
f 639 615 773
f 639 821 615
f 301 294 296
f 301 640 294
f 638 640 301
f 301 304 638
f 301 296 304
f 403 610 750
f 750 610 749
f 749 363 750
f 163 304 303
f 163 363 304
f 163 750 363
f 176 162 154
f 280 272 279
f 272 278 279
f 279 286 280
f 279 278 286
f 282 287 286
f 282 278 264
f 286 278 282
f 126 135 127
f 167 176 154
f 26 176 167
f 818 32 621
f 621 605 620
f 605 604 620
f 621 620 384
f 384 620 406
f 612 645 644
f 684 645 612
f 612 599 684
f 612 644 614
f 841 414 612
f 414 599 612
f 614 615 612
f 612 615 841
f 652 645 792
f 787 800 792
f 694 684 691
f 694 645 684
f 691 701 694
f 841 615 616
f 610 611 616
f 667 701 691
f 657 709 667
f 657 667 831
f 831 667 599
f 461 831 599
f 439 447 461
f 390 461 389
f 28 175 29
f 95 94 80
f 80 85 95
f 94 95 123
f 71 85 80
f 15 85 71
f 12 337 336
f 15 337 12
f 225 48 54
f 221 207 195
f 207 196 195
f 209 207 212
f 209 196 207
f 209 212 208
f 208 196 209
f 191 190 196
f 191 196 208
f 191 319 192
f 212 207 229
f 229 207 221
f 244 236 212
f 225 54 237
f 237 54 61
f 233 247 250
f 250 229 233
f 200 318 199
f 200 198 219
f 199 193 200
f 200 193 198
f 315 310 188
f 315 305 310
f 188 199 315
f 199 318 315
f 318 305 315
f 1 5 2
f 2 8 9
f 336 8 2
f 2 5 336
f 351 626 629
f 351 361 626
f 629 598 351
f 631 353 351
f 351 598 631
f 353 7 351
f 351 7 346
f 346 361 351
f 245 255 254
f 245 240 255
f 254 232 245
f 220 232 185
f 185 224 220
f 224 240 220
f 220 245 232
f 240 245 220
f 152 21 138
f 138 21 173
f 138 132 152
f 16 14 15
f 15 71 16
f 338 337 16
f 337 14 16
f 332 19 20
f 20 331 332
f 181 331 20
f 39 181 20
f 20 42 39
f 20 19 42
f 339 19 332
f 339 337 338
f 332 336 339
f 336 337 339
f 408 413 433
f 433 436 408
f 413 436 433
f 501 529 431
f 439 461 422
f 461 390 422
f 422 390 389
f 535 530 536
f 580 581 582
f 582 581 575
f 575 567 572
f 447 664 833
f 833 658 447
f 833 664 670
f 565 739 736
f 566 835 565
f 565 817 566
f 566 817 577
f 832 686 664
f 828 686 832
f 670 664 678
f 678 686 670
f 664 686 678
f 692 600 580
f 692 686 600
f 580 582 692
f 692 582 575
f 575 577 692
f 577 817 692
f 728 686 692
f 799 800 779
f 787 694 779
f 779 694 756
f 674 709 670
f 670 707 674
f 707 706 674
f 681 667 709
f 769 775 763
f 798 635 794
f 790 798 794
f 608 362 589
f 555 560 360
f 559 820 555
f 555 360 559
f 559 360 558
f 554 556 552
f 554 553 551
f 727 730 745
f 707 730 727
f 768 767 772
f 772 767 561
f 772 820 768
f 772 561 820
f 716 767 730
f 716 730 707
f 716 707 670
f 728 767 724
f 724 767 712
f 724 686 728
f 712 686 724
f 761 757 745
f 784 777 765
f 765 761 766
f 765 767 764
f 768 771 765
f 765 764 768
f 606 586 550
f 550 586 551
f 551 553 550
f 783 786 784
f 784 765 783
f 285 273 277
f 273 270 277
f 277 270 272
f 277 272 280
f 280 289 277
f 277 289 285
f 290 293 136
f 286 293 290
f 280 286 290
f 290 289 280
f 295 289 290
f 789 570 204
f 573 570 789
f 789 759 573
f 789 204 205
f 634 782 789
f 789 205 203
f 203 634 789
f 643 644 652
f 715 740 718
f 652 792 661
f 661 792 800
f 746 773 614
f 647 773 746
f 746 762 647
f 589 362 840
f 362 839 840
f 655 586 587
f 666 656 655
f 323 214 321
f 321 4 323
f 323 4 329
f 329 328 323
f 234 253 223
f 223 248 213
f 259 180 258
f 180 283 258
f 186 211 184
f 184 211 197
f 185 186 184
f 184 197 185
f 302 163 303
f 303 295 302
f 403 750 660
f 660 163 403
f 750 163 660
f 403 163 401
f 421 401 163
f 377 26 370
f 264 246 266
f 266 282 264
f 287 282 266
f 98 104 114
f 82 98 102
f 116 126 127
f 127 287 116
f 287 102 116
f 143 126 114
f 842 611 403
f 842 414 613
f 842 547 414
f 842 616 611
f 613 841 842
f 841 616 842
f 435 547 371
f 435 399 367
f 435 371 370
f 370 26 25
f 25 22 370
f 26 22 25
f 23 22 26
f 144 143 114
f 161 143 144
f 450 22 30
f 69 513 30
f 519 513 69
f 619 604 618
f 619 620 604
f 527 818 621
f 32 818 527
f 780 694 787
f 645 694 780
f 787 792 780
f 780 792 645
f 756 694 743
f 743 735 756
f 743 694 701
f 822 615 610
f 610 616 822
f 822 616 615
f 684 599 659
f 599 667 659
f 691 684 659
f 659 667 691
f 825 599 414
f 825 461 599
f 414 389 825
f 389 461 825
f 830 709 657
f 830 658 709
f 657 831 830
f 831 461 830
f 166 175 28
f 166 160 175
f 72 63 58
f 58 71 72
f 72 71 80
f 85 96 109
f 121 95 109
f 109 95 85
f 13 336 335
f 13 12 336
f 76 96 85
f 76 85 15
f 15 12 76
f 12 13 76
f 76 13 96
f 42 19 47
f 61 54 60
f 196 190 194
f 194 195 196
f 319 191 307
f 311 319 307
f 307 298 311
f 212 229 239
f 239 244 212
f 239 229 250
f 250 244 239
f 249 244 250
f 249 250 252
f 249 246 236
f 236 244 249
f 249 266 246
f 225 237 206
f 192 200 206
f 219 225 206
f 206 200 219
f 251 237 61
f 247 237 251
f 201 200 192
f 318 200 201
f 192 319 201
f 319 318 201
f 583 593 580
f 580 624 583
f 591 361 590
f 361 627 590
f 623 627 622
f 622 624 623
f 622 592 624
f 361 592 622
f 622 627 361
f 11 132 119
f 132 138 119
f 62 71 58
f 58 16 62
f 62 16 71
f 460 485 482
f 628 626 591
f 814 633 514
f 501 431 432
f 483 530 535
f 535 389 483
f 483 389 415
f 398 365 364
f 405 410 408
f 530 374 417
f 417 536 530
f 535 536 417
f 417 389 535
f 509 828 502
f 511 828 509
f 509 510 511
f 495 494 482
f 495 485 499
f 482 485 495
f 499 504 495
f 487 827 447
f 487 489 827
f 827 489 493
f 670 658 669
f 669 833 670
f 658 833 669
f 705 736 739
f 705 767 728
f 739 767 705
f 728 692 705
f 705 692 817
f 705 817 565
f 565 736 705
f 827 493 496
f 496 493 494
f 496 829 827
f 494 495 496
f 502 828 506
f 499 502 506
f 725 706 707
f 756 735 760
f 760 779 756
f 799 779 760
f 778 800 787
f 787 779 778
f 778 779 800
f 670 686 721
f 721 699 670
f 721 686 712
f 721 712 713
f 713 767 721
f 714 701 708
f 680 674 706
f 706 681 680
f 709 674 680
f 680 681 709
f 799 794 802
f 794 635 802
f 662 800 799
f 662 661 800
f 803 790 794
f 803 794 799
f 803 760 775
f 799 760 803
f 793 781 797
f 793 790 781
f 798 790 793
f 651 798 793
f 785 777 784
f 797 781 785
f 781 790 791
f 790 803 791
f 775 769 791
f 791 803 775
f 589 587 588
f 588 608 589
f 354 586 606
f 9 8 354
f 354 360 9
f 560 564 356
f 356 360 560
f 356 564 836
f 836 835 356
f 1 2 356
f 356 2 9
f 9 360 356
f 797 807 801
f 801 793 797
f 651 793 801
f 557 559 558
f 557 556 820
f 820 559 557
f 603 554 551
f 551 586 603
f 586 655 603
f 767 716 720
f 720 721 767
f 699 721 720
f 670 699 720
f 720 716 670
f 748 761 745
f 767 752 748
f 745 730 748
f 730 767 748
f 755 752 767
f 767 765 755
f 755 765 752
f 796 765 771
f 796 783 765
f 771 820 796
f 786 783 796
f 796 804 786
f 820 556 796
f 740 715 754
f 744 722 754
f 754 722 759
f 782 740 754
f 754 789 782
f 759 789 754
f 688 715 668
f 718 687 668
f 668 715 718
f 652 661 668
f 668 643 652
f 687 643 668
f 661 662 665
f 697 643 687
f 697 687 718
f 697 746 614
f 718 762 697
f 762 746 697
f 614 644 697
f 644 643 697
f 839 584 585
f 589 840 585
f 585 840 839
f 585 693 589
f 722 693 602
f 602 584 722
f 693 585 602
f 602 585 584
f 579 574 573
f 722 584 579
f 573 759 579
f 579 349 574
f 759 722 579
f 589 693 753
f 693 656 753
f 753 587 589
f 703 655 587
f 587 753 703
f 703 753 656
f 641 655 653
f 182 323 328
f 271 306 308
f 308 248 271
f 248 223 271
f 271 223 253
f 309 186 306
f 313 317 309
f 309 317 320
f 320 211 309
f 309 211 186
f 234 223 183
f 183 182 234
f 213 214 183
f 183 223 213
f 214 323 183
f 323 182 183
f 300 302 295
f 300 290 136
f 295 290 300
f 162 163 149
f 163 302 149
f 154 162 149
f 149 135 154
f 136 135 149
f 149 300 136
f 302 300 149
f 479 421 478
f 169 163 162
f 169 421 163
f 169 478 421
f 479 478 169
f 162 176 169
f 176 178 169
f 403 401 402
f 401 421 402
f 402 421 479
f 479 547 402
f 402 842 403
f 547 842 402
f 372 178 377
f 372 547 479
f 372 169 178
f 371 547 372
f 370 371 372
f 372 377 370
f 26 377 38
f 377 178 38
f 38 176 26
f 38 178 176
f 276 82 102
f 114 126 110
f 126 116 110
f 110 98 114
f 102 98 110
f 110 116 102
f 154 135 148
f 148 167 154
f 135 126 148
f 126 143 148
f 26 167 174
f 174 23 26
f 161 144 172
f 172 144 158
f 23 172 177
f 177 172 158
f 177 36 31
f 158 36 177
f 30 22 24
f 22 23 24
f 23 177 24
f 31 30 24
f 24 177 31
f 158 144 145
f 370 22 385
f 385 450 370
f 22 450 385
f 30 513 438
f 438 450 30
f 513 450 438
f 519 69 108
f 108 69 74
f 406 620 381
f 620 619 381
f 381 384 406
f 618 609 816
f 816 619 618
f 816 609 617
f 617 520 816
f 621 384 409
f 409 527 621
f 384 527 409
f 33 29 34
f 34 32 33
f 32 527 33
f 528 527 384
f 519 527 528
f 528 513 519
f 528 525 513
f 735 743 729
f 729 701 714
f 729 743 701
f 824 461 447
f 824 830 461
f 447 658 824
f 658 830 824
f 94 123 111
f 56 63 75
f 63 72 75
f 35 52 74
f 74 69 35
f 35 30 31
f 35 69 30
f 92 111 106
f 92 106 118
f 118 111 123
f 118 106 111
f 128 137 123
f 128 95 121
f 128 123 95
f 121 140 128
f 128 140 137
f 151 140 165
f 137 140 151
f 151 165 34
f 34 29 151
f 123 137 141
f 335 11 100
f 100 13 335
f 48 198 46
f 39 42 40
f 40 41 39
f 19 339 18
f 53 63 56
f 56 49 53
f 49 44 43
f 43 53 49
f 47 53 43
f 42 47 43
f 43 40 42
f 44 40 43
f 61 60 67
f 77 84 67
f 48 46 50
f 50 46 44
f 316 191 208
f 316 307 191
f 208 314 316
f 228 237 247
f 247 233 228
f 218 229 221
f 218 233 229
f 218 228 233
f 222 228 218
f 221 195 218
f 195 194 218
f 218 194 190
f 624 592 594
f 594 583 624
f 121 109 131
f 131 140 121
f 397 542 378
f 386 397 378
f 412 397 386
f 819 628 477
f 819 477 408
f 631 632 819
f 819 632 598
f 629 626 819
f 626 628 819
f 819 436 631
f 408 436 819
f 481 466 465
f 460 466 481
f 465 485 481
f 485 460 481
f 455 454 408
f 510 509 484
f 484 509 502
f 499 485 484
f 484 502 499
f 391 633 813
f 391 514 633
f 410 405 411
f 617 814 815
f 508 520 617
f 814 514 508
f 617 815 508
f 508 815 814
f 392 398 364
f 523 431 529
f 523 483 431
f 368 483 415
f 415 414 368
f 414 547 368
f 368 435 367
f 547 435 368
f 364 365 366
f 367 399 425
f 399 365 425
f 365 398 425
f 426 398 431
f 426 368 367
f 483 368 426
f 367 425 426
f 426 425 398
f 443 432 431
f 431 398 443
f 443 392 432
f 398 392 443
f 400 405 408
f 400 411 405
f 369 422 389
f 389 417 369
f 369 417 374
f 569 577 575
f 575 572 569
f 568 566 577
f 835 566 568
f 828 832 826
f 826 829 828
f 827 829 826
f 826 832 664
f 826 664 447
f 447 827 826
f 829 496 500
f 500 504 828
f 828 829 500
f 500 495 504
f 500 496 495
f 828 504 505
f 505 506 828
f 505 504 499
f 499 506 505
f 747 757 763
f 763 735 747
f 757 747 737
f 707 727 723
f 775 760 770
f 770 760 735
f 763 775 770
f 770 735 763
f 667 681 700
f 701 667 700
f 700 708 701
f 799 802 811
f 811 802 635
f 811 662 799
f 635 662 811
f 636 662 635
f 654 655 636
f 635 798 642
f 798 808 642
f 642 636 635
f 642 808 654
f 654 636 642
f 763 757 795
f 795 769 763
f 795 791 769
f 757 761 758
f 758 795 757
f 791 795 758
f 774 785 781
f 781 791 774
f 362 608 352
f 345 362 352
f 8 345 352
f 352 354 8
f 558 360 837
f 360 354 837
f 552 556 837
f 837 557 558
f 556 557 837
f 654 808 809
f 651 801 809
f 809 798 651
f 809 808 798
f 786 804 788
f 784 786 788
f 788 785 784
f 797 785 788
f 807 554 806
f 554 603 806
f 806 603 663
f 806 801 807
f 663 603 810
f 810 655 654
f 654 809 810
f 810 809 801
f 810 806 663
f 801 806 810
f 751 748 752
f 761 748 751
f 766 761 751
f 751 765 766
f 752 765 751
f 715 726 734
f 696 715 688
f 696 726 715
f 717 693 722
f 717 656 693
f 637 662 641
f 637 665 662
f 359 349 578
f 349 579 578
f 578 839 359
f 578 584 839
f 578 579 584
f 673 656 666
f 673 703 656
f 666 655 673
f 655 703 673
f 685 655 656
f 656 653 685
f 685 653 655
f 306 271 297
f 297 309 306
f 297 271 253
f 262 253 234
f 298 307 288
f 260 262 235
f 234 182 235
f 235 262 234
f 298 288 275
f 275 283 298
f 275 258 283
f 479 169 515
f 515 372 479
f 169 372 515
f 263 249 252
f 266 249 263
f 252 250 263
f 98 82 81
f 104 98 81
f 81 97 104
f 164 174 167
f 167 148 164
f 23 174 164
f 164 143 161
f 164 148 143
f 161 172 164
f 164 172 23
f 171 36 158
f 171 168 36
f 170 166 28
f 36 168 37
f 52 35 37
f 31 36 37
f 37 35 31
f 28 52 37
f 113 103 124
f 134 145 144
f 114 104 134
f 134 144 114
f 133 130 150
f 133 124 130
f 159 171 158
f 168 171 159
f 503 816 520
f 105 33 527
f 105 527 519
f 519 108 105
f 105 108 74
f 525 528 383
f 383 528 384
f 384 381 383
f 383 381 382
f 735 729 719
f 719 747 735
f 725 747 719
f 719 729 714
f 706 725 719
f 714 708 719
f 708 700 719
f 719 681 706
f 719 700 681
f 90 103 93
f 107 124 103
f 103 90 107
f 107 90 101
f 94 111 88
f 88 111 92
f 112 139 130
f 147 119 138
f 165 140 147
f 147 131 119
f 140 131 147
f 173 165 147
f 147 138 173
f 156 29 175
f 156 151 29
f 156 160 142
f 175 160 156
f 137 151 156
f 142 141 156
f 156 141 137
f 96 13 99
f 13 100 99
f 11 119 99
f 99 100 11
f 44 46 45
f 41 40 45
f 45 40 44
f 210 41 45
f 45 198 210
f 45 46 198
f 17 16 58
f 338 16 17
f 57 47 19
f 19 18 57
f 57 17 58
f 57 18 339
f 57 339 338
f 338 17 57
f 91 84 93
f 93 103 91
f 91 103 113
f 104 97 91
f 113 124 91
f 91 124 104
f 56 75 66
f 70 67 60
f 77 67 70
f 70 64 77
f 51 54 48
f 48 50 51
f 51 60 54
f 51 50 60
f 227 206 237
f 237 228 227
f 192 206 202
f 202 228 222
f 206 227 202
f 202 227 228
f 202 191 192
f 190 191 202
f 202 218 190
f 222 218 202
f 379 386 378
f 387 386 379
f 379 400 387
f 630 598 629
f 629 819 630
f 630 819 598
f 625 628 591
f 591 590 625
f 625 590 627
f 511 510 625
f 625 627 623
f 625 623 511
f 510 484 456
f 477 628 456
f 628 625 456
f 456 625 510
f 526 529 501
f 373 391 813
f 631 413 373
f 413 410 373
f 410 411 373
f 373 813 631
f 544 374 530
f 530 537 544
f 542 397 546
f 546 544 537
f 546 397 374
f 374 544 546
f 520 508 507
f 364 366 393
f 393 366 525
f 525 383 393
f 393 383 382
f 530 483 533
f 483 523 533
f 533 537 530
f 529 537 533
f 533 523 529
f 464 365 399
f 399 435 464
f 464 435 370
f 431 483 437
f 437 426 431
f 483 426 437
f 396 400 408
f 387 400 396
f 396 386 387
f 577 569 576
f 576 569 834
f 576 568 577
f 834 568 576
f 350 569 572
f 350 572 567
f 350 361 5
f 350 567 580
f 350 5 1
f 580 593 350
f 593 583 350
f 583 594 350
f 350 592 361
f 350 594 592
f 741 727 745
f 741 737 727
f 745 757 741
f 757 737 741
f 733 747 725
f 733 737 747
f 733 725 707
f 707 723 733
f 727 737 733
f 733 723 727
f 649 655 641
f 649 636 655
f 641 662 649
f 662 636 649
f 791 758 776
f 776 774 791
f 776 758 761
f 777 785 776
f 785 774 776
f 776 765 777
f 761 765 776
f 608 588 607
f 607 352 608
f 587 586 607
f 607 588 587
f 586 354 607
f 354 352 607
f 838 837 354
f 838 354 606
f 553 554 838
f 606 550 838
f 838 550 553
f 838 554 552
f 552 837 838
f 812 807 797
f 797 788 812
f 812 788 804
f 556 554 812
f 812 554 807
f 812 796 556
f 804 796 812
f 805 603 655
f 655 810 805
f 805 810 603
f 731 734 726
f 732 754 715
f 715 734 732
f 732 734 754
f 738 722 744
f 274 297 253
f 253 262 274
f 309 297 274
f 327 182 328
f 327 235 182
f 329 330 327
f 327 328 329
f 242 330 259
f 242 327 330
f 287 266 281
f 281 102 287
f 281 276 102
f 82 276 79
f 263 265 269
f 276 281 269
f 269 79 276
f 265 79 269
f 266 263 269
f 269 281 266
f 257 263 250
f 257 265 263
f 250 247 257
f 247 265 257
f 73 91 97
f 73 67 84
f 84 91 73
f 160 166 146
f 166 170 146
f 142 160 146
f 139 112 146
f 150 130 146
f 130 139 146
f 157 170 168
f 157 146 170
f 168 159 157
f 150 146 157
f 179 170 28
f 28 37 179
f 168 170 179
f 179 37 168
f 104 124 125
f 125 134 104
f 125 124 145
f 145 134 125
f 158 145 155
f 155 159 158
f 145 124 155
f 124 133 155
f 155 133 150
f 150 157 155
f 155 157 159
f 619 816 512
f 816 503 512
f 512 381 619
f 512 503 381
f 33 105 27
f 29 33 27
f 74 52 27
f 27 105 74
f 28 29 27
f 27 52 28
f 89 90 93
f 93 84 89
f 89 84 77
f 77 64 89
f 130 124 122
f 124 107 122
f 80 94 87
f 94 88 87
f 87 88 75
f 87 72 80
f 87 75 72
f 92 112 115
f 92 118 129
f 129 112 92
f 129 118 123
f 129 141 142
f 123 141 129
f 142 146 129
f 129 146 112
f 119 131 120
f 120 99 119
f 120 131 109
f 120 109 96
f 96 99 120
f 55 57 58
f 47 57 55
f 55 53 47
f 58 63 55
f 63 53 55
f 56 66 59
f 59 49 56
f 59 66 64
f 59 44 49
f 59 50 44
f 75 88 83
f 83 66 75
f 83 88 92
f 64 66 83
f 64 70 65
f 65 59 64
f 50 59 65
f 60 50 65
f 65 70 60
f 457 460 482
f 482 449 457
f 470 459 468
f 470 487 447
f 447 459 470
f 477 456 476
f 529 539 534
f 531 539 529
f 501 518 532
f 532 526 501
f 529 526 532
f 532 522 529
f 516 518 514
f 514 521 516
f 516 532 518
f 522 532 516
f 541 521 514
f 538 521 541
f 514 391 541
f 541 373 538
f 391 373 541
f 538 373 549
f 549 373 539
f 549 531 538
f 539 531 549
f 542 546 540
f 540 546 537
f 540 543 542
f 540 537 529
f 529 543 540
f 517 508 514
f 517 507 508
f 514 518 491
f 480 366 365
f 365 464 480
f 513 525 480
f 525 366 480
f 480 450 513
f 370 450 480
f 480 464 370
f 358 356 835
f 835 568 358
f 1 356 358
f 358 350 1
f 358 568 834
f 834 569 358
f 569 350 358
f 754 734 742
f 734 731 742
f 744 754 742
f 742 738 744
f 742 731 726
f 726 738 742
f 710 738 726
f 710 717 722
f 722 738 710
f 726 696 695
f 695 696 688
f 695 675 698
f 683 653 656
f 690 637 641
f 690 683 671
f 665 637 690
f 661 665 690
f 688 668 689
f 689 668 661
f 661 690 689
f 689 690 671
f 689 695 688
f 675 695 689
f 309 274 291
f 291 314 313
f 313 309 291
f 291 262 260
f 291 274 262
f 235 327 241
f 327 242 241
f 260 235 241
f 241 288 260
f 241 275 288
f 258 275 241
f 259 258 241
f 241 242 259
f 256 265 247
f 256 79 265
f 247 251 256
f 256 251 61
f 97 81 78
f 78 73 97
f 78 81 82
f 82 79 78
f 463 472 432
f 451 503 520
f 520 507 451
f 507 472 451
f 472 463 451
f 432 392 434
f 117 107 101
f 101 115 117
f 117 122 107
f 130 122 117
f 117 112 130
f 117 115 112
f 64 83 86
f 101 90 86
f 86 83 92
f 86 89 64
f 90 89 86
f 92 115 86
f 86 115 101
f 460 457 452
f 452 457 449
f 452 449 468
f 469 449 482
f 468 449 469
f 469 470 468
f 489 487 469
f 487 470 469
f 446 445 429
f 408 446 429
f 445 442 429
f 444 442 445
f 444 445 446
f 444 446 408
f 412 430 418
f 376 369 374
f 400 379 380
f 380 379 378
f 408 477 473
f 477 476 473
f 473 476 466
f 473 455 408
f 466 455 473
f 492 456 484
f 492 476 456
f 522 516 524
f 524 516 521
f 529 522 524
f 524 531 529
f 524 521 538
f 538 531 524
f 497 517 514
f 514 491 497
f 507 517 497
f 467 518 501
f 467 491 518
f 501 432 467
f 702 710 726
f 726 695 702
f 702 695 698
f 671 683 676
f 676 689 671
f 683 690 677
f 641 653 677
f 653 683 677
f 314 291 299
f 299 316 314
f 307 316 299
f 299 288 307
f 260 288 299
f 299 291 260
f 68 78 79
f 73 78 68
f 68 256 61
f 79 256 68
f 61 67 68
f 67 73 68
f 498 463 503
f 503 451 498
f 498 451 463
f 440 463 432
f 432 434 440
f 382 381 420
f 381 503 420
f 394 420 503
f 364 393 394
f 394 393 382
f 382 420 394
f 394 392 364
f 394 434 392
f 460 452 475
f 454 455 475
f 475 466 460
f 475 455 466
f 453 475 452
f 454 475 453
f 453 444 454
f 442 444 453
f 490 469 482
f 489 469 490
f 490 493 489
f 482 494 490
f 494 493 490
f 412 386 427
f 408 429 427
f 427 396 408
f 386 396 427
f 423 430 412
f 412 427 423
f 423 427 429
f 423 442 430
f 423 429 442
f 408 454 458
f 458 444 408
f 454 444 458
f 422 369 416
f 439 422 428
f 428 447 439
f 428 424 447
f 422 416 428
f 428 416 424
f 468 459 448
f 448 459 447
f 447 424 448
f 430 442 441
f 441 418 430
f 442 453 441
f 441 452 468
f 441 453 452
f 404 418 419
f 412 418 404
f 404 397 412
f 374 397 404
f 404 376 374
f 407 448 424
f 407 404 419
f 376 404 407
f 419 418 407
f 418 441 407
f 407 441 448
f 400 380 395
f 411 400 395
f 375 373 395
f 395 373 411
f 378 542 545
f 545 380 378
f 542 543 545
f 545 543 529
f 486 492 484
f 486 485 465
f 486 484 485
f 465 466 486
f 488 497 491
f 488 472 507
f 507 497 488
f 432 472 488
f 488 467 432
f 491 467 488
f 717 710 711
f 710 702 711
f 675 676 679
f 679 676 683
f 698 675 679
f 679 683 656
f 675 689 672
f 672 676 675
f 689 676 672
f 648 690 641
f 641 677 648
f 648 677 690
f 463 440 462
f 503 463 462
f 462 440 434
f 462 394 503
f 434 394 462
f 468 448 471
f 471 441 468
f 448 441 471
f 388 407 424
f 376 407 388
f 369 376 388
f 388 416 369
f 424 416 388
f 548 395 380
f 380 545 548
f 375 395 548
f 548 545 529
f 548 373 375
f 529 534 548
f 539 373 548
f 548 534 539
f 476 492 474
f 492 486 474
f 466 476 474
f 474 486 466
f 717 711 704
f 704 711 702
f 656 717 704
f 704 698 656
f 704 702 698
f 656 698 682
f 682 679 656
f 698 679 682

