# https://github.com/mikedh/trimesh
v 0.04500597 0.00133485 -0.05550259
v -0.04499065 -0.00008152 -0.05550473
v -0.00000000 -0.05399984 0.04494988
v -0.02182865 -0.03937810 -0.06585007
v 0.03746843 -0.02496981 -0.06585043
v -0.01621478 -0.04200375 -0.06584990
v -0.01214081 -0.04333108 -0.06584995
v 0.04179984 -0.01672947 -0.06585001
v -0.04498857 -0.00181013 -0.06584990
v -0.00733590 -0.04442507 -0.06584995
v -0.04432272 -0.00792617 -0.06584990
v 0.04333126 -0.01214075 -0.06584995
v -0.00125676 -0.04500794 -0.06584990
v -0.04178649 -0.01676726 -0.06585019
v 0.04500949 -0.00151557 -0.06584990
v 0.00479525 -0.04476469 -0.06584995
v -0.03490698 -0.02839887 -0.06584995
v 0.01962351 -0.04052311 -0.06584995
v -0.03164380 -0.03202915 -0.06585097
v 0.02471351 -0.03762388 -0.06584990
v -0.02698796 -0.03603935 -0.06585019
v -0.04374378 0.01065409 -0.05550408
v 0.04433536 0.00783920 -0.05550408
v -0.03001397 -0.05399537 0.03369134
v -0.04500389 -0.05399984 0.00008583
v 0.01351070 -0.05400007 0.04307866
v -0.00633240 -0.05399847 0.04460549
v -0.00333500 -0.05399090 0.04489594
v -0.04484379 -0.05399870 0.00366211
v -0.04326766 -0.05399590 0.01242440
v -0.01998990 -0.05399817 0.04050725
v -0.04159587 -0.05400019 0.01723289
v -0.04044049 -0.05399668 0.01981920
v 0.01988315 -0.05399954 0.04057782
v 0.02462571 -0.05399990 0.03787279
v -0.03891611 -0.05399650 0.02269738
v 0.02811336 -0.05399882 0.03530877
v -0.00085507 -0.05396384 0.04500794
v -0.03633254 -0.05400341 0.02672624
v 0.00414938 -0.05399674 0.04484117
v 0.04172843 -0.05399930 0.01691716
v 0.04349964 -0.05399984 0.01159566
v 0.04424858 -0.05399948 0.00827646
v 0.04500627 -0.05399584 -0.00050879
v -0.02470016 -0.05400121 -0.03779125
v -0.02709579 -0.05399978 -0.03610706
v 0.02714627 -0.05400025 -0.03610652
v 0.02321815 -0.05399817 -0.03874111
v 0.01582336 -0.05399078 -0.04230588
v -0.02227967 -0.05400329 -0.03928560
v 0.03904622 -0.05400145 -0.02244561
v 0.01934242 -0.05400127 -0.04086154
v 0.04049015 -0.05400002 -0.01972001
v 0.03439617 -0.05399906 -0.02914810
v 0.04165363 -0.05399948 -0.01709645
v 0.04412525 -0.05399984 -0.00887108
v -0.04120731 -0.05399888 -0.01814651
v -0.04400968 -0.05399894 -0.00944519
v -0.04475313 -0.05399942 -0.00479007
v -0.01511192 -0.05399471 -0.04256844
v -0.01045227 -0.05399566 -0.04390323
v -0.03712671 -0.05399990 -0.02553761
v 0.00082282 -0.05396980 0.04500550
v -0.02617979 -0.05399978 0.03682804
v -0.03165340 -0.05400151 0.03214931
v -0.04220908 -0.05399549 -0.01565742
v 0.00087959 -0.05400025 -0.04500180
v -0.04339933 -0.05399894 -0.01196861
v -0.01758188 -0.05399650 -0.04160016
v -0.00665188 -0.05399900 -0.04457336
v -0.02035897 -0.05400019 -0.04032993
v 0.00822449 -0.05399394 0.04432392
v 0.01606553 -0.05399829 0.04220962
v -0.00370717 -0.05399924 -0.04487532
v -0.02959728 -0.05399549 -0.03405666
v -0.03344011 -0.05399847 -0.03025102
v 0.04480403 -0.05400151 -0.00450778
v 0.04488730 -0.05400085 0.00331068
v -0.03528976 -0.05399847 -0.02804565
v 0.04018586 -0.05400085 0.02035135
v 0.03907299 -0.05399948 0.02241986
v 0.03662109 -0.05399268 0.02628231
v 0.03297656 -0.05400335 0.03081744
v 0.00811481 -0.05399721 -0.04434776
v 0.01314491 -0.05397641 -0.04319167
v 0.00430584 -0.05399751 -0.04483628
v -0.04422700 -0.05399888 0.00838232
v 0.03213310 -0.05399894 -0.03165245
v -0.03984493 -0.05399549 -0.02099180
v 0.03596210 -0.05399578 -0.02717590
v -0.01178354 -0.05399990 0.04356580
v -0.01498883 -0.05399888 0.04264426
v 0.04302692 -0.05399090 -0.01325607
v -0.02254104 -0.05400174 0.03913879
v -0.03408151 0.02942055 -0.06584984
v -0.03676348 0.02595067 -0.06584995
v -0.03935903 0.02185982 -0.06585037
v 0.01074266 0.04373037 -0.06584995
v -0.04127436 0.01792806 -0.06584995
v 0.00433361 0.04481482 -0.06585001
v -0.04297858 0.01341360 -0.06584990
v 0.00000000 0.04499989 -0.06585001
v -0.00490397 0.04475665 -0.06585001
v 0.04074758 0.01914763 -0.06585073
v -0.04482054 0.00428373 -0.06584995
v -0.01091426 0.04368114 -0.06585007
v 0.03604590 0.02698135 -0.06584936
v -0.01676237 0.04178828 -0.06584978
v 0.02980327 0.03374862 -0.06584966
v 0.01931512 0.04066354 -0.06585037
v 0.01506954 0.04240179 -0.06585001
v 0.01092427 -0.04367852 -0.06585001
v -0.04405874 0.00915557 -0.06584995
v 0.02938318 -0.03411334 -0.06584995
v 0.03995478 -0.02070271 -0.06584995
v 0.04432874 -0.00787622 -0.06584984
v 0.04477947 0.00460410 -0.06584995
v 0.03288745 0.03071480 -0.06585001
v 0.02476823 0.03761303 -0.06584984
v 0.03844887 0.02338129 -0.06584995
v -0.03071475 0.03288751 -0.06585001
v 0.04381048 0.01038867 -0.06584995
v -0.02228045 0.03912466 -0.06585007
v -0.02746284 0.03568130 -0.06585025
v -0.04333126 -0.01214075 -0.06584995
v -0.03750824 -0.02490383 -0.06585055
v -0.03995478 -0.02070271 -0.06584995
v 0.04240173 0.01506960 -0.06584995
v 0.01506954 -0.04240167 -0.06584995
v 0.03377878 -0.02976691 -0.06584906
v 0.03750061 0.02185171 0.04504281
v 0.03721410 0.02392476 0.04243123
v 0.03639602 0.02360618 0.04481422
v 0.03832596 0.02212381 0.04269206
v 0.02946287 0.02405744 0.05010670
v 0.03032875 0.02493643 0.04928690
v 0.02966636 0.02494537 0.04960304
v 0.03823482 -0.00747174 0.05356580
v 0.03894627 -0.00764906 0.05323511
v 0.03854990 -0.00321484 0.05317276
v 0.03796815 -0.00449616 0.05348294
v 0.03584766 0.02257347 0.04670518
v 0.03266304 0.02686071 0.04619830
v 0.03248286 0.02653259 0.04665172
v 0.03506433 0.02295511 0.04719513
v 0.04086428 -0.01612627 0.04992789
v 0.04135519 -0.01621019 0.04852205
v 0.01682281 -0.03725355 0.05646222
v 0.01779955 -0.03761255 0.05608755
v 0.01776224 -0.03708499 0.05630242
v 0.03745508 -0.00439644 0.05365252
v 0.02859538 0.02344131 0.05064964
v 0.02581125 0.02693843 0.05009162
v 0.02522635 0.02675431 0.05033999
v 0.01742541 -0.03703981 0.05639088
v 0.02125549 -0.03474593 0.05618238
v 0.04041719 -0.01643198 0.05055904
v 0.04203391 -0.01227086 0.04968112
v 0.04097706 -0.01298856 0.05109006
v 0.03967660 0.01963520 0.04305410
v 0.02942365 0.02378833 0.05024284
v 0.03997278 -0.01808023 0.05046391
v 0.03870576 -0.00988770 0.05338907
v 0.03963273 -0.01112747 0.05275529
v 0.03964316 -0.00783056 0.05282121
v 0.03435766 0.02257853 0.04810553
v 0.03731513 -0.00725222 0.05388486
v 0.01621466 -0.03985291 0.05520242
v 0.03149402 0.02602070 0.04788553
v 0.03984445 -0.01250737 0.05241650
v 0.04059553 -0.01203203 0.05179262
v 0.04041630 -0.01049154 0.05213266
v 0.02409988 0.02607738 0.05082839
v 0.04011017 0.01957792 0.04063111
v 0.04144823 0.01656872 0.04112559
v 0.02730560 0.02277851 0.05120444
v 0.01374626 -0.04072380 0.05537796
v 0.03691339 -0.00902748 0.05409997
v 0.01606273 -0.03851091 0.05615442
v 0.01810026 -0.03838837 0.05558145
v 0.03614330 -0.00712585 0.05416536
v 0.03437721 0.02171349 0.04867702
v 0.03132820 0.02557080 0.04832029
v 0.02152436 -0.03375142 0.05634510
v 0.02399617 0.02541840 0.05104070
v 0.01730841 -0.03626656 0.05658674
v 0.02118927 -0.03345388 0.05641978
v 0.03453779 -0.00055585 0.05368012
v 0.03555768 0.00057983 0.05354547
v 0.01364845 -0.04020398 0.05584138
v 0.01604264 -0.03940623 0.05562973
v 0.03583288 0.02111530 0.04782772
v 0.04013860 -0.01559650 0.05138283
v 0.03071737 0.02547591 0.04876637
v 0.03909540 -0.01404476 0.05285835
v 0.03997755 -0.01034021 0.05251938
v 0.03342574 0.02133131 0.04951906
v 0.04001867 -0.01560968 0.05153095
v 0.00013457 0.04445534 0.03665018
v 0.00297755 0.04438132 0.03666347
v 0.00261813 0.04398894 0.03956955
v 0.00013297 0.04407572 0.03945654
v 0.00328791 0.04303544 0.04224222
v 0.00013190 0.04311299 0.04227185
v 0.00628752 0.04369747 0.03929060
v 0.00499171 0.04419046 0.03668743
v 0.03774827 -0.01015847 0.05383825
v 0.02614289 0.02198994 0.05155044
v 0.02136898 0.02640724 0.05113852
v 0.00597936 0.04358583 0.03989839
v 0.03877812 -0.01209002 0.05325835
v 0.01691621 -0.03575187 0.05668473
v 0.00013136 0.04193240 0.04435575
v 0.01344752 -0.03969717 0.05619430
v 0.03980928 -0.01536834 0.05186218
v 0.02726852 0.02030509 0.05174309
v 0.03884655 0.01942521 0.04536002
v 0.02217102 0.02390766 0.05152779
v 0.00919950 0.04353845 0.03651267
v 0.03910487 -0.01985734 0.05077028
v 0.04105144 0.01661634 0.04349535
v 0.00407928 0.04175192 0.04437202
v 0.02286911 -0.03189468 0.05633991
v 0.02022171 -0.03343766 0.05652928
v 0.01658058 -0.03564548 0.05672109
v 0.03228777 0.02038288 0.05050128
v 0.00754517 0.04245942 0.04243612
v 0.00876570 0.04318439 0.03967368
v 0.00528479 0.04256510 0.04276847
v 0.00492668 0.04154682 0.04456228
v 0.03766155 -0.01317501 0.05385017
v 0.03952664 -0.01704943 0.05162686
v 0.03935807 -0.01566308 0.05228710
v 0.03465044 0.02055615 0.04912334
v 0.03455930 -0.00872493 0.05439490
v 0.03913116 -0.01801872 0.05171823
v 0.01321697 -0.03789258 0.05679970
v 0.01321309 -0.03868639 0.05663931
v 0.00769609 0.04125690 0.04441636
v 0.03787446 0.01909536 0.04710799
v 0.03943407 -0.01686489 0.05181288
v 0.00884837 0.04239326 0.04198366
v 0.01164442 0.04294270 0.03689509
v 0.02792650 0.01798069 0.05202853
v 0.03761321 0.01899838 0.04748350
v 0.00600719 0.04070854 0.04550164
v 0.03903716 -0.01504617 0.05270916
v 0.03895562 -0.01723289 0.05223751
v 0.00919247 -0.04234308 0.05522489
v 0.00788158 0.04059678 0.04527735
v 0.04212832 0.01476716 0.04141634
v 0.00763112 0.03988456 0.04615527
v 0.00652164 0.03923028 0.04700940
v 0.03163915 0.01948869 0.05105155
v 0.03857874 -0.01624894 0.05285561
v 0.03675693 0.01866531 0.04854130
v 0.04046642 0.01595139 0.04579496
v 0.03989410 -0.01170158 0.05247211
v 0.04169183 0.01502066 0.04378145
v 0.01116055 0.04165208 0.04248386
v 0.01146596 0.04256170 0.03976398
v 0.01418972 0.04218006 0.03701919
v 0.03112268 0.01831436 0.05155938
v 0.03618061 0.01843202 0.04915010
v 0.01377451 0.04190069 0.03990030
v 0.03874397 -0.01704788 0.05252075
v 0.00999522 0.03911972 0.04653358
v 0.03602093 0.01836609 0.04930543
v 0.03573405 0.01824617 0.04956334
v 0.00913143 -0.04174578 0.05579376
v 0.03663635 -0.01423710 0.05427420
v 0.00643504 0.03777736 0.04818391
v 0.00600100 0.03720474 0.04862785
v 0.01080995 0.04051858 0.04458773
v 0.00801212 0.04119509 0.04443156
v 0.02969169 0.01736450 0.05201047
v 0.03788423 -0.01650995 0.05337613
v 0.03931713 0.01656723 0.04714196
v 0.01355415 0.04115957 0.04214704
v 0.00902271 -0.04137802 0.05610585
v 0.01193946 0.03967857 0.04537582
v 0.00254738 0.03347504 0.05042463
v 0.00901967 0.03828954 0.04744356
v 0.03488409 0.01788282 0.05024313
v 0.00709319 0.03669929 0.04886627
v 0.03771448 -0.02100127 0.05209565
v 0.03928852 0.01494103 0.04818964
v 0.00663185 0.03557866 0.04950278
v 0.00538445 0.03586101 0.04942846
v 0.01669859 0.04085880 0.03996181
v 0.01652568 0.04133337 0.03715485
v 0.00399619 0.03240919 0.05069106
v 0.00346190 0.03379052 0.05033499
v 0.03859031 0.01603990 0.04831647
v 0.01340925 0.04079163 0.04299682
v 0.02917557 0.01500105 0.05231904
v 0.03737521 -0.01543706 0.05383229
v -0.00007653 0.03252518 0.05068325
v 0.03410875 0.01754242 0.05076098
v 0.03845572 -0.01653063 0.05290174
v 0.01252287 -0.03736430 0.05688065
v 0.03803211 -0.01957082 0.05235916
v 0.04332149 0.01079815 0.04207652
v 0.03985708 0.01465237 0.04768878
v 0.03574085 -0.01338160 0.05455172
v 0.00487530 0.03416872 0.05017340
v 0.01174545 0.03716021 0.04788303
v 0.03778171 0.01536554 0.04940736
v 0.00882292 -0.04044097 0.05661600
v -0.00811309 0.02998393 0.05101072
v 0.00279570 0.03067874 0.05094736
v 0.03318423 0.01712650 0.05126494
v 0.00013714 -0.04328829 0.05540388
v 0.03796476 -0.02195370 0.05102860
v 0.01467019 -0.03587841 0.05677050
v 0.01305145 0.03989934 0.04462844
v 0.03755021 0.01469421 0.04991674
v 0.03751230 -0.01868653 0.05317783
v 0.03634715 0.01499646 0.05057597
v 0.01018714 0.03840076 0.04714471
v 0.00453758 -0.04278850 0.05564594
v 0.00892019 -0.03979301 0.05681622
v 0.03756785 -0.01621335 0.05362814
v 0.03856056 0.01432114 0.04923832
v 0.04214513 0.01100295 0.04645770
v 0.04294264 0.01102030 0.04431670
v 0.00466227 -0.04254817 0.05584973
v 0.01626920 0.04018300 0.04227584
v -0.00045967 -0.04241657 0.05619090
v 0.03375816 -0.01280212 0.05476123
v 0.00459623 -0.04219770 0.05613678
v 0.03592103 -0.01368945 0.05449676
v 0.03554046 0.01362228 0.05140107
v 0.03458917 0.01468867 0.05145841
v 0.03647989 -0.02113306 0.05329173
v 0.00826454 -0.03888416 0.05698430
v 0.03704518 -0.02140611 0.05263495
v 0.03668165 -0.02407395 0.05133640
v 0.03219032 0.01315301 0.05238497
v 0.01609659 0.03982937 0.04311954
v 0.00498640 0.03151696 0.05084377
v 0.00517845 0.03274631 0.05059099
v 0.04115772 0.01078033 0.04815483
v 0.03588289 -0.02524936 0.05155175
v 0.03540509 -0.02480471 0.05259025
v 0.00985706 0.03632164 0.04874968
v 0.00113100 -0.04144382 0.05670493
v 0.00457990 -0.04139083 0.05659788
v 0.01273471 0.03812426 0.04679477
v 0.00907707 0.03356736 0.05017757
v 0.03534460 -0.02408486 0.05305260
v 0.04396349 0.00597680 0.04507941
v 0.04426282 0.00604129 0.04287463
v 0.00624996 -0.03850632 0.05700039
v 0.04083549 0.01081001 0.04853332
v 0.03514385 -0.02304351 0.05370181
v 0.02079701 0.03937149 0.03746753
v 0.00449115 -0.04010027 0.05700105
v 0.03331470 0.01402103 0.05200767
v -0.00103056 -0.04047453 0.05699563
v 0.03453475 -0.02692151 0.05198436
v 0.01228141 0.03767246 0.04732948
v 0.04053175 0.01074486 0.04891359
v 0.03515338 -0.02459293 0.05298012
v 0.03475421 -0.02515250 0.05305308
v 0.01565235 0.03899496 0.04472482
v 0.03346675 -0.02736979 0.05297535
v 0.03994530 0.01072824 0.04951626
v 0.00060761 -0.03967905 0.05708241
v 0.03975319 0.01061767 0.04973959
v 0.03946465 0.01054763 0.05001348
v 0.03421103 -0.02478206 0.05373370
v 0.03415775 -0.02496331 0.05369663
v 0.03394949 -0.02660608 0.05298703
v 0.03824746 0.01423543 0.04954707
v 0.03909510 0.01061552 0.05028319
v 0.03391212 -0.02484804 0.05392819
v 0.01542639 0.03856986 0.04538124
v 0.03920137 0.01048082 0.05024701
v 0.01541018 0.03761291 0.04649639
v 0.03363823 -0.02666711 0.05326640
v 0.04317903 0.00605845 0.04715389
v 0.03358775 -0.02624440 0.05354863
v 0.03809118 0.01040261 0.05103588
v 0.01228612 0.03536170 0.04897618
v 0.03507775 0.01001673 0.05236327
v 0.01976048 0.03849154 0.04283738
v 0.02023857 0.03922814 0.04025548
v 0.01006692 0.03134346 0.05076783
v 0.04210692 0.00662565 0.04864698
v 0.04139035 0.00591707 0.04978752
v 0.01494401 0.03693860 0.04727745
v 0.03249830 -0.02686589 0.05412626
v 0.03296393 0.00820631 0.05290198
v 0.03239148 -0.02640819 0.05437660
v 0.04465031 0.00142854 0.04365724
v 0.01460868 0.03654462 0.04768508
v 0.01320421 0.03390878 0.04961866
v 0.01117038 0.03465467 0.04952251
v 0.03260040 -0.02718728 0.05387783
v 0.03349113 -0.02437251 0.05440044
v 0.04228317 0.00516647 0.04890048
v 0.01415979 0.03585958 0.04830813
v 0.01925832 0.03738427 0.04491823
v 0.03686469 0.00588602 0.05261278
v 0.03201961 -0.02720928 0.05430322
v 0.04025149 0.00651813 0.05062443
v 0.03278255 -0.02458906 0.05473321
v 0.01458638 0.03213495 0.05021899
v 0.00935078 0.03017807 0.05098319
v 0.01029825 0.03216403 0.05056262
v 0.04432588 0.00170010 0.04572284
v 0.01873201 0.03704047 0.04564797
v 0.04025352 0.00581169 0.05080085
v 0.03960222 0.00646317 0.05112028
v 0.04466027 -0.00100994 0.04407602
v 0.02494198 0.03647691 0.04061031
v 0.02497476 0.03688645 0.03785729
v 0.03427517 0.00903791 0.05268740
v 0.04362040 0.00188297 0.04766076
v 0.03111368 -0.02551060 0.05523908
v 0.03159332 -0.02458786 0.05522370
v 0.01835948 0.03638219 0.04652655
v 0.03009629 -0.03111720 0.05347722
v 0.01601570 0.03393793 0.04912257
v 0.04437679 -0.00069094 0.04607743
v 0.03113365 -0.02613449 0.05510824
v 0.03515905 0.00523668 0.05306529
v 0.01812940 0.03597533 0.04702413
v 0.03011637 -0.03043353 0.05397713
v 0.04237556 0.00197977 0.04966259
v 0.02885723 -0.02768230 0.05564856
v 0.03844881 0.00563526 0.05199861
v 0.03722995 0.01017761 0.05156946
v 0.03938078 0.00506437 0.05158472
v 0.01784205 0.03564262 0.04743427
v 0.02951020 -0.03112912 0.05398947
v 0.03786665 0.00572395 0.05225270
v 0.02961272 -0.03025645 0.05444663
v 0.03026884 -0.02420127 0.05560612
v 0.01242578 0.03203696 0.05044198
v 0.04367232 -0.00057125 0.04802268
v 0.02929633 -0.03027480 0.05466991
v 0.04422610 -0.00367415 0.04654496
v 0.04437392 -0.00530481 0.04481768
v 0.01753044 0.03435099 0.04849982
v 0.04113405 0.00147724 0.05100870
v 0.02922201 -0.03013873 0.05476379
v 0.01633971 0.02976220 0.05079710
v 0.03573197 0.00554788 0.05292350
v 0.04249995 -0.00038242 0.04986095
v 0.02901506 -0.02952742 0.05511033
v 0.02295172 0.03514760 0.04536432
v 0.02422678 0.03584831 0.04323571
v 0.01429492 0.02979731 0.05090188
v 0.02818864 0.03400671 0.04098659
v 0.02857244 0.03419679 0.03828710
v 0.02846091 -0.02925723 0.05544412
v 0.02698361 -0.03398007 0.05379903
v 0.01646023 0.03240150 0.04982364
v 0.02287143 0.03471177 0.04591536
v 0.02287083 0.03422451 0.04642212
v 0.02960675 -0.02429383 0.05570381
v 0.02953982 -0.02367603 0.05568552
v 0.02374196 -0.03039687 0.05627924
v 0.04005408 0.00150609 0.05179935
v 0.02421629 0.03448438 0.04523354
v 0.04178231 -0.00031138 0.05066102
v 0.02387225 0.03406202 0.04597151
v 0.02671808 -0.03384691 0.05414211
v 0.04354196 -0.00345224 0.04842209
v 0.02232480 0.03327703 0.04759591
v 0.02641141 -0.03340774 0.05467867
v 0.02628988 -0.03398329 0.05435627
v 0.03910613 0.00070381 0.05249369
v 0.02749723 0.03339338 0.04354977
v 0.04394459 -0.00637418 0.04695773
v 0.02654075 -0.02856820 0.05603092
v 0.03840589 0.00591946 0.05197125
v 0.02218705 0.03283596 0.04798710
v 0.02609539 -0.03315210 0.05502074
v 0.01496577 0.02985239 0.05085307
v 0.04083532 -0.00032425 0.05152148
v 0.02308416 0.03307050 0.04739201
v 0.03140825 0.03163880 0.03869730
v 0.02160090 0.03251183 0.04844576
v 0.04260158 -0.00466198 0.05004113
v 0.03846853 0.00103372 0.05272811
v 0.04332375 -0.00566667 0.04878991
v 0.01422095 0.02869027 0.05110388
v 0.02108520 0.03114682 0.04943037
v 0.04236388 -0.00405693 0.05033898
v 0.04025650 -0.00017023 0.05191987
v 0.02661991 0.03251576 0.04567492
v 0.02437651 -0.03550726 0.05446118
v 0.03989410 -0.00353622 0.05252075
v 0.03721094 0.00049400 0.05323451
v 0.04125970 -0.00339317 0.05147266
v 0.02049106 0.03063130 0.04982817
v 0.02618598 0.03206056 0.04648476
v 0.02505350 -0.03240054 0.05578881
v 0.03026551 0.03120911 0.04345095
v 0.03094923 0.03157413 0.04128146
v 0.04345268 -0.00910157 0.04739254
v 0.02997088 0.03097522 0.04424178
v 0.02544575 0.03126543 0.04765743
v 0.02317905 -0.03553956 0.05517762
v 0.01960527 0.02937996 0.05049914
v 0.04109662 -0.00468445 0.05167627
v 0.04120177 -0.00026739 0.05119872
v 0.02528357 0.03108835 0.04788297
v 0.04099267 -0.00456428 0.05176341
v 0.02243137 -0.03676253 0.05466693
v 0.02504825 0.03078317 0.04823112
v 0.03645461 -0.00129503 0.05361407
v 0.02918243 0.03027963 0.04598975
v 0.02261066 -0.03537422 0.05553811
v 0.04140847 -0.00570393 0.05142349
v 0.02264571 -0.03623759 0.05495923
v 0.04283303 -0.00881648 0.04916507
v 0.02432614 0.03002637 0.04901915
v 0.02462571 -0.03130817 0.05612915
v 0.02215749 -0.03632211 0.05515974
v 0.02856332 0.02976453 0.04696589
v 0.03452050 0.02767586 0.04188418
v 0.03494143 0.02772283 0.03932344
v 0.02365458 0.02926790 0.04966163
v 0.04287993 -0.01153343 0.04777723
v 0.02279311 -0.03447335 0.05582857
v 0.04065132 -0.00523758 0.05206537
v 0.01860070 0.02622443 0.05131411
v 0.02814555 0.02907133 0.04782205
v 0.02764987 0.02913570 0.04806900
v 0.02298247 0.02849876 0.05019205
v 0.02749538 0.02870941 0.04845309
v 0.04195404 -0.00857639 0.05065536
v 0.02142286 -0.03544741 0.05593526
v 0.03387397 0.02731782 0.04396146
v 0.02710789 0.02816605 0.04898083
v 0.04225748 -0.01366204 0.04811555
v 0.03355687 0.02713042 0.04472976
v 0.01825273 -0.03911560 0.05492609
v 0.02587121 0.02757132 0.04978293
v 0.04055207 -0.00803327 0.05216455
v 0.04152798 -0.01090258 0.05084133
v 0.03785955 0.02360618 0.03997898
v 0.04106903 -0.00825119 0.05169773
v 0.02198410 -0.03480952 0.05597782
v -0.03541487 0.02673739 0.03938341
v -0.03927183 0.02067995 0.04045236
v -0.03680199 0.02481228 0.03978657
v -0.03394335 0.02858865 0.03912115
v -0.03211718 0.03063213 0.03883498
v -0.03019624 0.03252917 0.03854995
v -0.02838671 0.03421437 0.03669869
v -0.02688634 0.03533005 0.03811192
v -0.04431605 -0.00301039 0.04441660
v -0.04437768 0.00118619 0.04369664
v -0.02559608 0.03636932 0.03605067
v -0.02263659 0.03819853 0.03766220
v -0.04398500 0.00603449 0.04287725
v -0.02078562 0.03923636 0.03749227
v -0.01771247 0.04072952 0.03725916
v -0.04208791 0.01409965 0.04153764
v -0.04301333 0.01097828 0.04204922
v -0.01340687 0.04235821 0.03699195
v -0.00916922 0.04347777 0.03680497
v 0.00009692 0.04589742 0.01052469
v 0.00786364 0.04516714 0.01469695
v 0.00756460 0.04529368 0.01085841
v 0.01243126 0.04411840 0.01523494
v 0.01689881 0.04261076 0.01583921
v 0.01716262 0.04259604 0.01194548
v 0.02135634 0.04065096 0.01272362
v 0.03301268 0.03186452 0.01625967
v 0.03464806 0.03003776 0.01702857
v 0.03657072 0.02766418 0.01794660
v 0.03240078 0.03239780 0.01978516
v 0.03662115 0.02746367 0.02185821
v 0.03927141 0.02360939 0.01951217
v 0.03919094 0.02356570 0.02356415
v 0.04162514 0.01892709 0.02518671
v 0.04338520 0.01453012 0.02322769
v 0.04459875 0.00972897 0.02890032
v 0.04544335 0.00453115 0.02721887
v 0.04536980 0.00456971 0.03103983
v 0.04556351 -0.00019682 0.03291064
v 0.04560989 -0.00039375 0.02903056
v -0.02064323 -0.03310585 0.05649018
v -0.02703833 -0.02124977 0.05549138
v -0.02627897 -0.02676934 0.05597347
v -0.01768171 0.02583277 0.05137139
v -0.02273190 0.02224308 0.05168545
v -0.02570277 0.01931071 0.05194199
v -0.02729821 0.01920032 0.05190432
v -0.03070104 0.01218438 0.05256515
v -0.03239530 0.00824296 0.05291020
v -0.03460127 -0.00446111 0.05402171
v -0.01663321 -0.03473007 0.05667001
v -0.00585461 -0.03915804 0.05704188
v -0.03532028 0.00188446 0.05340760
v 0.01209729 0.01001822 0.05276572
v -0.02941060 -0.02388447 0.05568408
v -0.02047544 0.03414362 0.04755836
v -0.04089874 0.00988006 0.04857254
v -0.04216092 0.00655270 0.04823487
v -0.04155153 0.00568956 0.04930543
v -0.04143142 0.01506286 0.04364705
v -0.04280275 0.01056528 0.04433363
v -0.04198098 0.01071637 0.04649448
v -0.02000248 0.03385823 0.04796934
v -0.01869159 0.03503704 0.04753679
v -0.02462196 -0.03236103 0.05583715
v -0.01757353 0.03017753 0.05048012
v -0.01908677 0.03056812 0.05010598
v -0.02240383 0.02701348 0.05079472
v -0.02784508 -0.02919894 0.05556678
v -0.01860547 0.02900224 0.05074518
v -0.03647089 0.00561649 0.05266124
v -0.03768134 0.00043392 0.05301523
v -0.03680241 0.00248992 0.05302077
v -0.02693605 -0.02919238 0.05583822
v -0.02380788 -0.03237271 0.05605113
v -0.02482223 -0.03121274 0.05603861
v -0.03158855 -0.02786725 0.05412507
v -0.02991718 -0.03069698 0.05373281
v -0.02956765 -0.03029048 0.05427837
v -0.01906961 0.03733855 0.04492455
v -0.01955997 0.03814035 0.04333406
v -0.02129834 0.03613758 0.04502511
v -0.03218418 -0.02812713 0.05345875
v -0.04032707 0.00637722 0.05041211
v -0.02302777 0.03162688 0.04839956
v -0.02840614 -0.02971220 0.05520737
v -0.02629375 -0.03149980 0.05551832
v -0.03369992 -0.02674716 0.05284476
v -0.03269720 -0.02863186 0.05252981
v -0.03207314 -0.02863258 0.05321878
v -0.04075658 0.01139420 0.04800355
v -0.04055482 0.01136320 0.04827415
v -0.01970016 0.03353965 0.04831159
v -0.03689771 0.00727630 0.05221492
v -0.03782671 0.00565547 0.05214804
v -0.01885896 0.03698426 0.04549580
v -0.02893370 -0.03072065 0.05446982
v -0.03959649 0.01053541 0.04971051
v -0.01727157 0.03944158 0.04279756
v -0.01976960 0.03846973 0.04250067
v -0.02286607 0.03108453 0.04881286
v -0.04110115 0.01394361 0.04573798
v -0.02870839 -0.03066635 0.05463963
v -0.03458046 0.00717175 0.05285698
v -0.01633882 0.02875036 0.05099314
v -0.01783818 0.04026687 0.04001927
v -0.03432202 -0.02707129 0.05181217
v -0.01952701 0.03285598 0.04881900
v -0.02130079 0.03520107 0.04620075
v -0.03162139 -0.02753496 0.05425417
v -0.04134154 0.01614773 0.04119122
v -0.01856040 0.03647470 0.04622179
v -0.02191543 0.02517312 0.05132174
v -0.02880793 -0.03031635 0.05476248
v -0.04050880 0.01813143 0.04087257
v -0.01835268 0.03389811 0.04848444
v -0.02652597 -0.02880871 0.05596417
v -0.02422326 -0.03107643 0.05616569
v -0.01925301 0.03235542 0.04920125
v -0.02245932 0.03024202 0.04943567
v -0.04052615 0.01519101 0.04588192
v -0.03359872 -0.02644377 0.05316644
v -0.03843241 0.01078873 0.05050969
v -0.03910058 0.01033401 0.05017757
v -0.03948283 0.00556081 0.05123227
v -0.02213197 0.02951472 0.04988646
v -0.03442013 -0.02556020 0.05287218
v -0.01761811 0.03597861 0.04710692
v -0.02036875 0.03455251 0.04725641
v -0.03119516 -0.02776360 0.05442953
v -0.03547137 -0.02434444 0.05250060
v -0.00274849 -0.04279828 0.05580854
v -0.03824770 0.01018542 0.05082494
v -0.03072929 -0.02710056 0.05494976
v -0.03166478 -0.02705574 0.05440783
v -0.02830553 -0.03040760 0.05499976
v -0.03772580 0.00993967 0.05123192
v -0.03857243 0.00587940 0.05174356
v -0.01672559 0.03840351 0.04483032
v -0.02775955 -0.02671432 0.05588102
v -0.02382278 -0.03061574 0.05624759
v -0.01598787 0.03635829 0.04734468
v -0.02703183 -0.02726835 0.05596500
v -0.00406981 -0.04228878 0.05609565
v -0.03979545 0.01370382 0.04797762
v -0.03329002 -0.02560901 0.05387836
v -0.01756274 0.03255915 0.04947668
v -0.03330898 -0.02535915 0.05398416
v -0.01652896 0.03777247 0.04572987
v -0.01300793 0.04206800 0.03985875
v -0.00353956 -0.04188168 0.05639934
v -0.03696310 0.01011443 0.05156624
v -0.03702640 -0.02290123 0.05141258
v -0.03904145 0.01386535 0.04872828
v -0.00480294 -0.04234927 0.05597925
v -0.00490558 -0.04266816 0.05568188
v -0.04010814 0.01816046 0.04326927
v -0.01612210 0.03702133 0.04669332
v -0.03045940 -0.02667045 0.05516815
v -0.00279117 -0.04108691 0.05680024
v -0.01524561 0.03439283 0.04898446
v -0.03667527 0.00941324 0.05189633
v -0.03492355 -0.02440828 0.05308049
v -0.03926301 0.01549428 0.04756021
v -0.03986304 0.01624214 0.04612457
v -0.03321361 -0.02433562 0.05441093
v -0.03825801 0.01386833 0.04946804
v -0.03884518 0.01511830 0.04828101
v -0.01255571 0.04137939 0.04211807
v -0.01594030 0.03662919 0.04713273
v -0.03747648 0.01547902 0.04938602
v -0.03927803 0.01798510 0.04554879
v -0.03030198 -0.02625942 0.05531835
v -0.00473523 -0.04142838 0.05654788
v -0.03505843 0.00976944 0.05234819
v -0.01573181 0.03601074 0.04771971
v -0.03766071 0.01387465 0.04993510
v -0.01241838 0.04100817 0.04296904
v -0.01513433 0.03493988 0.04865998
v -0.00861132 -0.04185062 0.05578303
v -0.01531672 0.03226512 0.05001085
v -0.03880286 0.02083593 0.04283905
v -0.00423861 -0.03992438 0.05701249
v -0.03716462 0.01358747 0.05041456
v -0.01456421 0.03149795 0.05041790
v -0.01210403 0.04012745 0.04456615
v -0.03218787 0.01251316 0.05244839
v -0.03745478 0.01499909 0.04961818
v -0.03896367 0.01144164 0.04988312
v -0.03799057 0.01360076 0.04979968
v -0.00825810 -0.04158169 0.05604749
v -0.03793579 0.01710349 0.04807406
v -0.03301477 0.01056766 0.05260753
v -0.03200912 -0.02422899 0.05501335
v -0.03825855 0.01769161 0.04730594
v -0.00916839 0.04304713 0.03969293
v -0.02845716 -0.02888822 0.05543285
v -0.01368987 0.03129988 0.05054318
v -0.03573268 0.01438134 0.05095511
v -0.01469784 0.03377103 0.04941225
v -0.03678131 -0.02157831 0.05259650
v -0.03566348 0.01338702 0.05127435
v -0.03507137 -0.02289581 0.05361366
v -0.03038311 -0.02435594 0.05552023
v -0.02869749 -0.02677059 0.05571269
v -0.03551882 0.01289820 0.05147731
v -0.01064372 0.03118133 0.05077439
v -0.03815621 0.02057892 0.04485303
v -0.01164335 0.03896802 0.04617303
v -0.00527644 -0.04047411 0.05686306
v -0.03655982 0.01594829 0.04984903
v -0.03429114 -0.02416992 0.05370795
v -0.01411300 0.03295511 0.04989546
v -0.00833011 -0.04082489 0.05648130
v -0.03075647 -0.02495425 0.05535256
v -0.03782141 0.02046412 0.04558259
v -0.01142263 0.03785419 0.04732668
v -0.03411334 0.01366639 0.05178928
v -0.00896573 0.04231166 0.04199385
v -0.03571701 0.01586771 0.05041408
v -0.00683838 0.04348272 0.03962934
v -0.00678593 0.04391568 0.03674298
v -0.00808060 -0.04063165 0.05659085
v -0.03674542 0.01715648 0.04915523
v -0.01076698 0.03697770 0.04815644
v -0.03354817 0.01286983 0.05213296
v -0.03924942 -0.01891034 0.05067205
v -0.03824847 -0.02128553 0.05065816
v -0.03647655 0.01705747 0.04941362
v -0.00725281 0.04222244 0.04286378
v -0.01411724 -0.04084509 0.05501008
v -0.03702259 0.02019017 0.04692888
v -0.03635931 -0.02072006 0.05329269
v -0.03492814 0.01557868 0.05092912
v -0.03829896 -0.01846218 0.05221050
v -0.01224493 -0.04090464 0.05562752
v -0.01004159 0.03144949 0.05073493
v -0.03889894 -0.01801395 0.05170464
v -0.03891307 -0.01732641 0.05193227
v -0.03742361 -0.02102041 0.05208259
v -0.03645128 0.01986938 0.04780578
v -0.04045677 -0.01608133 0.05021524
v -0.01096153 0.03596115 0.04883235
v -0.03573918 0.01677930 0.05004221
v -0.03402501 0.01480716 0.05152863
v -0.01291936 -0.04052007 0.05574619
v -0.03802061 -0.01891976 0.05234581
v -0.00860238 0.03843253 0.04735708
v -0.03811538 -0.01723361 0.05278569
v -0.00859994 0.04085630 0.04469192
v -0.01258850 0.03967094 0.04502862
v -0.01124727 0.04002344 0.04502630
v -0.00551963 0.04290390 0.04193830
v -0.00777721 -0.03921794 0.05697035
v -0.03747093 -0.01744478 0.05328404
v -0.03964036 -0.01554960 0.05171006
v -0.00244725 0.04439043 0.03666687
v -0.01186776 -0.04043173 0.05605667
v -0.00518441 0.04373610 0.03960371
v -0.03858375 -0.01557868 0.05277746
v -0.03577512 0.01963526 0.04858303
v -0.03530836 0.01941418 0.04907858
v -0.01445198 -0.04024249 0.05543583
v -0.00850356 0.04045933 0.04525238
v -0.04250061 -0.01198905 0.04786437
v -0.03355211 0.01744079 0.05094712
v -0.03223848 0.01622956 0.05172699
v -0.03927510 -0.01564121 0.05208015
v -0.01104301 0.03481674 0.04942393
v -0.00759780 0.04000556 0.04596889
v -0.00458085 0.04420572 0.03669083
v -0.03568500 0.02425289 0.04473096
v -0.03626400 0.02493155 0.04237049
v -0.00915861 0.03439992 0.04983258
v -0.03498208 0.01932364 0.04935747
v -0.01288557 -0.03978115 0.05621522
v -0.00350970 0.04294925 0.04232066
v -0.00817096 0.03906100 0.04685646
v -0.01491785 -0.03975504 0.05567520
v -0.00798762 0.03606796 0.04910421
v -0.03499990 0.02667438 0.04203504
v -0.00610352 0.04128783 0.04467487
v -0.00945949 0.03311634 0.05030030
v -0.03418165 0.01901710 0.04999732
v -0.03023815 0.01594853 0.05214184
v -0.04184079 -0.01220470 0.04952996
v -0.03473961 0.02586579 0.04415220
v -0.01381683 -0.03899741 0.05637639
v -0.03789895 -0.01507902 0.05338090
v -0.03356951 0.01858085 0.05049854
v -0.03884309 -0.01497238 0.05265492
v -0.03441673 0.02569472 0.04491227
v -0.00241882 0.04401189 0.03947013
v -0.03714960 -0.01549857 0.05381143
v -0.03453570 0.02411985 0.04646444
v -0.01068061 -0.03943055 0.05674117
v -0.00470543 0.04155540 0.04453182
v -0.00381935 0.04162293 0.04453676
v -0.01181793 -0.03783011 0.05688667
v -0.00593048 0.03780549 0.04822915
v -0.03451567 0.02365756 0.04689598
v -0.00615108 0.03957837 0.04668474
v -0.03316944 0.01834869 0.05076599
v -0.04093819 -0.01230323 0.05095195
v -0.04079049 -0.01135170 0.05136299
v -0.03411924 0.02344024 0.04745352
v -0.04166358 -0.01096916 0.05025380
v -0.04356718 -0.00711381 0.04707449
v -0.00954044 0.03122997 0.05080056
v -0.01762408 -0.03886795 0.05533099
v -0.03346776 0.02550262 0.04633188
v -0.01857417 -0.03892946 0.05479431
v -0.03338181 0.02866911 0.04174834
v -0.03197997 0.01840591 0.05120652
v -0.03620362 -0.01409101 0.05433028
v -0.03713124 -0.01447695 0.05388671
v -0.01490300 -0.03814077 0.05649453
v -0.03986883 -0.01144021 0.05229514
v -0.03333044 0.02497935 0.04694658
v -0.03268003 0.02296441 0.04891031
v -0.00540632 0.03637498 0.04915142
v -0.00143957 0.04284465 0.04273194
v -0.03929710 -0.01096099 0.05281782
v -0.00498581 0.03438568 0.05007839
v -0.01761049 -0.03858423 0.05552828
v -0.04391235 -0.00659615 0.04505306
v -0.01357942 -0.04010766 0.05585163
v -0.04271936 -0.00812435 0.04904985
v -0.00365412 0.03285932 0.05058735
v -0.00480080 0.03537559 0.04967492
v -0.03189241 0.03036463 0.04142284
v -0.00477791 0.03232187 0.05068451
v -0.01779222 -0.03815257 0.05572634
v -0.03222882 0.02455168 0.04819309
v -0.00574267 0.03201377 0.05072903
v -0.03096985 0.01730489 0.05175268
v -0.03260165 0.02821946 0.04421609
v -0.01753044 -0.03813183 0.05584383
v -0.03446412 0.01921427 0.04974710
v -0.00375366 0.03414052 0.05020564
v -0.01724201 -0.03789055 0.05603981
v -0.03177165 0.02451962 0.04853916
v -0.03848832 -0.01048272 0.05334854
v -0.03117692 0.02374225 0.04934614
v -0.01728248 -0.03616994 0.05657935
v -0.03133684 0.02205610 0.05008935
v -0.04299837 -0.00613374 0.04879415
v -0.01460069 -0.03730690 0.05670773
v -0.04177856 -0.00776482 0.05060952
v -0.01750820 -0.03723412 0.05626583
v -0.03776836 -0.01055908 0.05371373
v -0.01647949 -0.03594964 0.05669593
v -0.03127187 0.02993714 0.04361712
v -0.03027302 0.02293562 0.05016046
v -0.04060745 -0.00743765 0.05189555
v -0.04406899 -0.00243038 0.04632633
v -0.03747034 -0.00981712 0.05384850
v -0.03101915 0.02828395 0.04614210
v -0.01711225 -0.03719282 0.05635327
v -0.03054237 0.02553749 0.04865670
v -0.03545713 -0.01355046 0.05455553
v -0.02130365 -0.03745067 0.05461311
v -0.04211276 -0.00587487 0.05027818
v -0.03030121 0.02148950 0.05072724
v -0.03096848 0.02971899 0.04440069
v -0.03100645 0.02766734 0.04669266
v -0.03608506 -0.00936127 0.05426877
v -0.02982771 0.03234457 0.04122442
v -0.04061031 -0.00612116 0.05191278
v -0.02152293 -0.03633326 0.05535197
v -0.02918994 0.02333962 0.05040282
v -0.02989822 0.02747571 0.04771906
v -0.04174453 -0.00578022 0.05074924
v -0.02888697 0.02223229 0.05090004
v -0.03457731 -0.01310348 0.05471146
v -0.02846050 0.02071183 0.05147123
v -0.04329413 -0.00304943 0.04836827
v -0.02880531 0.02809786 0.04797959
v -0.03972244 -0.00610733 0.05258989
v -0.03657066 -0.00858742 0.05408310
v -0.02970290 0.02892392 0.04664462
v -0.01922369 -0.03552937 0.05639141
v -0.02060222 -0.03592842 0.05591893
v -0.03877347 -0.00635713 0.05314105
v -0.02910202 0.03178405 0.04375755
v -0.02884745 0.03040504 0.04590177
v -0.02823472 0.02761518 0.04863333
v -0.02785581 0.03405421 0.04098069
v -0.04253387 -0.00178814 0.04963296
v -0.02633905 0.02120965 0.05165636
v -0.04336911 -0.00098017 0.04808437
v -0.02864509 0.02598190 0.04939240
v -0.03754895 -0.00600815 0.05366230
v -0.04179096 -0.00275803 0.05062764
v -0.02502149 -0.03513932 0.05410897
v -0.02040100 -0.03533840 0.05616635
v -0.02864396 0.02785581 0.04825389
v -0.04406279 0.00138521 0.04576987
v -0.02481043 -0.03480476 0.05455011
v -0.02707093 0.02616494 0.04994195
v -0.02761751 0.02886158 0.04811954
v -0.04084897 -0.00200844 0.05147641
v -0.03864288 -0.00331491 0.05302882
v -0.03587573 -0.00547790 0.05403798
v -0.02401536 -0.03311491 0.05580878
v -0.02034378 -0.03454208 0.05637383
v -0.02626723 0.03529226 0.04080396
v -0.02740937 0.02434009 0.05058765
v -0.04334014 0.00160497 0.04773491
v -0.02716559 0.03343951 0.04354453
v -0.02030938 -0.03414195 0.05644309
v -0.02678215 -0.03371268 0.05397570
v -0.02460205 -0.03448116 0.05491131
v -0.02256196 -0.03652501 0.05464118
v -0.02690213 0.03162568 0.04622834
v -0.04162788 -0.00074673 0.05060768
v -0.04001986 -0.00247800 0.05214351
v -0.02752107 0.02726173 0.04920011
v -0.02708423 0.02994436 0.04761677
v -0.02493184 -0.03381025 0.05512726
v -0.02569228 0.02433151 0.05100530
v -0.03917878 -0.00215149 0.05265665
v -0.03684425 -0.00166696 0.05349636
v -0.02658480 -0.03349703 0.05430901
v -0.04370075 0.00582933 0.04511809
v -0.04083013 0.00149721 0.05103445
v -0.02530038 0.02696251 0.05015093
v -0.02412223 -0.03375571 0.05552303
v -0.02601695 0.02507317 0.05070126
v -0.02560734 0.03463733 0.04339009
v -0.04219573 0.00164509 0.04954808
v -0.02637243 0.03264600 0.04550302
v -0.02666401 0.02953898 0.04816854
v -0.04012203 0.00036144 0.05174630
v -0.02651149 -0.03313177 0.05461722
v -0.02643090 0.02931141 0.04844486
v -0.02672141 -0.03263562 0.05478900
v -0.02578818 0.02867740 0.04912734
v -0.03922432 0.00031853 0.05232501
v -0.04320991 0.00479400 0.04698258
v -0.03790032 -0.00246066 0.05323219
v -0.04249590 0.00490427 0.04831498
v -0.02416461 0.03241062 0.04729652
v -0.02388668 0.02462577 0.05121344
v -0.02894783 -0.03195047 0.05360615
v -0.02487367 0.02854460 0.04954242
v -0.03722596 -0.00216049 0.05343914
v -0.02518558 0.03355211 0.04541009
v -0.02512973 0.03132051 0.04763692
v -0.02410906 0.02853554 0.04979294
v -0.02873861 -0.03168541 0.05399620
v -0.04296374 0.00655091 0.04674237
v -0.02405643 0.03194230 0.04773181
v -0.02459484 0.03073060 0.04833590
v -0.02445310 0.03333884 0.04618346
v -0.03590708 -0.00085245 0.05359297
v -0.03006112 -0.03086853 0.05346268
v -0.02368301 0.02729779 0.05043774
v -0.02224820 0.03709363 0.04268068
v -0.02277398 0.03767055 0.04049706
v -0.02630513 -0.03310555 0.05476534
v -0.03852850 0.00179464 0.05247443
v -0.04076153 0.00482690 0.05037963
v -0.02201581 0.03678327 0.04350596
v -0.02547550 -0.03348088 0.05504179
v -0.02606046 -0.03255516 0.05520898
v -0.02019447 0.03908830 0.04026216
v -0.04026216 0.00481152 0.05082219
v -0.03765136 0.00393802 0.05251502
v -0.03486865 0.00508112 0.05309367
v 0.01904034 0.04033917 0.03537029
v 0.02342903 0.03795570 0.03617900
v 0.02750957 0.03515249 0.03630912
v 0.03328233 0.02982103 0.03667443
v 0.03148794 -0.02405929 0.05529427
v 0.03495073 -0.01314198 0.05470180
v 0.03526592 -0.02229779 0.05378502
v -0.00564468 0.03922653 0.04701417
v -0.00191420 0.04144948 0.04482245
v -0.00015928 0.04147446 0.04484248
v -0.00552177 0.04083633 0.04536819
v -0.03395467 -0.01282542 0.05474483
v -0.03739738 -0.01851129 0.05308955
v -0.01872903 0.04174143 0.01598745
v 0.02093577 0.04076814 0.01659661
v 0.02516806 0.03831857 0.01736104
v -0.02303141 0.03950673 0.01687264
v -0.02715301 0.03674209 0.01801127
v -0.02961605 0.03473448 0.01879894
v -0.03229659 0.03223031 0.01979929
v 0.00397974 0.04563868 0.01464867
v 0.00016096 0.04582566 0.01443958
v -0.00469935 0.04558235 0.01447886
v -0.00957632 0.04479181 0.01475554
v 0.02913218 0.03539699 0.01852798
v -0.01390528 0.04362493 0.01521533
v 0.04525429 -0.00491631 0.03482294
v 0.04335159 0.01440656 0.02709478
v 0.03466463 0.02985239 0.02103710
v -0.03547137 0.02862077 0.02131623
v -0.03836363 0.02451550 0.02294492
v -0.04077839 0.02016055 0.02468639
v -0.04275673 0.01538437 0.02662163
v -0.04497247 0.00562912 0.03069299
v -0.04529130 0.00080949 0.03250789
v -0.04508841 -0.00390768 0.03441232
v -0.02566790 0.03787904 0.01383501
v -0.02912855 0.03525882 0.01489526
v -0.02172976 0.04031616 0.01285630
v -0.01753687 0.04233723 0.01204073
v -0.01309967 0.04394155 0.01141136
v -0.00873411 0.04503166 0.01096946
v -0.00606966 0.04547375 0.01078724
v -0.00370556 0.04572361 0.01058977
v -0.04535186 0.00106525 0.02856546
v -0.04500275 0.00609100 0.02660411
v -0.04416346 0.01081132 0.02473807
v -0.04420894 0.01027858 0.02868139
v -0.04271727 0.01569563 0.02275079
v -0.04069942 0.02046650 0.02083301
v -0.03574520 0.02838593 0.01762944
v -0.03275007 0.03184366 0.01626545
v -0.03837072 0.02463275 0.01915168
v 0.02565497 0.03807049 0.01376402
v 0.02977162 0.03494143 0.01500862
v 0.00380433 0.04575479 0.01067161
v 0.04157543 0.01919126 0.02137190
v 0.01244080 0.04420357 0.01130092
v 0.04470413 0.00954324 0.02508908
f 19 97 104
f 19 104 5
f 59 9 11
f 9 14 11
f 124 104 97
f 124 110 104
f 104 110 118
f 115 5 8
f 77 116 15
f 39 83 94
f 126 97 19
f 1063 9 25
f 29 1054 25
f 25 9 59
f 59 62 25
f 32 25 39
f 100 110 102
f 1052 1064 1063
f 99 97 101
f 97 113 101
f 105 113 97
f 105 14 9
f 1064 113 105
f 97 126 105
f 105 126 14
f 1063 1064 105
f 1065 113 1064
f 1068 97 99
f 59 11 58
f 102 110 106
f 110 124 106
f 106 124 123
f 574 110 573
f 15 116 12
f 8 5 12
f 12 5 104
f 104 15 12
f 44 15 588
f 44 77 15
f 19 62 17
f 17 126 19
f 14 126 127
f 126 57 127
f 557 1054 29
f 813 30 32
f 570 569 1076
f 1076 569 571
f 117 15 104
f 104 122 117
f 580 579 581
f 104 580 1075
f 128 122 104
f 128 583 122
f 104 1075 128
f 128 1075 583
f 837 871 839
f 903 871 927
f 842 871 837
f 1062 568 102
f 1074 100 102
f 102 568 1074
f 570 100 1074
f 1074 569 570
f 1057 1058 123
f 2 9 1063
f 1063 105 2
f 2 105 9
f 22 101 113
f 113 1065 22
f 22 1065 101
f 97 1068 1071
f 125 11 14
f 125 58 11
f 14 127 66
f 66 127 57
f 68 57 62
f 68 62 59
f 59 58 68
f 68 66 57
f 14 66 68
f 68 125 14
f 58 125 68
f 96 95 97
f 1069 95 96
f 97 1071 96
f 96 1071 1069
f 123 1058 108
f 108 106 123
f 124 1056 1055
f 123 124 1055
f 1035 1057 1055
f 1055 1057 123
f 121 1056 124
f 121 124 97
f 97 95 121
f 104 118 120
f 118 107 120
f 120 580 104
f 577 579 580
f 580 120 577
f 577 120 107
f 1072 1043 1073
f 39 94 65
f 993 65 24
f 91 92 94
f 784 91 728
f 92 91 784
f 89 57 126
f 126 17 89
f 62 57 89
f 89 17 62
f 856 557 874
f 874 557 29
f 1054 557 1053
f 1063 25 1053
f 1053 25 1054
f 1053 1052 1063
f 637 655 39
f 39 65 637
f 637 65 638
f 33 32 39
f 39 36 33
f 32 30 87
f 29 25 87
f 25 32 87
f 856 874 87
f 87 874 29
f 87 813 856
f 30 813 87
f 573 1076 572
f 572 1076 571
f 571 569 219
f 98 100 570
f 570 1076 98
f 110 100 98
f 15 117 1
f 1 117 585
f 588 15 1
f 1 585 588
f 1077 583 584
f 122 583 1077
f 585 117 1077
f 584 586 1077
f 1077 586 585
f 546 581 579
f 575 1073 578
f 578 1073 1043
f 580 581 582
f 582 1075 580
f 583 1075 582
f 590 599 602
f 803 1031 781
f 803 842 837
f 871 842 891
f 927 871 891
f 1060 106 1059
f 106 108 1059
f 1058 1044 1059
f 1059 108 1058
f 1032 1044 1058
f 1032 1057 1035
f 1058 1057 1032
f 1040 1074 568
f 568 1062 1040
f 1049 1071 1068
f 1069 1071 1049
f 904 557 856
f 1035 1055 1036
f 1036 1055 1056
f 1070 95 1069
f 1070 121 95
f 1056 121 1070
f 576 577 107
f 576 118 575
f 576 107 118
f 575 578 576
f 576 578 1047
f 576 1047 579
f 579 577 576
f 1072 574 1034
f 1034 1043 1072
f 1020 1034 357
f 1072 1073 119
f 119 574 1072
f 110 574 119
f 119 118 110
f 581 546 174
f 174 582 581
f 83 34 26
f 64 65 94
f 24 65 64
f 960 993 24
f 24 64 960
f 960 64 943
f 910 858 918
f 31 92 811
f 811 858 31
f 94 92 31
f 92 784 794
f 19 4 21
f 46 4 6
f 19 16 10
f 114 54 20
f 114 20 5
f 5 130 114
f 5 115 55
f 918 858 873
f 591 599 590
f 842 803 714
f 714 803 781
f 842 714 742
f 369 600 731
f 847 599 900
f 847 600 599
f 776 33 36
f 39 655 679
f 558 1053 557
f 557 904 558
f 834 813 32
f 32 790 834
f 453 467 454
f 571 219 243
f 111 98 1076
f 111 1076 573
f 110 98 111
f 573 110 111
f 23 117 122
f 122 1077 23
f 23 1077 117
f 579 1047 526
f 526 546 579
f 132 546 526
f 143 505 516
f 143 541 505
f 516 144 143
f 143 142 541
f 1031 803 797
f 781 1031 749
f 749 679 711
f 871 903 866
f 903 853 866
f 866 839 871
f 842 742 863
f 103 106 1060
f 1060 1061 103
f 102 106 103
f 103 1061 1062
f 103 1062 102
f 1074 1040 1039
f 569 1074 1039
f 603 591 1030
f 1069 1049 1048
f 1048 1070 1069
f 1035 1036 560
f 1033 574 573
f 573 572 1033
f 1033 1034 574
f 1033 357 1034
f 291 290 388
f 388 357 291
f 417 357 388
f 109 119 1073
f 118 119 109
f 575 118 109
f 109 1073 575
f 43 504 42
f 78 445 43
f 77 44 78
f 78 1045 445
f 43 42 78
f 83 77 78
f 728 91 27
f 369 336 354
f 354 600 369
f 599 600 354
f 280 309 348
f 348 309 322
f 313 321 329
f 313 38 63
f 313 63 40
f 40 321 313
f 35 34 83
f 83 37 35
f 542 168 34
f 72 321 40
f 40 26 72
f 34 168 73
f 73 26 34
f 860 910 94
f 858 910 860
f 94 31 860
f 860 31 858
f 943 64 962
f 962 64 94
f 94 910 962
f 918 961 962
f 962 910 918
f 811 92 779
f 779 794 811
f 92 794 779
f 76 21 4
f 19 10 7
f 7 4 19
f 6 4 7
f 16 85 84
f 90 114 130
f 54 114 90
f 51 55 77
f 54 90 51
f 51 77 83
f 51 90 130
f 51 130 5
f 77 55 56
f 116 77 56
f 56 12 116
f 944 954 623
f 624 623 959
f 959 623 954
f 752 688 603
f 909 863 752
f 752 863 742
f 689 591 691
f 691 665 689
f 688 665 691
f 603 688 691
f 691 591 603
f 751 714 781
f 781 749 751
f 751 749 711
f 972 960 943
f 613 623 624
f 600 847 802
f 758 731 802
f 802 731 600
f 701 776 36
f 701 36 39
f 39 679 701
f 788 776 701
f 701 749 788
f 679 749 701
f 33 776 775
f 32 33 775
f 775 790 32
f 775 776 788
f 636 637 638
f 655 637 636
f 516 505 494
f 571 243 262
f 262 572 571
f 291 572 262
f 262 290 291
f 1047 578 485
f 1043 1034 418
f 418 1021 1043
f 418 1034 1020
f 418 357 417
f 1020 357 418
f 541 142 133
f 169 532 183
f 395 427 452
f 452 427 458
f 458 501 452
f 452 501 481
f 344 338 345
f 345 338 286
f 83 367 424
f 424 37 83
f 602 311 310
f 592 593 310
f 310 311 341
f 218 244 216
f 216 208 218
f 185 208 176
f 296 244 218
f 296 311 602
f 244 296 339
f 816 853 804
f 839 866 816
f 816 866 853
f 1031 797 795
f 795 749 1031
f 788 749 795
f 852 855 834
f 852 790 804
f 852 834 790
f 804 853 852
f 853 855 852
f 864 891 842
f 842 863 864
f 1070 1048 1038
f 1056 1070 1038
f 228 243 219
f 219 205 228
f 210 205 201
f 210 228 205
f 201 205 200
f 200 1040 199
f 200 1039 1040
f 199 1040 805
f 1042 1059 1044
f 1060 1059 1042
f 1042 1061 1060
f 915 941 928
f 551 1048 1049
f 1049 550 551
f 99 101 1067
f 101 1065 1067
f 1065 1051 1067
f 1067 1068 99
f 1050 1049 1068
f 1050 550 1049
f 1068 1067 1050
f 1050 1067 1051
f 561 558 973
f 1052 1053 561
f 1053 558 561
f 659 1051 564
f 609 561 973
f 565 561 609
f 609 564 565
f 946 988 973
f 973 558 946
f 946 558 904
f 562 1032 1035
f 1035 560 562
f 291 357 1019
f 357 1033 1019
f 1019 572 291
f 1019 1033 572
f 387 454 417
f 417 388 387
f 387 388 290
f 453 454 387
f 41 42 540
f 583 582 1046
f 584 583 1046
f 1046 303 584
f 251 303 1046
f 582 174 175
f 175 1046 582
f 251 1046 175
f 352 382 420
f 1045 78 587
f 587 44 588
f 587 78 44
f 586 396 587
f 588 585 587
f 585 586 587
f 3 27 91
f 3 91 94
f 3 26 40
f 3 94 83
f 83 26 3
f 28 27 3
f 40 63 3
f 3 38 28
f 63 38 3
f 722 708 758
f 699 708 722
f 703 739 728
f 703 722 739
f 280 348 331
f 347 699 329
f 347 708 699
f 329 331 347
f 347 331 348
f 458 427 432
f 432 501 458
f 322 309 238
f 177 73 168
f 26 73 177
f 943 962 947
f 947 962 961
f 947 972 943
f 930 954 944
f 944 898 930
f 898 907 930
f 930 959 954
f 931 898 944
f 918 886 931
f 931 886 898
f 4 46 75
f 75 76 4
f 46 76 75
f 79 76 62
f 21 76 79
f 79 62 19
f 19 21 79
f 45 46 6
f 6 7 45
f 50 45 7
f 50 51 83
f 50 83 39
f 39 25 50
f 50 25 62
f 62 76 50
f 50 76 46
f 46 45 50
f 16 84 86
f 86 84 67
f 49 84 85
f 49 85 16
f 67 84 52
f 84 49 52
f 52 50 67
f 51 50 52
f 60 10 61
f 5 20 18
f 5 55 53
f 53 51 5
f 55 51 53
f 93 56 55
f 93 115 8
f 93 55 115
f 8 12 93
f 12 56 93
f 624 959 666
f 666 665 624
f 689 665 666
f 589 959 900
f 900 599 589
f 689 666 589
f 589 666 959
f 599 591 589
f 589 591 689
f 763 742 721
f 763 752 742
f 624 665 622
f 753 665 688
f 688 752 753
f 753 622 665
f 753 763 721
f 752 763 753
f 714 751 696
f 983 947 961
f 972 947 983
f 918 931 976
f 711 679 675
f 675 679 655
f 655 636 675
f 711 675 670
f 670 675 636
f 670 636 638
f 476 494 505
f 417 454 476
f 476 454 467
f 467 494 476
f 161 226 135
f 226 137 135
f 328 279 340
f 328 387 290
f 340 387 328
f 290 262 265
f 265 262 243
f 265 328 290
f 279 328 265
f 1022 526 1047
f 1047 485 1022
f 1022 485 526
f 457 578 1043
f 457 485 578
f 1043 1021 457
f 457 418 417
f 1021 418 457
f 526 485 525
f 132 526 525
f 134 546 132
f 134 174 546
f 134 160 174
f 251 175 259
f 343 355 390
f 197 226 284
f 197 137 226
f 197 182 183
f 142 143 145
f 145 143 144
f 217 278 257
f 257 160 217
f 160 134 217
f 532 169 524
f 524 144 516
f 524 169 144
f 408 427 395
f 422 427 408
f 517 507 481
f 481 501 517
f 523 507 517
f 473 470 437
f 437 443 473
f 473 443 481
f 481 507 473
f 481 443 448
f 448 452 481
f 314 81 220
f 338 81 314
f 220 286 314
f 314 286 338
f 80 162 220
f 220 81 80
f 41 162 80
f 80 81 83
f 80 42 41
f 83 78 80
f 80 78 42
f 338 344 82
f 82 81 338
f 82 344 345
f 345 361 82
f 83 81 82
f 82 367 83
f 82 361 367
f 345 286 337
f 459 470 37
f 37 424 459
f 437 470 459
f 459 424 437
f 374 361 345
f 367 361 374
f 374 381 367
f 406 448 443
f 395 452 406
f 452 448 406
f 152 176 263
f 188 235 189
f 839 816 808
f 808 816 797
f 808 797 803
f 837 839 808
f 808 803 837
f 804 790 786
f 790 775 786
f 786 775 788
f 788 795 786
f 797 816 787
f 787 816 804
f 804 786 787
f 917 903 927
f 942 917 950
f 897 853 903
f 897 855 853
f 939 946 904
f 834 855 876
f 855 897 876
f 876 897 911
f 856 813 876
f 813 834 876
f 928 941 905
f 905 915 928
f 905 863 909
f 909 915 905
f 1037 1036 1056
f 1056 1038 1037
f 661 593 592
f 661 595 593
f 938 595 661
f 791 848 773
f 213 1027 1028
f 392 436 380
f 267 281 250
f 201 204 203
f 203 210 201
f 203 204 213
f 213 1028 246
f 246 1028 253
f 250 281 274
f 274 275 250
f 281 316 274
f 230 246 239
f 250 275 239
f 239 246 250
f 227 203 229
f 210 203 227
f 227 274 260
f 275 274 227
f 227 239 275
f 229 230 227
f 230 239 227
f 206 205 219
f 206 200 205
f 206 219 569
f 569 1039 206
f 1039 200 206
f 654 647 698
f 744 567 698
f 1061 1042 1041
f 819 805 1041
f 1062 1061 1041
f 1041 805 1040
f 1041 1040 1062
f 923 915 909
f 603 1030 923
f 923 752 603
f 909 752 923
f 598 597 601
f 598 1030 591
f 598 591 590
f 590 602 598
f 602 597 598
f 941 915 952
f 952 598 601
f 915 923 952
f 952 923 1030
f 1030 598 952
f 723 652 741
f 1018 741 652
f 601 597 1018
f 1018 597 735
f 735 741 1018
f 774 741 735
f 723 741 774
f 820 835 821
f 553 1038 1048
f 663 1051 659
f 663 1050 1051
f 550 1050 663
f 663 705 550
f 1066 564 1051
f 565 564 1066
f 1066 1051 1065
f 1066 561 565
f 1066 1065 1064
f 1052 561 1066
f 1064 1052 1066
f 564 609 608
f 659 564 608
f 609 650 608
f 608 663 659
f 705 663 608
f 936 955 556
f 1036 1037 556
f 404 387 340
f 404 413 453
f 453 387 404
f 41 540 147
f 528 42 504
f 528 540 42
f 540 528 158
f 158 528 504
f 220 162 236
f 236 286 220
f 584 303 353
f 353 586 584
f 353 303 352
f 353 396 586
f 352 396 353
f 471 444 442
f 416 444 445
f 416 587 396
f 445 1045 416
f 1045 587 416
f 442 444 426
f 426 420 442
f 426 416 396
f 444 416 426
f 402 382 390
f 402 420 382
f 680 313 329
f 28 38 680
f 38 313 680
f 680 27 28
f 329 321 327
f 327 331 329
f 280 331 327
f 708 347 360
f 369 731 360
f 360 731 758
f 758 708 360
f 421 427 422
f 422 432 421
f 421 432 427
f 501 432 522
f 522 223 184
f 184 501 522
f 440 432 422
f 237 336 322
f 322 238 237
f 237 238 148
f 214 309 280
f 214 238 309
f 148 150 155
f 26 177 249
f 249 72 26
f 321 72 249
f 249 327 321
f 865 907 898
f 918 873 881
f 881 886 918
f 873 886 881
f 69 10 60
f 54 51 47
f 51 52 47
f 129 18 47
f 112 49 16
f 112 52 49
f 112 16 19
f 19 5 112
f 5 18 112
f 112 18 129
f 13 61 10
f 13 10 16
f 67 74 13
f 16 86 13
f 13 86 67
f 760 751 711
f 711 696 760
f 760 696 751
f 627 662 625
f 682 742 714
f 985 983 1009
f 953 976 931
f 953 931 944
f 944 623 953
f 623 613 953
f 684 682 662
f 625 696 694
f 694 670 625
f 694 696 711
f 711 670 694
f 631 670 638
f 625 670 631
f 502 476 505
f 505 541 502
f 453 413 461
f 243 228 261
f 261 265 243
f 260 279 261
f 279 265 261
f 538 133 132
f 132 525 538
f 541 133 538
f 538 502 541
f 525 502 538
f 221 160 257
f 257 259 221
f 221 259 175
f 174 160 221
f 221 175 174
f 326 303 251
f 251 259 326
f 352 303 326
f 326 382 352
f 287 324 363
f 363 324 368
f 257 278 304
f 304 278 287
f 355 343 304
f 287 363 304
f 304 363 355
f 137 197 136
f 136 539 137
f 183 182 166
f 166 169 183
f 144 169 166
f 166 145 144
f 317 268 269
f 269 197 284
f 131 133 142
f 131 217 134
f 132 133 131
f 131 134 132
f 401 408 395
f 495 35 37
f 395 406 393
f 441 411 449
f 306 411 350
f 350 411 441
f 389 490 455
f 499 534 527
f 499 460 508
f 508 534 499
f 152 263 254
f 254 161 152
f 254 226 161
f 276 216 244
f 244 339 276
f 276 263 176
f 176 208 276
f 208 216 276
f 394 339 296
f 394 296 188
f 188 189 394
f 783 795 797
f 797 787 783
f 783 786 795
f 783 787 786
f 964 942 950
f 921 942 911
f 917 942 921
f 903 917 921
f 921 897 903
f 911 897 921
f 911 942 937
f 937 964 979
f 942 964 937
f 988 946 957
f 946 939 957
f 957 937 979
f 939 937 957
f 925 939 904
f 925 937 939
f 911 937 925
f 927 970 965
f 965 917 927
f 950 917 965
f 932 970 927
f 932 905 941
f 927 891 932
f 891 864 899
f 899 932 891
f 905 932 899
f 899 864 863
f 863 905 899
f 840 835 820
f 605 632 646
f 990 957 979
f 988 957 990
f 735 597 596
f 298 282 877
f 298 310 341
f 298 883 310
f 306 888 293
f 877 282 293
f 293 888 877
f 878 888 306
f 310 883 857
f 785 755 857
f 857 883 785
f 785 877 831
f 877 888 831
f 831 755 785
f 796 773 848
f 734 687 799
f 765 757 718
f 773 796 765
f 826 757 765
f 765 796 826
f 726 687 734
f 647 687 726
f 253 848 272
f 848 273 272
f 340 279 295
f 295 279 260
f 260 274 295
f 295 274 316
f 413 380 423
f 423 461 413
f 462 461 423
f 378 316 281
f 281 380 378
f 378 380 413
f 283 267 253
f 253 272 283
f 349 267 362
f 392 380 349
f 349 362 392
f 349 380 281
f 281 267 349
f 222 230 229
f 229 203 222
f 222 203 213
f 213 246 222
f 222 246 230
f 252 267 250
f 250 246 252
f 253 267 252
f 252 246 253
f 228 210 242
f 210 227 242
f 242 227 260
f 260 261 242
f 242 261 228
f 841 805 819
f 819 807 841
f 1042 567 770
f 770 1041 1042
f 819 1041 770
f 770 807 819
f 922 924 977
f 862 924 922
f 977 924 969
f 815 924 862
f 550 705 730
f 730 551 550
f 730 821 551
f 552 553 1048
f 554 1037 1038
f 1038 553 554
f 936 556 554
f 712 693 716
f 988 990 1000
f 973 988 1000
f 1000 609 973
f 669 720 705
f 705 608 669
f 713 720 669
f 669 608 650
f 669 712 713
f 693 712 669
f 648 647 654
f 1008 562 560
f 1007 648 1008
f 560 556 1008
f 1008 556 955
f 978 1008 955
f 1007 1008 978
f 559 560 1036
f 1036 556 559
f 559 556 560
f 302 337 286
f 286 236 302
f 335 337 302
f 319 269 284
f 317 269 319
f 359 276 339
f 263 276 359
f 497 450 515
f 405 450 497
f 515 151 497
f 497 151 140
f 1024 440 305
f 305 440 332
f 496 140 139
f 475 140 496
f 496 493 475
f 165 496 139
f 211 231 297
f 520 158 504
f 536 520 489
f 444 471 489
f 352 420 412
f 420 426 412
f 412 396 352
f 412 426 396
f 703 680 692
f 699 722 692
f 722 703 692
f 329 699 692
f 692 680 329
f 27 680 704
f 704 680 703
f 728 27 704
f 704 703 728
f 358 360 347
f 358 348 322
f 358 347 348
f 369 360 358
f 358 336 369
f 322 336 358
f 478 522 432
f 432 440 478
f 465 223 478
f 223 522 478
f 224 223 465
f 186 237 148
f 190 214 280
f 190 177 168
f 149 537 150
f 270 249 177
f 270 190 280
f 177 190 270
f 280 327 270
f 327 249 270
f 896 847 900
f 893 930 907
f 907 865 893
f 865 896 893
f 893 896 900
f 900 959 893
f 959 930 893
f 728 739 806
f 806 784 728
f 806 794 784
f 771 722 758
f 898 886 889
f 889 865 898
f 71 50 7
f 60 61 71
f 71 69 60
f 71 7 10
f 10 69 71
f 129 47 48
f 48 47 52
f 48 112 129
f 52 112 48
f 20 54 88
f 54 47 88
f 88 18 20
f 88 47 18
f 70 13 74
f 61 13 70
f 70 74 67
f 67 50 70
f 50 71 70
f 70 71 61
f 638 65 1005
f 65 993 1005
f 662 627 645
f 625 662 678
f 662 682 678
f 617 753 721
f 622 753 617
f 624 622 617
f 721 742 707
f 742 682 707
f 985 1009 1013
f 1013 983 961
f 1013 1009 983
f 1014 662 985
f 1014 684 662
f 985 1013 1014
f 1014 1013 976
f 626 627 625
f 625 631 626
f 626 631 638
f 638 1005 626
f 626 1005 993
f 503 525 485
f 503 502 525
f 485 457 503
f 543 135 137
f 137 539 543
f 161 135 543
f 491 499 527
f 460 499 491
f 462 423 472
f 535 514 539
f 532 524 506
f 173 534 508
f 173 185 176
f 382 326 325
f 390 382 325
f 325 343 390
f 257 304 325
f 325 304 343
f 325 259 257
f 325 326 259
f 317 375 308
f 308 375 324
f 391 363 368
f 390 355 391
f 355 363 391
f 391 402 390
f 234 269 268
f 182 197 234
f 197 269 234
f 278 217 240
f 240 245 278
f 217 131 240
f 142 245 240
f 240 131 142
f 156 501 184
f 148 155 156
f 156 155 150
f 150 537 156
f 184 186 156
f 156 186 148
f 529 517 501
f 529 537 517
f 470 473 474
f 37 470 474
f 474 495 37
f 474 473 507
f 507 495 474
f 523 542 513
f 35 495 513
f 34 35 513
f 513 542 34
f 335 1025 356
f 1025 401 356
f 367 381 400
f 381 383 400
f 400 383 393
f 400 393 406
f 377 393 372
f 372 356 377
f 377 356 401
f 377 401 395
f 395 393 377
f 323 401 1025
f 297 408 323
f 408 401 323
f 531 490 218
f 441 449 409
f 409 350 441
f 508 460 409
f 409 449 508
f 508 449 209
f 209 173 508
f 185 173 209
f 218 208 209
f 208 185 209
f 209 531 218
f 209 449 455
f 455 490 209
f 490 531 209
f 455 449 482
f 482 449 411
f 482 389 455
f 411 389 482
f 285 272 273
f 410 389 341
f 490 389 410
f 341 311 410
f 218 490 410
f 410 296 218
f 311 296 410
f 895 876 911
f 911 925 895
f 856 876 895
f 895 904 856
f 895 925 904
f 982 965 970
f 950 965 982
f 951 932 941
f 970 932 951
f 951 620 970
f 601 1018 621
f 941 952 971
f 971 621 620
f 601 621 971
f 970 620 1010
f 936 554 916
f 835 840 885
f 1016 632 1011
f 672 632 681
f 672 646 632
f 607 632 605
f 607 1011 632
f 607 990 979
f 979 1011 607
f 610 669 650
f 610 650 609
f 609 1000 610
f 716 693 702
f 605 646 640
f 646 702 640
f 640 702 693
f 593 595 594
f 595 596 594
f 594 310 593
f 594 596 597
f 602 310 594
f 594 597 602
f 653 618 661
f 653 661 592
f 653 857 755
f 592 310 653
f 310 857 653
f 880 298 877
f 883 298 880
f 880 877 785
f 785 883 880
f 342 389 411
f 342 411 306
f 306 293 342
f 869 273 848
f 289 878 306
f 289 285 273
f 273 869 289
f 289 869 878
f 888 878 872
f 872 831 888
f 878 869 822
f 822 872 878
f 831 872 822
f 761 733 822
f 822 733 831
f 709 695 748
f 791 709 748
f 253 1028 850
f 850 1028 1027
f 1027 1029 850
f 826 796 850
f 850 796 848
f 757 812 800
f 800 799 757
f 734 799 800
f 757 799 697
f 697 799 687
f 687 644 697
f 429 380 436
f 429 423 380
f 436 472 429
f 429 472 423
f 413 404 366
f 366 378 413
f 366 404 340
f 316 378 366
f 340 295 366
f 366 295 316
f 397 403 446
f 397 436 392
f 446 436 397
f 392 362 397
f 362 267 320
f 267 283 320
f 202 204 201
f 202 841 204
f 202 200 199
f 201 200 202
f 199 805 202
f 805 841 202
f 566 698 567
f 654 698 566
f 566 1042 1044
f 566 567 1042
f 661 618 616
f 616 618 615
f 615 1006 616
f 977 969 616
f 616 1006 977
f 735 596 833
f 833 596 595
f 833 595 938
f 938 924 833
f 705 720 756
f 756 730 705
f 820 821 756
f 821 730 756
f 1048 551 549
f 549 552 1048
f 551 821 549
f 555 556 1037
f 1037 554 555
f 555 554 556
f 1012 648 1007
f 1007 978 1012
f 629 687 647
f 647 648 629
f 648 1012 629
f 1015 648 654
f 1015 1008 648
f 654 562 1015
f 562 1008 1015
f 933 916 901
f 936 916 933
f 545 159 158
f 545 520 536
f 158 520 545
f 158 159 193
f 248 302 236
f 428 189 515
f 515 450 428
f 428 394 189
f 339 394 428
f 386 450 405
f 386 359 339
f 312 254 263
f 263 359 312
f 226 254 312
f 447 391 414
f 475 493 466
f 447 414 466
f 368 324 370
f 324 375 370
f 370 391 368
f 376 375 317
f 163 207 231
f 231 211 163
f 163 165 139
f 164 165 163
f 163 211 164
f 139 140 138
f 138 163 139
f 207 163 138
f 178 207 138
f 488 140 475
f 488 497 140
f 405 497 488
f 464 1024 330
f 465 464 330
f 330 602 599
f 599 354 330
f 330 235 188
f 330 296 602
f 188 296 330
f 181 305 178
f 181 1024 305
f 181 151 515
f 515 189 181
f 181 189 235
f 235 330 181
f 181 330 1024
f 1023 440 422
f 1023 332 440
f 231 207 271
f 297 231 271
f 271 207 178
f 178 305 271
f 305 332 271
f 271 408 297
f 422 408 271
f 271 1023 422
f 332 1023 271
f 492 468 498
f 498 496 512
f 451 468 492
f 518 547 536
f 492 498 518
f 512 496 530
f 496 165 530
f 544 165 164
f 544 530 165
f 547 518 544
f 518 530 544
f 487 489 471
f 487 471 442
f 536 489 487
f 442 451 487
f 487 451 492
f 487 518 536
f 492 518 487
f 444 489 477
f 445 444 477
f 477 520 504
f 477 489 520
f 477 504 43
f 43 445 477
f 463 478 440
f 463 1024 464
f 440 1024 463
f 463 464 465
f 465 478 463
f 187 186 184
f 184 223 187
f 223 224 187
f 214 190 179
f 148 238 179
f 238 214 179
f 179 150 148
f 179 149 150
f 847 896 844
f 844 896 865
f 844 802 847
f 758 802 844
f 844 771 758
f 794 806 875
f 985 662 651
f 651 645 985
f 662 645 651
f 658 696 625
f 625 678 658
f 682 684 634
f 918 976 968
f 976 1013 968
f 968 961 918
f 968 1013 961
f 999 645 627
f 627 626 999
f 999 626 993
f 993 960 999
f 960 972 999
f 972 983 999
f 999 983 985
f 985 645 999
f 456 457 417
f 456 503 457
f 417 476 456
f 476 502 456
f 502 503 456
f 521 491 527
f 539 514 521
f 527 543 521
f 521 543 539
f 425 491 446
f 460 491 425
f 446 403 425
f 486 436 446
f 446 491 486
f 491 521 486
f 486 521 514
f 539 136 194
f 194 535 539
f 194 197 183
f 194 136 197
f 183 532 194
f 532 535 194
f 469 461 462
f 469 494 467
f 469 467 453
f 453 461 469
f 500 506 524
f 516 494 500
f 500 524 516
f 494 469 500
f 500 469 462
f 511 472 514
f 154 176 152
f 154 173 176
f 534 173 154
f 527 534 154
f 294 324 287
f 294 308 324
f 294 256 308
f 245 256 294
f 287 278 294
f 278 245 294
f 264 256 182
f 182 234 264
f 264 234 268
f 308 256 264
f 264 268 317
f 317 308 264
f 182 256 192
f 192 166 182
f 145 166 192
f 142 145 192
f 192 245 142
f 192 256 245
f 548 529 501
f 537 529 548
f 501 156 548
f 548 156 537
f 519 495 507
f 519 513 495
f 519 507 523
f 523 513 519
f 365 383 381
f 381 374 365
f 365 374 345
f 345 364 365
f 372 393 373
f 393 383 373
f 373 365 364
f 383 365 373
f 351 356 372
f 372 373 351
f 351 373 364
f 345 337 351
f 351 364 345
f 351 337 335
f 335 356 351
f 439 406 443
f 195 323 277
f 164 211 195
f 195 211 297
f 297 323 195
f 195 258 164
f 195 247 233
f 350 409 399
f 307 283 272
f 272 285 307
f 307 397 362
f 403 397 307
f 362 320 307
f 307 320 283
f 1016 982 673
f 673 632 1016
f 681 632 673
f 974 964 950
f 950 982 974
f 979 964 974
f 974 1011 979
f 974 982 1016
f 1016 1011 974
f 989 951 941
f 620 951 989
f 685 732 681
f 681 673 685
f 685 673 686
f 619 1018 652
f 619 621 1018
f 619 652 723
f 1004 952 601
f 601 971 1004
f 1004 971 952
f 987 982 970
f 970 1010 987
f 987 1010 686
f 686 673 987
f 987 673 982
f 553 552 879
f 879 554 553
f 879 916 554
f 901 916 879
f 724 765 718
f 773 765 724
f 980 933 934
f 963 980 934
f 901 885 913
f 934 933 913
f 913 933 901
f 906 885 840
f 906 913 885
f 934 913 906
f 929 963 934
f 934 906 929
f 929 906 914
f 920 929 914
f 843 840 820
f 764 756 720
f 820 756 764
f 764 843 820
f 681 732 671
f 671 672 681
f 606 607 605
f 990 607 606
f 605 610 606
f 606 1000 990
f 606 610 1000
f 639 640 693
f 693 669 639
f 669 610 639
f 639 610 605
f 605 640 639
f 341 389 292
f 389 342 292
f 292 298 341
f 282 298 292
f 292 293 282
f 292 342 293
f 306 350 288
f 288 289 306
f 350 399 288
f 285 289 288
f 288 399 285
f 755 831 746
f 831 733 746
f 746 653 755
f 618 653 746
f 746 733 618
f 615 733 729
f 729 733 761
f 729 695 615
f 761 748 729
f 729 748 695
f 615 618 614
f 614 733 615
f 618 733 614
f 828 822 869
f 828 848 791
f 828 869 848
f 761 822 817
f 791 748 817
f 817 748 761
f 817 828 791
f 822 828 817
f 253 850 1026
f 1026 848 253
f 1026 850 848
f 818 1029 812
f 818 850 1029
f 826 850 818
f 818 757 826
f 818 812 757
f 718 757 706
f 757 697 706
f 204 841 825
f 825 841 807
f 807 801 825
f 769 801 807
f 807 770 769
f 769 567 744
f 769 770 567
f 717 698 647
f 647 726 717
f 778 825 801
f 1044 1032 563
f 563 566 1044
f 1032 562 563
f 654 566 563
f 563 562 654
f 862 922 912
f 674 1006 615
f 998 1006 674
f 674 668 998
f 975 1006 998
f 977 1006 975
f 661 616 992
f 992 616 969
f 938 661 992
f 992 924 938
f 992 969 924
f 924 815 884
f 884 833 924
f 735 833 884
f 884 774 735
f 884 815 774
f 829 549 821
f 552 549 829
f 829 821 835
f 628 644 687
f 687 629 628
f 630 657 628
f 628 657 644
f 628 1012 630
f 628 629 1012
f 536 547 171
f 171 545 536
f 159 545 171
f 171 195 233
f 215 171 233
f 159 171 215
f 146 162 41
f 41 147 146
f 146 147 540
f 540 158 146
f 232 236 162
f 162 193 232
f 233 247 255
f 255 195 277
f 247 195 255
f 335 302 318
f 277 323 318
f 318 1025 335
f 318 323 1025
f 419 386 339
f 450 386 419
f 339 428 419
f 419 428 450
f 284 226 299
f 226 312 299
f 299 319 284
f 299 333 319
f 415 479 435
f 435 414 415
f 435 466 414
f 479 433 435
f 475 466 435
f 435 433 475
f 407 414 391
f 391 370 407
f 415 414 407
f 384 479 415
f 415 376 384
f 317 319 384
f 384 376 317
f 371 370 375
f 375 376 371
f 371 407 370
f 178 138 167
f 167 181 178
f 151 181 167
f 140 151 141
f 141 138 140
f 151 167 141
f 141 167 138
f 405 488 438
f 438 433 479
f 438 488 475
f 475 433 438
f 493 496 483
f 496 498 483
f 447 466 483
f 483 466 493
f 420 402 431
f 442 420 431
f 431 451 442
f 402 391 431
f 468 451 431
f 447 468 431
f 431 391 447
f 509 498 512
f 509 518 498
f 512 530 509
f 509 530 518
f 196 544 164
f 237 186 212
f 212 225 237
f 224 225 212
f 212 187 224
f 186 187 212
f 301 354 336
f 336 237 301
f 237 225 301
f 315 224 465
f 315 225 224
f 315 301 225
f 354 301 315
f 465 330 315
f 315 330 354
f 191 190 168
f 191 179 190
f 836 844 865
f 865 889 836
f 836 889 886
f 771 844 762
f 762 806 739
f 739 722 762
f 722 771 762
f 827 886 873
f 827 875 886
f 827 873 858
f 827 858 811
f 811 794 827
f 794 875 827
f 714 696 683
f 696 658 683
f 683 682 714
f 683 678 682
f 683 658 678
f 682 634 745
f 745 707 682
f 745 617 721
f 721 707 745
f 684 1014 635
f 635 634 684
f 635 953 613
f 635 745 634
f 976 953 635
f 635 1014 976
f 617 745 635
f 635 613 624
f 624 617 635
f 514 472 480
f 480 486 514
f 480 472 436
f 436 486 480
f 472 511 484
f 484 511 506
f 462 472 484
f 484 500 462
f 506 500 484
f 514 535 533
f 533 511 514
f 533 535 532
f 532 506 533
f 506 511 533
f 152 161 153
f 153 154 152
f 161 543 153
f 153 543 527
f 527 154 153
f 430 400 406
f 406 439 430
f 437 424 430
f 430 443 437
f 430 439 443
f 430 424 367
f 367 400 430
f 398 409 460
f 398 399 409
f 460 425 398
f 285 399 346
f 346 307 285
f 995 971 620
f 620 989 995
f 941 971 995
f 995 989 941
f 774 815 766
f 723 774 766
f 710 619 723
f 723 766 710
f 710 766 754
f 710 685 686
f 700 685 710
f 619 710 642
f 620 621 1017
f 621 619 1017
f 1017 1010 620
f 619 642 1017
f 718 612 690
f 690 724 718
f 612 724 690
f 668 674 667
f 667 695 709
f 615 695 667
f 667 674 615
f 664 724 612
f 664 667 709
f 656 667 664
f 933 980 958
f 936 933 958
f 958 955 936
f 958 978 955
f 996 657 630
f 1003 657 996
f 630 1012 996
f 996 963 1003
f 980 963 996
f 996 1012 978
f 978 958 996
f 996 958 980
f 1003 963 991
f 991 657 1003
f 986 1002 984
f 859 906 840
f 840 843 859
f 743 764 720
f 743 720 713
f 713 712 743
f 843 764 780
f 780 743 789
f 764 743 780
f 832 894 887
f 672 671 737
f 646 672 737
f 737 732 738
f 737 671 732
f 660 697 644
f 660 706 697
f 644 657 660
f 213 204 870
f 204 825 870
f 812 1029 830
f 767 717 726
f 726 778 767
f 744 698 767
f 698 717 767
f 767 778 801
f 767 769 744
f 801 769 767
f 919 912 922
f 861 879 552
f 552 829 861
f 861 885 901
f 901 879 861
f 835 885 861
f 861 829 835
f 258 195 170
f 170 171 258
f 195 171 170
f 198 193 159
f 159 215 198
f 198 232 193
f 158 193 157
f 157 146 158
f 157 193 162
f 162 146 157
f 241 248 236
f 236 232 241
f 233 248 241
f 241 215 233
f 241 198 215
f 232 198 241
f 302 248 266
f 266 318 302
f 266 248 233
f 334 312 359
f 359 386 334
f 386 333 334
f 334 299 312
f 333 299 334
f 479 384 434
f 434 438 479
f 319 333 434
f 434 384 319
f 405 438 434
f 434 386 405
f 434 333 386
f 379 371 376
f 407 371 379
f 379 376 415
f 415 407 379
f 510 468 447
f 447 483 510
f 510 498 468
f 510 483 498
f 258 171 172
f 164 258 172
f 172 196 164
f 172 171 547
f 547 544 172
f 544 196 172
f 149 179 180
f 179 191 180
f 180 542 523
f 168 542 180
f 180 191 168
f 523 517 180
f 517 537 180
f 537 149 180
f 806 762 824
f 824 762 844
f 844 836 824
f 824 875 806
f 886 875 824
f 824 836 886
f 385 346 399
f 399 398 385
f 403 307 385
f 307 346 385
f 385 425 403
f 385 398 425
f 793 815 862
f 793 766 815
f 754 766 793
f 862 912 851
f 851 912 894
f 832 887 792
f 792 887 823
f 732 685 747
f 754 793 747
f 747 685 700
f 686 1010 643
f 1010 1017 643
f 643 1017 642
f 643 710 686
f 643 642 710
f 612 660 677
f 677 660 657
f 657 991 677
f 656 664 641
f 641 611 633
f 612 611 641
f 641 664 612
f 727 664 709
f 724 664 727
f 773 724 727
f 727 709 791
f 791 773 727
f 967 991 963
f 963 929 967
f 994 986 948
f 994 975 998
f 948 975 994
f 998 668 994
f 633 1002 649
f 1002 986 649
f 649 994 668
f 986 994 649
f 649 641 633
f 656 641 649
f 668 667 649
f 649 667 656
f 920 908 945
f 945 908 935
f 948 986 966
f 966 986 984
f 984 935 966
f 914 906 867
f 906 859 867
f 867 859 843
f 716 702 715
f 715 719 716
f 715 737 738
f 715 702 646
f 646 737 715
f 736 715 738
f 719 715 736
f 789 743 740
f 740 712 716
f 740 743 712
f 716 719 740
f 740 719 772
f 789 854 849
f 849 780 789
f 843 780 849
f 849 867 843
f 854 867 849
f 809 854 789
f 789 740 809
f 809 740 772
f 823 887 868
f 854 809 868
f 868 894 892
f 868 887 894
f 676 660 612
f 706 660 676
f 676 612 718
f 718 706 676
f 846 870 825
f 213 870 846
f 846 1027 213
f 846 1029 1027
f 812 830 798
f 798 830 778
f 798 800 812
f 734 800 798
f 798 726 734
f 798 778 726
f 956 922 977
f 956 919 922
f 948 919 956
f 977 975 956
f 956 975 948
f 894 912 902
f 912 919 902
f 892 894 902
f 902 919 948
f 318 266 300
f 300 255 277
f 277 318 300
f 233 255 300
f 300 266 233
f 838 894 832
f 838 851 894
f 777 792 823
f 772 719 777
f 719 736 777
f 782 747 814
f 814 747 793
f 851 838 814
f 814 793 862
f 862 851 814
f 750 747 700
f 754 747 750
f 700 710 750
f 750 710 754
f 604 611 612
f 612 677 604
f 604 677 991
f 633 611 604
f 991 967 997
f 949 967 926
f 926 945 949
f 920 945 926
f 929 920 926
f 926 967 929
f 882 920 914
f 914 867 882
f 882 867 854
f 854 868 882
f 738 732 725
f 725 736 738
f 732 736 725
f 823 868 810
f 810 868 809
f 810 809 772
f 772 777 810
f 810 777 823
f 825 778 845
f 845 846 825
f 778 830 845
f 845 830 1029
f 1029 846 845
f 948 966 940
f 940 902 948
f 892 902 940
f 940 908 892
f 935 908 940
f 940 966 935
f 792 777 759
f 759 777 736
f 732 792 759
f 759 736 732
f 768 814 838
f 832 792 768
f 768 838 832
f 782 814 768
f 768 747 782
f 768 792 732
f 732 747 768
f 984 1002 981
f 981 997 967
f 981 967 949
f 981 935 984
f 949 945 981
f 981 945 935
f 991 997 1001
f 1001 1002 633
f 1001 981 1002
f 997 981 1001
f 633 604 1001
f 1001 604 991
f 890 882 868
f 892 908 890
f 890 868 892
f 890 908 920
f 920 882 890

