# https://github.com/mikedh/trimesh
mtllib material.mtl
usemtl material_0
v 0.00041615 0.05246120 0.03909999
v 0.00033498 0.05247879 0.04344922
v 0.00109029 0.05210226 0.04347044
v 0.00122487 0.05194658 0.03909987
v 0.00041615 0.05246120 0.03909999
v 0.00109029 0.05210226 0.04347044
v -0.00073623 0.05238395 0.03909987
v -0.00146162 0.05142128 0.03909999
v -0.00151938 0.05127406 0.04345607
v -0.00073623 0.05238395 0.03909987
v -0.00151938 0.05127406 0.04345607
v -0.00069720 0.05240094 0.04345208
v 0.00122487 0.05194658 0.03909987
v 0.00109029 0.05210226 0.04347044
v 0.00152719 0.05106920 0.04344570
v 0.00151586 0.05084818 0.03909999
v 0.00122487 0.05194658 0.03909987
v 0.00152719 0.05106920 0.04344570
v -0.00073623 0.05238395 0.03909987
v -0.00069720 0.05240094 0.04345208
v 0.00033498 0.05247879 0.04344922
v 0.00041615 0.05246120 0.03909999
v -0.00073623 0.05238395 0.03909987
v 0.00033498 0.05247879 0.04344922
v -0.00062981 0.04831039 0.04470056
v -0.00082920 0.04973965 0.04345422
v 0.00001897 0.04947698 0.04345262
v -0.00137806 0.05280900 0.04418092
v -0.00074114 0.05370020 0.04470539
v -0.00069720 0.05240094 0.04345208
v -0.00151938 0.05127406 0.04345607
v -0.00137806 0.05280900 0.04418092
v -0.00069720 0.05240094 0.04345208
v -0.00227028 0.05266028 0.04470121
v -0.00137806 0.05280900 0.04418092
v -0.00151938 0.05127406 0.04345607
v -0.00151938 0.05127406 0.04345607
v -0.00276828 0.05110412 0.04470247
v -0.00227028 0.05266028 0.04470121
v -0.00257343 0.04998522 0.04470109
v -0.00129098 0.05019420 0.04342865
v -0.00198609 0.04908490 0.04467189
v -0.00257343 0.04998522 0.04470109
v -0.00151938 0.05127406 0.04345607
v -0.00129098 0.05019420 0.04342865
v -0.00082920 0.04973965 0.04345422
v -0.00146222 0.04865419 0.04469841
v -0.00129098 0.05019420 0.04342865
v -0.00146222 0.04865419 0.04469841
v -0.00082920 0.04973965 0.04345422
v -0.00062981 0.04831039 0.04470056
v -0.00146222 0.04865419 0.04469841
v -0.00198609 0.04908490 0.04467189
v -0.00129098 0.05019420 0.04342865
v -0.00069720 0.05240094 0.04345208
v -0.00074114 0.05370020 0.04470539
v 0.00033498 0.05247879 0.04344922
v 0.00013879 0.04823893 0.04470026
v -0.00062981 0.04831039 0.04470056
v 0.00001897 0.04947698 0.04345262
v -0.00137806 0.05280900 0.04418092
v -0.00227028 0.05266028 0.04470121
v -0.00074114 0.05370020 0.04470539
v -0.00151938 0.05127406 0.04345607
v -0.00257343 0.04998522 0.04470109
v -0.00276828 0.05110412 0.04470247
v 0.00244898 0.05224162 0.04469239
v 0.00193197 0.05299013 0.04470449
v 0.00218385 0.05273866 0.04509961
v 0.00273252 0.05145436 0.04470998
v 0.00218385 0.05273866 0.04509961
v 0.00279540 0.05117720 0.04509907
v -0.00074114 0.05370020 0.04470539
v -0.00095758 0.05360376 0.04509991
v 0.00055547 0.05375444 0.04509997
v 0.00273252 0.05145436 0.04470998
v 0.00244898 0.05224162 0.04469239
v 0.00218385 0.05273866 0.04509961
v 0.00078821 0.05365580 0.04470038
v -0.00074114 0.05370020 0.04470539
v 0.00055547 0.05375444 0.04509997
v -0.00227028 0.05266028 0.04470121
v -0.00282294 0.05086690 0.04509997
v -0.00213563 0.05281049 0.04509973
v -0.00227028 0.05266028 0.04470121
v -0.00276828 0.05110412 0.04470247
v -0.00282294 0.05086690 0.04509997
v 0.00271553 0.05049157 0.04469037
v 0.00273252 0.05145436 0.04470998
v 0.00279540 0.05117720 0.04509907
v 0.00193197 0.05299013 0.04470449
v 0.00078821 0.05365580 0.04470038
v 0.00055547 0.05375444 0.04509997
v 0.00193197 0.05299013 0.04470449
v 0.00055547 0.05375444 0.04509997
v 0.00218385 0.05273866 0.04509961
v -0.00074114 0.05370020 0.04470539
v -0.00213563 0.05281049 0.04509973
v -0.00095758 0.05360376 0.04509991
v -0.00074114 0.05370020 0.04470539
v -0.00227028 0.05266028 0.04470121
v -0.00213563 0.05281049 0.04509973
v -0.00057347 0.04959589 0.03910005
v 0.00026453 0.04949790 0.03909993
v 0.00001897 0.04947698 0.04345262
v -0.00057347 0.04959589 0.03910005
v 0.00001897 0.04947698 0.04345262
v -0.00082920 0.04973965 0.04345422
v 0.00151586 0.05084818 0.03909999
v 0.00152719 0.05106920 0.04344570
v 0.00121331 0.05007499 0.04345691
v -0.00139725 0.05034238 0.03909993
v -0.00082920 0.04973965 0.04345422
v -0.00129098 0.05019420 0.04342865
v -0.00139725 0.05034238 0.03909993
v -0.00057347 0.04959589 0.03910005
v -0.00082920 0.04973965 0.04345422
v 0.00109267 0.04993885 0.03909999
v 0.00151586 0.05084818 0.03909999
v 0.00121331 0.05007499 0.04345691
v 0.00109267 0.04993885 0.03909999
v 0.00121331 0.05007499 0.04345691
v 0.00056134 0.04958868 0.04344719
v -0.00139725 0.05034238 0.03909993
v -0.00129098 0.05019420 0.04342865
v -0.00151938 0.05127406 0.04345607
v 0.00026453 0.04949790 0.03909993
v 0.00109267 0.04993885 0.03909999
v 0.00056134 0.04958868 0.04344719
v -0.00146162 0.05142128 0.03909999
v -0.00139725 0.05034238 0.03909993
v -0.00151938 0.05127406 0.04345607
v 0.00026453 0.04949790 0.03909993
v 0.00056134 0.04958868 0.04344719
v 0.00001897 0.04947698 0.04345262
v 0.00026453 0.04949790 0.03909993
v -0.00057347 0.04959589 0.03910005
v -0.00139725 0.05034238 0.03909993
v -0.00146162 0.05142128 0.03909999
v -0.00073623 0.05238395 0.03909987
v 0.00041615 0.05246120 0.03909999
v 0.00122487 0.05194658 0.03909987
v 0.00109267 0.04993885 0.03909999
v 0.00151586 0.05084818 0.03909999
v 0.00124890 0.04852318 0.04470068
v 0.00013879 0.04823893 0.04470026
v 0.00056134 0.04958868 0.04344719
v 0.00121331 0.05007499 0.04345691
v 0.00124890 0.04852318 0.04470068
v 0.00056134 0.04958868 0.04344719
v 0.00234550 0.04951077 0.04468864
v 0.00121331 0.05007499 0.04345691
v 0.00271553 0.05049157 0.04469037
v 0.00273252 0.05145436 0.04470998
v 0.00271553 0.05049157 0.04469037
v 0.00152719 0.05106920 0.04344570
v 0.00244898 0.05224162 0.04469239
v 0.00273252 0.05145436 0.04470998
v 0.00152719 0.05106920 0.04344570
v 0.00244898 0.05224162 0.04469239
v 0.00152719 0.05106920 0.04344570
v 0.00109029 0.05210226 0.04347044
v 0.00109029 0.05210226 0.04347044
v 0.00193197 0.05299013 0.04470449
v 0.00244898 0.05224162 0.04469239
v 0.00078821 0.05365580 0.04470038
v 0.00109029 0.05210226 0.04347044
v 0.00033498 0.05247879 0.04344922
v 0.00078821 0.05365580 0.04470038
v 0.00193197 0.05299013 0.04470449
v 0.00109029 0.05210226 0.04347044
v 0.00056134 0.04958868 0.04344719
v 0.00013879 0.04823893 0.04470026
v 0.00001897 0.04947698 0.04345262
v 0.00078821 0.05365580 0.04470038
v 0.00033498 0.05247879 0.04344922
v -0.00074114 0.05370020 0.04470539
v 0.00121331 0.05007499 0.04345691
v 0.00234550 0.04951077 0.04468864
v 0.00124890 0.04852318 0.04470068
v 0.00271553 0.05049157 0.04469037
v 0.00121331 0.05007499 0.04345691
v 0.00152719 0.05106920 0.04344570
v -0.00257343 0.04998522 0.04470109
v -0.00200886 0.04907798 0.04510021
v -0.00282294 0.05086690 0.04509997
v -0.00257343 0.04998522 0.04470109
v -0.00198609 0.04908490 0.04467189
v -0.00200886 0.04907798 0.04510021
v 0.00013879 0.04823893 0.04470026
v 0.00124890 0.04852318 0.04470068
v 0.00059986 0.04826146 0.04509991
v 0.00271553 0.05049157 0.04469037
v 0.00279540 0.05117720 0.04509907
v 0.00226969 0.04934501 0.04510152
v -0.00062981 0.04831039 0.04470056
v 0.00013879 0.04823893 0.04470026
v 0.00059986 0.04826146 0.04509991
v -0.00062981 0.04831039 0.04470056
v 0.00059986 0.04826146 0.04509991
v -0.00083823 0.04835909 0.04509985
v -0.00276828 0.05110412 0.04470247
v -0.00257343 0.04998522 0.04470109
v -0.00282294 0.05086690 0.04509997
v 0.00234550 0.04951077 0.04468864
v 0.00271553 0.05049157 0.04469037
v 0.00226969 0.04934501 0.04510152
v -0.00146222 0.04865419 0.04469841
v -0.00062981 0.04831039 0.04470056
v -0.00083823 0.04835909 0.04509985
v -0.00146222 0.04865419 0.04469841
v -0.00083823 0.04835909 0.04509985
v -0.00200886 0.04907798 0.04510021
v 0.00124890 0.04852318 0.04470068
v 0.00234550 0.04951077 0.04468864
v 0.00226969 0.04934501 0.04510152
v 0.00124890 0.04852318 0.04470068
v 0.00226969 0.04934501 0.04510152
v 0.00059986 0.04826146 0.04509991
v -0.00198609 0.04908490 0.04467189
v -0.00146222 0.04865419 0.04469841
v -0.00200886 0.04907798 0.04510021
v 0.00226969 0.04934501 0.04510152
v 0.00279540 0.05117720 0.04509907
v 0.00119036 0.05008733 0.04510003
v 0.00059986 0.04826146 0.04509991
v 0.00041348 0.05000317 0.04510003
v -0.00019497 0.04951256 0.04510003
v -0.00083823 0.04835909 0.04509985
v 0.00106978 0.05085957 0.04510003
v -0.00200886 0.04907798 0.04510021
v 0.00218385 0.05273866 0.04509961
v 0.00138545 0.05157452 0.04510003
v -0.00121528 0.05044400 0.04510003
v 0.00022080 0.05231779 0.04509997
v 0.00055547 0.05375444 0.04509997
v -0.00282294 0.05086690 0.04509997
v -0.00106978 0.05114001 0.04510003
v -0.00095758 0.05360376 0.04509991
v -0.00119036 0.05191224 0.04510003
v -0.00041348 0.05199640 0.04510003
v -0.00213563 0.05281049 0.04509973
v 0.00041348 0.05000317 0.04510003
v 0.00119036 0.05008733 0.04426991
v -0.00012638 0.04966944 0.04426997
v 0.00041348 0.05000317 0.04510003
v 0.00119036 0.05008733 0.04510003
v 0.00119036 0.05008733 0.04426991
v -0.00019497 0.04951256 0.04510003
v 0.00041348 0.05000317 0.04510003
v -0.00012638 0.04966944 0.04426997
v -0.00019497 0.04951256 0.04510003
v -0.00012638 0.04966944 0.04426997
v -0.00065640 0.05014342 0.04426991
v -0.00121528 0.05044400 0.04510003
v -0.00019497 0.04951256 0.04510003
v -0.00065640 0.05014342 0.04426991
v -0.00121528 0.05044400 0.04510003
v -0.00065640 0.05014342 0.04426991
v -0.00138545 0.05042505 0.04426991
v -0.00106978 0.05114001 0.04510003
v -0.00138545 0.05042505 0.04426991
v -0.00108880 0.05177450 0.04426991
v -0.00106978 0.05114001 0.04510003
v -0.00121528 0.05044400 0.04510003
v -0.00138545 0.05042505 0.04426991
v -0.00119036 0.05191224 0.04510003
v -0.00106978 0.05114001 0.04510003
v -0.00108880 0.05177450 0.04426991
v -0.00119036 0.05191224 0.04510003
v -0.00108880 0.05177450 0.04426991
v -0.00041348 0.05199640 0.04426991
v -0.00041348 0.05199640 0.04510003
v -0.00119036 0.05191224 0.04510003
v -0.00041348 0.05199640 0.04426991
v -0.00041348 0.05199640 0.04510003
v -0.00041348 0.05199640 0.04426991
v 0.00019497 0.05248713 0.04426991
v 0.00022080 0.05231779 0.04509997
v -0.00041348 0.05199640 0.04510003
v 0.00019497 0.05248713 0.04426991
v 0.00022080 0.05231779 0.04509997
v 0.00019497 0.05248713 0.04426991
v 0.00065640 0.05185616 0.04426991
v 0.00138545 0.05157452 0.04510003
v 0.00065640 0.05185616 0.04426991
v 0.00138545 0.05157452 0.04426991
v 0.00138545 0.05157452 0.04510003
v 0.00022080 0.05231779 0.04509997
v 0.00065640 0.05185616 0.04426991
v 0.00138545 0.05157452 0.04510003
v 0.00138545 0.05157452 0.04426991
v 0.00106978 0.05085957 0.04426991
v 0.00106978 0.05085957 0.04510003
v 0.00106978 0.05085957 0.04510003
v 0.00106978 0.05085957 0.04426991
v 0.00119036 0.05008733 0.04426991
v 0.00119036 0.05008733 0.04510003
v -0.00108880 0.05177450 0.04426991
v -0.00138545 0.05042505 0.04426991
v -0.00065640 0.05014342 0.04426991
v -0.00012638 0.04966944 0.04426997
v 0.00106978 0.05085957 0.04426991
v 0.00119036 0.05008733 0.04426991
v 0.00065640 0.05185616 0.04426991
v -0.00041348 0.05199640 0.04426991
v 0.00019497 0.05248713 0.04426991
v 0.00138545 0.05157452 0.04426991
v -0.03178817 0.01950675 0.04360038
v -0.03316408 0.02014631 0.04360044
v -0.03248119 0.02004575 0.05197453
v -0.03434175 0.01942217 0.04360044
v -0.03456360 0.01821374 0.05197715
v -0.03443914 0.01919245 0.05195754
v -0.03434175 0.01942217 0.04360044
v -0.03455400 0.01830637 0.04360044
v -0.03456360 0.01821374 0.05197715
v -0.03178817 0.01950675 0.04360038
v -0.03248119 0.02004575 0.05197453
v -0.03166729 0.01922619 0.05194783
v -0.03178817 0.01950675 0.04360038
v -0.03166729 0.01922619 0.05194783
v -0.03152793 0.01847690 0.05194967
v -0.03434175 0.01942217 0.04360044
v -0.03443914 0.01919245 0.05195754
v -0.03377377 0.01995307 0.05195665
v -0.03154081 0.01836657 0.04360044
v -0.03178817 0.01950675 0.04360038
v -0.03152793 0.01847690 0.05194967
v -0.03316408 0.02014631 0.04360044
v -0.03434175 0.01942217 0.04360044
v -0.03377377 0.01995307 0.05195665
v -0.03316408 0.02014631 0.04360044
v -0.03377377 0.01995307 0.05195665
v -0.03248119 0.02004575 0.05197453
v -0.03539502 0.02011662 0.05322098
v -0.03377377 0.01995307 0.05195665
v -0.03443914 0.01919245 0.05195754
v -0.03539502 0.02011662 0.05322098
v -0.03453463 0.02091550 0.05319833
v -0.03377377 0.01995307 0.05195665
v -0.03580480 0.01870685 0.05319601
v -0.03443914 0.01919245 0.05195754
v -0.03456360 0.01821374 0.05197715
v -0.03456360 0.01821374 0.05197715
v -0.03558784 0.01746588 0.05319881
v -0.03580480 0.01870685 0.05319601
v -0.03470170 0.01635026 0.05319422
v -0.03558784 0.01746588 0.05319881
v -0.03456360 0.01821374 0.05197715
v -0.03470170 0.01635026 0.05319422
v -0.03456360 0.01821374 0.05197715
v -0.03372114 0.01721155 0.05196797
v -0.03316223 0.01581567 0.05319601
v -0.03470170 0.01635026 0.05319422
v -0.03372114 0.01721155 0.05196797
v -0.03323096 0.02137237 0.05320841
v -0.03248119 0.02004575 0.05197453
v -0.03377377 0.01995307 0.05195665
v -0.03316223 0.01581567 0.05319601
v -0.03372114 0.01721155 0.05196797
v -0.03283691 0.01708865 0.05196130
v -0.03377377 0.01995307 0.05195665
v -0.03453463 0.02091550 0.05319833
v -0.03323096 0.02137237 0.05320841
v -0.03443914 0.01919245 0.05195754
v -0.03580480 0.01870685 0.05319601
v -0.03539502 0.02011662 0.05322098
v -0.03323096 0.02137237 0.05320841
v -0.03406095 0.02117085 0.05360025
v -0.03276240 0.02136009 0.05360037
v -0.03539502 0.02011662 0.05322098
v -0.03580480 0.01870685 0.05319601
v -0.03579568 0.01898694 0.05360049
v -0.03178089 0.02106851 0.05320924
v -0.03323096 0.02137237 0.05320841
v -0.03276240 0.02136009 0.05360037
v -0.03539502 0.02011662 0.05322098
v -0.03579568 0.01898694 0.05360049
v -0.03514957 0.02043336 0.05360049
v -0.03178089 0.02106851 0.05320924
v -0.03276240 0.02136009 0.05360037
v -0.03146672 0.02087181 0.05360049
v -0.03088092 0.02029991 0.05319464
v -0.03178089 0.02106851 0.05320924
v -0.03146672 0.02087181 0.05360049
v -0.03453463 0.02091550 0.05319833
v -0.03539502 0.02011662 0.05322098
v -0.03514957 0.02043336 0.05360049
v -0.03088092 0.02029991 0.05319464
v -0.03146672 0.02087181 0.05360049
v -0.03035539 0.01948416 0.05360066
v -0.03453463 0.02091550 0.05319833
v -0.03514957 0.02043336 0.05360049
v -0.03406095 0.02117085 0.05360025
v -0.03029799 0.01907485 0.05320525
v -0.03088092 0.02029991 0.05319464
v -0.03035539 0.01948416 0.05360066
v -0.03323096 0.02137237 0.05320841
v -0.03453463 0.02091550 0.05319833
v -0.03406095 0.02117085 0.05360025
v -0.03390014 0.01730000 0.04360032
v -0.03372114 0.01721155 0.05196797
v -0.03456360 0.01821374 0.05197715
v -0.03154081 0.01836657 0.04360044
v -0.03152793 0.01847690 0.05194967
v -0.03180009 0.01772058 0.05194258
v -0.03455400 0.01830637 0.04360044
v -0.03390014 0.01730000 0.04360032
v -0.03456360 0.01821374 0.05197715
v -0.03201383 0.01745951 0.04360044
v -0.03154081 0.01836657 0.04360044
v -0.03180009 0.01772058 0.05194258
v -0.03201383 0.01745951 0.04360044
v -0.03180009 0.01772058 0.05194258
v -0.03223896 0.01731199 0.05194509
v -0.03201383 0.01745951 0.04360044
v -0.03223896 0.01731199 0.05194509
v -0.03283691 0.01708865 0.05196130
v -0.03288531 0.01708745 0.04360044
v -0.03201383 0.01745951 0.04360044
v -0.03283691 0.01708865 0.05196130
v -0.03288531 0.01708745 0.04360044
v -0.03283691 0.01708865 0.05196130
v -0.03372114 0.01721155 0.05196797
v -0.03390014 0.01730000 0.04360032
v -0.03288531 0.01708745 0.04360044
v -0.03372114 0.01721155 0.05196797
v -0.03288531 0.01708745 0.04360044
v -0.03390014 0.01730000 0.04360032
v -0.03455400 0.01830637 0.04360044
v -0.03201383 0.01745951 0.04360044
v -0.03178817 0.01950675 0.04360038
v -0.03434175 0.01942217 0.04360044
v -0.03316408 0.02014631 0.04360044
v -0.03154081 0.01836657 0.04360044
v -0.03223896 0.01731199 0.05194509
v -0.03316223 0.01581567 0.05319601
v -0.03283691 0.01708865 0.05196130
v -0.03223896 0.01731199 0.05194509
v -0.03160971 0.01620262 0.05321782
v -0.03316223 0.01581567 0.05319601
v -0.03180009 0.01772058 0.05194258
v -0.03045761 0.01751583 0.05321258
v -0.03160971 0.01620262 0.05321782
v -0.03180009 0.01772058 0.05194258
v -0.03160971 0.01620262 0.05321782
v -0.03223896 0.01731199 0.05194509
v -0.03103888 0.01803040 0.05250573
v -0.03180009 0.01772058 0.05194258
v -0.03152793 0.01847690 0.05194967
v -0.03103888 0.01803040 0.05250573
v -0.03045761 0.01751583 0.05321258
v -0.03180009 0.01772058 0.05194258
v -0.03029799 0.01907485 0.05320525
v -0.03152793 0.01847690 0.05194967
v -0.03166729 0.01922619 0.05194783
v -0.03029799 0.01907485 0.05320525
v -0.03103888 0.01803040 0.05250573
v -0.03152793 0.01847690 0.05194967
v -0.03248119 0.02004575 0.05197453
v -0.03178089 0.02106851 0.05320924
v -0.03088092 0.02029991 0.05319464
v -0.03323096 0.02137237 0.05320841
v -0.03178089 0.02106851 0.05320924
v -0.03248119 0.02004575 0.05197453
v -0.03029799 0.01907485 0.05320525
v -0.03045761 0.01751583 0.05321258
v -0.03103888 0.01803040 0.05250573
v -0.03088092 0.02029991 0.05319464
v -0.03166729 0.01922619 0.05194783
v -0.03248119 0.02004575 0.05197453
v -0.03088092 0.02029991 0.05319464
v -0.03029799 0.01907485 0.05320525
v -0.03166729 0.01922619 0.05194783
v -0.03316223 0.01581567 0.05319601
v -0.03160971 0.01620262 0.05321782
v -0.03178262 0.01607179 0.05360096
v -0.03045761 0.01751583 0.05321258
v -0.03035539 0.01948416 0.05360066
v -0.03050732 0.01745057 0.05360102
v -0.03045761 0.01751583 0.05321258
v -0.03029799 0.01907485 0.05320525
v -0.03035539 0.01948416 0.05360066
v -0.03580480 0.01870685 0.05319601
v -0.03567320 0.01769304 0.05360096
v -0.03579568 0.01898694 0.05360049
v -0.03580480 0.01870685 0.05319601
v -0.03558784 0.01746588 0.05319881
v -0.03567320 0.01769304 0.05360096
v -0.03316223 0.01581567 0.05319601
v -0.03178262 0.01607179 0.05360096
v -0.03354156 0.01587116 0.05360037
v -0.03470170 0.01635026 0.05319422
v -0.03316223 0.01581567 0.05319601
v -0.03354156 0.01587116 0.05360037
v -0.03470170 0.01635026 0.05319422
v -0.03354156 0.01587116 0.05360037
v -0.03483217 0.01645326 0.05359977
v -0.03045761 0.01751583 0.05321258
v -0.03050732 0.01745057 0.05360102
v -0.03178262 0.01607179 0.05360096
v -0.03160971 0.01620262 0.05321782
v -0.03045761 0.01751583 0.05321258
v -0.03178262 0.01607179 0.05360096
v -0.03558784 0.01746588 0.05319881
v -0.03470170 0.01635026 0.05319422
v -0.03483217 0.01645326 0.05359977
v -0.03558784 0.01746588 0.05319881
v -0.03483217 0.01645326 0.05359977
v -0.03567320 0.01769304 0.05360096
v -0.03354156 0.01587116 0.05360037
v -0.03178262 0.01607179 0.05360096
v -0.03299844 0.01725798 0.05360043
v -0.03434509 0.01784360 0.05360049
v -0.03412503 0.01859349 0.05360049
v -0.03579568 0.01898694 0.05360049
v -0.03174704 0.01784360 0.05360049
v -0.03567320 0.01769304 0.05360096
v -0.03483217 0.01645326 0.05359977
v -0.03035539 0.01948416 0.05360066
v -0.03196704 0.01859349 0.05360049
v -0.03417885 0.01930254 0.05360049
v -0.03304994 0.01997113 0.05360049
v -0.03276240 0.02136009 0.05360037
v -0.03406095 0.02117085 0.05360025
v -0.03174704 0.01934361 0.05360049
v -0.03358548 0.01765900 0.05360049
v -0.03146672 0.02087181 0.05360049
v -0.03514957 0.02043336 0.05360049
v -0.03050732 0.01745057 0.05360102
v -0.03358548 0.01765900 0.05360049
v -0.03304594 0.01709347 0.05277049
v -0.03417885 0.01788455 0.05277037
v -0.03358548 0.01765900 0.05360049
v -0.03299844 0.01725798 0.05360043
v -0.03304594 0.01709347 0.05277049
v -0.03434509 0.01784360 0.05360049
v -0.03358548 0.01765900 0.05360049
v -0.03417885 0.01788455 0.05277037
v -0.03434509 0.01784360 0.05360049
v -0.03417885 0.01788455 0.05277037
v -0.03412503 0.01859349 0.05277049
v -0.03412503 0.01859349 0.05360049
v -0.03434509 0.01784360 0.05360049
v -0.03412503 0.01859349 0.05277049
v -0.03412503 0.01859349 0.05360049
v -0.03412503 0.01859349 0.05277049
v -0.03434509 0.01934361 0.05277049
v -0.03417885 0.01930254 0.05360049
v -0.03412503 0.01859349 0.05360049
v -0.03434509 0.01934361 0.05277049
v -0.03417885 0.01930254 0.05360049
v -0.03434509 0.01934361 0.05277049
v -0.03304213 0.01997113 0.05277049
v -0.03304994 0.01997113 0.05360049
v -0.03417885 0.01930254 0.05360049
v -0.03304213 0.01997113 0.05277049
v -0.03304994 0.01997113 0.05360049
v -0.03304213 0.01997113 0.05277049
v -0.03250658 0.01952809 0.05277049
v -0.03174704 0.01934361 0.05360049
v -0.03250658 0.01952809 0.05277049
v -0.03174704 0.01934361 0.05277049
v -0.03174704 0.01934361 0.05360049
v -0.03304994 0.01997113 0.05360049
v -0.03250658 0.01952809 0.05277049
v -0.03196704 0.01859349 0.05360049
v -0.03174704 0.01934361 0.05277049
v -0.03186559 0.01796704 0.05277049
v -0.03196704 0.01859349 0.05360049
v -0.03174704 0.01934361 0.05360049
v -0.03174704 0.01934361 0.05277049
v -0.03174704 0.01784360 0.05360049
v -0.03196704 0.01859349 0.05360049
v -0.03186559 0.01796704 0.05277049
v -0.03174704 0.01784360 0.05360049
v -0.03186559 0.01796704 0.05277049
v -0.03250658 0.01765900 0.05277049
v -0.03299844 0.01725798 0.05360043
v -0.03174704 0.01784360 0.05360049
v -0.03250658 0.01765900 0.05277049
v -0.03299844 0.01725798 0.05360043
v -0.03250658 0.01765900 0.05277049
v -0.03304594 0.01709347 0.05277049
v -0.03250658 0.01765900 0.05277049
v -0.03417885 0.01788455 0.05277037
v -0.03304594 0.01709347 0.05277049
v -0.03412503 0.01859349 0.05277049
v -0.03304213 0.01997113 0.05277049
v -0.03434509 0.01934361 0.05277049
v -0.03250658 0.01952809 0.05277049
v -0.03186559 0.01796704 0.05277049
v -0.03174704 0.01934361 0.05277049
vt 0.50000000 0.50000000
vt 0.50000000 0.50000000
vt 0.50000000 0.50000000
vt 0.50000000 0.50000000
vt 0.50000000 0.50000000
vt 0.50000000 0.50000000
vt 0.50000000 0.50000000
vt 0.50000000 0.50000000
vt 0.50000000 0.50000000
vt 0.50000000 0.50000000
vt 0.50000000 0.50000000
vt 0.50000000 0.50000000
vt 0.50000000 0.50000000
vt 0.50000000 0.50000000
vt 0.50000000 0.50000000
vt 0.50000000 0.50000000
vt 0.50000000 0.50000000
vt 0.50000000 0.50000000
vt 0.50000000 0.50000000
vt 0.50000000 0.50000000
vt 0.50000000 0.50000000
vt 0.50000000 0.50000000
vt 0.50000000 0.50000000
vt 0.50000000 0.50000000
vt 0.50000000 0.50000000
vt 0.50000000 0.50000000
vt 0.50000000 0.50000000
vt 0.50000000 0.50000000
vt 0.50000000 0.50000000
vt 0.50000000 0.50000000
vt 0.50000000 0.50000000
vt 0.50000000 0.50000000
vt 0.50000000 0.50000000
vt 0.50000000 0.50000000
vt 0.50000000 0.50000000
vt 0.50000000 0.50000000
vt 0.50000000 0.50000000
vt 0.50000000 0.50000000
vt 0.50000000 0.50000000
vt 0.50000000 0.50000000
vt 0.50000000 0.50000000
vt 0.50000000 0.50000000
vt 0.50000000 0.50000000
vt 0.50000000 0.50000000
vt 0.50000000 0.50000000
vt 0.50000000 0.50000000
vt 0.50000000 0.50000000
vt 0.50000000 0.50000000
vt 0.50000000 0.50000000
vt 0.50000000 0.50000000
vt 0.50000000 0.50000000
vt 0.50000000 0.50000000
vt 0.50000000 0.50000000
vt 0.50000000 0.50000000
vt 0.50000000 0.50000000
vt 0.50000000 0.50000000
vt 0.50000000 0.50000000
vt 0.50000000 0.50000000
vt 0.50000000 0.50000000
vt 0.50000000 0.50000000
vt 0.50000000 0.50000000
vt 0.50000000 0.50000000
vt 0.50000000 0.50000000
vt 0.50000000 0.50000000
vt 0.50000000 0.50000000
vt 0.50000000 0.50000000
vt 0.50000000 0.50000000
vt 0.50000000 0.50000000
vt 0.50000000 0.50000000
vt 0.50000000 0.50000000
vt 0.50000000 0.50000000
vt 0.50000000 0.50000000
vt 0.50000000 0.50000000
vt 0.50000000 0.50000000
vt 0.50000000 0.50000000
vt 0.50000000 0.50000000
vt 0.50000000 0.50000000
vt 0.50000000 0.50000000
vt 0.50000000 0.50000000
vt 0.50000000 0.50000000
vt 0.50000000 0.50000000
vt 0.50000000 0.50000000
vt 0.50000000 0.50000000
vt 0.50000000 0.50000000
vt 0.50000000 0.50000000
vt 0.50000000 0.50000000
vt 0.50000000 0.50000000
vt 0.50000000 0.50000000
vt 0.50000000 0.50000000
vt 0.50000000 0.50000000
vt 0.50000000 0.50000000
vt 0.50000000 0.50000000
vt 0.50000000 0.50000000
vt 0.50000000 0.50000000
vt 0.50000000 0.50000000
vt 0.50000000 0.50000000
vt 0.50000000 0.50000000
vt 0.50000000 0.50000000
vt 0.50000000 0.50000000
vt 0.50000000 0.50000000
vt 0.50000000 0.50000000
vt 0.50000000 0.50000000
vt 0.50000000 0.50000000
vt 0.50000000 0.50000000
vt 0.50000000 0.50000000
vt 0.50000000 0.50000000
vt 0.50000000 0.50000000
vt 0.50000000 0.50000000
vt 0.50000000 0.50000000
vt 0.50000000 0.50000000
vt 0.50000000 0.50000000
vt 0.50000000 0.50000000
vt 0.50000000 0.50000000
vt 0.50000000 0.50000000
vt 0.50000000 0.50000000
vt 0.50000000 0.50000000
vt 0.50000000 0.50000000
vt 0.50000000 0.50000000
vt 0.50000000 0.50000000
vt 0.50000000 0.50000000
vt 0.50000000 0.50000000
vt 0.50000000 0.50000000
vt 0.50000000 0.50000000
vt 0.50000000 0.50000000
vt 0.50000000 0.50000000
vt 0.50000000 0.50000000
vt 0.50000000 0.50000000
vt 0.50000000 0.50000000
vt 0.50000000 0.50000000
vt 0.50000000 0.50000000
vt 0.50000000 0.50000000
vt 0.50000000 0.50000000
vt 0.50000000 0.50000000
vt 0.50000000 0.50000000
vt 0.50000000 0.50000000
vt 0.50000000 0.50000000
vt 0.50000000 0.50000000
vt 0.50000000 0.50000000
vt 0.50000000 0.50000000
vt 0.50000000 0.50000000
vt 0.50000000 0.50000000
vt 0.50000000 0.50000000
vt 0.50000000 0.50000000
vt 0.50000000 0.50000000
vt 0.50000000 0.50000000
vt 0.50000000 0.50000000
vt 0.50000000 0.50000000
vt 0.50000000 0.50000000
vt 0.50000000 0.50000000
vt 0.50000000 0.50000000
vt 0.50000000 0.50000000
vt 0.50000000 0.50000000
vt 0.50000000 0.50000000
vt 0.50000000 0.50000000
vt 0.50000000 0.50000000
vt 0.50000000 0.50000000
vt 0.50000000 0.50000000
vt 0.50000000 0.50000000
vt 0.50000000 0.50000000
vt 0.50000000 0.50000000
vt 0.50000000 0.50000000
vt 0.50000000 0.50000000
vt 0.50000000 0.50000000
vt 0.50000000 0.50000000
vt 0.50000000 0.50000000
vt 0.50000000 0.50000000
vt 0.50000000 0.50000000
vt 0.50000000 0.50000000
vt 0.50000000 0.50000000
vt 0.50000000 0.50000000
vt 0.50000000 0.50000000
vt 0.50000000 0.50000000
vt 0.50000000 0.50000000
vt 0.50000000 0.50000000
vt 0.50000000 0.50000000
vt 0.50000000 0.50000000
vt 0.50000000 0.50000000
vt 0.50000000 0.50000000
vt 0.50000000 0.50000000
vt 0.50000000 0.50000000
vt 0.50000000 0.50000000
vt 0.50000000 0.50000000
vt 0.50000000 0.50000000
vt 0.50000000 0.50000000
vt 0.50000000 0.50000000
vt 0.50000000 0.50000000
vt 0.50000000 0.50000000
vt 0.50000000 0.50000000
vt 0.50000000 0.50000000
vt 0.50000000 0.50000000
vt 0.50000000 0.50000000
vt 0.50000000 0.50000000
vt 0.50000000 0.50000000
vt 0.50000000 0.50000000
vt 0.50000000 0.50000000
vt 0.50000000 0.50000000
vt 0.50000000 0.50000000
vt 0.50000000 0.50000000
vt 0.50000000 0.50000000
vt 0.50000000 0.50000000
vt 0.50000000 0.50000000
vt 0.50000000 0.50000000
vt 0.50000000 0.50000000
vt 0.50000000 0.50000000
vt 0.50000000 0.50000000
vt 0.50000000 0.50000000
vt 0.50000000 0.50000000
vt 0.50000000 0.50000000
vt 0.50000000 0.50000000
vt 0.50000000 0.50000000
vt 0.50000000 0.50000000
vt 0.50000000 0.50000000
vt 0.50000000 0.50000000
vt 0.50000000 0.50000000
vt 0.50000000 0.50000000
vt 0.50000000 0.50000000
vt 0.50000000 0.50000000
vt 0.50000000 0.50000000
vt 0.50000000 0.50000000
vt 0.50000000 0.50000000
vt 0.50000000 0.50000000
vt 0.50000000 0.50000000
vt 0.50000000 0.50000000
vt 0.50000000 0.50000000
vt 0.50000000 0.50000000
vt 0.50000000 0.50000000
vt 0.50000000 0.50000000
vt 0.50000000 0.50000000
vt 0.50000000 0.50000000
vt 0.50000000 0.50000000
vt 0.50000000 0.50000000
vt 0.50000000 0.50000000
vt 0.50000000 0.50000000
vt 0.50000000 0.50000000
vt 0.50000000 0.50000000
vt 0.50000000 0.50000000
vt 0.50000000 0.50000000
vt 0.50000000 0.50000000
vt 0.50000000 0.50000000
vt 0.50000000 0.50000000
vt 0.50000000 0.50000000
vt 0.50000000 0.50000000
vt 0.50000000 0.50000000
vt 0.50000000 0.50000000
vt 0.50000000 0.50000000
vt 0.50000000 0.50000000
vt 0.50000000 0.50000000
vt 0.50000000 0.50000000
vt 0.50000000 0.50000000
vt 0.50000000 0.50000000
vt 0.50000000 0.50000000
vt 0.50000000 0.50000000
vt 0.50000000 0.50000000
vt 0.50000000 0.50000000
vt 0.50000000 0.50000000
vt 0.50000000 0.50000000
vt 0.50000000 0.50000000
vt 0.50000000 0.50000000
vt 0.50000000 0.50000000
vt 0.50000000 0.50000000
vt 0.50000000 0.50000000
vt 0.50000000 0.50000000
vt 0.50000000 0.50000000
vt 0.50000000 0.50000000
vt 0.50000000 0.50000000
vt 0.50000000 0.50000000
vt 0.50000000 0.50000000
vt 0.50000000 0.50000000
vt 0.50000000 0.50000000
vt 0.50000000 0.50000000
vt 0.50000000 0.50000000
vt 0.50000000 0.50000000
vt 0.50000000 0.50000000
vt 0.50000000 0.50000000
vt 0.50000000 0.50000000
vt 0.50000000 0.50000000
vt 0.50000000 0.50000000
vt 0.50000000 0.50000000
vt 0.50000000 0.50000000
vt 0.50000000 0.50000000
vt 0.50000000 0.50000000
vt 0.50000000 0.50000000
vt 0.50000000 0.50000000
vt 0.50000000 0.50000000
vt 0.50000000 0.50000000
vt 0.50000000 0.50000000
vt 0.50000000 0.50000000
vt 0.50000000 0.50000000
vt 0.50000000 0.50000000
vt 0.50000000 0.50000000
vt 0.50000000 0.50000000
vt 0.50000000 0.50000000
vt 0.50000000 0.50000000
vt 0.50000000 0.50000000
vt 0.50000000 0.50000000
vt 0.50000000 0.50000000
vt 0.50000000 0.50000000
vt 0.50000000 0.50000000
vt 0.50000000 0.50000000
vt 0.50000000 0.50000000
vt 0.50000000 0.50000000
vt 0.50000000 0.50000000
vt 0.50000000 0.50000000
vt 0.50000000 0.50000000
vt 0.50000000 0.50000000
vt 0.50000000 0.50000000
vt 0.50000000 0.50000000
vt 0.50000000 0.50000000
vt 0.50000000 0.50000000
vt 0.50000000 0.50000000
vt 0.50000000 0.50000000
vt 0.50000000 0.50000000
vt 0.50000000 0.50000000
vt 0.50000000 0.50000000
vt 0.50000000 0.50000000
vt 0.50000000 0.50000000
vt 0.50000000 0.50000000
vt 0.50000000 0.50000000
vt 0.50000000 0.50000000
vt 0.50000000 0.50000000
vt 0.50000000 0.50000000
vt 0.50000000 0.50000000
vt 0.50000000 0.50000000
vt 0.50000000 0.50000000
vt 0.50000000 0.50000000
vt 0.50000000 0.50000000
vt 0.50000000 0.50000000
vt 0.50000000 0.50000000
vt 0.50000000 0.50000000
vt 0.50000000 0.50000000
vt 0.50000000 0.50000000
vt 0.50000000 0.50000000
vt 0.50000000 0.50000000
vt 0.50000000 0.50000000
vt 0.50000000 0.50000000
vt 0.50000000 0.50000000
vt 0.50000000 0.50000000
vt 0.50000000 0.50000000
vt 0.50000000 0.50000000
vt 0.50000000 0.50000000
vt 0.50000000 0.50000000
vt 0.50000000 0.50000000
vt 0.50000000 0.50000000
vt 0.50000000 0.50000000
vt 0.50000000 0.50000000
vt 0.50000000 0.50000000
vt 0.50000000 0.50000000
vt 0.50000000 0.50000000
vt 0.50000000 0.50000000
vt 0.50000000 0.50000000
vt 0.50000000 0.50000000
vt 0.50000000 0.50000000
vt 0.50000000 0.50000000
vt 0.50000000 0.50000000
vt 0.50000000 0.50000000
vt 0.50000000 0.50000000
vt 0.50000000 0.50000000
vt 0.50000000 0.50000000
vt 0.50000000 0.50000000
vt 0.50000000 0.50000000
vt 0.50000000 0.50000000
vt 0.50000000 0.50000000
vt 0.50000000 0.50000000
vt 0.50000000 0.50000000
vt 0.50000000 0.50000000
vt 0.50000000 0.50000000
vt 0.50000000 0.50000000
vt 0.50000000 0.50000000
vt 0.50000000 0.50000000
vt 0.50000000 0.50000000
vt 0.50000000 0.50000000
vt 0.50000000 0.50000000
vt 0.50000000 0.50000000
vt 0.50000000 0.50000000
vt 0.50000000 0.50000000
vt 0.50000000 0.50000000
vt 0.50000000 0.50000000
vt 0.50000000 0.50000000
vt 0.50000000 0.50000000
vt 0.50000000 0.50000000
vt 0.50000000 0.50000000
vt 0.50000000 0.50000000
vt 0.50000000 0.50000000
vt 0.50000000 0.50000000
vt 0.50000000 0.50000000
vt 0.50000000 0.50000000
vt 0.50000000 0.50000000
vt 0.50000000 0.50000000
vt 0.50000000 0.50000000
vt 0.50000000 0.50000000
vt 0.50000000 0.50000000
vt 0.50000000 0.50000000
vt 0.50000000 0.50000000
vt 0.50000000 0.50000000
vt 0.50000000 0.50000000
vt 0.50000000 0.50000000
vt 0.50000000 0.50000000
vt 0.50000000 0.50000000
vt 0.50000000 0.50000000
vt 0.50000000 0.50000000
vt 0.50000000 0.50000000
vt 0.50000000 0.50000000
vt 0.50000000 0.50000000
vt 0.50000000 0.50000000
vt 0.50000000 0.50000000
vt 0.50000000 0.50000000
vt 0.50000000 0.50000000
vt 0.50000000 0.50000000
vt 0.50000000 0.50000000
vt 0.50000000 0.50000000
vt 0.50000000 0.50000000
vt 0.50000000 0.50000000
vt 0.50000000 0.50000000
vt 0.50000000 0.50000000
vt 0.50000000 0.50000000
vt 0.50000000 0.50000000
vt 0.50000000 0.50000000
vt 0.50000000 0.50000000
vt 0.50000000 0.50000000
vt 0.50000000 0.50000000
vt 0.50000000 0.50000000
vt 0.50000000 0.50000000
vt 0.50000000 0.50000000
vt 0.50000000 0.50000000
vt 0.50000000 0.50000000
vt 0.50000000 0.50000000
vt 0.50000000 0.50000000
vt 0.50000000 0.50000000
vt 0.50000000 0.50000000
vt 0.50000000 0.50000000
vt 0.50000000 0.50000000
vt 0.50000000 0.50000000
vt 0.50000000 0.50000000
vt 0.50000000 0.50000000
vt 0.50000000 0.50000000
vt 0.50000000 0.50000000
vt 0.50000000 0.50000000
vt 0.50000000 0.50000000
vt 0.50000000 0.50000000
vt 0.50000000 0.50000000
vt 0.50000000 0.50000000
vt 0.50000000 0.50000000
vt 0.50000000 0.50000000
vt 0.50000000 0.50000000
vt 0.50000000 0.50000000
vt 0.50000000 0.50000000
vt 0.50000000 0.50000000
vt 0.50000000 0.50000000
vt 0.50000000 0.50000000
vt 0.50000000 0.50000000
vt 0.50000000 0.50000000
vt 0.50000000 0.50000000
vt 0.50000000 0.50000000
vt 0.50000000 0.50000000
vt 0.50000000 0.50000000
vt 0.50000000 0.50000000
vt 0.50000000 0.50000000
vt 0.50000000 0.50000000
vt 0.50000000 0.50000000
vt 0.50000000 0.50000000
vt 0.50000000 0.50000000
vt 0.50000000 0.50000000
vt 0.50000000 0.50000000
vt 0.50000000 0.50000000
vt 0.50000000 0.50000000
vt 0.50000000 0.50000000
vt 0.50000000 0.50000000
vt 0.50000000 0.50000000
vt 0.50000000 0.50000000
vt 0.50000000 0.50000000
vt 0.50000000 0.50000000
vt 0.50000000 0.50000000
vt 0.50000000 0.50000000
vt 0.50000000 0.50000000
vt 0.50000000 0.50000000
vt 0.50000000 0.50000000
vt 0.50000000 0.50000000
vt 0.50000000 0.50000000
vt 0.50000000 0.50000000
vt 0.50000000 0.50000000
vt 0.50000000 0.50000000
vt 0.50000000 0.50000000
vt 0.50000000 0.50000000
vt 0.50000000 0.50000000
vt 0.50000000 0.50000000
vt 0.50000000 0.50000000
vt 0.50000000 0.50000000
vt 0.50000000 0.50000000
vt 0.50000000 0.50000000
vt 0.50000000 0.50000000
vt 0.50000000 0.50000000
vt 0.50000000 0.50000000
vt 0.50000000 0.50000000
vt 0.50000000 0.50000000
vt 0.50000000 0.50000000
vt 0.50000000 0.50000000
vt 0.50000000 0.50000000
vt 0.50000000 0.50000000
vt 0.50000000 0.50000000
vt 0.50000000 0.50000000
vt 0.50000000 0.50000000
vt 0.50000000 0.50000000
vt 0.50000000 0.50000000
vt 0.50000000 0.50000000
vt 0.50000000 0.50000000
vt 0.50000000 0.50000000
vt 0.50000000 0.50000000
vt 0.50000000 0.50000000
vt 0.50000000 0.50000000
vt 0.50000000 0.50000000
vt 0.50000000 0.50000000
vt 0.50000000 0.50000000
vt 0.50000000 0.50000000
vt 0.50000000 0.50000000
vt 0.50000000 0.50000000
vt 0.50000000 0.50000000
vt 0.50000000 0.50000000
vt 0.50000000 0.50000000
vt 0.50000000 0.50000000
vt 0.50000000 0.50000000
vt 0.50000000 0.50000000
vt 0.50000000 0.50000000
vt 0.50000000 0.50000000
vt 0.50000000 0.50000000
vt 0.50000000 0.50000000
vt 0.50000000 0.50000000
vt 0.50000000 0.50000000
vt 0.50000000 0.50000000
vt 0.50000000 0.50000000
vt 0.50000000 0.50000000
vt 0.50000000 0.50000000
vt 0.50000000 0.50000000
vt 0.50000000 0.50000000
vt 0.50000000 0.50000000
vt 0.50000000 0.50000000
vt 0.50000000 0.50000000
vt 0.50000000 0.50000000
vt 0.50000000 0.50000000
vt 0.50000000 0.50000000
vt 0.50000000 0.50000000
vt 0.50000000 0.50000000
vt 0.50000000 0.50000000
vt 0.50000000 0.50000000
vt 0.50000000 0.50000000
vt 0.50000000 0.50000000
vt 0.50000000 0.50000000
vt 0.50000000 0.50000000
vt 0.50000000 0.50000000
vt 0.50000000 0.50000000
vt 0.50000000 0.50000000
vt 0.50000000 0.50000000
vt 0.50000000 0.50000000
vt 0.50000000 0.50000000
vt 0.50000000 0.50000000
vt 0.50000000 0.50000000
vt 0.50000000 0.50000000
vt 0.50000000 0.50000000
vt 0.50000000 0.50000000
vt 0.50000000 0.50000000
vt 0.50000000 0.50000000
vt 0.50000000 0.50000000
vt 0.50000000 0.50000000
vt 0.50000000 0.50000000
vt 0.50000000 0.50000000
vt 0.50000000 0.50000000
vt 0.50000000 0.50000000
vt 0.50000000 0.50000000
vt 0.50000000 0.50000000
vt 0.50000000 0.50000000
vt 0.50000000 0.50000000
vt 0.50000000 0.50000000
vt 0.50000000 0.50000000
vt 0.50000000 0.50000000
vt 0.50000000 0.50000000
vt 0.50000000 0.50000000
vt 0.50000000 0.50000000
vt 0.50000000 0.50000000
vt 0.50000000 0.50000000
vt 0.50000000 0.50000000
vt 0.50000000 0.50000000
vt 0.50000000 0.50000000
vt 0.50000000 0.50000000
vt 0.50000000 0.50000000
vt 0.50000000 0.50000000
vt 0.50000000 0.50000000
vt 0.50000000 0.50000000
vt 0.50000000 0.50000000
vt 0.50000000 0.50000000
vt 0.50000000 0.50000000
vt 0.50000000 0.50000000
vt 0.50000000 0.50000000
vt 0.50000000 0.50000000
vt 0.50000000 0.50000000
vt 0.50000000 0.50000000
f 1/1 2/2 3/3
f 4/4 5/5 6/6
f 7/7 8/8 9/9
f 10/10 11/11 12/12
f 13/13 14/14 15/15
f 16/16 17/17 18/18
f 19/19 20/20 21/21
f 22/22 23/23 24/24
f 25/25 26/26 27/27
f 28/28 29/29 30/30
f 31/31 32/32 33/33
f 34/34 35/35 36/36
f 37/37 38/38 39/39
f 40/40 41/41 42/42
f 43/43 44/44 45/45
f 46/46 47/47 48/48
f 49/49 50/50 51/51
f 52/52 53/53 54/54
f 55/55 56/56 57/57
f 58/58 59/59 60/60
f 61/61 62/62 63/63
f 64/64 65/65 66/66
f 67/67 68/68 69/69
f 70/70 71/71 72/72
f 73/73 74/74 75/75
f 76/76 77/77 78/78
f 79/79 80/80 81/81
f 82/82 83/83 84/84
f 85/85 86/86 87/87
f 88/88 89/89 90/90
f 91/91 92/92 93/93
f 94/94 95/95 96/96
f 97/97 98/98 99/99
f 100/100 101/101 102/102
f 103/103 104/104 105/105
f 106/106 107/107 108/108
f 109/109 110/110 111/111
f 112/112 113/113 114/114
f 115/115 116/116 117/117
f 118/118 119/119 120/120
f 121/121 122/122 123/123
f 124/124 125/125 126/126
f 127/127 128/128 129/129
f 130/130 131/131 132/132
f 133/133 134/134 135/135
f 136/136 137/137 138/138
f 139/139 140/140 141/141
f 138/138 139/139 142/142
f 143/143 136/136 142/142
f 144/144 143/143 142/142
f 139/139 141/141 142/142
f 136/136 138/138 142/142
f 145/145 146/146 147/147
f 148/148 149/149 150/150
f 151/151 152/152 153/153
f 154/154 155/155 156/156
f 157/157 158/158 159/159
f 160/160 161/161 162/162
f 163/163 164/164 165/165
f 166/166 167/167 168/168
f 169/169 170/170 171/171
f 172/172 173/173 174/174
f 175/175 176/176 177/177
f 178/178 179/179 180/180
f 181/181 182/182 183/183
f 184/184 185/185 186/186
f 187/187 188/188 189/189
f 190/190 191/191 192/192
f 193/193 194/194 195/195
f 196/196 197/197 198/198
f 199/199 200/200 201/201
f 202/202 203/203 204/204
f 205/205 206/206 207/207
f 208/208 209/209 210/210
f 211/211 212/212 213/213
f 214/214 215/215 216/216
f 217/217 218/218 219/219
f 220/220 221/221 222/222
f 223/223 224/224 225/225
f 226/226 223/223 225/225
f 226/226 225/225 227/227
f 226/226 227/227 228/228
f 229/229 226/226 228/228
f 225/225 224/224 230/230
f 229/229 228/228 231/231
f 224/224 232/232 233/233
f 230/230 224/224 233/233
f 231/231 228/228 234/234
f 233/233 232/232 235/235
f 235/235 232/232 236/236
f 231/231 234/234 237/237
f 234/234 238/238 237/237
f 235/235 236/236 239/239
f 238/238 240/240 237/237
f 241/241 235/235 239/239
f 237/237 240/240 242/242
f 240/240 241/241 239/239
f 240/240 239/239 242/242
f 243/243 244/244 245/245
f 246/246 247/247 248/248
f 249/249 250/250 251/251
f 252/252 253/253 254/254
f 255/255 256/256 257/257
f 258/258 259/259 260/260
f 261/261 262/262 263/263
f 264/264 265/265 266/266
f 267/267 268/268 269/269
f 270/270 271/271 272/272
f 273/273 274/274 275/275
f 276/276 277/277 278/278
f 279/279 280/280 281/281
f 282/282 283/283 284/284
f 285/285 286/286 287/287
f 288/288 289/289 290/290
f 291/291 292/292 293/293
f 294/294 291/291 293/293
f 295/295 296/296 297/297
f 298/298 295/295 297/297
f 299/299 300/300 301/301
f 302/302 299/299 301/301
f 303/303 302/302 304/304
f 303/303 299/299 302/302
f 305/305 306/306 299/299
f 305/305 299/299 303/303
f 307/307 306/306 305/305
f 308/308 305/305 303/303
f 309/309 310/310 311/311
f 312/312 313/313 314/314
f 315/315 316/316 317/317
f 318/318 319/319 320/320
f 321/321 322/322 323/323
f 324/324 325/325 326/326
f 327/327 328/328 329/329
f 330/330 331/331 332/332
f 333/333 334/334 335/335
f 336/336 337/337 338/338
f 339/339 340/340 341/341
f 342/342 343/343 344/344
f 345/345 346/346 347/347
f 348/348 349/349 350/350
f 351/351 352/352 353/353
f 354/354 355/355 356/356
f 357/357 358/358 359/359
f 360/360 361/361 362/362
f 363/363 364/364 365/365
f 366/366 367/367 368/368
f 369/369 370/370 371/371
f 372/372 373/373 374/374
f 375/375 376/376 377/377
f 378/378 379/379 380/380
f 381/381 382/382 383/383
f 384/384 385/385 386/386
f 387/387 388/388 389/389
f 390/390 391/391 392/392
f 393/393 394/394 395/395
f 396/396 397/397 398/398
f 399/399 400/400 401/401
f 402/402 403/403 404/404
f 405/405 406/406 407/407
f 408/408 409/409 410/410
f 411/411 412/412 413/413
f 414/414 415/415 416/416
f 417/417 418/418 419/419
f 420/420 421/421 422/422
f 423/423 424/424 425/425
f 426/426 427/427 428/428
f 429/429 430/430 431/431
f 432/432 429/429 433/433
f 429/429 434/434 433/433
f 434/434 435/435 433/433
f 436/436 432/432 433/433
f 429/429 431/431 434/434
f 437/437 438/438 439/439
f 440/440 441/441 442/442
f 443/443 444/444 445/445
f 446/446 447/447 448/448
f 449/449 450/450 451/451
f 452/452 453/453 454/454
f 455/455 456/456 457/457
f 458/458 459/459 460/460
f 461/461 462/462 463/463
f 464/464 465/465 466/466
f 467/467 468/468 469/469
f 470/470 471/471 472/472
f 473/473 474/474 475/475
f 476/476 477/477 478/478
f 479/479 480/480 481/481
f 482/482 483/483 484/484
f 485/485 486/486 487/487
f 488/488 489/489 490/490
f 491/491 492/492 493/493
f 494/494 495/495 496/496
f 497/497 498/498 499/499
f 500/500 501/501 502/502
f 503/503 504/504 505/505
f 506/506 507/507 508/508
f 509/509 510/510 511/511
f 512/512 513/513 514/514
f 515/515 516/516 517/517
f 513/513 518/518 514/514
f 519/519 515/515 517/517
f 512/512 514/514 520/520
f 518/518 521/521 522/522
f 516/516 523/523 517/517
f 524/524 525/525 526/526
f 522/522 521/521 527/527
f 520/520 514/514 528/528
f 523/523 524/524 526/526
f 527/527 521/521 529/529
f 517/517 523/523 530/530
f 523/523 526/526 530/530
f 520/520 528/528 515/515
f 524/524 527/527 529/529
f 520/520 515/515 519/519
f 531/531 521/521 518/518
f 513/513 531/531 518/518
f 524/524 529/529 525/525
f 532/532 533/533 534/534
f 535/535 536/536 537/537
f 538/538 539/539 540/540
f 541/541 542/542 543/543
f 544/544 545/545 546/546
f 547/547 548/548 549/549
f 550/550 551/551 552/552
f 553/553 554/554 555/555
f 556/556 557/557 558/558
f 559/559 560/560 561/561
f 562/562 563/563 564/564
f 565/565 566/566 567/567
f 568/568 569/569 570/570
f 571/571 572/572 573/573
f 574/574 575/575 576/576
f 577/577 578/578 579/579
f 580/580 581/581 582/582
f 583/583 584/584 585/585
f 586/586 587/587 588/588
f 586/586 589/589 587/587
f 590/590 591/591 589/589
f 592/592 590/590 589/589
f 592/592 589/589 586/586
f 592/592 586/586 593/593
f 594/594 592/592 593/593

