# https://github.com/mikedh/trimesh
v -0.02979511 -0.03375470 0.05399970
v -0.03937864 0.02182900 0.05399952
v -0.04198384 0.01626491 0.05399993
v -0.02070277 -0.03995418 0.05399993
v -0.04333132 0.01214063 0.05399993
v -0.01676928 -0.04178375 0.05399993
v -0.00180852 0.04498684 0.05399993
v -0.00612754 0.04458016 0.05399993
v -0.01214081 -0.04333055 0.05399993
v -0.00791740 -0.04432141 0.05399993
v -0.01676988 0.04178375 0.05399993
v -0.00153744 -0.04500675 0.05399993
v -0.04475939 -0.00487351 0.05399999
v -0.02070277 0.03995418 0.05399993
v -0.04367876 -0.01092386 0.05399987
v -0.02491986 0.03749787 0.05399970
v -0.04187619 -0.01651573 0.05400041
v -0.02979362 0.03375530 0.05399982
v -0.03995484 -0.02070260 0.05399993
v -0.03411328 0.02938461 0.05399993
v -0.03411388 -0.02938354 0.05399993
v -0.03676348 0.02595019 0.05399993
v 0.02938503 0.03411144 0.05400023
v 0.04333108 -0.01214063 0.05399999
v 0.00460380 -0.04477894 0.05399993
v 0.01039540 -0.04380667 0.05399987
v 0.04500591 -0.00126547 0.05399999
v 0.01626431 -0.04198265 0.05399993
v 0.04475927 0.00487471 0.05399993
v 0.04405874 0.00915533 0.05399999
v 0.04283154 0.01387882 0.05399982
v 0.02698791 -0.03603827 0.05399982
v 0.04127430 0.01792776 0.05399999
v 0.03164434 -0.03202772 0.05399999
v 0.03911244 0.02230167 0.05399999
v 0.03925430 -0.02207088 0.05400047
v 0.04187703 -0.01651430 0.05400023
v 0.01039540 0.04380679 0.05399999
v 0.00433391 0.04481405 0.05399999
v -0.02491986 -0.03749787 0.05399993
v 0.03571081 -0.02742052 0.05399999
v -0.04441422 0.00738335 0.05399999
v -0.04500603 0.00126624 0.05399993
v -0.01092422 0.04367780 0.05399999
v 0.02182865 -0.03937757 0.05400047
v 0.03375470 0.02979469 0.05399999
v 0.03676348 0.02595019 0.05399999
v 0.04441457 -0.00738114 0.05399999
v -0.03764057 -0.02468967 0.05400059
v 0.02595055 0.03676307 0.05399999
v 0.02182900 0.03937804 0.05400047
v 0.01626431 0.04198265 0.05399993
v -0.05400002 -0.04506778 0.11604860
v -0.05400002 0.04560232 0.11857053
v -0.06265008 0.04546701 0.11943797
v -0.24013400 -0.03764367 0.06949976
v -0.25441721 -0.03616505 0.07759992
v -0.25783271 -0.03513640 0.06949976
v -0.26915410 -0.02802276 0.07759980
v -0.27977371 0.01115751 0.06949976
v -0.27781549 0.01645255 0.07759986
v -0.27307320 0.02346229 0.06949970
v -0.26611230 0.03041172 0.07759992
v -0.24543729 0.03804469 0.06949976
v -0.28141749 -0.00105935 0.07759986
v -0.24756750 0.03788465 0.07759992
v -0.27816650 -0.01508700 0.07759986
v -0.28110769 -0.00455779 0.06949976
v -0.26344159 0.03212666 0.06949976
v -0.27450851 -0.02232348 0.06949976
v -0.24539299 -0.03746122 0.07760075
v -0.25297359 0.03635227 0.07760015
v -0.26822659 0.02839756 0.07759980
v -0.28058010 0.00663376 0.07759980
v -0.28114101 0.00157976 0.07759986
v -0.26502609 -0.03083038 0.07759986
v -0.25021321 -0.03693103 0.07759968
v -0.27997449 -0.00941849 0.07760039
v -0.25659370 0.03519713 0.07760027
v 0.02392452 -0.03722172 0.16228118
v 0.02360594 -0.03640353 0.16466411
v 0.02212357 -0.03833395 0.16254207
v 0.02315860 -0.03546828 0.16644754
v 0.02620500 -0.03291428 0.16638281
v 0.02297949 -0.03511929 0.16697439
v 0.02356570 -0.02832776 0.17054083
v 0.02754873 -0.02591574 0.16963443
v 0.02677965 -0.02525752 0.17017266
v 0.02391386 -0.02910828 0.17015108
v -0.00631315 -0.03570032 0.17398139
v -0.00708383 -0.03648900 0.17395773
v 0.02630710 -0.03248029 0.16670641
v 0.01925265 -0.04028034 0.16054120
v 0.02257829 -0.03436475 0.16795542
v 0.02622085 -0.03216111 0.16706392
v 0.01963502 -0.03968489 0.16290405
v -0.00463486 -0.03788280 0.17341264
v -0.00621408 -0.03883826 0.17311528
v 0.02574002 -0.03183096 0.16770014
v 0.02195417 -0.03422635 0.16846886
v 0.02584964 -0.03125756 0.16803178
v 0.02185148 -0.03750836 0.16489282
v -0.01030451 -0.03825294 0.17345777
v -0.00823188 -0.03998583 0.17247620
v 0.02133572 -0.03629267 0.16704937
v 0.02145671 -0.03656154 0.16665163
v 0.02550262 -0.03103959 0.16840538
v 0.02217489 -0.03362989 0.16876605
v 0.02478027 -0.02553927 0.17082717
v 0.02466952 -0.02378845 0.17113616
v -0.03360462 -0.01996409 0.17640337
v 0.02515333 -0.03116953 0.16854742
v 0.04445707 -0.00018800 0.15650173
v 0.04402226 -0.00223774 0.15935197
v 0.01942503 -0.03885453 0.16520997
v 0.04328918 -0.00013037 0.16170909
v 0.04434716 -0.00322992 0.15651985
v 0.02197623 -0.03327667 0.16910222
v 0.04407954 -0.00013251 0.15929034
v 0.04376316 -0.00546646 0.15935936
v 0.04419487 -0.00493759 0.15654358
v 0.02530044 -0.03049606 0.16884443
v 0.02191472 -0.02662283 0.17135944
v 0.02101528 -0.03560441 0.16794678
v 0.04313713 -0.00355297 0.16173353
v 0.04291248 -0.00014425 0.16252842
v -0.00994587 -0.03724527 0.17388632
v 0.04264402 -0.00480747 0.16259696
v 0.04192751 -0.00013278 0.16420951
v 0.04291760 -0.00575441 0.16177025
v 0.04350471 -0.00929451 0.15663459
v 0.01661622 -0.04106003 0.16334542
v 0.04327046 -0.00837612 0.15960398
v -0.03560733 -0.01631987 0.17658462
v -0.03366661 -0.01936626 0.17642381
v 0.02263116 -0.02405333 0.17145743
v 0.02458858 -0.02169501 0.17130473
v 0.02040416 -0.02495318 0.17169627
v 0.01873016 -0.02819061 0.17179337
v 0.02051556 -0.03457629 0.16905030
v 0.04148238 -0.00628799 0.16424658
v 0.04222130 -0.00758219 0.16266319
v 0.04144245 -0.00616026 0.16432776
v 0.04249668 -0.00830710 0.16181972
v 0.04134541 -0.00609934 0.16447523
v 0.04076385 -0.00590229 0.16530552
v 0.02021789 -0.03147494 0.17075863
v 0.02423858 -0.02998924 0.16968753
v -0.01280730 -0.03376644 0.17460921
v 0.02100372 -0.03299427 0.16979351
v 0.01910084 -0.03789782 0.16693469
v 0.04294395 -0.01163470 0.15673878
v 0.01897501 -0.03756034 0.16741421
v 0.04099464 -0.00793457 0.16462078
v 0.01500689 -0.04170513 0.16358616
v 0.01480376 -0.04212665 0.16126063
v 0.04027050 -0.00736755 0.16562136
v 0.01876991 -0.03702765 0.16809561
v 0.01565539 -0.04059219 0.16572525
v 0.04156243 -0.01240730 0.16187563
v 0.04256159 -0.01146841 0.15961405
v -0.01332300 -0.03542315 0.17448940
v 0.04217326 -0.01421928 0.15686675
v 0.01963895 -0.03015697 0.17127409
v 0.01869189 -0.03606796 0.16896286
v 0.03931236 -0.00614291 0.16683325
v 0.02187561 -0.02778697 0.17117693
v 0.04119110 -0.01229000 0.16275349
v 0.04189300 -0.01378619 0.15969803
v 0.01967662 -0.03293645 0.17033639
v 0.01587677 -0.03157413 0.17188301
v 0.04054176 -0.01081925 0.16440155
v 0.03773111 -0.00740659 0.16796246
v 0.01623779 -0.03927975 0.16726609
v 0.01619583 -0.03913086 0.16747739
v 0.04015445 -0.01070302 0.16496643
v 0.01791393 -0.03496444 0.17003711
v -0.01121473 -0.03860014 0.17327865
v 0.03177344 -0.00342464 0.17067286
v 0.03078120 -0.00013350 0.17078825
v 0.03919601 -0.01011645 0.16630151
v 0.04085922 -0.01669311 0.15982273
v 0.04129254 -0.01662445 0.15701165
v 0.01606428 -0.03867840 0.16807404
v 0.01494073 -0.03929656 0.16803946
v 0.03879874 -0.00760680 0.16707751
v 0.01766777 -0.03440070 0.17042705
v 0.01491850 -0.02963989 0.17216381
v -0.03734362 -0.01251602 0.17672929
v 0.01580893 -0.03785198 0.16899272
v 0.01733011 -0.03364259 0.17087766
v 0.01064574 -0.04337877 0.16195228
v 0.01465702 -0.03988569 0.16751006
v 0.03273636 -0.00433779 0.17044940
v 0.01862770 -0.03221827 0.17098238
v 0.03466606 -0.00781250 0.16968670
v -0.03702986 -0.01263988 0.17671862
v 0.03969144 -0.01295834 0.16480097
v 0.03561204 -0.00694948 0.16929444
v 0.03950047 -0.01427114 0.16449341
v 0.01434409 -0.03865492 0.16899761
v 0.01531219 -0.03585422 0.17056694
v 0.01564455 -0.03734171 0.16948363
v 0.01099777 -0.04215693 0.16628482
v 0.01101481 -0.04295527 0.16413000
v -0.01260668 -0.03714156 0.17392822
v 0.03796344 -0.01006376 0.16739156
v 0.04018276 -0.01627266 0.16212591
v 0.03941226 -0.01290601 0.16518118
v 0.01493990 -0.03778815 0.16945150
v 0.01393473 -0.03721231 0.17025574
v 0.03308051 -0.00562262 0.17032816
v 0.03459167 -0.00449026 0.16987994
v 0.03391623 -0.00496846 0.17009523
v 0.03982919 -0.01609987 0.16296949
v 0.01363044 -0.03496527 0.17145940
v 0.03676205 -0.00972229 0.16833940
v 0.03862363 -0.01259487 0.16617748
v 0.03227031 -0.00606692 0.17052110
v 0.03272330 -0.00893211 0.17033412
v 0.01362943 -0.03620141 0.17093023
v 0.01093232 -0.04100221 0.16812971
v 0.01077616 -0.04095774 0.16825571
v 0.00610113 -0.04425913 0.16271468
v -0.03837871 -0.00838292 0.17683449
v 0.03816437 -0.01277971 0.16659477
v 0.01082360 -0.04053992 0.16872545
v 0.03919601 -0.02033996 0.16006854
v 0.03928560 -0.02097117 0.15732470
v 0.03783267 -0.01262664 0.16694745
v 0.01346588 -0.03334808 0.17197730
v 0.03769916 -0.01228058 0.16715553
v 0.03581106 -0.01103907 0.16874900
v 0.03447151 -0.01057803 0.16954114
v 0.03898477 -0.01561802 0.16459998
v -0.03964871 -0.00156868 0.17693742
v 0.01061421 -0.03985893 0.16949865
v 0.01057308 -0.03945374 0.16986963
v 0.03865861 -0.01542890 0.16511711
v 0.03700697 -0.01302766 0.16754594
v 0.01054257 -0.03933686 0.16997673
v 0.00604343 -0.04318827 0.16700306
v 0.01050513 -0.03907996 0.17018923
v 0.01411837 -0.03784102 0.16976675
v 0.03831863 -0.01535815 0.16556283
v 0.03661859 -0.01203030 0.16806033
v 0.01055598 -0.03879082 0.17038020
v 0.03757786 -0.01522785 0.16641256
v 0.01038295 -0.03848803 0.17064353
v 0.01031845 -0.03797060 0.17098161
v 0.03844916 -0.01976382 0.16275945
v 0.01022481 -0.03733700 0.17134401
v 0.03543895 -0.01150774 0.16891029
v 0.00662655 -0.04215043 0.16844925
v 0.03691208 -0.01501989 0.16711065
v 0.01089638 -0.04117429 0.16792365
v 0.00553036 -0.04220324 0.16874679
v 0.03668123 -0.01474934 0.16738620
v 0.01025378 -0.03292071 0.17255726
v 0.00432581 -0.03479385 0.17308369
v 0.00661296 -0.04177844 0.16893568
v 0.00597191 -0.04397237 0.16493168
v 0.00141501 -0.04466021 0.16350915
v 0.01005613 -0.03660017 0.17170742
v 0.00975704 -0.03546208 0.17216071
v 0.00809127 -0.03697371 0.17197629
v 0.00516599 -0.04238206 0.16862884
v 0.00605965 -0.04105556 0.16994419
v 0.00654453 -0.04061245 0.17016848
v 0.03745836 -0.01914536 0.16473755
v 0.00516474 -0.04193496 0.16920575
v 0.03740233 -0.01902824 0.16488090
v 0.03697288 -0.02484881 0.15770366
v 0.03421020 -0.02856051 0.15813675
v 0.03624051 -0.02591323 0.15781602
v 0.03566426 -0.01423287 0.16827568
v 0.03499490 -0.01379489 0.16879054
v 0.00786036 -0.03544056 0.17248990
v 0.03733927 -0.01874333 0.16512885
v 0.03077316 -0.00885773 0.17077413
v 0.03308981 -0.01068335 0.17007908
v 0.03276568 -0.01232481 0.17005202
v 0.00564384 -0.04041075 0.17057368
v 0.00188917 -0.04363006 0.16751649
v 0.00135279 -0.04435497 0.16567996
v 0.00950509 -0.03409731 0.17250051
v 0.03691411 -0.01899147 0.16551199
v 0.03689104 -0.01848781 0.16578575
v 0.00576210 -0.03969073 0.17110326
v -0.00076757 -0.04437083 0.16594859
v 0.03646075 -0.02495861 0.16045501
v 0.03439986 -0.01369124 0.16914638
v 0.03643071 -0.01887261 0.16610762
v -0.00095588 -0.04467213 0.16391673
v 0.03592789 -0.01818412 0.16690131
v 0.00532532 -0.03850066 0.17191544
v 0.00187015 -0.04257857 0.16921797
v 0.03559678 -0.01815450 0.16720720
v 0.03288656 -0.01529455 0.16963276
v 0.03558683 -0.01791477 0.16730359
v -0.02434384 -0.03033816 0.17544528
v 0.03520619 -0.01793503 0.16760817
v 0.03578758 -0.02433109 0.16304042
v 0.03196984 -0.01266843 0.17029324
v 0.00222582 -0.04162234 0.17029324
v -0.00061321 -0.04368036 0.16787126
v -0.00367433 -0.04423522 0.16639491
v -0.00387186 -0.04451638 0.16442057
v 0.03492653 -0.01785659 0.16784545
v 0.00545502 -0.03629398 0.17267539
v 0.03423815 -0.01747095 0.16844460
v 0.03186815 -0.01430815 0.17017212
v 0.03362596 -0.01705741 0.16891917
v 0.03049939 -0.01278913 0.17067554
v 0.03304278 -0.01679611 0.16932526
v -0.00035954 -0.04278361 0.16936722
v 0.00205034 -0.04037344 0.17140093
v 0.03514391 -0.02320659 0.16502073
v 0.03431212 -0.02288818 0.16623440
v 0.02905178 -0.01461398 0.17089488
v -0.00049591 -0.04211086 0.17018881
v -0.00389886 -0.04354059 0.16834029
v -0.02668964 -0.02662253 0.17581650
v 0.03438174 -0.02413707 0.16527333
v 0.03403526 -0.02385538 0.16586920
v 0.03337627 -0.02268970 0.16717412
v 0.03050243 -0.01764297 0.17024120
v -0.00028640 -0.04149436 0.17079397
v 0.03339320 -0.02750295 0.16339978
v 0.03400641 -0.02819436 0.16083666
v 0.03127449 -0.01542454 0.17025831
v 0.03042531 -0.01527321 0.17053273
v -0.00026771 -0.04123079 0.17103049
v 0.03305721 -0.02253699 0.16751339
v -0.00118446 -0.03954756 0.17236068
v 0.02948004 -0.01805192 0.17052325
v -0.00023599 -0.04089409 0.17130884
v 0.03159701 -0.03093910 0.16115227
v 0.03168487 -0.03137385 0.15853610
v 0.03241616 -0.02153486 0.16838833
v -0.00018659 -0.04032677 0.17171582
v -0.00446504 -0.04251235 0.17003086
v 0.00085449 -0.03786039 0.17288496
v 0.00098383 -0.03907203 0.17230674
v 0.03181034 -0.02109527 0.16891088
v -0.02833724 -0.02612257 0.17593142
v 0.03250771 -0.02265143 0.16789194
v 0.03262025 -0.02672648 0.16532042
v 0.03249228 -0.02660280 0.16557153
v -0.02384001 -0.02961850 0.17553827
v 0.03103691 -0.02103132 0.16935488
v 0.03168082 -0.02201765 0.16869380
v -0.00449014 -0.04175412 0.17092892
v 0.03176867 -0.02622413 0.16659203
v 0.03120893 -0.03027176 0.16330090
v 0.03042352 -0.02010393 0.16986557
v 0.03097504 -0.02997714 0.16409179
v 0.03111732 -0.02531558 0.16769531
v 0.00034332 -0.03665876 0.17327239
v -0.00336647 -0.04076284 0.17175498
v 0.02865600 -0.02016830 0.17053446
v 0.02885890 -0.02241969 0.17001840
v 0.03081738 -0.02504277 0.16804978
v 0.03309476 -0.02203321 0.16770461
v 0.03007078 -0.02922582 0.16600236
v 0.02732849 -0.01959991 0.17094746
v 0.02997905 -0.02428936 0.16890892
v 0.03028500 -0.02853775 0.16635736
v -0.00269979 -0.03816181 0.17315271
v -0.00654471 -0.04124861 0.17144998
v 0.02791392 -0.03478813 0.15914490
v 0.02947592 -0.02824831 0.16728868
v 0.02972543 -0.02914017 0.16642168
v 0.02652966 -0.01798582 0.17116620
v 0.02907532 -0.02349090 0.16965064
v 0.02932024 -0.02792900 0.16761955
v 0.02907145 -0.02780503 0.16788068
v -0.00508451 -0.04037463 0.17214062
v 0.02909415 -0.02753883 0.16801401
v 0.02889174 -0.02732294 0.16827079
v -0.00299066 -0.03564059 0.17372634
v 0.02811419 -0.02715677 0.16885462
v 0.02728068 -0.03374767 0.16419985
v 0.02768421 -0.03453159 0.16170754
v 0.02756929 -0.02218472 0.17054673
v -0.00331384 -0.03730130 0.17344853
v 0.02671992 -0.03272902 0.16609135
v 0.03012245 -0.02960509 0.16560241
v 0.03060019 -0.02904683 0.16559061
v 0.02364063 -0.03785032 0.15982559
v 0.02038466 0.03943872 0.16034641
v 0.03075218 0.03201103 0.15867879
v 0.02855288 0.03398895 0.15899744
v 0.02681732 0.03536987 0.15930834
v 0.03227221 0.03048324 0.15845528
v 0.02451324 0.03700542 0.15967991
v 0.03573036 0.02635180 0.15789344
v 0.03811156 0.02277374 0.15752163
v -0.00346917 0.04427957 0.16435482
v 0.04066836 0.01792418 0.15690734
v 0.00633335 0.04394549 0.16267678
v 0.03914248 0.02098846 0.15729752
v 0.01409327 0.04209601 0.16138258
v 0.04054737 0.01811218 0.15713193
v 0.01100146 0.04301500 0.16189733
v 0.01640701 0.04125452 0.16100194
v 0.04588007 -0.00008530 0.13031700
v 0.04512661 -0.00795650 0.13469859
v 0.04408395 -0.01253926 0.13510063
v 0.04260861 -0.01689898 0.13568511
v 0.04063749 -0.02138411 0.13255300
v 0.04074144 -0.02098643 0.13645854
v 0.03567683 -0.02887153 0.13460150
v 0.03488051 -0.02983236 0.13485661
v 0.03805208 -0.02568817 0.13362637
v 0.03550040 -0.02900600 0.13833811
v 0.03182363 -0.03306007 0.13613191
v 0.03004455 -0.03465080 0.13687363
v 0.03000628 -0.03454577 0.14079692
v 0.02347660 -0.03927695 0.14325323
v 0.01442003 -0.04335999 0.14685574
v 0.00957537 -0.04470521 0.14504137
v 0.00974893 -0.04460144 0.14878764
v -0.00018382 -0.04557257 0.15275969
v 0.00454456 -0.04545217 0.14705517
v -0.03082048 0.02350270 0.17613580
v -0.02777642 0.02620732 0.17589565
v 0.02476543 0.01947540 0.17131474
v 0.02279078 0.02359575 0.17146387
v 0.01874572 0.01370036 0.17184504
v 0.02689969 0.01589548 0.17112800
v 0.01989984 0.02657747 0.17170962
v 0.01507848 0.02893579 0.17216226
v 0.01216024 0.03065210 0.17241749
v 0.00860596 0.03311049 0.17270937
v 0.02857738 0.01212209 0.17098113
v 0.03088080 0.00873899 0.17074248
v 0.03052997 0.00406575 0.17081037
v -0.03359591 0.01840007 0.17642059
v -0.00866067 0.03430283 0.17423906
v -0.00522417 0.03542661 0.17391100
v -0.03667342 0.01444149 0.17664894
v 0.00430042 0.03361243 0.17310508
v -0.00026432 0.03440791 0.17350450
v 0.03401446 0.02029806 0.16758754
v 0.03433382 0.02051353 0.16723289
v 0.03205364 0.02367413 0.16764715
v 0.01058375 0.04045855 0.16866931
v 0.01028633 0.04107081 0.16799655
v 0.00652695 0.04115378 0.16936102
v 0.01505470 0.04144096 0.16354873
v 0.03158974 0.02387177 0.16790374
v 0.03365010 0.02005553 0.16795673
v 0.00543976 0.03725910 0.17229977
v 0.02745056 0.01982104 0.17089035
v 0.02388244 0.02361714 0.17126062
v 0.02457600 0.02246809 0.17122974
v 0.02939414 0.01929998 0.17034998
v 0.03018331 0.01937770 0.17004373
v 0.02790075 0.02211672 0.17039224
v -0.00031090 0.03783369 0.17290451
v 0.00569803 0.03637588 0.17253509
v 0.03127604 0.02274847 0.16858562
v 0.01046454 0.04208374 0.16626337
v 0.03713917 0.01895517 0.16509756
v 0.03599095 0.02124917 0.16512814
v 0.03678178 0.02014046 0.16481575
v 0.00771976 0.03739845 0.17176547
v 0.03567874 0.02103489 0.16563710
v 0.00545692 0.03591740 0.17269196
v 0.00249088 0.03685903 0.17285761
v 0.03526359 0.01803088 0.16742363
v 0.01081264 0.03959298 0.16941085
v 0.03957659 0.01744920 0.16220572
v 0.04027271 0.01778221 0.15988066
v 0.03830492 0.01966899 0.16276725
v 0.03325736 0.01961278 0.16838505
v 0.01149296 0.04153978 0.16659208
v 0.00519884 0.03529340 0.17285641
v 0.01073515 0.03917539 0.16981080
v 0.00647205 0.04033082 0.17019727
v 0.03291165 0.01952356 0.16863337
v 0.03670936 0.01870107 0.16575631
v 0.03923171 0.01726198 0.16304573
v 0.03422331 0.01791507 0.16824528
v 0.03018224 0.02297049 0.16915723
v 0.03228664 0.01907110 0.16912796
v 0.03001546 0.02255356 0.16937562
v 0.00643581 0.03985029 0.17060437
v 0.03587615 0.01821827 0.16682079
v 0.03482568 0.02055621 0.16676977
v 0.00563425 0.03458344 0.17290332
v 0.00138849 0.03547942 0.17326775
v 0.03167808 0.01876395 0.16951629
v 0.00964528 0.03837978 0.17075571
v 0.00529236 0.03963845 0.17103430
v 0.00992244 0.03889679 0.17030909
v 0.02902632 0.02254188 0.16984811
v 0.01690101 0.03998363 0.16519418
v 0.00554222 0.03885138 0.17148879
v 0.03841859 0.01681363 0.16462084
v 0.03831207 0.01677083 0.16478732
v 0.01423889 0.04082345 0.16589179
v 0.01397716 0.03950703 0.16802832
v 0.03552407 0.01672989 0.16764452
v 0.03783869 0.01656574 0.16548403
v 0.03267860 0.01592814 0.16961422
v 0.01816022 0.04011631 0.16311934
v 0.01101481 0.03707361 0.17116048
v 0.00401306 0.03816878 0.17217567
v 0.03028035 0.01733112 0.17033240
v 0.01367998 0.03897237 0.16874304
v 0.03715980 0.01616019 0.16639533
v 0.03381007 0.01705408 0.16875216
v 0.01709103 0.03949463 0.16586539
v 0.01006686 0.03586947 0.17190876
v 0.01499992 0.03951042 0.16742524
v 0.03676325 0.01600950 0.16683730
v 0.03657650 0.01598405 0.16701564
v 0.01428598 0.03807890 0.16928931
v 0.04117918 0.01263332 0.16244116
v 0.03346300 0.01572561 0.16923114
v 0.01383543 0.03795415 0.16958394
v 0.00980562 0.03933840 0.17000475
v 0.01068228 0.03887784 0.17007151
v 0.03627777 0.01577264 0.16734340
v 0.01405084 0.03983986 0.16757914
v 0.01417303 0.03762400 0.16969117
v 0.01011765 0.03425425 0.17232134
v 0.03592652 0.01554358 0.16768798
v 0.01644438 0.03884845 0.16731342
v 0.02083206 0.03880691 0.16273704
v 0.01711964 0.03800082 0.16785845
v 0.01425123 0.03726673 0.16991755
v 0.01562428 0.03861880 0.16809663
v 0.03519684 0.01555657 0.16822334
v 0.01553303 0.03748661 0.16920485
v 0.01356691 0.03672122 0.17052271
v 0.03448492 0.01489275 0.16882833
v 0.03240162 0.01416909 0.16995683
v 0.02976131 0.01587486 0.17067172
v 0.03989893 0.01285535 0.16444954
v 0.00999862 0.03342509 0.17248710
v 0.03964686 0.01276147 0.16483136
v 0.04235172 0.01342010 0.15684351
v 0.04206800 0.01301002 0.15972128
v 0.04350650 0.00902653 0.15665259
v 0.04421645 0.00447845 0.15653958
v 0.04392611 0.00671959 0.15659132
v 0.01765549 0.03818804 0.16730180
v 0.03949934 0.01188862 0.16532549
v 0.01476609 0.03629422 0.17034974
v 0.01698738 0.03645163 0.16931822
v 0.02048492 0.03800570 0.16510704
v 0.03843563 0.01231861 0.16637959
v 0.04019713 0.01130598 0.16462084
v 0.01317793 0.03541928 0.17129471
v 0.03838348 0.01140928 0.16672637
v 0.01718217 0.03682470 0.16893139
v 0.04231142 0.00896758 0.16184398
v 0.04304701 0.00917023 0.15954288
v 0.01609247 0.03633934 0.16979274
v 0.01333290 0.03465193 0.17154201
v 0.01219177 0.03388977 0.17205169
v 0.04369556 0.00599575 0.15914288
v 0.01419973 0.03539425 0.17100956
v -0.03903931 0.00723189 0.17687520
v 0.03784626 0.01132917 0.16718110
v 0.03722751 0.01159822 0.16763558
v 0.04353129 0.00614351 0.15977790
v 0.01626229 0.03527176 0.17036446
v 0.02016896 0.03705370 0.16679289
v 0.02006161 0.03700786 0.16693201
v 0.02478790 0.03638744 0.16216447
v 0.02000892 0.03655403 0.16747370
v 0.03593623 0.01109778 0.16863766
v 0.01963096 0.03618454 0.16807082
v 0.04094672 0.00862384 0.16441073
v 0.01601028 0.03129768 0.17184927
v 0.01315295 0.03162276 0.17227509
v 0.04292196 0.00549406 0.16176119
v 0.04229533 0.00711250 0.16264369
v 0.04438191 0.00263405 0.15651944
v 0.01957792 0.03565317 0.16857305
v 0.04001986 0.00848389 0.16567447
v 0.01500362 0.03344225 0.17152079
v 0.01685619 0.03391164 0.17080888
v 0.01942998 0.03536921 0.16887983
v 0.04392766 0.00332928 0.15938356
v 0.03510987 0.01042997 0.16919311
v 0.03171730 0.00848770 0.17060938
v 0.02512633 0.03531920 0.16411235
v 0.03411400 0.01045686 0.16966953
v 0.01703023 0.03308278 0.17107316
v 0.01928538 0.03481078 0.16934499
v 0.03938293 0.00613225 0.16673031
v 0.03626441 0.00815457 0.16880783
v 0.03851318 0.00804901 0.16721472
v 0.03308171 0.00994748 0.17011085
v 0.04128283 0.00641561 0.16445806
v 0.02468591 0.03516483 0.16489133
v 0.01900237 0.03429234 0.16979727
v 0.02645874 0.03521156 0.16179492
v 0.04112911 0.00549889 0.16486766
v 0.01869082 0.03363174 0.17027786
v 0.04144430 0.00621980 0.16426280
v 0.02402102 0.03468513 0.16625061
v 0.03740108 0.00581860 0.16835620
v 0.02355617 0.03433644 0.16701868
v 0.04400873 0.00149387 0.15940222
v 0.03735756 0.00777703 0.16815671
v 0.03687214 0.01119154 0.16798314
v 0.03389489 0.00687605 0.17000606
v 0.04291224 0.00257683 0.16239526
v 0.02619284 0.03404664 0.16469856
v -0.01441967 0.03647923 0.17406514
v 0.02514749 0.03332847 0.16665723
v 0.02562367 0.03338158 0.16616722
v 0.02937698 0.03277969 0.16154792
v 0.03332316 0.00598144 0.17025449
v 0.02345573 0.03325855 0.16802564
v 0.02426147 0.03351593 0.16726818
v 0.03588813 0.00673717 0.16914775
v 0.01769649 0.03143864 0.17139825
v 0.02314275 0.03286695 0.16851827
v 0.03534781 0.00482988 0.16955700
v 0.02334368 0.03222030 0.16881564
v 0.02275180 0.03291594 0.16872468
v 0.01936239 0.03507465 0.16912957
v 0.03241717 0.00434113 0.17054024
v -0.01097393 0.03868484 0.17308088
v 0.02821928 0.03260833 0.16406616
v 0.02261215 0.03211879 0.16928472
v 0.03504753 0.00455373 0.16967907
v 0.02228140 0.03157901 0.16972914
v 0.02423143 0.03180038 0.16855451
v -0.01043283 0.03800481 0.17346027
v -0.00694311 0.04127115 0.17117401
v 0.01844501 0.02869361 0.17173406
v 0.02219533 0.03091174 0.17006978
v -0.01329511 0.03502798 0.17449667
v -0.01357781 0.03549194 0.17439034
v 0.02360689 0.03129863 0.16920825
v 0.02482146 0.03184038 0.16815104
v 0.02993696 0.03127837 0.16346701
v -0.01058149 0.03704309 0.17388227
v 0.01855278 0.03308451 0.17058178
v -0.00330108 0.04401069 0.16630110
v 0.00128627 0.04438740 0.16352894
v -0.00135428 0.04438757 0.16398790
v 0.02348273 0.03085827 0.16949996
v 0.02755928 0.03162968 0.16607293
v 0.02187997 0.03047913 0.17036947
v 0.01809078 0.03230828 0.17102709
v -0.00589371 0.04219251 0.17003360
v 0.02971881 0.03097498 0.16425070
v 0.02727073 0.03122454 0.16672828
v -0.00984955 0.03597635 0.17415967
v 0.03234446 0.02983391 0.16107436
v 0.02122187 0.02964317 0.17087665
v 0.03426074 0.02822667 0.15813359
v 0.03036057 0.03194701 0.16108706
v 0.02930980 0.03012824 0.16572704
v 0.02438825 0.02924841 0.16978224
v -0.00291568 0.04321533 0.16845467
v 0.02882391 0.03018105 0.16618034
v 0.02347898 0.02939206 0.17012646
v -0.00116807 0.04408913 0.16600999
v 0.02683550 0.03044849 0.16768166
v -0.01310205 0.03456032 0.17455926
v 0.02657318 0.02991950 0.16822120
v 0.02645230 0.02936249 0.16861531
v 0.02756685 0.02875185 0.16823962
v -0.00549805 0.04053205 0.17180272
v -0.00557572 0.04088509 0.17150059
v -0.00653577 0.03961396 0.17254134
v 0.02865576 0.02949666 0.16689863
v 0.03178381 0.02910804 0.16360744
v 0.02375572 0.02796608 0.17048659
v 0.02108764 0.02729034 0.17141947
v -0.00530904 0.03847777 0.17310383
v 0.03405410 0.02786165 0.16083076
v -0.00700176 0.03566741 0.17401257
v -0.00098042 0.04337805 0.16793426
v 0.02630615 0.02844017 0.16916355
v -0.00282478 0.04227352 0.16990467
v 0.00138503 0.04407191 0.16561975
v 0.02807497 0.02879834 0.16785809
v -0.00813454 0.03751087 0.17361494
v -0.03459441 0.01824474 0.17647448
v -0.00268263 0.04145437 0.17083808
v 0.02651214 0.02741241 0.16950341
v -0.00663036 0.03710508 0.17368182
v 0.02949804 0.02746355 0.16758832
v -0.00675374 0.03652542 0.17383399
v -0.00082925 0.04250264 0.16939774
v 0.02808064 0.02847057 0.16805270
v 0.03107047 0.02829301 0.16550102
v 0.03095269 0.02816385 0.16574624
v 0.00157738 0.04334563 0.16759601
v 0.00139046 0.04197627 0.16977134
v 0.03343921 0.02717125 0.16339436
v -0.00196832 0.04000318 0.17198827
v 0.03043442 0.02760642 0.16669866
v -0.00360876 0.03793025 0.17318001
v -0.00552160 0.03592407 0.17386153
v 0.02405941 0.02601677 0.17087164
v 0.00557894 0.04375356 0.16498222
v 0.02700906 0.02573299 0.16984870
v 0.02813625 0.02565830 0.16932633
v 0.02628141 0.02603060 0.17007651
v 0.02962756 0.02676105 0.16790357
v 0.02367651 0.02542251 0.17108473
v -0.00141710 0.03901726 0.17248985
v 0.02535492 0.02588373 0.17047646
v 0.03463721 0.02561277 0.16324010
v 0.03529202 0.02627271 0.16065391
v 0.03264403 0.02637594 0.16535732
v -0.00057142 0.04020267 0.17166516
v 0.00151437 0.04064202 0.17106905
v -0.00337285 0.03611516 0.17364922
v 0.02915024 0.02627253 0.16847655
v 0.03225433 0.02600377 0.16607978
v -0.00149435 0.03576529 0.17352703
v 0.02772849 0.02827996 0.16839703
v -0.00138032 0.03868001 0.17265388
v 0.02949988 0.02501744 0.16880181
v 0.00144762 0.03946352 0.17187252
v 0.03158956 0.02538269 0.16711804
v 0.00121993 0.03895699 0.17218986
v 0.02497649 0.02394163 0.17097517
v 0.02105194 0.02867263 0.17116770
v 0.02565276 0.02423799 0.17073455
v -0.00179481 0.04142951 0.17080780
v 0.03377366 0.02483391 0.16526409
v 0.03346616 0.02456760 0.16582003
v 0.00485796 0.04210036 0.16876259
v 0.00480473 0.04306077 0.16715136
v 0.03125876 0.02507871 0.16756549
v 0.00327706 0.03990775 0.17125239
v 0.03294754 0.02371597 0.16690483
v 0.03057914 0.02446341 0.16835787
v 0.00479120 0.04124641 0.16978922
v 0.02720260 0.02433127 0.17016783
v 0.03765475 0.02280807 0.16020896
v 0.01056194 0.04281282 0.16418090
v 0.00655514 0.04281193 0.16691627
v 0.00655210 0.04186499 0.16849294
v 0.00482315 0.04062521 0.17036715
v 0.03908807 0.02019870 0.16011223
v 0.00481135 0.04027080 0.17067161
v 0.03593665 0.02161777 0.16494700
v 0.03697967 0.02216720 0.16288354
v -0.00396514 0.03719419 0.17345216
v -0.00085449 0.03662300 0.17333295
v 0.03526324 0.02134609 0.16592129
v -0.02342993 -0.02904570 0.17551949
v -0.02383679 0.02931815 0.17554363
v 0.00706387 -0.00734603 0.17287096
v 0.04025352 -0.01914978 0.15634098
v 0.03794735 -0.02342885 0.15624561
v 0.03301894 0.00153536 0.17041686
v 0.03253650 -0.00059795 0.17053791
v 0.03717327 -0.00600284 0.16850319
v 0.03378105 0.00341892 0.17019024
v 0.03629481 0.00493383 0.16904583
v 0.03626763 -0.00571173 0.16906955
v 0.03390312 -0.00332308 0.17013552
v 0.04171061 -0.00429201 0.16425183
v 0.04146492 -0.00112468 0.16469374
v 0.04144263 0.00190920 0.16468384
v 0.04176127 0.00378394 0.16420355
v 0.03889834 0.00565952 0.16716506
v -0.02413499 0.02987301 0.17547777
v 0.04150623 0.00013070 0.16466674
v 0.04357719 0.01402950 0.13513198
v 0.03824079 -0.02529716 0.13722649
v 0.04180622 0.01859760 0.13580718
v 0.03944778 0.02312183 0.13677826
v 0.04560345 -0.00389147 0.13460114
v 0.04580432 -0.00027746 0.13441970
v 0.04558062 0.00472856 0.13431838
v 0.04479062 0.00958395 0.13460394
v 0.03235232 -0.03245544 0.13962164
v 0.00458097 -0.04538083 0.15083739
v 0.01886177 -0.04165792 0.14510193
v 0.02853477 0.03554630 0.14119234
v 0.03223311 0.03230273 0.13968363
v 0.02742666 -0.03665924 0.14166524
v 0.02451515 0.03837049 0.14279439
v 0.02009582 0.04081583 0.14456954
v 0.01013743 0.04424226 0.14859583
v 0.00560182 0.04500550 0.15042224
v 0.00088429 0.04530251 0.15232744
v -0.00390226 0.04509764 0.15426114
v 0.03782105 0.02563816 0.13737460
v 0.03638565 0.02771157 0.13431426
v 0.03633391 0.02767086 0.13802686
v 0.03788638 0.02566754 0.13365498
v 0.03927129 0.02351552 0.13314834
v 0.04166889 0.01902186 0.13217869
v 0.04234910 0.01750302 0.13183638
v 0.04398143 0.01295894 0.13123682
v 0.04495084 0.00913239 0.13085034
v 0.00112981 0.04536515 0.14837226
v 0.01103484 0.04403567 0.14821329
v 0.01533401 0.04278254 0.14649000
v 0.02041769 0.04073297 0.14070454
v 0.02848148 0.03567028 0.13746777
v 0.03192126 0.03268992 0.13609292
v 0.03453099 0.02986955 0.13872840
v 0.04031705 0.02170538 0.13270649
v 0.00608099 0.04501998 0.14642760
v 0.01099264 0.04412347 0.14448729
v 0.01573693 0.04270887 0.14258012
v 0.02461802 0.03838491 0.13901045
v 0.02827394 0.03583347 0.13750663
v 0.03501474 0.02940869 0.13483932
v 0.04258847 -0.01718246 0.13180062
v -0.00040960 -0.04562914 0.14893790
v 0.04547923 0.00605518 0.13057163
v 0.02777099 -0.03648996 0.13774767
v 0.04573476 0.00379038 0.13052621
v 0.04575401 -0.00382996 0.13049301
v 0.02368927 -0.03923082 0.13933721
v 0.01925659 -0.04154551 0.14105406
v 0.01451683 -0.04339826 0.14301982
v 0.04529345 -0.00755721 0.13071313
v 0.04419940 -0.01245296 0.13115373
v -0.25408319 -0.02751815 0.17546763
v -0.25883099 -0.02479124 0.17538586
v -0.27243230 -0.02404022 0.16030576
v -0.27342230 -0.02242851 0.16302707
v -0.27541730 -0.01992416 0.15989401
v -0.25430679 -0.02872645 0.17482772
v -0.27464011 0.00471914 0.17270591
v -0.27346799 0.00443172 0.17361762
v -0.27295691 0.00968933 0.17320182
v -0.25771111 -0.02699184 0.17467895
v -0.27518079 0.00770283 0.17173459
v -0.25156590 -0.02949082 0.17509248
v -0.27367210 0.02262783 0.16012993
v -0.27375790 0.02198410 0.16294041
v -0.27109531 0.02499389 0.16434088
v -0.27556229 0.01422488 0.16881123
v -0.27289200 0.01385867 0.17196872
v -0.27378821 0.01590013 0.17004284
v -0.27365881 0.02084147 0.16579142
v -0.27198139 0.01988101 0.16948476
v -0.25896841 -0.02896296 0.17297306
v -0.26948360 -0.02690124 0.16342297
v -0.26630020 -0.02873802 0.16650512
v -0.27123830 -0.02396965 0.16598155
v -0.27149540 0.00353068 0.17489096
v -0.27088851 0.00386697 0.17518815
v -0.26999861 0.00624752 0.17548790
v -0.27590680 0.01701760 0.16557839
v -0.26983640 -0.02688395 0.16066267
v -0.25456581 -0.02982717 0.17401942
v -0.26394269 -0.02844047 0.16983643
v -0.26815030 -0.02528750 0.16907814
v -0.27049261 0.00223529 0.17547061
v -0.26676470 0.00460434 0.17661699
v -0.25083831 -0.02546226 0.17671224
v -0.24219170 -0.02518630 0.17704692
v -0.25446129 -0.01979529 0.17705002
v -0.25959170 -0.03060138 0.17089375
v -0.24858651 -0.02889192 0.17587354
v -0.25352481 -0.02700150 0.17585864
v -0.27172849 0.00753403 0.17441883
v -0.26712921 -0.00201940 0.17661294
v -0.27406791 0.00216323 0.17339923
v -0.27711871 0.01058661 0.16834202
v -0.24139141 -0.02741241 0.17680767
v -0.25490001 -0.03148257 0.17259541
v -0.25997111 -0.03132957 0.16966608
v -0.25254059 -0.03136253 0.17361155
v -0.24632540 0.02698707 0.17672350
v -0.25509930 0.01923418 0.17705008
v -0.24164960 0.02535092 0.17704567
v -0.27622181 0.00973689 0.16988047
v -0.26534650 -0.03031921 0.16392353
v -0.27098280 -0.00030899 0.17529132
v -0.24882880 0.03002727 0.17533025
v -0.24551010 0.02968358 0.17585888
v -0.24529640 0.03213262 0.17446729
v -0.27655789 0.01745218 0.16256692
v -0.25164610 0.02784347 0.17585655
v -0.27740619 0.00491434 0.16971054
v -0.26234481 -0.00791740 0.17704984
v -0.26296139 0.00583410 0.17705008
v -0.27812579 0.01194000 0.16530349
v -0.24243300 -0.02935403 0.17620363
v -0.27058411 -0.00184244 0.17544117
v -0.27681541 0.01750183 0.15969636
v -0.25454521 -0.03349924 0.17048671
v -0.25619891 -0.03300762 0.17016020
v -0.24795911 -0.03071165 0.17502394
v -0.28002879 0.00880146 0.16220643
v -0.26058960 -0.03246104 0.16703584
v -0.26982120 -0.00603288 0.17554989
v -0.25448230 0.02346134 0.17668685
v -0.26543239 -0.03052902 0.16124597
v -0.24793141 0.03250336 0.17372205
v -0.24365009 0.03409445 0.17282155
v -0.27910921 0.00840062 0.16525712
v -0.24201560 -0.03236258 0.17453905
v -0.25041011 0.03141880 0.17410889
v -0.25029919 0.02965426 0.17521092
v -0.24817941 -0.03267705 0.17359760
v -0.25118640 -0.03337466 0.17206624
v -0.25520131 0.02818918 0.17493370
v -0.24742500 0.03425824 0.17205431
v -0.26089099 -0.03306770 0.16438761
v -0.25060651 0.03335320 0.17227181
v -0.25599289 -0.03450524 0.16738578
v -0.27066800 -0.00564569 0.17517796
v -0.24249519 -0.03389281 0.17315789
v -0.27123860 -0.00316143 0.17505004
v -0.27272421 -0.00252521 0.17429473
v -0.26099399 -0.03324985 0.16182890
v -0.24858950 -0.03498363 0.17084082
v -0.25497961 -0.03562080 0.16486754
v -0.24365009 -0.03564399 0.17074385
v -0.25008351 -0.03616106 0.16790398
v -0.24365009 0.03564399 0.17074385
v -0.25662231 -0.03519630 0.16240361
v -0.27210429 -0.00425476 0.17450407
v -0.27288160 -0.00420016 0.17401382
v -0.24382371 -0.03710108 0.16735908
v -0.24884979 -0.03694826 0.16570213
v -0.25258261 -0.03641939 0.16291239
v -0.24876210 -0.03716093 0.16340157
v -0.24365009 -0.03749996 0.16404971
v -0.27989390 0.00249189 0.16562297
v -0.27148059 -0.00900459 0.17435017
v -0.27852440 0.00197375 0.16832306
v -0.27359009 -0.00682062 0.17319813
v -0.26518059 -0.01044070 0.17662486
v -0.24995700 0.03495115 0.17043724
v -0.26924130 -0.00958252 0.17538001
v -0.28054479 0.00699234 0.15914818
v -0.24781510 0.03646302 0.16809406
v -0.24365009 0.03672969 0.16845825
v -0.24365009 0.03731644 0.16622641
v -0.25492480 0.03119564 0.17282715
v -0.26779181 -0.01244354 0.17561474
v -0.26012039 0.01868820 0.17665740
v -0.28090870 0.00108468 0.16206195
v -0.25906959 0.02409452 0.17553081
v -0.25008151 0.03680872 0.16548946
v -0.25585100 0.03236591 0.17112472
v -0.25711730 0.03259396 0.17018428
v -0.28000829 -0.00273311 0.16515377
v -0.25985721 0.02412033 0.17528954
v -0.28096870 0.00374412 0.15908118
v -0.27949879 0.01126372 0.15930023
v -0.25906521 0.02352416 0.17573818
v -0.27829051 -0.00452858 0.16834261
v -0.27766901 -0.00166696 0.16973146
v -0.27843139 -0.00322402 0.16833087
v -0.25166130 0.03578817 0.16780236
v -0.25811771 0.03020370 0.17228117
v -0.27777669 -0.00754166 0.16844490
v -0.26037210 0.02613043 0.17410167
v -0.24786040 0.03726375 0.16351643
v -0.24365009 0.03749996 0.16404971
v -0.27164659 -0.01153755 0.17366054
v -0.26047081 0.02660089 0.17377248
v -0.26194000 -0.01642799 0.17665096
v -0.27395150 -0.01242065 0.17164161
v -0.26110330 0.02727270 0.17300316
v -0.26253131 0.02046763 0.17563763
v -0.25713921 0.02505922 0.17573204
v -0.25637630 0.03435313 0.16732814
v -0.28115669 -0.00209540 0.15905836
v -0.27927971 -0.00794029 0.16524436
v -0.28084719 -0.00189727 0.16207012
v -0.27111819 -0.01532745 0.17296627
v -0.27674100 -0.01055514 0.16898467
v -0.26240990 0.02166295 0.17528954
v -0.28073341 -0.00343734 0.16208514
v -0.26506421 -0.01716232 0.17563286
v -0.26292679 0.02229630 0.17484369
v -0.26227951 0.02794253 0.17175522
v -0.25163561 0.03664481 0.16303363
v -0.26245120 0.02965736 0.16976848
v -0.26759201 -0.01497817 0.17511817
v -0.25812629 0.03442001 0.16474291
v -0.26384431 0.02335798 0.17392966
v -0.26236731 0.02410793 0.17436721
v -0.28061149 -0.00458580 0.16210105
v -0.26462370 0.01190567 0.17662957
v -0.26413029 0.02368837 0.17359498
v -0.26808470 -0.01527190 0.17480286
v -0.28011081 -0.00790310 0.16214308
v -0.26068690 0.03241240 0.16695692
v -0.26615530 0.01537466 0.17569199
v -0.26873949 -0.01569581 0.17433819
v -0.26470590 0.02435469 0.17285492
v -0.26602879 0.01780474 0.17505386
v -0.26464239 0.01909852 0.17526498
v -0.25609401 0.03537416 0.16245987
v -0.26629639 0.01883471 0.17458364
v -0.26580051 0.02531814 0.17137661
v -0.28070781 -0.00573540 0.15912178
v -0.26630250 0.01991200 0.17418286
v -0.27554849 -0.01440727 0.16855981
v -0.26499110 -0.01863777 0.17525645
v -0.25934410 0.03408241 0.16204324
v -0.27792001 -0.01242619 0.16537877
v -0.26852420 0.01866900 0.17346516
v -0.26702440 0.02053457 0.17348983
v -0.26621819 0.02877807 0.16651144
v -0.26602349 -0.01868903 0.17479160
v -0.26540381 -0.02002239 0.17468586
v -0.26848489 0.02104359 0.17215862
v -0.27254111 -0.01729571 0.17066600
v -0.26808169 -0.02055740 0.17287102
v -0.26664731 0.02645874 0.16943493
v -0.27558899 -0.01769053 0.16564217
v -0.27866930 -0.01269799 0.16234710
v -0.26860049 0.01292788 0.17515507
v -0.26112369 -0.02177035 0.17571046
v -0.26382449 0.03136050 0.16403904
v -0.26876071 0.02253723 0.17097785
v -0.26873019 0.01541703 0.17439403
v -0.26318741 -0.02184855 0.17494609
v -0.26983261 0.01938235 0.17206135
v -0.27944800 -0.01124763 0.15931501
v -0.27323151 -0.01855087 0.16889706
v -0.25734711 -0.02130508 0.17667451
v -0.26600650 -0.02156817 0.17366912
v -0.27706620 -0.01651954 0.16254225
v -0.26191279 -0.02394646 0.17453297
v -0.27028659 -0.02238070 0.16955986
v -0.26398280 0.03152084 0.16143777
v -0.27034000 0.02293390 0.16890647
v -0.26692581 -0.02438354 0.17122879
v -0.27102789 0.02039963 0.17022511
v -0.26802450 0.02820587 0.16362550
v -0.27051830 0.01429659 0.17366966
v -0.27782571 -0.01543599 0.15955284
v -0.26351169 -0.02480494 0.17337170
v -0.27054730 0.01365417 0.17382415
v -0.26176831 -0.02510231 0.17403796
v -0.26814651 0.02839457 0.16088726
v -0.25680080 -0.02524513 0.17573520
v -0.26268011 -0.02670288 0.17257204
v -0.25694421 -0.02555996 0.17557695
v -0.26986700 0.01054751 0.17496052
v -0.27370009 0.01607185 0.17004862
v -0.24391361 -0.03869503 0.14797964
v -0.24610230 0.03873229 0.14172378
v -0.26909640 -0.02931869 0.13160744
v -0.27523139 -0.02253139 0.12890759
v -0.27221680 0.02629852 0.13023450
v -0.26637709 0.03138542 0.13280346
v -0.26097971 -0.03474032 0.13517752
v -0.25156879 -0.03801059 0.13931861
v -0.25278980 0.03765672 0.13878205
v -0.28237379 0.00142556 0.12576499
v -0.27959111 -0.01466751 0.12698874
v -0.24154180 -0.03877604 0.14373066
v -0.25895119 -0.03551483 0.14152565
v -0.26243970 -0.03387057 0.13975468
v -0.24823470 0.03844219 0.14600530
v -0.25198561 0.03777396 0.14450099
v -0.26017860 0.03513479 0.13553133
v -0.26149371 0.03429400 0.14040127
v -0.26927570 0.02904886 0.13681927
v -0.27794081 0.01821136 0.12771597
v -0.27797130 0.01794052 0.13306262
v -0.27996099 0.01353049 0.13199958
v -0.28143170 0.00895023 0.12617960
v -0.28213239 0.00454676 0.13105615
v -0.28239241 -0.00003622 0.13104310
v -0.28209811 -0.00540632 0.12588671
v -0.28221700 -0.00346374 0.13124707
v -0.28071600 -0.01128578 0.13169661
v -0.27655599 -0.02043902 0.13361003
v -0.27361491 -0.02457046 0.13477876
v -0.27034760 -0.02805328 0.13635668
v -0.26632309 -0.03133964 0.13825932
v -0.28153279 -0.00802803 0.13156393
v -0.28186491 -0.00641763 0.13117226
v -0.25683591 -0.03625857 0.14250126
v -0.25343320 -0.03742110 0.14385357
v -0.24842830 -0.03841662 0.14595499
v -0.27909759 -0.01561546 0.13259103
v -0.27236179 -0.02592468 0.13555171
v -0.28129289 0.00902176 0.13167312
v -0.25681311 0.03637886 0.14236870
v -0.26933289 0.02899158 0.13689353
v -0.26581961 0.03170382 0.13849392
v -0.27297589 0.02526855 0.13522651
v -0.24360511 0.03870493 0.14807870
v -0.27625850 0.02088534 0.13390484
v -0.23910800 0.03238081 0.17450424
v -0.21405040 -0.00597787 0.17703649
v -0.23651640 -0.02612829 0.17698880
v -0.22296230 0.01986694 0.17704078
v -0.23891810 -0.03032034 0.17580768
v -0.23274510 0.02518069 0.17702439
v -0.24048990 -0.03444999 0.17256525
v -0.24058481 -0.03581005 0.17056706
v -0.24049599 -0.03662717 0.16872987
v -0.23640060 0.02685374 0.17688140
v -0.23663519 0.02840948 0.17649939
v -0.24041291 0.02753216 0.17678597
v -0.23944250 0.02998042 0.17596217
v -0.27496150 -0.00188059 0.17265072
v -0.27767181 -0.00074685 0.16975405
v -0.27753070 0.00310898 0.16981699
v -0.27726749 -0.00490904 0.16983762
v -0.27428061 -0.00467312 0.17297306
v -0.27492189 -0.00464571 0.17239686
v -0.27198061 0.00218582 0.17469224
v -0.06265735 -0.04489064 0.12485203
f 2 31 32
f 16 31 2
f 64 1054 55
f 12 56 10
f 10 56 58
f 1 58 70
f 2 32 1
f 12 10 1
f 24 32 31
f 8 16 11
f 18 16 2
f 2 20 18
f 31 16 52
f 3 60 2
f 2 5 3
f 3 5 60
f 2 1 15
f 15 1 19
f 43 5 2
f 2 15 43
f 43 15 13
f 60 1075 1074
f 1064 1119 1053
f 1053 1089 1064
f 1064 1089 56
f 58 56 77
f 21 1 70
f 19 1 21
f 12 1 26
f 26 1 32
f 1053 1119 424
f 32 24 41
f 64 8 44
f 44 11 64
f 8 11 44
f 14 11 16
f 22 20 2
f 7 16 8
f 7 52 16
f 7 55 54
f 54 805 7
f 7 8 64
f 64 55 7
f 50 46 31
f 31 52 50
f 23 46 50
f 810 46 23
f 31 46 47
f 47 35 31
f 52 7 38
f 813 805 793
f 16 18 69
f 69 63 1058
f 69 14 16
f 64 11 69
f 11 14 69
f 60 1074 61
f 17 19 70
f 17 15 19
f 60 5 42
f 42 43 60
f 5 43 42
f 60 43 68
f 68 43 13
f 68 65 60
f 13 15 68
f 68 17 70
f 15 17 68
f 1092 1074 1075
f 1075 1076 1092
f 74 1075 60
f 74 1076 1075
f 56 1089 71
f 71 77 56
f 1089 1060 71
f 71 1060 77
f 70 19 49
f 49 21 70
f 19 21 49
f 58 1 40
f 40 4 58
f 1 4 40
f 6 4 1
f 58 4 6
f 53 56 12
f 1119 1064 53
f 53 1064 56
f 933 1089 1053
f 38 813 814
f 36 41 37
f 37 41 24
f 37 411 36
f 32 41 34
f 41 414 34
f 31 30 29
f 48 29 27
f 48 24 31
f 31 29 48
f 31 35 33
f 778 400 776
f 51 50 52
f 39 813 38
f 39 38 7
f 805 813 39
f 39 7 805
f 1068 1061 1093
f 64 69 79
f 1069 69 1058
f 1069 79 69
f 1093 1061 1069
f 1061 79 1069
f 1058 63 1071
f 63 1057 1071
f 1072 1074 1073
f 1072 61 1074
f 63 69 62
f 61 1072 62
f 60 61 62
f 20 22 62
f 62 18 20
f 62 69 18
f 2 60 62
f 62 22 2
f 1061 1068 1067
f 794 805 54
f 54 55 794
f 793 805 794
f 67 68 70
f 1076 74 1062
f 1077 1076 1062
f 59 58 76
f 70 58 59
f 58 77 57
f 57 1060 58
f 77 1060 57
f 9 1 10
f 9 6 1
f 9 10 58
f 58 6 9
f 415 777 416
f 415 41 36
f 36 411 415
f 411 777 415
f 820 424 1119
f 1119 53 820
f 820 53 12
f 12 425 820
f 820 425 424
f 12 26 25
f 25 425 12
f 225 865 189
f 225 236 865
f 907 370 104
f 808 51 52
f 792 813 793
f 792 814 813
f 788 787 392
f 810 787 788
f 391 396 790
f 411 37 819
f 407 27 823
f 27 29 823
f 821 30 804
f 821 29 30
f 821 823 29
f 782 823 821
f 821 783 782
f 804 783 821
f 397 798 661
f 799 779 800
f 800 47 799
f 35 47 800
f 778 779 402
f 402 400 778
f 778 776 802
f 31 33 802
f 803 783 804
f 803 776 783
f 803 30 31
f 804 30 803
f 31 802 803
f 803 802 776
f 1078 1079 1077
f 1077 1062 1078
f 65 68 1078
f 1078 1062 65
f 66 1054 64
f 66 1067 1054
f 1061 1067 66
f 73 1057 63
f 63 62 73
f 73 62 1057
f 1073 1074 895
f 1095 1069 1058
f 1058 1071 1095
f 1047 1095 1071
f 1067 966 1097
f 1097 55 1054
f 1054 1067 1097
f 945 966 951
f 951 966 1067
f 951 1068 986
f 951 1067 1068
f 1063 67 70
f 65 1062 75
f 75 1062 74
f 60 65 75
f 75 74 60
f 783 776 545
f 545 547 783
f 545 776 400
f 416 777 275
f 417 34 414
f 412 777 411
f 410 760 412
f 412 819 410
f 411 819 412
f 413 414 41
f 41 415 413
f 416 414 413
f 413 415 416
f 407 823 781
f 781 823 782
f 183 760 410
f 308 930 294
f 930 308 307
f 307 294 290
f 307 308 294
f 294 930 934
f 1053 424 934
f 424 294 934
f 934 933 1053
f 931 933 934
f 934 930 931
f 263 294 424
f 424 425 785
f 785 263 424
f 224 263 785
f 1085 996 1006
f 70 1056 1081
f 1081 1063 70
f 1043 1081 834
f 206 162 893
f 865 866 864
f 868 893 864
f 442 690 1104
f 1104 567 442
f 439 567 236
f 236 225 439
f 690 442 439
f 439 442 567
f 865 236 1100
f 1100 1102 865
f 236 1102 1100
f 189 865 134
f 378 104 370
f 918 370 907
f 907 910 918
f 924 342 1105
f 1105 918 924
f 443 430 434
f 507 540 593
f 626 593 613
f 815 808 52
f 52 38 815
f 38 814 815
f 816 808 790
f 51 808 816
f 50 51 816
f 395 659 661
f 395 788 392
f 797 798 799
f 799 47 797
f 797 47 46
f 661 798 811
f 811 395 661
f 788 395 811
f 810 788 811
f 406 391 791
f 808 815 791
f 790 808 791
f 791 391 790
f 392 787 393
f 392 393 619
f 619 393 603
f 396 391 532
f 499 554 532
f 24 48 829
f 829 37 24
f 829 819 37
f 410 819 829
f 798 397 796
f 796 779 799
f 799 798 796
f 778 802 801
f 801 33 35
f 801 802 33
f 398 402 779
f 779 796 398
f 398 796 397
f 1086 1078 1085
f 1079 1078 1086
f 1085 1006 1086
f 72 79 1061
f 1061 66 72
f 64 79 72
f 72 66 64
f 1094 1047 1071
f 1094 1071 1057
f 842 895 887
f 844 1047 842
f 1047 1094 842
f 1003 1068 1093
f 986 1068 1003
f 1003 951 986
f 989 1010 1025
f 951 1003 989
f 1093 1010 989
f 989 1003 1093
f 1069 1095 1070
f 1093 1069 1070
f 1070 1010 1093
f 1041 1047 844
f 795 794 55
f 55 1097 795
f 967 966 945
f 967 1097 966
f 967 795 1097
f 953 987 963
f 68 67 78
f 67 1063 78
f 76 58 1059
f 782 548 583
f 583 781 782
f 113 781 583
f 549 548 782
f 782 783 549
f 783 547 549
f 416 275 274
f 777 412 229
f 229 412 760
f 28 26 32
f 784 414 416
f 784 417 414
f 416 274 784
f 371 384 390
f 163 152 169
f 163 183 410
f 169 152 161
f 152 131 161
f 290 294 285
f 294 263 285
f 285 306 290
f 1077 1079 976
f 1079 1086 976
f 976 1086 1006
f 949 954 935
f 935 899 949
f 1034 1043 834
f 1030 996 1085
f 890 866 891
f 890 970 866
f 890 891 871
f 907 104 1103
f 1103 893 907
f 206 893 1103
f 874 893 162
f 865 864 874
f 874 864 893
f 866 970 1032
f 1032 864 866
f 1032 970 1024
f 1024 970 983
f 1101 346 111
f 1101 134 865
f 111 134 1101
f 865 874 1101
f 1105 342 353
f 370 918 353
f 353 918 1105
f 317 341 337
f 267 257 271
f 271 297 267
f 316 342 322
f 322 306 316
f 342 924 322
f 930 307 322
f 322 307 290
f 290 306 322
f 922 918 910
f 922 924 918
f 922 910 911
f 690 439 426
f 1104 690 426
f 493 755 724
f 479 755 493
f 434 580 435
f 435 443 434
f 435 493 443
f 434 430 433
f 433 580 434
f 433 432 580
f 575 550 533
f 511 540 507
f 722 692 710
f 459 511 507
f 458 511 459
f 465 466 469
f 469 466 756
f 807 815 814
f 807 403 406
f 406 791 807
f 807 791 815
f 50 816 817
f 23 50 817
f 790 787 817
f 817 816 790
f 632 652 656
f 656 652 663
f 798 797 818
f 818 811 798
f 818 797 46
f 46 810 818
f 810 811 818
f 603 393 394
f 394 393 787
f 790 396 394
f 394 787 790
f 392 619 662
f 662 395 392
f 659 395 662
f 515 554 499
f 572 515 550
f 554 515 572
f 396 532 574
f 574 394 396
f 603 394 574
f 508 391 406
f 508 532 391
f 499 532 508
f 828 829 48
f 812 779 778
f 778 801 812
f 812 800 779
f 35 800 812
f 812 801 35
f 475 545 400
f 467 466 465
f 745 398 397
f 402 398 745
f 745 750 402
f 957 895 1074
f 1074 1092 957
f 1092 899 957
f 887 895 957
f 957 899 887
f 949 899 956
f 956 1076 1077
f 1077 976 956
f 956 976 949
f 942 1092 1076
f 942 899 1092
f 1076 956 942
f 942 956 899
f 887 899 892
f 1098 1072 1073
f 1073 895 1098
f 895 842 1098
f 1057 62 1098
f 1098 62 1072
f 1037 1070 1095
f 1095 1047 1037
f 1025 1010 1037
f 1010 1070 1037
f 1037 1041 1025
f 1047 1041 1037
f 1025 1041 1014
f 1014 1041 844
f 794 795 650
f 650 967 945
f 795 967 650
f 944 648 945
f 401 792 793
f 642 641 658
f 670 683 658
f 658 641 670
f 646 616 642
f 642 658 646
f 932 933 931
f 931 923 932
f 1089 933 932
f 1065 1059 58
f 1082 1081 1056
f 834 1081 1082
f 1082 1056 70
f 76 1059 1084
f 70 59 1055
f 1055 1084 1083
f 1055 59 76
f 76 1084 1055
f 547 545 546
f 545 475 546
f 338 274 330
f 330 274 275
f 273 275 777
f 182 163 169
f 183 163 182
f 826 28 45
f 45 28 32
f 32 34 418
f 34 417 418
f 418 784 419
f 417 784 418
f 339 274 338
f 339 784 274
f 338 384 339
f 339 384 371
f 339 371 419
f 419 784 339
f 419 371 789
f 371 390 789
f 789 418 419
f 117 781 113
f 114 117 113
f 262 263 224
f 262 285 263
f 192 262 224
f 421 192 423
f 224 785 423
f 423 192 224
f 843 842 887
f 887 848 843
f 844 842 843
f 843 848 844
f 954 959 961
f 961 935 954
f 977 959 954
f 977 1011 980
f 949 976 978
f 976 982 978
f 978 954 949
f 978 982 954
f 1043 1030 1090
f 1063 1081 1090
f 1081 1043 1090
f 1043 1034 1022
f 1022 1030 1043
f 996 1030 1022
f 1022 1034 1011
f 1022 977 996
f 1011 977 1022
f 939 890 871
f 970 890 939
f 871 901 939
f 178 1103 104
f 868 841 898
f 898 910 907
f 907 893 898
f 898 893 868
f 868 864 869
f 869 841 868
f 864 1032 869
f 835 841 869
f 938 968 936
f 987 1014 1020
f 894 901 871
f 197 225 189
f 189 134 197
f 197 439 225
f 301 874 162
f 301 1101 874
f 317 268 283
f 283 268 269
f 335 341 317
f 296 264 266
f 257 267 254
f 204 256 254
f 305 268 317
f 316 297 305
f 305 297 271
f 271 268 305
f 360 337 341
f 360 335 378
f 341 335 360
f 360 378 370
f 370 353 360
f 1107 924 930
f 930 322 1107
f 695 658 706
f 706 658 683
f 670 641 774
f 1110 774 641
f 1110 641 642
f 642 616 1110
f 580 432 639
f 639 579 580
f 580 579 564
f 479 493 492
f 493 435 492
f 758 440 670
f 670 774 758
f 430 443 444
f 444 493 724
f 443 493 444
f 535 512 520
f 504 512 535
f 535 517 504
f 633 602 635
f 635 651 633
f 640 651 635
f 587 571 566
f 566 571 552
f 552 538 566
f 566 538 509
f 586 587 563
f 563 564 586
f 586 564 579
f 534 538 552
f 595 602 633
f 718 716 702
f 507 593 590
f 507 590 539
f 539 590 576
f 272 270 279
f 633 651 643
f 664 651 640
f 486 710 488
f 507 514 487
f 514 482 487
f 487 482 486
f 486 488 487
f 458 459 460
f 756 741 491
f 741 446 491
f 447 452 453
f 447 446 741
f 722 710 727
f 727 710 486
f 814 792 806
f 806 807 814
f 403 807 806
f 809 810 23
f 23 817 809
f 809 787 810
f 809 817 787
f 645 656 678
f 645 678 659
f 645 619 632
f 632 656 645
f 659 662 645
f 645 662 619
f 554 572 601
f 550 515 531
f 531 515 517
f 517 535 531
f 531 533 550
f 531 535 533
f 573 550 575
f 573 572 550
f 575 609 573
f 824 27 407
f 407 781 824
f 824 48 27
f 824 828 48
f 409 131 152
f 152 163 409
f 410 829 409
f 409 163 410
f 404 475 400
f 750 475 404
f 400 402 404
f 402 750 404
f 521 546 474
f 474 546 475
f 474 475 750
f 717 745 397
f 702 716 717
f 845 892 873
f 899 935 906
f 906 892 899
f 873 892 906
f 906 889 873
f 935 889 906
f 1057 1098 1096
f 1096 1098 842
f 1096 1094 1057
f 1096 842 1094
f 997 987 953
f 953 975 997
f 1025 1014 997
f 997 1014 987
f 997 989 1025
f 997 975 989
f 945 648 399
f 399 650 945
f 648 650 399
f 648 944 665
f 945 951 943
f 943 944 945
f 792 401 405
f 405 806 792
f 403 806 405
f 499 508 451
f 406 403 451
f 451 508 406
f 503 515 499
f 517 515 503
f 499 451 503
f 503 451 464
f 504 517 527
f 517 503 527
f 708 687 700
f 470 755 479
f 470 471 755
f 891 866 879
f 879 866 865
f 865 1102 879
f 1088 1060 1089
f 1089 932 1088
f 1088 932 923
f 1049 850 1044
f 877 841 835
f 911 910 877
f 910 898 877
f 877 898 841
f 839 850 835
f 861 853 852
f 852 853 851
f 911 877 875
f 896 922 911
f 911 875 896
f 921 1065 927
f 927 914 921
f 923 914 927
f 927 1088 923
f 851 853 833
f 833 1034 834
f 851 833 832
f 834 1082 832
f 832 833 834
f 1066 1084 1059
f 1066 1065 921
f 1059 1065 1066
f 1083 1084 858
f 851 832 858
f 1091 1055 1083
f 1083 858 1091
f 1091 1082 70
f 70 1055 1091
f 1091 832 1082
f 1091 858 832
f 547 546 561
f 777 229 761
f 761 273 777
f 229 273 761
f 291 273 229
f 291 330 275
f 275 273 291
f 338 330 355
f 32 418 822
f 418 789 822
f 133 161 131
f 215 270 251
f 284 267 297
f 306 285 284
f 285 262 284
f 284 297 316
f 316 306 284
f 262 192 205
f 421 423 827
f 26 28 827
f 827 786 421
f 827 28 826
f 826 786 827
f 422 25 26
f 26 827 422
f 422 827 423
f 425 25 422
f 422 785 425
f 422 423 785
f 420 789 390
f 420 786 826
f 935 961 937
f 1113 1114 937
f 937 889 935
f 937 1114 889
f 1113 937 960
f 960 937 961
f 960 961 959
f 959 1115 960
f 980 1115 964
f 964 1115 959
f 964 977 980
f 959 977 964
f 954 982 992
f 992 977 954
f 996 977 992
f 992 1006 996
f 992 976 1006
f 992 982 976
f 1080 1030 1085
f 1080 1090 1030
f 1063 1090 1080
f 1080 78 1063
f 68 78 1080
f 1085 1078 1080
f 1080 1078 68
f 941 901 936
f 97 91 127
f 127 162 206
f 127 91 162
f 98 178 104
f 104 378 98
f 97 127 98
f 378 335 98
f 1048 869 1032
f 1048 1032 1024
f 1024 831 1048
f 1117 938 1116
f 987 1020 985
f 985 963 987
f 985 972 963
f 901 894 917
f 936 901 917
f 917 928 936
f 135 134 111
f 135 197 134
f 111 346 135
f 346 1101 350
f 1101 301 350
f 350 301 162
f 344 317 296
f 344 335 317
f 359 91 386
f 386 91 97
f 187 170 191
f 202 221 211
f 177 187 202
f 202 187 191
f 216 202 191
f 221 202 216
f 264 221 216
f 265 266 264
f 264 216 265
f 265 216 231
f 261 268 271
f 271 257 261
f 257 254 261
f 165 177 203
f 203 202 211
f 177 202 203
f 317 337 333
f 333 305 317
f 337 360 333
f 1106 322 924
f 924 1107 1106
f 1106 1107 322
f 721 755 695
f 695 706 721
f 724 755 721
f 912 974 888
f 888 974 902
f 616 646 1109
f 1109 1110 616
f 1109 646 1111
f 1111 1110 1109
f 680 732 579
f 579 639 680
f 680 639 432
f 516 564 563
f 516 468 454
f 509 468 516
f 479 492 543
f 543 492 435
f 543 435 580
f 580 564 543
f 439 440 427
f 440 758 427
f 427 426 439
f 1104 426 427
f 774 1110 1108
f 1108 758 774
f 1104 427 1108
f 1108 427 758
f 440 444 441
f 441 683 670
f 670 440 441
f 441 444 724
f 441 706 683
f 724 721 441
f 441 721 706
f 679 715 711
f 711 715 744
f 540 511 541
f 707 715 679
f 732 680 707
f 660 732 707
f 707 679 660
f 533 535 559
f 553 588 559
f 588 584 559
f 562 571 602
f 602 595 562
f 562 595 553
f 552 571 562
f 562 534 552
f 563 587 557
f 587 566 557
f 557 516 563
f 557 566 509
f 509 516 557
f 605 571 587
f 587 647 605
f 602 571 605
f 605 635 602
f 640 635 605
f 605 647 640
f 640 647 653
f 660 679 653
f 660 653 654
f 654 653 647
f 520 523 537
f 537 562 553
f 534 562 537
f 553 559 537
f 537 535 520
f 537 559 535
f 577 584 622
f 622 609 577
f 577 609 575
f 577 559 584
f 575 533 577
f 533 559 577
f 628 584 588
f 628 595 633
f 621 644 622
f 621 625 644
f 622 584 621
f 584 628 621
f 621 628 625
f 669 644 671
f 622 644 669
f 704 677 694
f 663 652 666
f 663 666 699
f 704 723 699
f 699 723 718
f 699 677 704
f 699 666 677
f 485 482 514
f 485 477 482
f 485 472 453
f 453 477 485
f 522 514 507
f 507 539 522
f 522 539 514
f 536 539 576
f 514 539 536
f 536 485 514
f 318 324 303
f 318 303 251
f 251 270 318
f 357 355 329
f 329 355 330
f 329 291 303
f 330 291 329
f 199 234 767
f 213 767 626
f 626 634 213
f 623 593 626
f 623 590 593
f 612 611 598
f 576 611 612
f 612 536 576
f 765 213 634
f 671 644 636
f 644 625 636
f 625 628 636
f 671 636 672
f 672 636 643
f 506 513 555
f 555 518 558
f 555 513 518
f 483 506 465
f 483 513 506
f 465 469 483
f 483 469 756
f 756 491 483
f 518 513 490
f 513 483 490
f 490 483 491
f 490 446 472
f 490 491 446
f 709 488 710
f 709 711 744
f 709 710 692
f 692 711 709
f 463 727 486
f 486 482 463
f 482 477 463
f 453 452 463
f 463 477 453
f 494 459 507
f 507 487 494
f 494 487 488
f 498 460 459
f 459 494 498
f 498 494 488
f 744 460 498
f 498 709 744
f 488 709 498
f 445 447 453
f 446 447 445
f 453 472 445
f 472 446 445
f 607 609 622
f 607 601 572
f 607 573 609
f 572 573 607
f 632 619 592
f 592 619 603
f 603 574 592
f 554 601 592
f 592 532 554
f 592 574 532
f 828 824 408
f 408 121 131
f 131 409 408
f 829 828 408
f 408 409 829
f 476 474 750
f 682 397 661
f 682 717 397
f 661 659 682
f 702 717 682
f 682 678 702
f 659 678 682
f 857 845 848
f 892 845 857
f 857 848 887
f 887 892 857
f 889 1114 840
f 668 650 648
f 648 665 668
f 668 700 687
f 708 401 649
f 649 687 708
f 793 794 649
f 649 401 793
f 794 650 649
f 650 668 649
f 649 668 687
f 701 700 696
f 926 665 944
f 944 943 926
f 962 943 951
f 951 989 962
f 989 975 962
f 962 975 953
f 500 509 495
f 500 468 509
f 746 401 708
f 746 405 401
f 708 464 746
f 464 451 746
f 403 405 746
f 746 451 403
f 478 503 464
f 478 527 503
f 527 478 449
f 449 478 464
f 448 512 504
f 504 527 448
f 527 449 448
f 708 700 738
f 693 658 695
f 693 646 658
f 693 705 681
f 955 974 912
f 880 1108 1110
f 1104 1108 880
f 880 879 1102
f 880 1102 236
f 880 567 1104
f 236 567 880
f 1036 853 861
f 1011 1034 1021
f 1034 833 1021
f 1021 833 853
f 1024 983 1009
f 968 979 999
f 999 995 936
f 936 968 999
f 971 979 968
f 968 938 971
f 1018 979 971
f 971 938 1117
f 971 1115 980
f 1117 1115 971
f 835 850 859
f 859 877 835
f 850 875 859
f 859 875 877
f 1046 1035 1044
f 1044 850 1046
f 850 839 1046
f 831 1035 1046
f 1046 839 831
f 831 839 1050
f 1050 1048 831
f 869 1048 1050
f 882 852 851
f 882 914 900
f 900 852 882
f 922 896 925
f 925 923 931
f 931 930 925
f 930 924 925
f 924 922 925
f 916 914 923
f 900 914 916
f 923 925 916
f 916 925 896
f 1087 927 1065
f 1088 927 1087
f 1060 1088 1087
f 58 1060 1087
f 1087 1065 58
f 548 549 565
f 565 549 547
f 547 561 565
f 560 546 521
f 560 561 546
f 228 291 229
f 228 229 760
f 228 182 251
f 760 183 228
f 183 182 228
f 251 303 228
f 303 291 228
f 383 355 357
f 383 384 338
f 338 355 383
f 362 385 88
f 131 121 120
f 120 133 131
f 121 117 120
f 117 114 120
f 114 125 120
f 116 125 114
f 251 182 208
f 208 215 251
f 208 182 169
f 168 215 208
f 242 284 262
f 204 254 242
f 242 254 267
f 267 284 242
f 242 205 204
f 262 205 242
f 156 205 192
f 156 192 421
f 421 786 156
f 825 822 789
f 789 420 825
f 825 45 32
f 32 822 825
f 826 45 825
f 825 420 826
f 947 939 901
f 901 941 947
f 947 988 983
f 947 941 936
f 947 983 970
f 970 939 947
f 936 995 947
f 995 988 947
f 178 98 103
f 103 98 127
f 103 127 206
f 206 1103 103
f 1103 178 103
f 920 1116 929
f 929 1116 938
f 929 928 920
f 929 938 936
f 936 928 929
f 871 891 863
f 1118 920 883
f 1118 872 920
f 1112 1114 1113
f 1112 872 1114
f 1113 960 1112
f 920 872 1112
f 1112 1116 920
f 1112 1115 1117
f 1112 960 1115
f 1117 1116 1112
f 919 917 894
f 883 920 919
f 919 894 883
f 920 928 919
f 928 917 919
f 381 91 359
f 197 135 323
f 323 135 346
f 346 350 323
f 323 350 757
f 139 188 259
f 289 283 269
f 296 317 289
f 317 283 289
f 211 247 244
f 244 203 211
f 296 289 250
f 211 221 250
f 86 164 147
f 191 170 147
f 335 344 343
f 343 344 296
f 282 234 281
f 299 234 282
f 282 312 299
f 361 385 362
f 362 356 361
f 138 188 139
f 139 137 138
f 136 137 139
f 201 184 190
f 184 158 190
f 165 203 190
f 190 158 165
f 185 184 201
f 316 305 321
f 321 342 316
f 321 353 342
f 878 888 902
f 878 880 1110
f 902 879 878
f 879 880 878
f 462 516 454
f 454 471 462
f 471 470 462
f 529 543 564
f 529 462 470
f 529 470 479
f 479 543 529
f 564 516 529
f 516 462 529
f 455 511 458
f 455 541 511
f 458 460 455
f 455 431 541
f 540 541 599
f 599 541 591
f 599 593 540
f 599 613 593
f 713 707 680
f 715 707 733
f 744 715 733
f 733 460 744
f 731 455 733
f 733 455 460
f 733 713 731
f 707 713 733
f 667 653 679
f 679 711 667
f 667 664 640
f 640 653 667
f 692 664 667
f 667 711 692
f 587 586 594
f 586 654 594
f 594 647 587
f 594 654 647
f 624 586 579
f 624 654 586
f 660 654 624
f 624 732 660
f 579 732 624
f 523 534 528
f 528 537 523
f 534 537 528
f 629 628 588
f 595 628 629
f 629 588 553
f 553 595 629
f 657 669 677
f 657 666 652
f 677 666 657
f 622 669 657
f 657 617 622
f 652 617 657
f 677 669 688
f 688 694 677
f 688 669 671
f 452 447 739
f 739 447 741
f 736 741 756
f 736 723 741
f 718 723 736
f 663 699 698
f 698 656 663
f 678 656 698
f 698 699 718
f 702 678 698
f 698 718 702
f 472 526 519
f 518 490 519
f 519 490 472
f 558 518 519
f 519 526 558
f 505 526 472
f 530 526 505
f 472 485 505
f 505 536 530
f 485 536 505
f 287 272 279
f 270 272 287
f 287 318 270
f 303 324 348
f 348 329 303
f 348 389 357
f 357 329 348
f 292 234 299
f 299 315 292
f 340 309 311
f 276 313 311
f 311 309 276
f 324 318 319
f 318 287 319
f 364 309 340
f 347 364 340
f 334 364 347
f 196 234 199
f 199 767 196
f 767 213 196
f 281 234 196
f 220 212 194
f 220 214 212
f 281 196 220
f 213 214 220
f 220 196 213
f 374 137 366
f 374 138 137
f 374 431 430
f 304 220 314
f 312 282 304
f 304 282 281
f 281 220 304
f 766 623 626
f 626 767 766
f 597 611 576
f 576 590 597
f 590 623 597
f 569 612 598
f 558 526 569
f 569 526 530
f 530 536 569
f 536 612 569
f 613 599 620
f 620 599 591
f 620 765 634
f 626 613 620
f 620 634 626
f 630 620 591
f 765 620 630
f 438 374 180
f 591 541 437
f 541 431 437
f 437 630 591
f 633 643 627
f 643 636 627
f 627 628 633
f 627 636 628
f 685 643 651
f 685 672 643
f 651 664 685
f 685 664 692
f 725 672 685
f 685 692 722
f 722 725 685
f 742 463 452
f 727 463 742
f 722 727 742
f 452 739 742
f 622 617 618
f 618 607 622
f 618 617 652
f 121 408 780
f 780 408 824
f 780 117 121
f 781 117 780
f 780 824 781
f 466 467 752
f 756 466 752
f 752 736 756
f 753 717 716
f 745 717 753
f 750 745 753
f 753 476 750
f 467 476 753
f 753 752 467
f 521 474 484
f 474 476 484
f 484 476 467
f 484 467 465
f 465 501 484
f 465 506 502
f 502 501 465
f 844 848 1038
f 1038 1014 844
f 1038 1020 1014
f 848 845 849
f 849 1038 848
f 1040 1038 849
f 1005 985 1020
f 881 845 873
f 873 889 881
f 889 840 881
f 837 854 870
f 837 1118 854
f 872 1118 837
f 845 881 846
f 846 881 840
f 1114 872 836
f 836 840 1114
f 872 837 836
f 684 668 665
f 700 668 684
f 665 696 684
f 684 696 700
f 665 926 655
f 655 905 638
f 655 926 905
f 940 926 943
f 943 962 940
f 940 962 953
f 747 464 708
f 708 738 747
f 755 471 461
f 461 471 454
f 646 693 689
f 689 693 681
f 705 693 754
f 755 461 754
f 754 461 705
f 695 755 754
f 754 693 695
f 646 689 637
f 637 689 681
f 1111 646 637
f 637 631 1111
f 1099 886 1111
f 1111 631 1099
f 638 905 1099
f 905 886 1099
f 638 1099 676
f 676 1099 631
f 676 637 681
f 631 637 676
f 902 974 958
f 980 1011 1008
f 1011 1021 1008
f 1008 971 980
f 1018 971 1008
f 853 1036 1031
f 1031 1021 853
f 1031 1036 1018
f 1018 1008 1031
f 1031 1008 1021
f 1024 1009 1028
f 1028 831 1024
f 1028 1035 831
f 1044 1035 1028
f 1028 1033 1044
f 995 999 1015
f 1015 988 995
f 1015 1009 983
f 983 988 1015
f 1019 999 979
f 1019 979 1018
f 1018 1036 1019
f 1044 1033 1019
f 850 1049 867
f 867 875 850
f 861 852 860
f 876 867 860
f 860 852 900
f 900 876 860
f 860 867 1049
f 830 839 835
f 830 1050 839
f 835 869 830
f 869 1050 830
f 903 858 1084
f 1084 1066 903
f 851 858 903
f 903 882 851
f 903 1066 921
f 921 914 903
f 914 882 903
f 897 876 900
f 900 916 897
f 897 916 896
f 897 867 876
f 897 896 875
f 875 867 897
f 598 611 608
f 611 597 608
f 623 766 608
f 608 597 623
f 764 166 608
f 608 166 773
f 608 767 764
f 608 766 767
f 773 166 596
f 598 608 596
f 596 608 773
f 558 598 596
f 596 585 558
f 551 555 558
f 558 585 551
f 506 555 551
f 570 565 561
f 561 560 570
f 570 560 581
f 357 389 388
f 388 383 357
f 384 383 80
f 82 390 80
f 80 390 384
f 81 383 83
f 81 80 383
f 204 205 155
f 205 156 155
f 372 373 368
f 276 309 258
f 295 255 300
f 255 258 300
f 168 144 142
f 769 129 146
f 173 166 764
f 186 207 181
f 181 166 186
f 186 173 207
f 166 173 186
f 200 215 168
f 168 198 200
f 172 198 168
f 168 142 172
f 172 142 154
f 160 208 169
f 168 208 160
f 169 161 160
f 160 144 168
f 161 133 160
f 133 144 160
f 870 854 856
f 757 350 149
f 149 323 757
f 149 350 162
f 138 374 149
f 439 197 149
f 197 323 149
f 286 265 231
f 260 259 188
f 260 149 381
f 260 381 359
f 188 138 260
f 138 149 260
f 260 286 259
f 243 289 269
f 247 289 243
f 243 244 247
f 252 264 296
f 296 250 252
f 252 221 264
f 252 250 221
f 249 247 211
f 211 250 249
f 249 289 247
f 249 250 289
f 89 147 148
f 86 147 89
f 148 87 89
f 89 88 86
f 89 87 88
f 231 216 171
f 139 259 171
f 171 123 139
f 171 286 231
f 259 286 171
f 335 343 369
f 97 98 369
f 369 98 335
f 369 386 97
f 359 386 369
f 369 343 359
f 266 265 310
f 296 266 310
f 310 343 296
f 359 343 310
f 310 260 359
f 286 260 310
f 327 361 356
f 327 315 299
f 327 356 315
f 184 185 175
f 175 193 174
f 175 185 193
f 174 115 151
f 151 175 174
f 203 244 210
f 210 190 203
f 210 244 201
f 201 190 210
f 201 237 227
f 227 185 201
f 193 185 227
f 268 261 227
f 227 237 268
f 305 333 328
f 328 321 305
f 353 321 328
f 328 360 353
f 328 333 360
f 885 1110 1111
f 885 878 1110
f 1111 886 885
f 888 878 885
f 456 455 731
f 731 713 456
f 456 713 680
f 456 680 432
f 673 688 671
f 671 672 673
f 673 672 725
f 694 688 697
f 697 673 725
f 688 673 697
f 694 697 712
f 722 742 712
f 712 742 739
f 712 725 722
f 712 697 725
f 741 723 729
f 729 739 741
f 729 723 704
f 704 694 729
f 694 712 729
f 729 712 739
f 716 718 735
f 718 736 735
f 736 752 735
f 735 753 716
f 752 753 735
f 288 287 279
f 277 292 315
f 277 313 276
f 277 315 313
f 349 348 324
f 368 389 349
f 389 348 349
f 253 767 234
f 253 233 767
f 234 292 253
f 292 277 253
f 194 212 768
f 212 214 768
f 213 765 768
f 768 214 213
f 320 374 366
f 314 220 280
f 280 320 314
f 374 320 280
f 180 374 280
f 332 304 314
f 332 320 366
f 314 320 332
f 568 598 558
f 558 569 568
f 568 569 598
f 765 630 762
f 762 768 765
f 436 437 431
f 438 437 436
f 431 374 436
f 374 438 436
f 601 607 615
f 607 618 615
f 632 592 615
f 615 592 601
f 615 652 632
f 615 618 652
f 1020 1038 1026
f 1026 1005 1020
f 1026 1038 1040
f 965 955 912
f 1040 849 1052
f 1052 849 845
f 838 846 840
f 840 836 838
f 838 837 870
f 838 836 837
f 946 963 912
f 912 908 946
f 904 886 905
f 904 908 886
f 686 655 638
f 686 696 665
f 665 655 686
f 905 926 913
f 926 940 913
f 913 904 905
f 740 500 496
f 701 696 734
f 696 686 734
f 489 500 495
f 496 500 489
f 481 448 450
f 481 524 448
f 481 489 524
f 450 743 481
f 481 743 749
f 512 448 473
f 448 524 473
f 520 512 473
f 748 449 464
f 464 747 748
f 450 448 748
f 748 448 449
f 510 461 454
f 454 468 510
f 468 500 510
f 681 705 726
f 705 461 726
f 974 955 950
f 950 958 974
f 955 958 950
f 993 856 863
f 891 879 993
f 993 863 891
f 1033 1028 1016
f 1016 1019 1033
f 1016 1015 999
f 999 1019 1016
f 1016 1028 1009
f 1009 1015 1016
f 1039 1036 861
f 1039 1019 1036
f 1044 1019 1039
f 1039 1049 1044
f 861 860 1039
f 1039 860 1049
f 125 128 130
f 130 120 125
f 130 142 144
f 128 142 130
f 133 120 130
f 130 144 133
f 614 129 126
f 126 116 614
f 126 129 769
f 769 128 126
f 125 116 126
f 126 128 125
f 775 596 166
f 775 129 771
f 771 596 775
f 581 560 582
f 614 581 582
f 582 560 521
f 772 129 614
f 614 582 772
f 772 582 606
f 771 129 772
f 556 551 585
f 544 502 506
f 506 551 544
f 551 556 544
f 589 581 614
f 589 570 581
f 614 116 589
f 565 570 589
f 589 583 548
f 548 565 589
f 365 388 389
f 368 373 365
f 365 389 368
f 204 155 159
f 159 256 204
f 159 193 256
f 174 193 159
f 159 115 174
f 82 115 96
f 115 159 96
f 334 347 358
f 99 372 101
f 94 100 124
f 165 158 124
f 110 361 366
f 385 361 110
f 366 137 110
f 137 136 110
f 110 136 139
f 139 123 110
f 109 110 123
f 86 88 109
f 109 88 385
f 385 110 109
f 382 87 148
f 148 122 382
f 382 122 380
f 362 88 375
f 88 87 375
f 233 253 246
f 246 277 276
f 246 253 277
f 181 207 232
f 207 246 232
f 295 300 298
f 157 166 181
f 157 146 166
f 181 154 157
f 154 146 157
f 270 215 235
f 215 200 235
f 279 270 235
f 198 172 176
f 176 154 181
f 176 172 154
f 855 856 854
f 863 856 862
f 871 863 862
f 856 855 862
f 862 894 871
f 883 894 862
f 862 855 854
f 862 1118 883
f 854 1118 862
f 91 381 90
f 381 149 90
f 162 91 90
f 90 149 162
f 759 149 374
f 759 374 430
f 759 440 439
f 439 149 759
f 430 444 759
f 759 444 440
f 269 268 238
f 268 237 238
f 201 244 238
f 238 237 201
f 195 147 164
f 164 171 195
f 191 147 195
f 195 216 191
f 195 171 216
f 265 286 278
f 278 310 265
f 286 310 278
f 102 151 115
f 102 115 82
f 82 80 102
f 80 81 102
f 256 193 222
f 193 227 222
f 886 908 884
f 884 885 886
f 888 885 884
f 912 888 884
f 429 456 432
f 432 433 429
f 431 455 429
f 293 319 287
f 287 288 293
f 295 319 293
f 324 319 325
f 325 349 324
f 219 220 194
f 219 280 220
f 312 304 331
f 304 332 331
f 299 312 331
f 331 327 299
f 194 768 763
f 768 762 763
f 763 762 630
f 969 965 912
f 912 963 969
f 963 972 969
f 845 846 847
f 847 1052 845
f 846 1052 847
f 1051 838 870
f 870 856 1051
f 1051 856 1023
f 915 913 940
f 915 946 908
f 908 904 915
f 904 913 915
f 751 740 496
f 496 489 751
f 751 481 749
f 489 481 751
f 720 751 749
f 740 751 720
f 701 734 720
f 720 743 701
f 749 743 720
f 691 686 638
f 691 734 686
f 734 691 674
f 638 676 674
f 497 489 495
f 524 489 497
f 480 473 524
f 480 523 520
f 520 473 480
f 737 747 738
f 737 748 747
f 737 700 701
f 737 738 700
f 701 743 737
f 737 743 450
f 450 748 737
f 703 676 681
f 703 674 676
f 734 674 703
f 719 720 703
f 703 720 734
f 461 510 730
f 730 726 461
f 1023 856 998
f 856 993 998
f 769 146 145
f 145 143 769
f 145 146 154
f 154 143 145
f 141 142 128
f 141 128 769
f 769 143 141
f 154 142 141
f 141 143 154
f 166 146 770
f 770 775 166
f 770 146 129
f 129 775 770
f 578 582 521
f 521 556 578
f 606 582 578
f 578 556 585
f 501 502 542
f 502 544 542
f 521 484 542
f 542 484 501
f 542 556 521
f 542 544 556
f 119 116 114
f 119 114 113
f 113 583 119
f 383 388 387
f 83 383 387
f 387 84 83
f 387 92 84
f 373 92 387
f 387 365 373
f 388 365 387
f 83 84 85
f 94 124 85
f 84 92 85
f 93 156 786
f 93 420 390
f 786 420 93
f 93 390 82
f 82 96 93
f 132 159 155
f 132 96 159
f 132 93 96
f 132 155 156
f 156 93 132
f 334 358 326
f 326 358 319
f 326 319 295
f 326 364 334
f 295 298 326
f 326 298 364
f 319 358 354
f 354 325 319
f 349 325 354
f 368 349 354
f 354 372 368
f 122 112 107
f 107 112 101
f 101 377 107
f 380 122 107
f 107 377 380
f 105 124 158
f 105 85 124
f 83 85 105
f 167 109 123
f 167 171 164
f 123 171 167
f 167 164 86
f 86 109 167
f 363 358 347
f 380 358 363
f 363 382 380
f 351 356 362
f 362 375 351
f 315 356 351
f 87 382 367
f 367 375 87
f 382 363 367
f 367 351 375
f 367 363 347
f 233 246 217
f 217 173 764
f 207 173 217
f 217 246 207
f 764 767 217
f 767 233 217
f 258 232 240
f 240 232 246
f 276 258 240
f 240 246 276
f 181 232 230
f 230 258 255
f 230 232 258
f 302 298 300
f 302 258 309
f 302 300 258
f 309 364 302
f 364 298 302
f 248 255 295
f 295 293 248
f 248 293 288
f 239 200 198
f 239 235 200
f 279 235 239
f 209 176 181
f 198 176 209
f 181 218 209
f 209 239 198
f 241 243 269
f 269 238 241
f 244 243 241
f 241 238 244
f 223 227 261
f 223 222 227
f 256 222 223
f 223 254 256
f 223 261 254
f 909 908 912
f 912 884 909
f 909 884 908
f 428 429 433
f 431 429 428
f 428 433 430
f 430 431 428
f 455 456 457
f 457 429 455
f 456 429 457
f 336 331 332
f 366 361 336
f 336 332 366
f 361 327 336
f 327 331 336
f 179 763 630
f 179 438 180
f 630 437 179
f 179 437 438
f 180 280 179
f 280 219 179
f 179 219 194
f 194 763 179
f 946 915 952
f 953 963 952
f 963 946 952
f 952 940 953
f 952 915 940
f 675 691 638
f 638 674 675
f 675 674 691
f 524 497 525
f 525 480 524
f 523 480 525
f 525 534 523
f 525 497 495
f 538 534 525
f 495 509 525
f 509 538 525
f 726 730 714
f 681 726 714
f 714 703 681
f 719 703 728
f 728 720 719
f 703 714 728
f 728 714 730
f 740 720 728
f 728 730 510
f 500 740 728
f 728 510 500
f 948 998 993
f 902 958 948
f 948 879 902
f 948 993 879
f 606 578 600
f 610 589 116
f 116 119 610
f 583 589 610
f 610 119 583
f 95 92 373
f 373 372 95
f 95 372 99
f 99 94 95
f 94 85 95
f 95 85 92
f 376 101 372
f 376 377 101
f 372 354 376
f 376 354 358
f 379 358 380
f 380 377 379
f 379 376 358
f 377 376 379
f 150 112 122
f 150 118 112
f 150 122 148
f 148 147 150
f 150 147 170
f 150 187 177
f 170 187 150
f 112 118 108
f 99 101 108
f 101 112 108
f 108 94 99
f 108 100 94
f 153 105 158
f 153 158 184
f 184 175 153
f 175 151 153
f 151 102 106
f 106 153 151
f 105 153 106
f 83 105 106
f 106 81 83
f 106 102 81
f 340 311 345
f 345 311 313
f 313 315 345
f 315 351 345
f 352 347 340
f 352 367 347
f 340 345 352
f 351 367 352
f 352 345 351
f 226 248 218
f 226 218 181
f 181 230 226
f 226 230 255
f 255 248 226
f 239 209 245
f 245 248 288
f 218 248 245
f 245 209 218
f 245 288 279
f 279 239 245
f 846 838 1042
f 1042 1012 846
f 973 948 958
f 998 948 973
f 1029 1052 846
f 846 1012 1029
f 1040 1052 1029
f 1029 1012 1017
f 1029 1026 1040
f 1029 1017 1026
f 981 958 955
f 981 973 958
f 771 772 604
f 604 772 606
f 606 600 604
f 604 596 771
f 585 596 604
f 604 578 585
f 604 600 578
f 100 108 140
f 165 124 140
f 140 124 100
f 140 177 165
f 140 150 177
f 118 150 140
f 140 108 118
f 1027 1042 1023
f 1012 1042 1027
f 1023 998 1027
f 1045 1051 1023
f 1023 1042 1045
f 838 1051 1045
f 1045 1042 838
f 998 973 1002
f 973 981 1002
f 1005 1026 1000
f 1026 1017 1000
f 972 985 1000
f 985 1005 1000
f 998 1002 1001
f 1001 1027 998
f 1012 1027 1001
f 990 994 1013
f 1013 994 1000
f 1017 1012 1013
f 1013 1000 1017
f 984 1002 981
f 965 969 991
f 991 994 990
f 991 969 972
f 972 1000 991
f 1000 994 991
f 955 965 991
f 991 981 955
f 991 984 981
f 1012 1001 1004
f 1004 1001 1002
f 1002 984 1007
f 1007 1004 1002
f 984 991 1007
f 1007 991 990
f 990 1013 1007
f 1007 1013 1012
f 1012 1004 1007

