# https://github.com/mikedh/trimesh
v -0.03144264 -0.04235005 0.00187567
v -0.02850294 -0.04235005 -0.01536217
v -0.02641373 -0.04235368 -0.01910492
v -0.02101087 -0.04234921 -0.02567973
v 0.02641397 -0.04234987 -0.01944562
v 0.01598358 -0.02462279 -0.04640045
v 0.02906686 0.00579906 -0.04640045
v 0.00184441 0.02974027 -0.04640039
v 0.02949047 -0.00159442 -0.04640039
v 0.00138998 -0.02943426 -0.04640045
v 0.02000612 0.02222251 -0.04640039
v 0.01006317 0.02813863 -0.04640039
v 0.01032257 -0.02742284 -0.04640039
v 0.02632522 0.01376342 -0.04640045
v 0.02842450 -0.00782007 -0.04640039
v 0.02606010 -0.01368033 -0.04640051
v 0.02185821 -0.01969617 -0.04640045
v -0.02476692 -0.01604646 -0.04640051
v -0.02868872 -0.00707281 -0.04640045
v -0.01006317 -0.02763837 -0.04640045
v -0.02955782 0.00130540 -0.04640039
v -0.01439285 0.02605342 -0.04640039
v -0.02118778 0.02098757 -0.04640039
v -0.00661182 0.02915143 -0.04640039
v -0.02842468 0.00831991 -0.04640045
v -0.01833146 -0.02297681 -0.04640063
v -0.02605915 0.01417452 -0.04640045
v -0.01243239 -0.04234981 0.02736440
v -0.00104999 -0.04235023 0.02966430
v 0.02863126 -0.04234963 0.01170817
v 0.02242296 -0.04234874 0.02034900
v -0.02308386 -0.04235076 0.01975870
v 0.01816534 -0.04235011 0.02383420
v 0.00966000 -0.04234987 0.02832930
v -0.03108906 -0.04234981 -0.00789347
v -0.02855134 -0.04234939 0.01161066
v -0.00857943 -0.04235011 -0.03250035
v 0.01735389 -0.04234945 -0.02843120
v 0.00529587 -0.04235005 -0.03317442
v 0.01636677 -0.04235011 0.02501370
v 0.03149819 -0.04235017 0.00087217
v 0.03102564 -0.04235005 -0.00824454
v -0.03143775 0.00249660 -0.03689739
v 0.02880001 -0.01329934 -0.04270050
v 0.03176075 0.00232232 -0.04270050
v 0.02679634 0.01742607 -0.04270050
v -0.02661228 -0.01678556 -0.04270062
v -0.03092068 -0.00680774 -0.04270050
v 0.03179305 0.00174653 -0.03690049
v -0.03066015 0.00938755 -0.04270050
v -0.03161484 -0.00063729 -0.03690049
v -0.02317589 0.04074060 -0.02051839
v -0.02931022 0.03995615 0.00350896
v -0.02910614 0.04105097 0.00177852
v -0.02967071 0.04036432 -0.00077733
v -0.01673257 0.03909957 0.02285880
v -0.01668620 0.03925019 0.02280420
v -0.01803827 0.03901147 0.02199590
v -0.00831228 0.04222494 0.02284050
v -0.02488708 0.04209613 -0.01683721
v -0.01040649 0.04261881 0.02109230
v -0.02704811 0.04304885 0.00130740
v -0.02195143 0.04364323 0.00801823
v -0.02048814 0.04342722 0.01063052
v -0.02966815 0.03982776 0.00133148
v -0.01778423 0.03709399 0.02288540
v -0.02097195 0.03853112 0.01983360
v -0.02169501 0.03717786 0.01948540
v -0.01643842 0.03886210 0.02318140
v -0.01814454 0.03878116 0.02204930
v -0.01611059 0.03995347 0.02269800
v -0.01358640 0.04044365 0.02369660
v -0.01546210 0.04051387 0.02260960
v -0.01630043 0.03877335 0.02331760
v -0.01159662 0.04219532 0.02209940
v -0.02963382 0.03965699 0.00216905
v -0.02405548 0.04467493 -0.00923451
v -0.02275848 0.04502105 -0.00998982
v -0.02179718 0.04521471 -0.01119527
v -0.02919960 0.03909587 0.00565055
v -0.03015232 0.03916460 -0.00062158
v -0.02572941 0.04222196 -0.01470944
v -0.02387142 0.04354953 -0.01576909
v -0.02395647 0.04314607 0.00869957
v -0.02268159 0.04344433 0.00893125
v -0.01921594 0.03668028 0.02177130
v -0.00737572 0.04224640 0.02299880
v -0.02775567 0.04213434 0.00362984
v -0.02557402 0.04321920 -0.01267400
v -0.02611351 0.04120063 0.01062385
v -0.00896615 0.04204982 0.02320750
v -0.01128190 0.04103469 0.02431090
v -0.01593023 0.04093021 0.02185240
v -0.00319672 0.04636055 -0.02347937
v -0.01221626 0.04589444 -0.01634404
v 0.00000000 0.04633188 -0.02256950
v -0.00196934 0.04639875 -0.02407559
v -0.02615356 0.04271411 0.00653926
v -0.02698469 0.04136782 0.00802902
v -0.02814865 0.04148203 0.00477687
v -0.02564656 0.04286915 -0.01353290
v -0.00420475 0.04229933 0.02329720
v -0.02440965 0.04442507 -0.01032242
v -0.02395170 0.04446625 -0.01166054
v -0.03015178 0.03725296 0.00276015
v -0.01405894 0.03905403 0.02445670
v -0.01401168 0.03923529 0.02438070
v -0.00485223 0.04596042 -0.02560725
v 0.00096369 0.04561430 -0.02708164
v -0.00634766 0.04630190 -0.02274617
v -0.00531387 0.04544162 -0.02685460
v -0.02418422 0.04279708 0.00970421
v -0.02582937 0.04264402 -0.01364001
v -0.02128583 0.04334735 0.01085660
v -0.02856445 0.04044055 0.00568095
v -0.02729606 0.03975772 -0.01470193
v -0.00307459 0.04473978 -0.02831188
v -0.02247154 0.04298245 0.01149819
v -0.00868225 0.04617983 -0.02321919
v -0.02329373 0.04302555 0.01024333
v -0.02340698 0.04473590 -0.00512227
v -0.02290052 0.04491996 -0.00759628
v -0.02191162 0.04507929 -0.00841817
v -0.00044155 0.04358488 -0.03004750
v -0.02787584 0.04031080 0.00775770
v -0.02619934 0.04372507 -0.00909528
v -0.00646388 0.04230803 0.02292310
v -0.00720787 0.04430872 -0.02829274
v -0.00625610 0.04182910 0.02451030
v -0.02719116 0.04076868 -0.01370915
v -0.01642495 0.03673017 0.02380240
v -0.02782952 0.04002124 0.00835380
v -0.02171248 0.04312390 0.01173178
v -0.01377874 0.03793513 0.02515230
v -0.00434959 0.04194456 0.02454080
v -0.01561647 0.03980350 0.02313020
v -0.01623046 0.03964483 0.02285230
v -0.01280975 0.03987604 0.02460940
v -0.01992952 0.04321801 0.01269463
v -0.02736735 0.03918933 0.01062426
v -0.01302981 0.03953635 0.02471400
v -0.01207655 0.03985649 0.02491060
v -0.01299667 0.04159259 0.02258760
v -0.01170349 0.04593753 -0.02263173
v -0.02380371 0.04195880 0.01323405
v -0.02847057 0.03955757 0.00718657
v -0.02607673 0.04187870 0.00891278
v -0.02643132 0.04206711 -0.01344254
v -0.02676296 0.04141384 -0.01378509
v -0.02612829 0.04322892 -0.01106819
v -0.02454376 0.04366397 -0.01370343
v -0.02756720 0.04119133 -0.01205620
v -0.01139432 0.03926742 0.02557690
v -0.02940171 0.03726142 0.00617144
v -0.01469308 0.03892767 0.02417030
v -0.01310765 0.03872323 0.02511480
v -0.01174372 0.03897339 0.02558750
v -0.01158142 0.04606348 -0.02123555
v -0.00878716 0.04578119 -0.02505031
v -0.02738469 0.04275900 -0.00853094
v -0.02633273 0.04310363 -0.01087168
v -0.02070999 0.04279971 0.01413057
v -0.01099473 0.03876554 0.02598770
v -0.02670121 0.04079139 -0.01476243
v -0.01295298 0.03863841 0.02523150
v -0.00933432 0.04497474 -0.02631828
v -0.02524566 0.04431635 -0.00542745
v -0.00544739 0.04112339 0.02579200
v -0.00676453 0.04143428 0.02500690
v -0.02310091 0.04442787 -0.00087705
v -0.00950992 0.03962415 0.02604920
v -0.02175724 0.04250985 0.01394508
v -0.01891779 0.04310184 0.01411400
v -0.00855929 0.03943359 0.02647320
v -0.01940912 0.04292017 0.01514140
v -0.02839297 0.03766310 0.00907472
v -0.01018446 0.03864681 0.02636150
v -0.02410280 0.04456073 -0.00382414
v -0.00849503 0.03927385 0.02658690
v -0.01056474 0.03918027 0.02597380
v -0.01065897 0.04328829 -0.02821651
v -0.00435942 0.04130458 0.02566990
v -0.01082384 0.04502558 -0.02557549
v -0.02471154 0.04434305 -0.00248250
v -0.01002502 0.04163080 0.02393040
v -0.01022869 0.04616546 -0.02107659
v -0.00859386 0.03906100 0.02666840
v -0.02355182 0.04456645 -0.00280669
v -0.01196372 0.04608368 -0.02048328
v -0.02790772 0.04080152 -0.01174357
v -0.02721977 0.04157733 -0.01230535
v -0.02810645 0.04043930 -0.01169660
v -0.02616852 0.04001712 0.01194302
v -0.02297496 0.04277133 0.01160458
v -0.01555395 0.04575634 -0.01998338
v -0.02613347 0.03959715 0.01243988
v -0.02906227 0.03945261 -0.01003852
v -0.01020961 0.03696584 0.02682880
v -0.01441758 0.04424959 -0.02483281
v -0.02903372 0.04025024 -0.00862023
v -0.01088714 0.04411107 -0.02697363
v -0.02064156 0.04215955 0.01598730
v -0.00602722 0.03899866 0.02732550
v -0.02435922 0.04425865 -0.00029322
v -0.00801980 0.03892755 0.02690390
v -0.00663769 0.03867453 0.02735150
v -0.02131569 0.04202353 0.01563430
v -0.02428567 0.04440540 -0.00195369
v -0.02540791 0.04410433 -0.00196388
v -0.00423551 0.03873407 0.02788080
v -0.00766939 0.03796195 0.02743370
v -0.01648098 0.04286295 0.01684350
v -0.02435654 0.04440939 -0.00218847
v -0.01345199 0.04377216 -0.02605363
v -0.01310610 0.04518979 -0.02390465
v -0.00760835 0.03664308 0.02767160
v -0.02505183 0.03990435 0.01393119
v -0.01651895 0.04268687 0.01776030
v -0.02456200 0.04030442 0.01424465
v -0.02484124 0.04083728 0.01310245
v -0.02492851 0.03852230 0.01526650
v -0.02850335 0.04135608 -0.00825032
v -0.01374661 0.04598957 -0.01928720
v -0.02297973 0.04157733 0.01495877
v -0.02292501 0.04415011 0.00236872
v -0.02395373 0.04432153 -0.00026396
v -0.01334553 0.04498380 -0.02422931
v -0.02630239 0.03699040 0.01360748
v -0.01756876 0.04251849 0.01769340
v -0.01993018 0.04182457 0.01743070
v -0.01340121 0.04491740 -0.02433088
v -0.02778244 0.04282480 -0.00426778
v -0.02729797 0.04311847 -0.00161084
v -0.01754307 0.04246658 0.01787240
v -0.02329182 0.04424065 0.00123319
v -0.01904213 0.04235482 0.01705020
v -0.02420938 0.03940165 0.01556190
v -0.02441859 0.03965598 0.01506620
v -0.02538990 0.03976833 0.01353935
v -0.02520841 0.04413127 -0.00128337
v -0.01480233 0.04590576 -0.01914504
v -0.02257627 0.04057484 0.01650730
v -0.01895791 0.04219728 0.01752110
v -0.02546310 0.04375368 0.00175944
v -0.01438730 0.04263108 0.01907100
v -0.02875512 0.04174524 -0.00483998
v -0.02303898 0.04009395 0.01647610
v -0.02113109 0.04074889 0.01786870
v -0.01430422 0.04343301 -0.02598151
v -0.01499354 0.04587924 -0.01927325
v -0.02881997 0.04176050 -0.00100240
v -0.02621454 0.04357248 0.00119916
v -0.02671647 0.04347306 -0.00144133
v -0.02610772 0.04392725 -0.00400838
v -0.01408743 0.04584294 -0.01598891
v -0.01603692 0.04542261 -0.02099141
v -0.01640129 0.04523181 -0.02120027
v -0.01939296 0.04182982 0.01792220
v -0.02915823 0.04111862 -0.00475642
v -0.02920055 0.04112190 -0.00371328
v -0.01601481 0.04482841 -0.02257833
v -0.02210295 0.04008561 0.01754100
v -0.01612514 0.04485559 -0.02242556
v -0.02040898 0.04114097 0.01809360
v -0.02162474 0.03987962 0.01824290
v -0.02331143 0.03991812 0.01631230
v -0.02330166 0.03910166 0.01695910
v -0.02356386 0.04412502 0.00233689
v -0.02126044 0.03960883 0.01883360
v -0.01792901 0.04415899 -0.02229985
v -0.01971608 0.04148077 0.01821320
v -0.02427005 0.04401749 0.00243399
v -0.02324402 0.03968316 0.01659930
v -0.02223724 0.03937107 0.01797580
v -0.02984285 0.03945261 -0.00621470
v -0.01746577 0.04305011 -0.02416452
v -0.02268320 0.03922760 0.01758410
v -0.02462005 0.04364871 0.00497905
v -0.02258330 0.03896117 0.01785750
v -0.02025395 0.04079622 0.01868870
v -0.02978515 0.04010486 -0.00443944
v -0.02795130 0.04249626 -0.00026676
v -0.01835858 0.04287707 -0.02361151
v -0.01694673 0.04197508 0.01954640
v -0.02058875 0.04043871 0.01876160
v -0.02405917 0.03699731 0.01683380
v -0.01411098 0.04229044 0.02049810
v -0.02254766 0.04393333 0.00484625
v -0.01753723 0.04166162 0.01971790
v -0.02931213 0.04105097 -0.00191793
v -0.02920532 0.04083728 -0.00666150
v -0.01720458 0.04167622 0.01993140
v -0.02812647 0.04228693 0.00021604
v -0.02156043 0.03949970 0.01859620
v -0.02333593 0.04390287 0.00472334
v -0.02356517 0.04429262 0.00046781
v -0.02045148 0.03999447 0.01930250
v -0.03040379 0.03782820 -0.00392195
v -0.01722049 0.04106235 0.02082280
v -0.02133840 0.03905469 0.01914640
v -0.02147573 0.03899854 0.01904250
v -0.01805859 0.04086345 0.02045670
v -0.01944696 0.04548221 -0.01310172
v -0.01885598 0.04556161 -0.01402387
v -0.01818948 0.04060208 0.02065570
v -0.02977746 0.04019641 -0.00243672
v -0.01739728 0.04068309 0.02114500
v -0.01834350 0.04031431 0.02081900
v -0.01518154 0.04196429 0.02069670
v -0.01407384 0.04214781 0.02089770
v -0.01560592 0.04204303 0.02024460
v -0.01849156 0.04002130 0.02097240
v -0.02044725 0.04536157 -0.01192835
v -0.01520019 0.04109770 0.02209020
v -0.01721668 0.03976196 0.02209580
v -0.02085763 0.04529339 -0.01104733
v -0.01667881 0.04026854 0.02205200
v -0.02500027 0.04302954 0.00728003
v -0.02586019 0.04347628 0.00276831
v -0.02204084 0.04503756 -0.01294067
v -0.01859319 0.03948032 0.02129430
v -0.02050352 0.03925931 0.01978990
v -0.01895266 0.03908920 0.02126000
v -0.02378457 0.04381555 0.00489089
v -0.02106386 0.04526281 -0.01072290
v -0.01901137 0.03973132 0.02076070
v -0.02186959 0.04494005 -0.01457509
v -0.03038412 0.03802329 -0.00060740
v 0.02458763 0.02487874 0.01886350
v 0.02211612 0.02421826 0.02153280
v 0.02154004 0.02135097 0.02222330
v 0.01922076 0.02343726 0.02398680
v 0.01335901 0.01983827 0.02753080
v 0.00694078 0.02197128 0.02962590
v 0.00466907 0.01934170 0.03010380
v 0.03212535 0.02910494 0.00004045
v 0.03226363 0.02719020 -0.00164041
v 0.03154170 0.02550405 0.00504390
v 0.03151285 0.02793318 0.00491491
v 0.00256884 0.02194637 0.03030200
v 0.02980065 0.02668136 0.01035527
v 0.03017759 0.02426153 0.00966159
v 0.02854406 0.02552628 0.01312402
v 0.02703905 0.02279257 0.01577890
v -0.03220790 0.02735877 -0.00293073
v -0.00367993 0.01929003 0.03024120
v -0.00763798 0.01935982 0.02947790
v -0.01061296 0.01958727 0.02866230
v -0.00660407 0.01943027 0.02972170
v -0.00021887 0.01909381 0.03038010
v -0.03210163 0.02641493 0.00114528
v -0.03141635 0.02534550 0.00556699
v -0.03051710 0.02456480 0.00873080
v -0.02876532 0.02354282 0.01294068
v -0.02485895 0.02208286 0.01879730
v -0.02763044 0.02310359 0.01488641
v -0.01939862 0.02085024 0.02391920
v -0.02195733 0.02129840 0.02194110
v -0.01629132 0.02036136 0.02602210
v -0.02115178 0.02119743 0.02259040
v -0.01778119 0.02053934 0.02508100
v -0.01382780 0.02003109 0.02731160
v 0.00474930 0.04232549 0.02317130
v 0.03047907 0.03746765 -0.00126102
v 0.02936130 0.03776621 0.00616083
v 0.02785062 0.03779804 0.01030901
v 0.02640593 0.03701049 0.01337919
v 0.02430176 0.03690534 0.01654490
v 0.02218925 0.03808379 0.01882060
v 0.01983135 0.03697592 0.02127090
v 0.01683926 0.03675407 0.02355290
v 0.01476538 0.03665506 0.02482640
v 0.00769728 0.03654032 0.02762910
v 0.01149606 0.03785783 0.02620610
v 0.01300328 0.04601067 -0.01820191
v 0.01802784 0.04310607 0.01425228
v 0.00424480 0.04225158 0.02357570
v 0.02268785 0.04401439 0.00392035
v 0.02281320 0.04470235 -0.00409040
v 0.00163937 0.04459857 -0.00106343
v 0.01890558 0.04555231 -0.01389989
v 0.00251120 0.04632037 -0.02243814
v -0.02831852 0.02573788 0.01351002
v -0.02630567 0.02536326 0.01671210
v -0.03173732 0.02775293 0.00368181
v -0.03209519 0.02907454 0.00041095
v -0.03214538 0.02976036 -0.00312695
v -0.03177630 0.03037625 -0.00713190
v -0.01638501 0.02321809 0.02585970
v -0.01916831 0.02318215 0.02405250
v -0.02359509 0.02436470 0.02007640
v 0.02223205 0.04233264 0.01436320
v 0.02366232 0.04218941 0.01236090
v 0.03012114 0.03945493 -0.00280258
v 0.02316576 0.04481041 -0.01138696
v 0.02333962 0.04483622 -0.01021346
v 0.02557373 0.04415613 -0.00759801
v 0.02237415 0.04331308 0.01002726
v 0.02150082 0.04311984 0.01195863
v 0.02233934 0.04006922 0.01726850
v 0.02175927 0.03959113 0.01829960
v 0.02350342 0.04370743 0.00615058
v 0.02349853 0.04162693 0.01384250
v 0.02610969 0.04246997 0.00749675
v 0.00373930 0.04631865 -0.02356061
v 0.00686646 0.04628419 -0.02266231
v 0.02452319 0.03987097 0.01467315
v 0.00556594 0.04519969 -0.02713135
v 0.00813115 0.04509592 -0.02656766
v 0.02219879 0.04305410 0.01155046
v 0.00384438 0.04583477 -0.02601882
v 0.00415039 0.04604250 -0.02540120
v 0.02116394 0.04526805 -0.01331624
v 0.02348244 0.03920578 0.01664700
v 0.01981878 0.03853613 0.02090260
v 0.02141010 0.03924173 0.01895690
v 0.01992911 0.04542446 -0.01248660
v 0.02385717 0.04308301 0.00915054
v 0.02314633 0.03953737 0.01679410
v 0.00619012 0.04501855 -0.02730539
v 0.00963593 0.04440218 -0.02722844
v 0.02414625 0.04423183 -0.01249227
v 0.00447458 0.04623317 -0.02442845
v 0.02871775 0.03951787 -0.01121983
v 0.02493184 0.03894335 0.01497367
v 0.02547448 0.04411029 -0.00854024
v 0.02665901 0.04355239 -0.00746163
v 0.02397310 0.04412412 -0.01344916
v 0.02254217 0.04382133 0.00601343
v 0.02838891 0.04183673 -0.00820264
v 0.02451127 0.04335886 0.00714580
v 0.02982538 0.03935813 -0.00645741
v 0.01046746 0.04389292 -0.02756032
v 0.02485263 0.04148685 0.01199463
v 0.02459263 0.04123741 0.01289806
v 0.02277868 0.04281646 0.01175300
v 0.02910614 0.04114627 -0.00583562
v 0.02545922 0.04347705 -0.01207456
v 0.02298545 0.04078286 0.01577260
v 0.02198189 0.04501110 -0.01333096
v 0.02642822 0.04129886 0.00980559
v 0.02791148 0.04113620 -0.01110550
v 0.00458145 0.04039293 0.02674280
v 0.02399694 0.04037028 0.01489625
v 0.01952362 0.04550790 -0.01392087
v 0.00667512 0.04177874 0.02442260
v 0.00459051 0.04179143 0.02494320
v 0.00489521 0.04141330 0.02550210
v 0.02895730 0.04081439 -0.00804814
v 0.00228310 0.04615616 -0.02514532
v 0.00647008 0.04406237 -0.02857062
v 0.00383371 0.04475116 -0.02821263
v 0.00718117 0.03988742 0.02666170
v 0.01182842 0.04178714 0.02282800
v 0.02245306 0.04485058 -0.01345470
v 0.02250945 0.04482495 -0.01348772
v 0.02076721 0.04527765 -0.01423558
v 0.02833801 0.04034596 -0.01108357
v 0.02432930 0.04023534 0.01457677
v 0.02184677 0.04494380 -0.01453504
v 0.00984639 0.04135245 0.02421850
v 0.00785065 0.04095560 0.02554020
v 0.02711182 0.04154211 -0.01268109
v 0.02412527 0.03968405 0.01542040
v 0.02448648 0.04368388 0.00471756
v 0.02734911 0.04109495 -0.01281640
v 0.00836182 0.04240137 0.02252660
v 0.02454853 0.04267412 -0.01636037
v 0.02771914 0.04060339 -0.01255271
v 0.01228219 0.04243642 0.02079830
v 0.02317035 0.04427003 -0.01475975
v 0.02415758 0.04354935 -0.01500216
v 0.00655556 0.03883075 0.02733120
v 0.01297789 0.04264396 0.01944080
v 0.02371972 0.04432779 -0.00048360
v 0.02320724 0.04385930 0.00525412
v 0.00280476 0.04410952 -0.02916446
v 0.02634048 0.04285907 0.00498668
v 0.01239597 0.04230105 0.02120960
v 0.01336520 0.04081255 0.02360240
v 0.02420663 0.04398792 0.00277117
v 0.02297782 0.04434740 -0.01486179
v 0.02652686 0.04116410 -0.01460895
v 0.02298074 0.04422378 -0.01532206
v 0.02333450 0.04388141 -0.01571187
v 0.02225106 0.04455286 -0.01528081
v 0.02724152 0.04079341 -0.01353314
v 0.02677989 0.04046410 0.01020173
v 0.02502244 0.04280573 -0.01503774
v 0.02713006 0.04250055 -0.01086720
v 0.02803087 0.04198312 0.00382558
v 0.02525627 0.04193586 -0.01612380
v 0.02422714 0.04462248 -0.00439748
v 0.02561360 0.04149049 -0.01606968
v 0.02732729 0.04017531 0.00935999
v 0.02725178 0.03962367 0.01027081
v 0.02750587 0.03972816 0.00951937
v 0.02632904 0.03998285 0.01190135
v 0.02738392 0.03943282 0.01018349
v 0.02501964 0.04132944 -0.01739797
v 0.02765804 0.04098886 -0.01210311
v 0.00717610 0.03801637 0.02753580
v 0.00404143 0.03790986 0.02813590
v 0.00897360 0.04037958 0.02581490
v 0.02731812 0.03925639 0.01048383
v 0.02602100 0.03873306 0.01343301
v 0.02550160 0.04344213 0.00404492
v 0.01125317 0.04136729 0.02369990
v 0.02592754 0.04379469 0.00038615
v 0.02747046 0.03934156 0.01008478
v 0.02899122 0.03899335 0.00658009
v 0.01363736 0.04253184 0.01987870
v 0.01504921 0.04252862 0.01919520
v 0.02680665 0.04293143 0.00290916
v 0.01511013 0.04590010 -0.01808306
v 0.01494145 0.04590946 -0.01804307
v 0.01541751 0.04586571 -0.01877603
v 0.01307016 0.04147106 0.02272010
v 0.02853786 0.03991293 0.00654760
v 0.01550471 0.04275929 0.01787150
v 0.02362394 0.04087781 -0.01969584
v 0.02859354 0.03960186 0.00683466
v 0.01387888 0.04597395 -0.01875177
v 0.01521944 0.04585301 -0.01924643
v 0.02452158 0.04426008 -0.00066098
v 0.01204967 0.03955626 0.02514610
v 0.01300472 0.03938800 0.02480800
v 0.01512140 0.04554468 -0.02136144
v 0.02515465 0.04410058 -0.00067743
v 0.01873016 0.04271411 0.01675880
v 0.01291996 0.03890389 0.02511150
v 0.02946084 0.04061609 0.00075326
v 0.02806890 0.04037231 0.00719151
v 0.02839452 0.04027342 0.00639025
v 0.02870970 0.04063016 0.00446776
v 0.01358294 0.03872787 0.02486320
v 0.02796137 0.03998100 0.00805679
v 0.01619064 0.04243952 0.01888740
v 0.02949517 0.04001337 0.00253001
v 0.02936089 0.03959918 0.00388745
v 0.01446425 0.03936254 0.02407190
v 0.01575285 0.03840875 0.02387560
v 0.01291865 0.03896099 0.02508390
v 0.00992250 0.03906154 0.02629650
v 0.01756101 0.04373532 -0.02321937
v 0.01658630 0.04490000 -0.02205190
v 0.01840782 0.04316806 -0.02335557
v 0.01673084 0.04394865 -0.02358266
v 0.01343536 0.04373645 -0.02626720
v 0.01724910 0.04176837 0.01973160
v 0.01937866 0.04213625 -0.02342525
v 0.02817535 0.04231745 0.00091639
v 0.02761071 0.04302126 -0.00348386
v 0.01691389 0.03931927 0.02259780
v 0.01178741 0.04609066 -0.02154264
v 0.02999109 0.03873521 0.00228617
v 0.01782000 0.04136466 0.01997570
v 0.01668715 0.04108417 0.02114180
v 0.02810478 0.04258441 -0.00349626
v 0.02974694 0.04005146 -0.00033101
v 0.01879805 0.04174792 0.01855010
v 0.02163696 0.04517084 -0.00915059
v 0.01521861 0.03933793 0.02365130
v 0.02066963 0.04068946 0.01848210
v 0.01898765 0.04032611 0.02052760
v 0.02285832 0.04489201 -0.00661638
v 0.01632690 0.04523569 -0.02141866
v 0.02001470 0.04322969 0.01249078
v 0.01643705 0.03976815 0.02264090
v 0.01978462 0.04310816 0.01353756
v 0.01842600 0.03949719 0.02142030
v 0.00755930 0.04625892 -0.02213522
v 0.01590389 0.04158854 0.02093740
v 0.01778596 0.03925788 0.02200740
v 0.01319122 0.04495722 -0.02460017
v 0.02115893 0.04167622 0.01645300
v 0.02992248 0.03990656 -0.00304517
v 0.02478790 0.04446887 -0.00648030
v 0.02334588 0.04487711 -0.00889119
v 0.00993347 0.04594326 -0.02413472
v 0.02115619 0.04336392 0.01087049
v 0.02020537 0.04192227 0.01695020
v 0.00609255 0.04624247 -0.02360955
v 0.02296555 0.03983741 0.01676680
v 0.00921249 0.04510086 -0.02615794
v 0.00979596 0.04505622 -0.02599629
v 0.00496995 0.04628586 -0.02204427
v 0.00706571 0.04623407 -0.02145138
v 0.02212464 0.03943258 0.01804670
v 0.02993774 0.03962427 -0.00493154
v -0.02121824 0.02407747 0.02235110
v -0.00608587 0.02222472 0.02975790
v 0.03213870 0.02974897 -0.00342759
v 0.01263046 0.02274066 0.02772560
v 0.02731132 0.02569770 0.01519170
v -0.03087115 0.02765947 0.00710002
v -0.03006792 0.02729892 0.00932685
v -0.01067727 0.02251327 0.02852710
v -0.00264210 0.02206021 0.03023870
v 0.01726198 0.02331990 0.02531230
v -0.01334375 0.02242219 0.02748830
v 0.03095960 0.03127145 -0.01073560
v 0.03157949 0.03063952 -0.00817689
v 0.02378082 0.04322916 -0.01639852
v 0.01722431 0.04478222 -0.02178153
v 0.01578903 0.04561519 -0.02032765
v 0.01547241 0.04583889 -0.01896485
v 0.01560080 0.04572111 -0.01988247
v -0.00397301 0.04072958 0.02637800
v -0.00459742 0.03990554 0.02715380
v -0.00403947 0.03690308 0.02825520
v -0.00417364 0.04162520 0.02513240
v 0.00397038 0.04131466 0.02577390
v 0.00432378 0.03918457 0.02757430
v -0.02104187 0.04520708 -0.01433095
v -0.02255630 0.04443079 -0.01541432
v -0.02011108 0.04542261 -0.01399144
v -0.01540279 0.04587972 -0.01862034
v -0.01887696 0.04292589 -0.02309671
v -0.00123560 0.03547155 0.02856900
v 0.03183317 0.02585315 0.00303355
v 0.03215146 0.02661949 0.00047198
v 0.00535107 0.01921886 0.02996850
v 0.00308639 0.01926654 0.03028520
v 0.00676060 0.01937347 0.02969300
v 0.00959313 0.01963001 0.02898960
v 0.02046006 0.02088266 0.02315030
v 0.01755380 0.02050334 0.02527280
v 0.02456229 0.02199316 0.01909620
v 0.02802145 0.02324271 0.01413170
v 0.02844917 0.02348297 0.01336703
v 0.02950155 0.02397155 0.01119241
v 0.00761932 0.04329895 0.01292554
f 3 32 1
f 29 32 3
f 36 1 32
f 32 29 28
f 335 29 34
f 40 29 3
f 34 29 40
f 44 42 5
f 5 42 3
f 3 42 41
f 353 36 354
f 353 352 1
f 1 36 353
f 628 627 332
f 31 344 629
f 51 1 345
f 3 1 35
f 35 2 3
f 1 51 35
f 349 28 29
f 623 335 34
f 333 626 34
f 333 594 626
f 34 40 333
f 333 40 628
f 30 338 342
f 30 41 338
f 30 344 31
f 33 40 3
f 3 41 33
f 41 30 33
f 33 30 31
f 31 627 33
f 33 627 628
f 628 40 33
f 39 37 10
f 3 37 39
f 39 5 3
f 38 5 39
f 4 37 3
f 17 5 38
f 38 6 17
f 10 37 20
f 37 4 20
f 2 35 48
f 48 35 51
f 21 19 48
f 48 50 21
f 51 50 48
f 12 549 11
f 11 549 547
f 11 46 14
f 14 12 11
f 8 12 14
f 45 42 44
f 45 41 42
f 345 1 351
f 351 386 345
f 352 353 596
f 359 28 362
f 330 369 370
f 370 332 330
f 628 332 600
f 600 333 628
f 594 333 600
f 331 629 330
f 330 332 331
f 331 332 627
f 331 627 31
f 31 629 331
f 329 369 330
f 330 629 329
f 329 629 344
f 622 41 337
f 337 336 622
f 339 622 336
f 342 338 339
f 346 29 350
f 346 349 29
f 350 29 624
f 624 340 350
f 29 335 624
f 335 340 624
f 34 626 625
f 625 623 34
f 335 623 625
f 43 50 51
f 60 23 27
f 23 22 27
f 388 275 50
f 50 275 197
f 24 27 22
f 24 124 8
f 128 124 24
f 24 22 181
f 181 128 24
f 10 6 13
f 13 39 10
f 13 6 38
f 38 39 13
f 47 48 19
f 3 2 47
f 2 48 47
f 44 5 16
f 5 17 16
f 16 17 6
f 337 45 593
f 593 336 337
f 337 41 49
f 49 45 337
f 41 45 49
f 102 135 377
f 386 351 385
f 352 596 385
f 1 352 385
f 385 351 1
f 597 353 354
f 597 596 353
f 601 359 362
f 389 359 601
f 362 28 348
f 348 601 362
f 598 601 348
f 389 601 134
f 391 591 68
f 68 86 67
f 68 591 86
f 383 597 354
f 391 384 355
f 354 36 356
f 356 383 354
f 384 383 356
f 356 355 384
f 356 36 32
f 32 355 356
f 358 591 391
f 358 355 32
f 391 355 358
f 591 358 390
f 332 370 371
f 371 600 332
f 613 612 182
f 479 467 454
f 369 329 368
f 621 339 338
f 622 339 621
f 338 41 621
f 41 622 621
f 556 339 336
f 365 339 556
f 491 514 478
f 611 503 210
f 21 50 25
f 50 27 25
f 25 19 21
f 101 83 60
f 345 386 387
f 387 51 345
f 387 43 51
f 50 43 387
f 387 388 50
f 192 116 50
f 50 197 192
f 291 197 275
f 275 281 291
f 181 22 249
f 52 23 60
f 60 619 52
f 52 619 23
f 109 124 117
f 117 124 128
f 616 83 151
f 44 16 15
f 15 16 9
f 15 45 44
f 9 45 15
f 9 16 7
f 7 16 14
f 7 45 9
f 7 14 46
f 46 45 7
f 549 12 433
f 12 421 433
f 451 12 8
f 451 421 12
f 478 431 404
f 441 491 404
f 404 491 478
f 431 392 404
f 427 553 559
f 11 547 551
f 551 521 11
f 547 468 551
f 551 468 521
f 548 547 549
f 463 468 490
f 500 46 11
f 11 521 500
f 521 468 500
f 603 593 45
f 45 602 603
f 75 309 143
f 598 348 347
f 28 349 347
f 347 348 28
f 193 90 140
f 220 90 219
f 177 134 198
f 198 601 598
f 198 134 601
f 67 86 66
f 86 591 66
f 591 390 66
f 66 390 389
f 311 287 234
f 67 322 300
f 248 280 224
f 72 73 138
f 286 384 391
f 391 68 286
f 361 359 389
f 389 390 361
f 361 390 357
f 28 359 361
f 361 357 32
f 32 28 361
f 357 390 360
f 360 390 358
f 32 357 360
f 360 358 32
f 570 568 376
f 415 370 369
f 542 371 415
f 415 371 370
f 135 612 447
f 612 613 447
f 377 135 447
f 447 467 377
f 530 570 520
f 520 570 376
f 530 520 512
f 512 520 467
f 363 102 377
f 377 467 363
f 508 454 461
f 480 454 508
f 344 30 630
f 595 329 344
f 344 630 595
f 595 630 343
f 595 368 329
f 595 343 367
f 367 368 595
f 632 30 342
f 342 339 341
f 341 339 365
f 341 632 342
f 343 632 341
f 367 343 341
f 478 514 509
f 509 465 431
f 533 491 441
f 514 491 552
f 553 509 552
f 552 509 514
f 559 553 552
f 552 532 559
f 552 491 532
f 340 503 620
f 503 611 620
f 349 346 592
f 592 347 349
f 598 347 592
f 594 374 373
f 600 371 372
f 594 600 372
f 372 374 594
f 372 371 542
f 542 374 372
f 26 25 27
f 14 16 26
f 19 25 26
f 8 14 26
f 26 24 8
f 27 24 26
f 10 20 26
f 26 6 10
f 26 16 6
f 26 20 4
f 164 149 60
f 60 27 164
f 50 116 164
f 164 27 50
f 152 149 130
f 116 192 130
f 130 164 116
f 149 164 130
f 60 82 113
f 113 101 60
f 328 387 386
f 81 387 328
f 81 281 298
f 298 387 81
f 298 281 275
f 275 388 298
f 388 387 298
f 246 291 259
f 259 291 281
f 197 291 200
f 276 249 22
f 409 408 580
f 452 124 109
f 109 408 452
f 580 408 411
f 411 412 580
f 411 408 109
f 109 412 411
f 96 97 94
f 94 110 96
f 97 110 94
f 380 562 375
f 579 562 493
f 580 412 423
f 562 579 413
f 375 562 381
f 403 392 439
f 441 404 393
f 393 404 392
f 465 509 481
f 483 487 46
f 483 463 487
f 432 602 45
f 432 603 602
f 314 309 292
f 314 143 309
f 182 612 129
f 129 612 135
f 135 87 129
f 135 102 127
f 127 87 135
f 75 91 59
f 91 129 59
f 59 129 87
f 386 385 105
f 385 80 105
f 80 76 105
f 105 76 81
f 105 328 386
f 81 328 105
f 140 80 176
f 596 597 176
f 597 383 176
f 154 385 596
f 154 80 385
f 596 176 154
f 154 176 80
f 284 311 234
f 292 309 284
f 309 311 284
f 163 134 177
f 163 165 134
f 177 198 211
f 210 206 211
f 211 611 210
f 389 134 131
f 131 66 389
f 134 66 131
f 92 72 138
f 73 72 92
f 92 314 73
f 143 314 92
f 310 309 75
f 75 287 310
f 310 311 309
f 287 311 310
f 305 302 280
f 292 284 289
f 285 297 312
f 280 248 285
f 265 297 285
f 285 262 265
f 248 262 285
f 269 300 322
f 322 297 269
f 269 297 265
f 73 317 71
f 323 322 67
f 228 383 384
f 140 176 228
f 228 176 383
f 439 392 564
f 392 576 564
f 369 368 425
f 569 565 480
f 569 554 565
f 542 554 569
f 565 415 416
f 369 589 416
f 416 415 369
f 565 554 571
f 571 415 565
f 480 565 558
f 479 454 538
f 518 454 480
f 210 503 614
f 613 443 462
f 462 508 461
f 480 508 462
f 461 454 446
f 446 462 461
f 447 462 446
f 446 454 467
f 467 447 446
f 376 467 474
f 474 520 376
f 467 520 474
f 470 467 479
f 479 512 470
f 470 512 467
f 343 630 631
f 631 632 343
f 631 630 30
f 30 632 631
f 367 341 366
f 366 341 365
f 435 403 439
f 532 556 560
f 560 394 532
f 556 394 560
f 364 556 336
f 364 394 556
f 336 593 364
f 593 394 364
f 532 394 577
f 507 431 478
f 478 509 507
f 507 509 431
f 599 592 346
f 611 592 599
f 350 340 599
f 599 346 350
f 340 620 599
f 599 620 611
f 536 374 542
f 503 373 502
f 502 373 374
f 334 503 340
f 334 373 503
f 334 340 335
f 335 625 334
f 334 625 626
f 626 594 334
f 594 373 334
f 18 47 19
f 19 26 18
f 18 26 4
f 18 4 3
f 3 47 18
f 152 130 190
f 190 130 192
f 190 192 197
f 197 200 190
f 254 126 232
f 246 251 232
f 160 291 246
f 246 232 160
f 160 232 126
f 89 126 151
f 151 83 89
f 83 101 89
f 306 281 81
f 81 55 306
f 283 276 22
f 619 276 283
f 283 22 23
f 23 619 283
f 181 249 214
f 420 409 421
f 408 409 420
f 421 451 420
f 420 452 408
f 451 452 420
f 477 451 8
f 477 452 451
f 8 124 477
f 124 452 477
f 546 605 575
f 575 605 548
f 575 548 549
f 575 586 580
f 421 586 575
f 549 433 575
f 575 433 421
f 493 379 475
f 476 481 475
f 378 379 562
f 476 475 378
f 378 475 379
f 562 380 378
f 493 562 566
f 566 379 493
f 562 379 566
f 633 467 376
f 376 378 633
f 633 378 380
f 553 427 397
f 397 509 553
f 96 375 382
f 375 587 382
f 382 97 96
f 382 406 97
f 382 587 406
f 406 587 572
f 375 555 572
f 572 555 406
f 580 423 583
f 583 555 580
f 406 555 583
f 97 423 450
f 450 423 412
f 450 412 109
f 97 406 405
f 405 423 97
f 406 583 405
f 405 583 423
f 567 575 580
f 546 575 567
f 567 605 546
f 567 606 460
f 460 605 567
f 460 413 440
f 460 606 457
f 457 413 460
f 517 555 515
f 445 457 517
f 413 457 445
f 517 515 445
f 445 515 381
f 562 413 445
f 524 555 517
f 104 77 327
f 327 616 104
f 104 616 151
f 151 126 104
f 327 77 320
f 418 392 431
f 431 436 418
f 418 436 392
f 561 392 530
f 530 550 561
f 561 564 576
f 565 564 561
f 525 481 509
f 493 475 525
f 525 475 481
f 547 548 545
f 545 605 547
f 548 605 545
f 490 468 489
f 489 472 490
f 468 472 489
f 490 472 438
f 438 472 428
f 428 422 438
f 438 427 490
f 604 468 547
f 547 605 604
f 46 500 494
f 494 483 46
f 424 45 46
f 424 432 45
f 603 432 590
f 593 603 590
f 590 394 593
f 590 577 394
f 73 314 93
f 65 76 54
f 81 76 65
f 54 55 65
f 65 55 81
f 54 76 53
f 53 76 80
f 115 53 80
f 54 53 115
f 115 100 54
f 90 220 145
f 145 219 224
f 145 220 219
f 98 145 112
f 167 126 254
f 167 77 126
f 209 167 254
f 184 167 209
f 280 302 264
f 224 280 264
f 141 153 138
f 180 163 177
f 138 153 180
f 205 211 206
f 177 211 205
f 205 206 210
f 210 203 205
f 216 198 598
f 216 211 198
f 598 592 216
f 216 592 611
f 611 211 216
f 609 443 613
f 609 613 182
f 179 205 610
f 610 205 203
f 610 203 210
f 210 614 610
f 610 614 443
f 443 609 610
f 185 129 91
f 185 91 75
f 75 143 185
f 143 92 185
f 242 248 224
f 242 262 248
f 224 247 242
f 247 262 242
f 308 305 280
f 280 285 308
f 308 285 312
f 312 317 308
f 138 73 136
f 73 71 136
f 315 317 312
f 315 71 317
f 67 66 70
f 70 323 67
f 312 297 326
f 326 297 322
f 322 323 326
f 134 165 156
f 156 106 134
f 165 141 156
f 156 141 106
f 224 219 266
f 266 247 224
f 219 90 217
f 384 286 221
f 221 228 384
f 221 267 237
f 140 228 221
f 581 570 530
f 568 570 581
f 376 568 581
f 530 392 410
f 392 436 410
f 410 436 431
f 431 398 410
f 402 398 431
f 431 465 402
f 476 581 402
f 402 581 398
f 402 481 476
f 465 481 402
f 439 564 400
f 414 589 369
f 369 425 414
f 506 368 367
f 506 425 368
f 367 366 506
f 541 536 542
f 480 527 541
f 541 569 480
f 401 416 589
f 589 400 401
f 401 400 564
f 401 564 565
f 565 416 401
f 574 571 554
f 415 571 574
f 574 554 542
f 542 415 574
f 480 558 573
f 573 518 480
f 454 518 573
f 573 538 454
f 573 550 530
f 530 538 573
f 513 512 479
f 479 538 513
f 530 512 513
f 513 538 530
f 448 447 613
f 613 462 448
f 448 462 447
f 480 462 504
f 434 435 441
f 403 435 434
f 441 393 434
f 392 403 434
f 434 393 392
f 495 533 441
f 441 488 495
f 537 519 533
f 533 495 537
f 491 533 534
f 533 519 534
f 374 536 531
f 222 200 291
f 222 190 200
f 152 190 222
f 291 160 222
f 282 232 251
f 191 149 152
f 152 222 191
f 191 222 160
f 101 113 161
f 161 89 101
f 161 160 126
f 290 251 246
f 290 306 55
f 281 306 290
f 54 251 290
f 290 55 54
f 109 117 111
f 111 117 128
f 181 214 201
f 201 128 181
f 195 256 327
f 617 618 195
f 257 616 327
f 327 256 257
f 421 409 585
f 585 586 421
f 585 409 580
f 580 586 585
f 578 579 493
f 493 509 578
f 509 397 578
f 426 397 427
f 427 438 426
f 426 438 422
f 588 587 375
f 375 572 588
f 588 572 587
f 528 567 580
f 606 567 528
f 580 555 528
f 528 555 606
f 608 457 606
f 606 555 608
f 555 524 608
f 523 555 375
f 523 515 555
f 417 381 562
f 562 445 417
f 417 445 381
f 126 77 103
f 103 104 126
f 77 104 103
f 327 320 615
f 615 195 327
f 617 195 615
f 615 79 617
f 320 79 615
f 582 576 392
f 392 561 582
f 582 561 576
f 565 561 557
f 557 561 550
f 557 558 565
f 550 573 557
f 557 573 558
f 529 509 493
f 493 525 529
f 529 525 509
f 482 484 460
f 428 472 471
f 484 482 471
f 471 422 428
f 471 482 422
f 486 605 460
f 460 484 486
f 486 484 605
f 492 500 468
f 492 494 500
f 468 463 492
f 463 483 492
f 483 494 492
f 46 487 469
f 469 424 46
f 432 424 449
f 449 590 432
f 292 289 299
f 299 289 302
f 299 314 292
f 299 93 314
f 305 308 307
f 307 308 317
f 93 299 307
f 307 317 73
f 73 93 307
f 302 305 307
f 307 299 302
f 99 100 90
f 90 98 99
f 99 98 100
f 146 80 140
f 146 115 80
f 90 100 125
f 100 115 125
f 234 287 229
f 229 175 234
f 87 127 61
f 61 59 87
f 61 127 102
f 75 59 61
f 61 287 75
f 102 363 61
f 61 363 467
f 467 633 61
f 61 633 380
f 278 98 318
f 319 98 278
f 90 145 147
f 147 98 90
f 145 98 147
f 178 167 184
f 184 209 240
f 258 230 271
f 271 289 258
f 271 230 224
f 224 264 271
f 302 289 271
f 271 264 302
f 171 610 92
f 165 163 157
f 163 180 157
f 157 180 153
f 157 141 165
f 153 141 157
f 177 205 187
f 187 205 179
f 187 180 177
f 179 180 187
f 92 610 168
f 168 185 92
f 182 129 168
f 168 609 182
f 168 610 609
f 106 141 107
f 107 141 138
f 138 136 107
f 137 136 71
f 137 315 57
f 71 315 137
f 134 106 155
f 106 107 155
f 155 107 136
f 74 66 134
f 74 70 66
f 134 155 74
f 74 155 136
f 74 137 57
f 136 137 74
f 321 315 312
f 312 326 321
f 321 326 323
f 219 217 238
f 238 266 219
f 237 266 238
f 238 221 237
f 217 221 238
f 67 300 301
f 300 269 301
f 301 269 294
f 273 266 237
f 237 267 273
f 265 262 273
f 273 262 247
f 247 266 273
f 140 221 196
f 196 193 140
f 399 581 530
f 398 581 399
f 530 410 399
f 399 410 398
f 429 378 376
f 376 581 429
f 476 378 429
f 429 581 476
f 584 400 589
f 439 400 584
f 505 506 366
f 496 495 498
f 498 495 488
f 506 505 498
f 498 488 441
f 441 435 498
f 435 459 498
f 425 506 498
f 542 569 563
f 563 541 542
f 569 541 563
f 473 614 503
f 503 502 473
f 544 502 374
f 374 531 544
f 544 473 502
f 444 435 439
f 444 459 435
f 439 584 444
f 497 495 496
f 497 537 495
f 511 366 365
f 365 556 511
f 556 540 511
f 539 511 540
f 539 540 556
f 539 556 532
f 532 491 539
f 88 98 62
f 100 98 88
f 54 100 88
f 232 282 233
f 254 232 233
f 233 253 254
f 62 253 233
f 233 282 62
f 148 191 160
f 160 161 148
f 148 161 113
f 149 191 148
f 148 113 82
f 148 82 60
f 60 149 148
f 126 89 150
f 150 161 126
f 89 161 150
f 246 259 260
f 260 290 246
f 260 259 281
f 281 290 260
f 128 201 166
f 166 201 183
f 109 111 108
f 108 450 109
f 97 450 108
f 119 110 97
f 97 108 119
f 110 119 186
f 256 215 263
f 263 257 256
f 395 426 422
f 397 426 395
f 395 440 413
f 517 457 607
f 457 608 607
f 607 524 517
f 607 608 524
f 516 523 375
f 515 523 516
f 375 381 516
f 381 515 516
f 485 471 472
f 484 471 485
f 485 472 468
f 468 604 485
f 485 604 605
f 605 484 485
f 487 463 466
f 466 469 487
f 466 463 490
f 430 427 559
f 490 427 430
f 115 146 132
f 132 125 115
f 132 146 140
f 140 90 132
f 90 125 132
f 278 318 84
f 84 98 112
f 84 318 98
f 175 133 118
f 114 133 175
f 207 145 224
f 207 202 145
f 224 230 207
f 230 202 207
f 243 230 258
f 243 202 230
f 243 284 234
f 258 289 243
f 243 289 284
f 218 61 175
f 218 229 287
f 175 229 218
f 95 61 380
f 95 380 375
f 95 375 96
f 96 110 95
f 110 186 95
f 95 186 255
f 123 79 122
f 77 167 78
f 167 178 78
f 178 122 78
f 78 122 79
f 78 320 77
f 78 79 320
f 174 180 179
f 174 171 180
f 179 610 174
f 610 171 174
f 138 180 142
f 180 171 142
f 142 92 138
f 142 171 92
f 129 185 169
f 169 168 129
f 185 168 169
f 323 70 58
f 58 321 323
f 58 56 57
f 70 56 58
f 57 315 58
f 315 321 58
f 67 301 279
f 279 68 67
f 279 286 68
f 279 221 286
f 267 221 279
f 239 221 217
f 239 196 221
f 193 196 239
f 90 193 239
f 239 217 90
f 589 414 419
f 419 584 589
f 425 498 407
f 407 498 459
f 453 544 504
f 473 544 453
f 453 462 443
f 453 504 462
f 443 614 453
f 614 473 453
f 504 544 526
f 526 527 480
f 480 504 526
f 510 505 366
f 366 511 510
f 510 497 496
f 537 497 510
f 510 511 537
f 519 537 522
f 522 511 519
f 537 511 522
f 535 534 519
f 519 511 535
f 511 539 535
f 491 534 535
f 535 539 491
f 293 282 251
f 293 251 54
f 54 88 293
f 62 282 293
f 293 88 62
f 159 119 108
f 159 108 111
f 159 166 183
f 159 111 128
f 128 166 159
f 250 195 618
f 304 618 617
f 617 79 304
f 79 313 304
f 325 79 123
f 255 186 223
f 223 304 255
f 618 304 223
f 83 616 270
f 616 257 270
f 257 263 270
f 270 619 60
f 60 83 270
f 270 276 619
f 227 183 231
f 227 159 183
f 215 159 227
f 456 395 422
f 456 482 460
f 422 482 456
f 397 395 396
f 579 578 396
f 396 578 397
f 396 413 579
f 396 395 413
f 458 449 424
f 458 430 449
f 424 469 458
f 590 449 437
f 449 430 437
f 577 590 437
f 437 430 559
f 559 532 437
f 532 577 437
f 145 202 172
f 120 84 112
f 112 145 120
f 64 61 288
f 133 114 85
f 278 84 85
f 84 120 85
f 85 118 133
f 85 120 118
f 202 243 236
f 175 172 236
f 236 172 202
f 234 175 236
f 236 243 234
f 287 61 245
f 245 218 287
f 61 218 245
f 170 255 123
f 188 170 123
f 296 170 188
f 252 240 209
f 252 244 240
f 252 209 254
f 254 253 252
f 252 253 62
f 62 98 252
f 98 319 252
f 252 319 278
f 278 244 252
f 70 74 69
f 69 56 70
f 69 74 57
f 57 56 69
f 265 273 274
f 274 301 294
f 274 269 265
f 294 269 274
f 464 444 584
f 425 407 464
f 459 444 464
f 464 407 459
f 464 414 425
f 464 419 414
f 584 419 464
f 543 544 531
f 543 526 544
f 527 526 543
f 543 541 527
f 536 541 543
f 543 531 536
f 499 498 505
f 505 510 499
f 496 498 499
f 499 510 496
f 195 250 144
f 119 159 144
f 256 195 144
f 144 215 256
f 144 159 215
f 123 255 303
f 255 304 303
f 303 304 313
f 189 186 119
f 189 223 186
f 249 276 199
f 276 270 199
f 199 214 249
f 199 201 214
f 231 183 199
f 183 201 199
f 455 456 460
f 395 456 455
f 460 440 455
f 440 395 455
f 430 458 442
f 442 466 490
f 490 430 442
f 442 458 469
f 145 172 194
f 194 172 118
f 194 120 145
f 118 120 194
f 175 118 162
f 162 172 175
f 118 172 162
f 175 61 212
f 139 114 175
f 235 170 296
f 121 122 178
f 178 188 121
f 123 122 121
f 121 188 123
f 278 85 324
f 85 295 324
f 114 139 63
f 63 139 64
f 63 85 114
f 63 295 85
f 63 64 288
f 288 295 63
f 213 178 184
f 184 240 213
f 240 204 213
f 296 188 226
f 267 279 277
f 277 273 267
f 277 274 273
f 277 279 301
f 301 274 277
f 316 303 313
f 316 313 79
f 79 325 316
f 316 325 123
f 123 303 316
f 119 144 158
f 158 189 119
f 158 144 250
f 250 189 158
f 241 250 618
f 241 189 250
f 618 223 241
f 223 189 241
f 261 270 263
f 261 199 270
f 231 199 261
f 261 227 231
f 261 263 215
f 215 227 261
f 469 466 501
f 501 442 469
f 466 442 501
f 175 212 173
f 173 139 175
f 173 212 61
f 61 64 173
f 64 139 173
f 170 235 225
f 288 61 225
f 61 95 225
f 225 95 255
f 255 170 225
f 268 235 296
f 296 226 268
f 268 295 288
f 288 225 268
f 268 225 235
f 208 213 204
f 204 226 208
f 208 226 188
f 208 188 178
f 178 213 208
f 272 324 295
f 295 268 272
f 278 324 272
f 272 226 204
f 272 268 226
f 272 244 278
f 240 244 272
f 272 204 240

