# https://github.com/mikedh/trimesh
v -0.03149038 0.00369722 -0.03484988
v -0.03083801 -0.00927734 -0.04064989
v 0.02615612 0.01585757 -0.04064834
v -0.02520275 -0.02127426 -0.04065007
v 0.03132891 0.00366515 -0.04064995
v 0.03034389 -0.01132249 -0.04064989
v 0.02435284 -0.02215486 -0.04065085
v -0.02456438 0.01841181 -0.04064989
v -0.03120249 0.00396532 -0.04065001
v 0.03145086 0.04064947 -0.00219309
v 0.02571290 0.04064977 -0.01830661
v 0.02069085 0.04065012 -0.02363288
v 0.01637649 0.04064989 -0.02681059
v 0.01081460 0.04064941 -0.02949137
v 0.00206798 0.04064947 -0.03144562
v -0.00887585 0.04064965 -0.03023183
v -0.03014987 0.04064959 -0.00927246
v -0.03136473 0.04064953 -0.00296140
v -0.03149819 0.04064959 0.00292236
v -0.02763998 -0.01225960 -0.04434991
v -0.02476811 -0.01824581 -0.04435092
v -0.02906686 -0.00749904 -0.04434991
v 0.00135547 -0.03151100 -0.04435003
v -0.00560004 0.02723371 -0.04434979
v -0.02930104 0.00300163 -0.04434973
v -0.00914383 -0.03001523 -0.04434931
v -0.01575279 -0.02694964 -0.04434794
v -0.01997607 -0.02368062 -0.04435611
v 0.02560091 -0.01679158 -0.04434925
v 0.02917325 -0.00690937 -0.04435009
v 0.02763998 -0.01225960 -0.04434991
v 0.01202630 0.02514851 -0.04434985
v 0.01767861 0.02166557 -0.04434991
v -0.01698982 0.02218747 -0.04434913
v -0.01338422 0.02435892 -0.04434985
v 0.01225471 -0.02878451 -0.04434991
v -0.01225471 -0.02878451 -0.04434991
v -0.00505727 -0.03103113 -0.04435009
v 0.01767861 -0.02556627 -0.04434991
v 0.02108025 -0.02265572 -0.04434866
v 0.01522064 -0.02724123 -0.04435355
v -0.02560091 0.01289069 -0.04434800
v -0.02107995 0.01875442 -0.04434937
v 0.02580583 0.01244270 -0.04434943
v 0.02929913 0.00258356 -0.04435003
v 0.00394422 0.02733314 -0.04434991
v 0.00857830 -0.03022599 -0.04434890
v 0.02763998 0.00835878 -0.04434991
v 0.02145302 0.01843202 -0.04434842
v 0.03150182 -0.00163019 -0.03484762
v 0.03144645 -0.00428688 -0.03484917
v -0.03134244 -0.00586772 -0.03485167
v 0.00629896 0.04064965 0.03116760
v -0.02893495 0.04064959 0.01297486
v -0.02374458 0.04064947 0.02098000
v 0.01990890 0.04065030 0.02461150
v 0.02504158 0.04064863 0.01940830
v -0.01546478 0.04065108 0.02761370
v 0.02930396 0.04064965 0.01195729
v 0.03126943 0.04064947 0.00443089
v -0.00105953 0.04064953 0.03164480
v -0.00836563 0.04064959 0.03067360
v 0.03008908 0.04064911 -0.00945652
v -0.01907348 0.04064959 0.02523330
v -0.02584743 0.04065001 -0.01812446
v 0.01464837 0.04064953 0.02809060
v -0.01825898 0.04064995 -0.02568042
v -0.03146934 -0.00020775 -0.03484684
v 0.01244539 -0.04392266 0.02378090
v 0.01444286 -0.04349827 0.02350050
v 0.01365113 -0.04318231 0.02443930
v 0.02325153 -0.04448509 0.01342118
v 0.02404952 -0.04521656 0.00885689
v 0.02554136 -0.04532116 0.00505602
v 0.02500575 -0.04322767 -0.01523292
v 0.02683639 -0.04376018 0.00898087
v 0.02665102 -0.04477697 0.00505459
v 0.02847981 -0.04307359 0.00557625
v 0.02132409 -0.03988593 0.02176580
v 0.02730846 -0.04321432 -0.01045311
v 0.02967357 -0.04075372 0.00574791
v 0.02998894 -0.04125303 0.00176489
v 0.01580405 -0.04152715 0.02504800
v 0.01608932 -0.04187959 0.02456710
v 0.01720541 -0.04149878 0.02415100
v 0.01888597 -0.04059803 0.02346860
v 0.01545721 -0.04188776 0.02496240
v 0.01819401 -0.04050976 0.02403400
v 0.02423232 -0.04448652 -0.01460636
v 0.02621930 -0.04424899 -0.01108062
v 0.02306640 -0.04600685 -0.01318395
v 0.01896315 -0.04044234 0.02348480
v 0.01923704 -0.03911554 0.02370190
v 0.02910137 -0.04056388 0.00835717
v 0.02173233 -0.03899341 0.02160560
v 0.02517884 -0.04416698 0.01131356
v 0.01809310 -0.04124730 0.02367860
v 0.01579278 -0.03878128 0.02627090
v 0.01588827 -0.04118698 0.02523470
v 0.01699984 -0.04007035 0.02506630
v 0.01614969 -0.04087036 0.02525660
v 0.01862549 -0.04081708 0.02354690
v 0.02550697 -0.04370534 0.01204026
v 0.02778148 -0.04098129 -0.01196182
v 0.03030228 -0.04024022 0.00142312
v 0.00824356 -0.04791647 -0.02116913
v 0.00012195 -0.04809165 -0.02192092
v 0.00003576 -0.04763787 -0.02435577
v 0.02586770 -0.04357212 -0.01297760
v 0.01589369 -0.04064857 0.02554380
v 0.01603174 -0.04042530 0.02556610
v 0.01756232 -0.04042756 0.02454790
v 0.01357644 -0.04284232 0.02495110
v 0.02839785 -0.04201000 0.00835824
v 0.02839571 -0.04230052 0.00777554
v 0.01262998 -0.04232805 0.02604990
v 0.01535975 -0.04233717 0.02459530
v 0.01614391 -0.04225665 0.02418020
v 0.02756017 -0.04243594 0.00987947
v 0.01622223 -0.04046154 0.02542990
v 0.01686936 -0.04060178 0.02492860
v 0.01256740 -0.04213994 0.02627040
v 0.00838280 -0.04764598 -0.02239508
v 0.02134418 -0.04505378 0.01321328
v 0.02765941 -0.04211550 0.01020288
v 0.01314252 -0.04177522 0.02631110
v 0.00376010 -0.04807072 -0.02098930
v 0.03044617 -0.03962177 -0.00011438
v 0.00753778 -0.04721975 -0.02396864
v 0.00264931 -0.04661989 -0.02616012
v 0.00980502 -0.04310631 0.02623610
v 0.02782338 -0.04183602 0.01026696
v 0.02828609 -0.04168760 0.00918591
v 0.02912247 -0.04172110 0.00639260
v 0.00165170 -0.04556983 -0.02756202
v 0.00561523 -0.04654550 -0.02578253
v 0.02432864 -0.04613125 -0.00903404
v 0.01553338 -0.04009199 0.02600390
v 0.00669098 -0.04397612 0.02529960
v 0.00987977 -0.04296278 0.02641870
v 0.01251214 -0.04296064 0.02527150
v 0.01745110 -0.03941333 0.02497510
v 0.01641684 -0.03975570 0.02558100
v 0.01449173 -0.04132074 0.02592560
v 0.00747681 -0.04326200 0.02691560
v 0.01647680 -0.03939628 0.02564160
v 0.01843732 -0.03930103 0.02427870
v 0.01264125 -0.04153913 0.02673980
v 0.01336318 -0.04110485 0.02668520
v 0.02801954 -0.04120594 0.01057249
v 0.02872741 -0.04147607 0.00819707
v 0.01185804 -0.04135859 0.02718800
v 0.01716369 -0.03914618 0.02522790
v 0.02609062 -0.04252856 0.01304161
v 0.00665683 -0.04553765 -0.02671206
v 0.01165503 -0.04105538 0.02746700
v 0.02650415 -0.04457396 -0.00909311
v 0.01301550 -0.04046767 0.02717630
v 0.02695274 -0.04260206 -0.01224220
v 0.01338917 -0.04040503 0.02704140
v 0.01478677 -0.04057747 0.02618700
v 0.01254045 -0.04029357 0.02746550
v 0.01173609 -0.04070854 0.02762410
v 0.00986767 -0.04190766 0.02756570
v 0.01087772 -0.04034239 0.02813320
v 0.02501368 -0.04611778 -0.00452507
v 0.02315598 -0.04664003 -0.00784743
v 0.02770298 -0.04145878 0.01112628
v 0.00956345 -0.04247611 0.02720170
v 0.01023066 -0.04211151 0.02725990
v 0.02720206 -0.04116088 0.01253313
v 0.01339203 -0.03952533 0.02734420
v 0.02733135 -0.04104250 0.01235330
v 0.01001328 -0.04120343 0.02801540
v 0.02667236 -0.04186964 0.01301110
v 0.02254486 -0.04359287 0.01661980
v 0.00931841 -0.04138296 0.02814070
v 0.02810621 -0.04359370 -0.00665462
v 0.00980377 -0.03955030 0.02883440
v 0.01033258 -0.04093956 0.02807340
v 0.02910941 -0.03901284 0.00921166
v 0.01184463 -0.04619354 -0.02416694
v 0.02700960 -0.04135584 0.01276296
v 0.02662718 -0.04534512 -0.00059742
v 0.02730745 -0.04488182 -0.00355589
v 0.02504837 -0.04592645 0.00069094
v 0.02358603 -0.04636901 -0.00173795
v 0.01070499 -0.04529905 -0.02587599
v 0.00435686 -0.04324477 0.02735430
v 0.01364517 -0.04714673 -0.02093977
v 0.02420437 -0.04321783 0.01503658
v 0.01077741 -0.04672747 -0.02354509
v 0.00436795 -0.04293817 0.02780310
v 0.01318657 -0.03856194 0.02761100
v 0.01171875 -0.03856223 0.02830800
v 0.00630182 -0.04197645 0.02881150
v 0.00903594 -0.04048311 0.02872310
v 0.00813913 -0.04076999 0.02885280
v 0.02799415 -0.04237443 -0.00963557
v 0.02875113 -0.04221040 -0.00740802
v 0.01182597 -0.04025298 0.02779350
v 0.02426946 -0.04271060 0.01578557
v 0.02538096 -0.04135870 0.01568222
v 0.02004235 -0.04436820 0.01742850
v 0.02200317 -0.04376912 0.01692116
v 0.02474516 -0.04228121 0.01566225
v 0.02933371 -0.04074603 -0.00742853
v 0.02591150 -0.04125303 0.01492393
v 0.01653856 -0.04443037 0.01990230
v 0.01214838 -0.04673594 -0.02275854
v 0.00961304 -0.03856986 0.02904800
v 0.01081514 -0.03922981 0.02853340
v 0.02824831 -0.03985047 0.01119542
v 0.02602189 -0.03961229 0.01611817
v 0.02607059 -0.04500210 -0.00911033
v 0.02620100 -0.04114371 0.01451367
v 0.02597767 -0.04095304 0.01507449
v 0.00438577 -0.04198306 0.02886300
v 0.00736499 -0.04055917 0.02917610
v 0.00977433 -0.04037868 0.02854870
v 0.00737870 -0.04045474 0.02922020
v 0.02346032 -0.04246848 0.01729110
v 0.00746041 -0.04036355 0.02923870
v 0.02706331 -0.04206413 0.01173305
v 0.00768340 -0.04026883 0.02922050
v 0.00785875 -0.03823113 0.02962040
v 0.01826095 -0.04377406 0.02034290
v 0.02819061 -0.03899937 0.01180756
v 0.00439256 -0.04082441 0.02964120
v 0.00778061 -0.03926694 0.02949720
v 0.00663757 -0.03976386 0.02971940
v 0.00764829 -0.03911459 0.02956050
v 0.00499314 -0.04059493 0.02965330
v 0.02754306 -0.03972262 0.01286262
v 0.00501043 -0.04039984 0.02973720
v 0.00751632 -0.03893584 0.02962420
v 0.01984816 -0.04349315 0.01961450
v 0.02050507 -0.04362452 0.01872560
v 0.00487333 -0.04031491 0.02979520
v 0.00486040 -0.04024940 0.02982340
v 0.02496635 -0.04192978 0.01576328
v 0.01674872 -0.04663014 -0.01981056
v 0.00514603 -0.03909254 0.03015430
v 0.02371579 -0.04163008 0.01781350
v 0.02468121 -0.04179465 0.01635319
v 0.02498435 -0.04116821 0.01649308
v 0.02910858 -0.04187589 -0.00642920
v 0.02405846 -0.04076534 0.01804010
v 0.02868235 -0.04363369 -0.00163281
v 0.02331918 -0.04194051 0.01804110
v 0.02392256 -0.04574292 0.00499260
v 0.02154219 -0.04241096 0.01953210
v 0.02215707 -0.04263389 0.01860980
v 0.02295815 -0.04160279 0.01880620
v 0.02945530 -0.04230833 -0.00290477
v 0.01500868 -0.04509025 -0.02348971
v 0.02500778 -0.04151201 0.01614201
v 0.02357077 -0.04125797 0.01834970
v 0.02143210 -0.04195332 0.02015030
v 0.02193742 -0.04173111 0.01982020
v 0.02065509 -0.04258418 0.02024650
v 0.01671445 -0.04572415 -0.02144837
v 0.01993942 -0.04293072 0.02046400
v 0.01685953 -0.04550391 -0.02166069
v 0.02838319 -0.04382318 0.00176561
v 0.01752156 -0.04511082 -0.02164275
v 0.01312249 -0.04431957 0.02172380
v 0.01709187 -0.04490154 -0.02225512
v 0.01966238 -0.04260247 0.02111320
v 0.03003424 -0.04086208 -0.00309694
v 0.01862120 -0.04479074 -0.02117342
v 0.02272069 -0.04082638 0.01965780
v 0.01932227 -0.04233598 0.02171270
v 0.02969568 -0.04208183 -0.00035608
v 0.01946455 -0.04207813 0.02185290
v 0.02111393 -0.04159301 0.02082220
v 0.02062529 -0.04186785 0.02105370
v 0.02093207 -0.04147964 0.02109330
v 0.02223551 -0.04129183 0.01985470
v 0.02933877 -0.04257613 0.00173366
v 0.02341485 -0.04098230 0.01874780
v 0.01572340 -0.04342097 0.02288380
v 0.01784688 -0.04279100 0.02239200
v 0.02320992 -0.04074358 0.01914360
v 0.01730179 -0.04264104 0.02296570
v 0.02055633 -0.04292494 0.01985630
v 0.02353715 -0.04064875 0.01881440
v 0.02154392 -0.04084241 0.02094020
v 0.01812565 -0.04241132 0.02263760
v 0.01664698 -0.04330712 0.02247980
v 0.02112627 -0.04068475 0.02144900
v 0.02029824 -0.04712581 -0.01191640
v 0.02112388 -0.04695385 -0.00831306
v 0.02037048 -0.04271650 -0.02151954
v 0.01780140 -0.04221886 0.02307810
v 0.01833820 -0.04171484 0.02314090
v 0.01871371 -0.04139375 0.02310620
v 0.02498340 -0.03841269 0.01787670
v 0.01656419 -0.04106891 0.02485690
v 0.01862156 -0.04110538 0.02338110
v 0.01941937 -0.04105126 0.02273690
v 0.01905053 -0.04057997 0.02334660
v -0.02203464 -0.02585244 0.02371410
v -0.02241516 -0.02321577 0.02340990
v -0.02221673 -0.02314138 0.02361590
v -0.02476501 -0.02378988 0.02091510
v -0.02467077 -0.02552837 0.02095000
v -0.02114868 -0.02495527 0.02452370
v -0.02017205 -0.02269506 0.02541640
v -0.01523774 -0.02189922 0.02875810
v -0.01637268 -0.02202361 0.02801810
v -0.01952767 -0.02427351 0.02584580
v -0.01085656 -0.02337408 0.03059110
v -0.01321411 -0.02401924 0.02961260
v -0.00775140 -0.02118533 0.03154090
v -0.01007080 -0.02134180 0.03085610
v -0.03213894 -0.03146559 -0.00122112
v -0.03218370 -0.02914810 -0.00109232
v -0.00631714 -0.02361547 0.03176410
v -0.00660706 -0.02111530 0.03179270
v -0.03206992 -0.03021293 0.00353968
v -0.03219157 -0.02844458 0.00183260
v -0.00323486 -0.02306127 0.03227770
v -0.00466532 -0.02300786 0.03208130
v -0.00347137 -0.02379870 0.03216180
v -0.00465393 -0.02102971 0.03214410
v -0.00233465 -0.02098268 0.03237090
v -0.03193610 -0.02773690 0.00462353
v -0.00233275 -0.02247405 0.03234510
v 0.00088549 -0.02097105 0.03246280
v -0.03119373 -0.02902412 0.00829232
v -0.00013425 -0.02263683 0.03242670
v 0.00091743 -0.02380681 0.03234380
v -0.00233257 -0.02265799 0.03234180
v -0.00013422 -0.02298957 0.03242050
v -0.02969169 -0.02579110 0.01297676
v -0.02990174 -0.02832490 0.01224601
v -0.02721786 -0.02454805 0.01759250
v -0.02694314 -0.02746909 0.01781380
v 0.01008456 -0.02136135 0.03084230
v 0.00682062 -0.02109086 0.03172790
v 0.00660407 -0.02113091 0.03177220
v 0.00345033 -0.02099126 0.03227720
v -0.00013440 -0.02090960 0.03244990
v 0.02993679 -0.02603292 0.01245320
v 0.03082793 -0.02647960 0.00956070
v 0.02723503 -0.02464628 0.01756960
v 0.02937787 -0.02550697 0.01351464
v 0.02335923 -0.02338355 0.02256690
v 0.01921081 -0.02253478 0.02614120
v 0.01989746 -0.02252531 0.02559190
v 0.01440423 -0.02180242 0.02907860
v 0.01332092 -0.02166223 0.02959350
v -0.00146103 -0.03709888 0.03061180
v -0.03004252 -0.03928083 0.00541127
v 0.00149339 -0.03728342 0.03056840
v -0.02948975 -0.03881078 0.00795090
v -0.02625465 -0.03852510 0.01573861
v -0.02424621 -0.03851652 0.01873210
v -0.01362228 -0.03825801 0.02744010
v -0.00867462 -0.03835290 0.02942380
v -0.03025472 -0.03958803 -0.00319648
v 0.03211861 -0.02821302 0.00262368
v 0.03216934 -0.02920264 -0.00131261
v -0.00427592 -0.04724854 -0.01135248
v -0.01129239 -0.04785716 -0.01907671
v -0.01652431 -0.04737311 -0.01323021
v -0.01204150 -0.04745072 -0.01388335
v -0.01939487 -0.04482966 0.01598561
v -0.00520515 -0.04393810 0.02579220
v -0.02353894 -0.04575496 0.00534809
v -0.02363055 -0.04635185 -0.00166643
v -0.01978993 -0.04720759 -0.01183164
v 0.01548421 -0.04750245 -0.01468158
v 0.02900123 -0.02790594 0.01430046
v 0.02562713 -0.02646785 0.01980500
v 0.02976208 -0.02767819 0.01256531
v 0.03170472 -0.02738338 0.00601494
v 0.03211152 -0.03063333 0.00253999
v 0.03212279 -0.03159052 -0.00163484
v 0.03153634 -0.03239637 -0.00630319
v 0.00324637 -0.02294492 0.03225740
v 0.00550836 -0.02351415 0.03193860
v 0.00332427 -0.02313321 0.03224610
v 0.00344849 -0.02355355 0.03220650
v 0.00508684 -0.02105653 0.03209070
v 0.00808883 -0.02320140 0.03134910
v 0.00988770 -0.02385044 0.03084090
v 0.00965381 -0.02132964 0.03097980
v 0.01162713 -0.02150481 0.03029930
v 0.01007390 -0.02330636 0.03080960
v 0.01134961 -0.02360463 0.03035800
v 0.01659393 -0.02210545 0.02790360
v 0.01284790 -0.02414458 0.02974230
v 0.01341366 -0.02337950 0.02950820
v 0.01623433 -0.02381455 0.02804450
v 0.01715689 -0.02401387 0.02744220
v 0.01615899 -0.02453368 0.02804860
v 0.01926040 -0.02404445 0.02605240
v 0.02050781 -0.02502012 0.02510360
v -0.02075570 -0.03855460 0.02252870
v -0.01739495 -0.03848236 0.02529530
v -0.02344244 -0.04537934 0.00874627
v -0.02101302 -0.04137045 0.02110040
v -0.02450793 -0.04164183 0.01667523
v -0.02345329 -0.04170715 0.01810570
v -0.02198749 -0.04144978 0.02000210
v -0.00817770 -0.04571163 -0.02609289
v -0.00609964 -0.04665797 -0.02556509
v -0.02406871 -0.04141438 0.01751820
v -0.02586269 -0.04488080 -0.01033104
v -0.02427101 -0.04596215 -0.01027572
v -0.02653539 -0.04523748 -0.00568521
v -0.02512598 -0.04141712 0.01599270
v -0.00341034 -0.04774039 -0.02351469
v -0.00953102 -0.04763954 -0.02187437
v -0.00645381 -0.04749774 -0.02345038
v -0.02306073 -0.04123634 0.01895490
v -0.02165561 -0.04108178 0.02066910
v -0.00510883 -0.04540961 -0.02728736
v -0.01174157 -0.04554408 -0.02500236
v -0.02129751 -0.04084122 0.02118460
v -0.02472949 -0.04107916 0.01685876
v -0.02393138 -0.04096108 0.01807800
v -0.02275460 -0.04076689 0.01962600
v -0.02247047 -0.04676008 -0.00965393
v -0.02459245 -0.04628294 -0.00512290
v -0.00664133 -0.04798841 -0.02095878
v -0.00436592 -0.04792732 -0.02235884
v -0.02878952 -0.04106467 -0.00898254
v -0.02967149 -0.04169327 -0.00382793
v -0.02955287 -0.04092264 -0.00608146
v -0.02477973 -0.04095441 0.01688158
v -0.02757811 -0.04426938 -0.00631607
v -0.02290439 -0.04311698 0.01718430
v -0.02516692 -0.04376024 0.01266396
v -0.02178573 -0.04356241 0.01742080
v -0.02460747 -0.04083895 0.01721080
v -0.02232396 -0.04058945 0.02022690
v -0.02520251 -0.04451322 0.01011574
v -0.02308845 -0.04483199 0.01221192
v -0.00442916 -0.04342460 0.02699480
v -0.02467733 -0.04288321 0.01491171
v -0.02175903 -0.03975820 0.02130800
v -0.02285379 -0.04254949 0.01789710
v -0.02326750 -0.04211676 0.01791750
v -0.02507251 -0.04228180 0.01517183
v -0.02275943 -0.04200875 0.01860520
v -0.02468711 -0.03968465 0.01771790
v -0.02356183 -0.03963273 0.01921660
v -0.02416110 -0.03952968 0.01853520
v -0.00430345 -0.04263067 0.02824120
v -0.02480578 -0.04188948 0.01600385
v -0.02537840 -0.04197418 0.01507163
v -0.01222801 -0.04424035 0.02261650
v -0.00417018 -0.04377692 0.02628520
v -0.00438350 -0.04079383 0.02965270
v -0.00490558 -0.04091745 0.02950220
v -0.01312160 -0.04379218 0.02376470
v -0.02813237 -0.04202878 -0.00968272
v -0.02194309 -0.04655313 -0.01276004
v -0.00485450 -0.04053801 0.02970140
v -0.00471234 -0.04076141 0.02961680
v -0.02692025 -0.04337263 -0.01126564
v -0.02894878 -0.04214996 -0.00675571
v -0.02777278 -0.04270339 -0.00973272
v -0.02639961 -0.04021161 0.01500237
v -0.02563905 -0.04128408 0.01537174
v -0.01210778 -0.04288429 0.02588180
v -0.02582150 -0.04504466 0.00615227
v -0.00456005 -0.04027098 0.02986270
v -0.00450897 -0.03966277 0.03009520
v -0.00476557 -0.04034090 0.02980140
v -0.02385890 -0.04066562 0.01840670
v -0.00688165 -0.04214423 0.02843010
v -0.00485676 -0.04019725 0.02984430
v -0.02511972 -0.04572343 0.00284314
v -0.00500679 -0.04038417 0.02974490
v -0.02365916 -0.04526799 -0.01402652
v -0.02752012 -0.04126322 -0.01227462
v -0.02855062 -0.04278916 -0.00719869
v -0.02667725 -0.04224753 0.01234007
v -0.02429056 -0.04443979 -0.01460159
v -0.02690416 -0.04195344 0.01228809
v -0.00462156 -0.03920269 0.03016650
v -0.00814247 -0.03957319 0.02944100
v -0.00737107 -0.04100477 0.02894520
v -0.00463861 -0.03878736 0.03023250
v -0.02793169 -0.04292368 0.00809967
v -0.00505179 -0.03914803 0.03010780
v -0.00500435 -0.03940832 0.03005990
v -0.00941557 -0.04132694 0.02813830
v -0.02703046 -0.04158210 0.01250178
v -0.02492618 -0.04289191 -0.01567352
v -0.02804058 -0.04210990 0.00942147
v -0.00509167 -0.03902500 0.03012280
v -0.02727085 -0.04122430 0.01238495
v -0.00944084 -0.04121476 0.02820180
v -0.00796127 -0.04335546 0.02656850
v -0.00851101 -0.04101574 0.02862960
v -0.00747508 -0.04025131 0.02928120
v -0.00516462 -0.04022502 0.02977610
v -0.02870982 -0.04093664 0.00930035
v -0.01548576 -0.04347181 0.02314290
v -0.00738537 -0.04091179 0.02899270
v -0.00618529 -0.04079455 0.02930540
v -0.01060223 -0.04189258 0.02730480
v -0.00862402 -0.04031115 0.02894190
v -0.01128453 -0.04153645 0.02731770
v -0.02769720 -0.04421311 0.00385392
v -0.01181566 -0.04178649 0.02690780
v -0.01808542 -0.04425001 0.01946550
v -0.01618599 -0.04435944 0.02013570
v -0.02624464 -0.04541230 0.00143266
v -0.01018881 -0.04050606 0.02833670
v -0.00802469 -0.04047262 0.02903670
v -0.01179152 -0.04030418 0.02780470
v -0.01192051 -0.04133468 0.02720570
v -0.01437687 -0.04237824 0.02510420
v -0.01206475 -0.04130524 0.02715890
v -0.02924650 -0.04196614 0.00528538
v -0.01326012 -0.04203647 0.02603360
v -0.02811241 -0.04004335 0.01163971
v -0.01646423 -0.04374742 0.02193740
v -0.01202803 -0.04094201 0.02740120
v -0.01048409 -0.04087471 0.02805740
v -0.01207751 -0.04081141 0.02745190
v -0.01291662 -0.04062014 0.02715590
v -0.01420938 -0.04179292 0.02573830
v -0.02867501 -0.04319375 0.00381148
v -0.01600766 -0.04732137 -0.01802957
v -0.01218736 -0.04034674 0.02762680
v -0.01119852 -0.04026460 0.02806070
v -0.02310943 -0.04227781 -0.01871193
v -0.01455688 -0.04705756 -0.02047432
v -0.01690489 -0.04648298 -0.01996982
v -0.02880239 -0.03951686 0.01013482
v -0.01285350 -0.04092711 0.02702420
v -0.01487082 -0.04115957 0.02584180
v -0.01410031 -0.04081737 0.02646410
v -0.01209640 -0.04704809 -0.02237022
v -0.01228863 -0.03948861 0.02786940
v -0.01072251 -0.03932112 0.02854910
v -0.01231569 -0.03963494 0.02782080
v -0.01733481 -0.04548180 -0.02129346
v -0.01847475 -0.04526942 -0.02063257
v -0.02778911 -0.04455262 -0.00031197
v -0.01233202 -0.03932470 0.02789100
v -0.01294738 -0.04049324 0.02720170
v -0.01376593 -0.04038906 0.02686140
v -0.01690804 -0.04537904 -0.02179295
v -0.01907277 -0.04390591 -0.02162510
v -0.01593679 -0.04251646 0.02404670
v -0.02210998 -0.04223585 -0.01997078
v -0.01378756 -0.04028743 0.02689420
v -0.01318287 -0.04029500 0.02717720
v -0.01233822 -0.03904813 0.02794180
v -0.01269590 -0.04147720 0.02674680
v -0.01764672 -0.04202979 0.02331840
v -0.02986174 -0.04079383 0.00445473
v -0.01602303 -0.04172158 0.02474780
v -0.02048492 -0.04460805 0.01616204
v -0.01315277 -0.03931021 0.02750190
v -0.01756304 -0.04283189 0.02253650
v -0.01527476 -0.03934830 0.02637240
v -0.01397728 -0.03907257 0.02715250
v -0.01237392 -0.03890222 0.02794790
v -0.01580882 -0.04050028 0.02566090
v -0.02630752 -0.04551470 -0.00133801
v -0.01375198 -0.04518646 -0.02437300
v -0.01814895 -0.04261165 0.02238140
v -0.01803612 -0.04096674 0.02389380
v -0.01598018 -0.04099708 0.02528640
v -0.02946966 -0.04244792 0.00088775
v -0.01761674 -0.04079812 0.02429110
v -0.01769870 -0.04052090 0.02437800
v -0.02008748 -0.04275101 0.02055680
v -0.01664650 -0.03949946 0.02549610
v -0.01394212 -0.03936976 0.02711090
v -0.01337897 -0.04656904 -0.02239108
v -0.01955235 -0.04239362 0.02146070
v -0.01907879 -0.04148256 0.02274140
v -0.01987916 -0.04354977 0.01949400
v -0.01780951 -0.04007446 0.02448150
v -0.01864278 -0.04120683 0.02329060
v -0.01390385 -0.04590445 -0.02316403
v -0.01610666 -0.04636889 -0.02078468
v -0.03021371 -0.04078418 0.00071311
v -0.01987600 -0.04182702 0.02175030
v -0.01994079 -0.04334098 0.01980920
v -0.01796096 -0.03927296 0.02462470
v -0.01677286 -0.04043680 0.02504190
v -0.01889187 -0.04045522 0.02353090
v -0.01584517 -0.04035204 0.02570670
v -0.02889961 -0.04325699 -0.00273478
v -0.02023339 -0.04100030 0.02206430
v -0.02079808 -0.04266297 0.02000680
v -0.01903855 -0.04070401 0.02328250
v -0.01963770 -0.04013496 0.02305540
v -0.01933568 -0.03948330 0.02353200
v -0.01934242 -0.03944468 0.02353660
v -0.02157437 -0.04174190 0.02018660
v -0.02113670 -0.04427570 0.01651478
v -0.02072185 -0.04209291 0.02073470
v -0.02125215 -0.04052895 0.02141130
v 0.02240467 -0.02535247 0.02353390
v -0.03173404 -0.03212159 -0.00518406
v 0.03035354 -0.02909803 0.01089775
v 0.00643796 -0.02372652 0.03170280
v -0.02954292 -0.02809667 0.01309502
v 0.03157639 -0.02979248 0.00648796
v -0.01705932 -0.02487707 0.02753740
v -0.00855255 -0.02409785 0.03123200
v -0.03100419 -0.03340363 -0.00778663
v -0.02253723 -0.04611158 -0.01339424
v -0.01551169 -0.04756051 -0.01661205
v 0.00412965 -0.04076617 0.02970080
v 0.00408715 -0.03894281 0.03027090
v 0.00403214 -0.04297590 0.02779680
v 0.00402451 -0.04227107 0.02857600
v 0.00437266 -0.03958767 0.03011590
v 0.00411701 -0.04410135 0.02477870
v 0.00395471 -0.04352641 0.02686890
v -0.00391799 -0.04337215 0.02713930
v -0.00380897 -0.04110670 0.02952300
v -0.00414365 -0.03969526 0.03009900
v -0.00412363 -0.03897804 0.03024980
v 0.02273344 -0.04615634 -0.01330555
v 0.01547586 -0.04758989 -0.01606602
v 0.01582551 -0.04743903 -0.01765549
v 0.02273178 -0.04239231 -0.01902092
v -0.00349420 -0.02094119 0.03226290
v -0.01221466 -0.02148097 0.03006660
v -0.01844018 -0.02224302 0.02666580
v -0.02843958 -0.02509123 0.01538932
v -0.03025436 -0.02604055 0.01136696
v -0.03151154 -0.02720087 0.00718129
v -0.01457363 -0.04729110 -0.01212323
v 0.00737494 -0.04564380 0.00727546
f 58 12 67
f 56 12 58
f 19 54 58
f 58 54 55
f 58 67 65
f 65 19 58
f 12 56 10
f 6 31 30
f 17 9 18
f 18 65 17
f 19 65 18
f 1 18 9
f 19 18 1
f 22 2 9
f 42 9 17
f 17 65 42
f 59 56 57
f 59 10 56
f 57 376 347
f 347 59 57
f 57 56 349
f 349 376 57
f 31 6 29
f 58 55 64
f 53 56 58
f 68 1 9
f 305 64 55
f 309 64 305
f 43 65 67
f 25 22 9
f 9 42 25
f 42 43 25
f 28 22 25
f 25 43 28
f 12 33 13
f 16 13 15
f 16 67 12
f 12 13 16
f 28 46 32
f 32 33 28
f 32 13 33
f 10 59 60
f 375 347 376
f 59 347 375
f 56 393 350
f 50 10 364
f 627 354 323
f 315 319 320
f 320 62 315
f 326 62 320
f 323 326 324
f 324 325 323
f 326 320 324
f 324 320 319
f 321 19 322
f 321 328 19
f 9 2 52
f 52 68 9
f 55 306 304
f 304 305 55
f 304 306 303
f 303 305 304
f 331 321 355
f 610 467 339
f 464 4 494
f 2 22 20
f 20 4 2
f 20 22 28
f 569 413 427
f 2 432 614
f 430 432 2
f 8 42 65
f 65 43 8
f 8 43 42
f 24 46 28
f 24 15 46
f 24 16 15
f 5 6 30
f 30 45 5
f 5 51 6
f 5 50 51
f 10 50 5
f 45 48 5
f 15 13 14
f 13 32 14
f 46 15 14
f 14 32 46
f 364 10 363
f 10 60 363
f 346 59 345
f 346 60 59
f 345 59 348
f 348 375 345
f 59 375 348
f 56 53 66
f 66 393 56
f 66 352 393
f 398 352 395
f 98 400 398
f 380 50 364
f 51 50 380
f 6 51 380
f 380 381 6
f 6 381 207
f 61 53 58
f 58 62 61
f 61 330 53
f 61 62 326
f 341 389 53
f 53 330 343
f 325 324 488
f 488 627 323
f 323 325 488
f 488 324 319
f 621 626 617
f 127 639 365
f 293 639 127
f 622 370 455
f 54 19 637
f 637 636 54
f 331 636 637
f 19 328 637
f 328 321 637
f 321 331 637
f 443 436 435
f 493 467 497
f 497 495 493
f 303 306 307
f 306 339 307
f 610 339 635
f 358 339 467
f 338 306 55
f 338 339 306
f 338 55 54
f 54 635 338
f 338 635 339
f 28 4 21
f 21 20 28
f 4 20 21
f 531 373 461
f 536 531 461
f 461 615 536
f 2 4 480
f 480 4 464
f 464 494 483
f 413 434 411
f 411 434 464
f 464 483 411
f 464 434 481
f 413 569 547
f 547 434 413
f 489 495 521
f 607 614 432
f 2 614 607
f 28 43 35
f 35 24 28
f 67 16 35
f 16 24 35
f 49 33 12
f 10 5 63
f 63 5 48
f 378 363 60
f 60 346 378
f 608 346 345
f 395 352 353
f 352 66 353
f 390 66 53
f 390 353 66
f 56 350 351
f 350 400 351
f 393 352 396
f 352 398 396
f 399 400 350
f 399 398 400
f 399 350 393
f 187 293 167
f 187 639 293
f 40 29 7
f 7 75 40
f 402 612 312
f 633 62 58
f 58 64 634
f 634 64 309
f 309 312 634
f 634 312 612
f 386 341 53
f 53 343 386
f 335 333 330
f 323 354 335
f 354 333 335
f 330 333 384
f 383 386 384
f 384 386 343
f 617 196 229
f 229 239 617
f 356 333 354
f 617 239 240
f 240 621 617
f 293 127 374
f 459 455 370
f 41 23 28
f 41 47 23
f 36 47 41
f 30 31 41
f 31 29 41
f 41 45 30
f 41 29 40
f 40 39 41
f 41 48 45
f 28 33 41
f 33 48 41
f 188 47 36
f 482 495 489
f 489 436 482
f 447 443 435
f 436 443 447
f 447 482 436
f 468 467 493
f 337 636 331
f 537 337 331
f 359 307 339
f 339 358 359
f 336 635 54
f 610 635 336
f 54 636 336
f 336 337 610
f 636 337 336
f 534 4 28
f 534 494 4
f 534 483 494
f 552 483 534
f 535 531 536
f 536 541 535
f 514 470 510
f 510 547 514
f 514 547 569
f 514 569 427
f 440 489 510
f 510 470 440
f 440 436 489
f 441 436 440
f 440 403 441
f 470 403 440
f 426 461 373
f 546 483 552
f 28 27 546
f 546 552 28
f 479 411 483
f 483 546 479
f 536 615 479
f 479 546 536
f 432 430 465
f 430 481 465
f 460 481 430
f 460 480 464
f 460 430 2
f 2 480 460
f 595 481 434
f 434 547 595
f 510 489 530
f 489 521 530
f 530 547 510
f 355 321 560
f 321 588 560
f 362 607 432
f 317 588 321
f 317 321 322
f 317 362 588
f 607 362 317
f 68 52 317
f 317 52 2
f 2 607 317
f 34 43 67
f 67 35 34
f 34 35 43
f 44 48 33
f 33 49 44
f 345 375 377
f 377 608 345
f 375 608 377
f 611 378 346
f 346 608 611
f 53 389 340
f 340 390 53
f 218 196 617
f 139 370 622
f 139 623 370
f 397 396 398
f 398 399 397
f 393 396 397
f 397 399 393
f 606 349 56
f 376 349 606
f 606 95 376
f 56 351 606
f 606 351 400
f 270 207 381
f 381 380 270
f 622 639 124
f 639 187 124
f 94 608 181
f 94 611 608
f 76 77 78
f 255 178 247
f 247 270 255
f 207 270 247
f 167 137 166
f 166 187 167
f 186 187 166
f 271 39 40
f 271 41 39
f 271 268 41
f 40 294 271
f 264 271 262
f 242 262 271
f 303 402 308
f 402 312 308
f 308 312 309
f 308 305 303
f 309 305 308
f 310 633 58
f 315 62 316
f 62 633 316
f 601 402 303
f 601 600 402
f 330 61 344
f 61 327 344
f 632 61 326
f 632 327 61
f 632 326 323
f 323 327 632
f 383 341 342
f 342 386 383
f 341 386 342
f 323 335 334
f 382 343 330
f 330 384 382
f 382 384 343
f 333 356 618
f 618 356 354
f 354 627 618
f 618 627 626
f 626 621 618
f 233 229 196
f 231 240 239
f 621 240 231
f 98 398 194
f 417 541 409
f 366 107 127
f 428 107 366
f 167 293 292
f 292 137 167
f 368 127 365
f 368 366 127
f 36 41 182
f 182 188 36
f 264 262 182
f 262 242 182
f 23 47 136
f 188 182 136
f 493 495 484
f 495 482 484
f 307 359 444
f 303 307 444
f 495 497 503
f 503 521 495
f 503 560 521
f 503 537 355
f 355 560 503
f 357 331 355
f 355 537 357
f 357 537 331
f 449 358 467
f 449 359 358
f 28 552 554
f 554 534 28
f 552 534 554
f 38 420 409
f 23 420 38
f 28 23 38
f 409 541 421
f 470 514 477
f 477 403 470
f 477 514 427
f 372 477 427
f 427 426 372
f 372 426 373
f 461 426 412
f 615 461 412
f 413 411 412
f 412 479 615
f 411 479 412
f 427 413 412
f 412 426 427
f 551 546 27
f 464 481 466
f 466 460 464
f 481 460 466
f 574 530 521
f 574 595 547
f 547 530 574
f 574 560 588
f 521 560 574
f 431 362 432
f 588 362 431
f 431 574 588
f 595 574 431
f 432 465 431
f 431 465 481
f 481 595 431
f 318 317 322
f 322 19 318
f 19 1 318
f 1 68 318
f 68 317 318
f 3 63 48
f 48 44 3
f 379 105 380
f 364 363 379
f 379 380 364
f 363 378 379
f 378 611 379
f 452 624 619
f 469 459 499
f 499 475 469
f 499 459 370
f 452 475 499
f 617 626 457
f 370 623 456
f 623 624 456
f 227 290 282
f 380 105 128
f 128 270 380
f 105 270 128
f 267 139 622
f 622 124 267
f 251 187 186
f 251 124 187
f 186 74 251
f 181 608 228
f 228 608 375
f 255 270 274
f 274 270 105
f 78 77 265
f 265 280 78
f 105 379 81
f 611 94 81
f 81 379 611
f 77 76 96
f 96 74 77
f 40 75 631
f 631 294 40
f 75 271 631
f 631 271 294
f 264 268 266
f 266 271 264
f 268 271 266
f 58 634 311
f 311 310 58
f 311 634 612
f 612 310 311
f 315 316 313
f 313 316 633
f 402 600 591
f 591 584 402
f 600 584 591
f 332 344 327
f 332 335 330
f 330 344 332
f 385 384 333
f 333 618 385
f 383 384 385
f 243 618 621
f 621 231 243
f 383 385 243
f 243 385 618
f 243 231 236
f 572 575 576
f 627 488 485
f 496 488 319
f 496 485 488
f 230 231 179
f 179 211 230
f 235 233 196
f 196 231 235
f 235 231 239
f 239 229 235
f 229 233 235
f 295 118 285
f 226 211 388
f 388 211 195
f 388 236 226
f 212 211 179
f 195 211 212
f 429 107 428
f 127 107 106
f 108 123 106
f 106 107 108
f 616 373 531
f 531 366 616
f 616 366 373
f 428 366 416
f 416 429 428
f 541 417 416
f 416 535 541
f 531 535 416
f 416 366 531
f 437 583 435
f 435 583 590
f 455 459 513
f 459 512 513
f 524 512 459
f 583 512 524
f 524 590 583
f 41 268 256
f 256 182 41
f 256 268 264
f 264 182 256
f 47 188 155
f 155 136 47
f 188 136 155
f 135 420 23
f 409 420 135
f 129 136 182
f 129 123 108
f 454 484 482
f 482 447 454
f 454 468 493
f 493 484 454
f 446 447 435
f 600 601 401
f 401 444 600
f 401 601 303
f 303 444 401
f 523 503 497
f 537 503 523
f 523 497 467
f 337 537 523
f 523 467 610
f 610 337 523
f 474 449 467
f 409 421 408
f 408 421 26
f 408 38 409
f 26 38 408
f 586 421 541
f 587 551 586
f 26 421 37
f 37 27 28
f 28 38 37
f 37 38 26
f 367 372 373
f 638 372 367
f 373 366 367
f 367 368 638
f 366 368 367
f 403 477 371
f 477 372 371
f 371 372 638
f 365 639 371
f 371 368 365
f 638 368 371
f 536 546 545
f 546 551 545
f 545 587 536
f 545 551 587
f 63 3 11
f 12 10 11
f 10 63 11
f 11 49 12
f 11 44 49
f 11 3 44
f 620 218 452
f 452 619 620
f 196 218 620
f 620 619 196
f 442 624 452
f 452 499 442
f 442 456 624
f 442 499 370
f 370 456 442
f 625 218 617
f 617 457 625
f 452 218 625
f 625 475 452
f 93 606 400
f 95 606 93
f 70 282 71
f 141 71 113
f 269 261 273
f 214 173 234
f 214 228 375
f 234 228 214
f 214 375 376
f 139 267 69
f 70 71 69
f 69 282 70
f 124 251 73
f 73 251 74
f 72 124 73
f 73 96 72
f 74 96 73
f 115 76 78
f 175 76 119
f 76 115 119
f 119 115 114
f 234 173 213
f 213 228 234
f 213 94 181
f 181 228 213
f 168 213 173
f 184 265 77
f 184 74 186
f 77 74 184
f 186 166 184
f 249 274 280
f 280 265 249
f 255 274 249
f 249 178 255
f 105 81 82
f 82 274 105
f 280 274 82
f 134 81 94
f 114 115 134
f 134 115 78
f 78 280 134
f 280 82 134
f 134 82 81
f 200 247 178
f 178 80 200
f 207 247 200
f 6 104 159
f 159 80 109
f 159 29 6
f 159 109 75
f 159 7 29
f 75 7 159
f 90 80 178
f 109 80 90
f 613 319 315
f 315 313 613
f 314 310 612
f 633 310 314
f 314 313 633
f 592 584 576
f 329 334 335
f 335 332 329
f 329 332 327
f 329 327 323
f 323 334 329
f 236 231 232
f 231 230 232
f 232 230 211
f 226 236 232
f 232 211 226
f 283 285 290
f 174 180 196
f 391 340 389
f 236 388 609
f 383 243 609
f 609 243 236
f 195 212 172
f 172 194 195
f 98 194 172
f 163 165 180
f 180 156 163
f 163 156 149
f 180 165 220
f 196 180 220
f 220 197 196
f 220 165 179
f 220 225 197
f 179 231 220
f 231 225 220
f 162 172 201
f 201 172 212
f 201 163 162
f 165 163 201
f 201 212 179
f 179 165 201
f 415 409 108
f 415 417 409
f 108 107 415
f 107 429 415
f 415 416 417
f 429 416 415
f 561 529 539
f 561 572 585
f 585 559 561
f 603 512 583
f 583 437 603
f 603 436 441
f 435 436 603
f 603 437 435
f 369 513 512
f 455 513 369
f 403 371 369
f 622 455 369
f 369 639 622
f 369 371 639
f 553 561 559
f 590 524 564
f 23 136 130
f 130 135 23
f 130 129 108
f 136 129 130
f 108 409 130
f 409 135 130
f 182 210 192
f 192 129 182
f 453 454 447
f 447 446 453
f 453 446 406
f 414 468 453
f 468 454 453
f 419 425 418
f 418 474 406
f 425 474 418
f 419 444 439
f 439 425 419
f 444 474 439
f 439 474 425
f 605 444 419
f 582 559 585
f 410 468 414
f 450 474 444
f 450 444 359
f 580 586 541
f 587 586 580
f 580 541 536
f 536 587 580
f 421 586 570
f 570 586 551
f 570 551 27
f 27 37 570
f 570 37 421
f 196 619 193
f 485 496 490
f 97 112 85
f 85 295 296
f 98 146 142
f 100 112 142
f 98 172 138
f 253 205 176
f 176 205 72
f 154 76 175
f 286 205 253
f 253 261 286
f 183 214 175
f 376 95 298
f 298 214 376
f 209 267 124
f 209 69 267
f 227 282 209
f 282 69 209
f 175 119 224
f 125 119 114
f 125 224 119
f 175 224 125
f 265 184 185
f 185 249 265
f 185 184 166
f 185 215 178
f 178 249 185
f 185 166 137
f 137 215 185
f 178 215 157
f 157 90 178
f 215 90 157
f 91 90 215
f 91 215 137
f 361 613 313
f 573 561 539
f 575 572 573
f 572 561 573
f 522 529 469
f 469 511 522
f 584 592 594
f 269 283 263
f 263 261 269
f 263 286 261
f 269 273 289
f 289 283 269
f 296 295 289
f 295 285 289
f 285 283 289
f 196 164 177
f 177 174 196
f 164 174 177
f 152 174 164
f 152 156 180
f 180 174 152
f 131 69 71
f 131 71 141
f 141 140 131
f 221 231 196
f 196 197 198
f 197 225 198
f 388 391 387
f 387 609 388
f 389 341 387
f 387 391 389
f 387 341 383
f 383 609 387
f 390 340 392
f 340 391 392
f 392 391 388
f 392 388 195
f 158 163 149
f 162 163 158
f 242 630 190
f 190 106 123
f 190 630 106
f 190 192 210
f 190 182 242
f 190 210 182
f 123 129 190
f 129 192 190
f 629 630 292
f 293 374 629
f 629 292 293
f 106 630 629
f 629 374 127
f 127 106 629
f 512 603 562
f 562 369 512
f 562 603 441
f 441 403 562
f 403 369 562
f 529 561 519
f 561 553 519
f 469 529 519
f 519 553 469
f 577 590 571
f 590 564 571
f 559 582 571
f 571 553 559
f 571 564 553
f 504 564 524
f 553 564 504
f 504 459 469
f 504 524 459
f 469 553 504
f 445 446 435
f 419 418 407
f 407 418 406
f 422 605 419
f 596 605 422
f 599 605 596
f 600 444 599
f 444 605 599
f 406 474 424
f 424 410 406
f 405 453 406
f 406 410 405
f 414 453 405
f 405 410 414
f 451 450 359
f 359 449 451
f 474 450 451
f 449 474 451
f 145 193 619
f 196 193 145
f 623 139 145
f 139 69 145
f 69 131 145
f 145 131 140
f 121 85 112
f 153 400 98
f 98 142 153
f 147 93 400
f 400 153 147
f 147 153 142
f 92 93 147
f 147 112 92
f 147 142 112
f 143 142 146
f 100 142 143
f 143 138 111
f 143 146 98
f 98 138 143
f 290 285 117
f 117 285 118
f 117 282 290
f 117 71 282
f 117 113 71
f 169 140 141
f 122 170 169
f 196 145 169
f 169 145 140
f 169 164 196
f 169 170 164
f 72 96 103
f 103 176 72
f 191 176 103
f 103 96 76
f 76 154 103
f 175 214 216
f 214 217 216
f 253 176 222
f 222 176 191
f 246 214 248
f 246 217 214
f 277 273 261
f 261 259 277
f 252 261 253
f 253 259 252
f 252 259 261
f 95 93 79
f 79 93 92
f 173 214 171
f 214 183 171
f 171 168 173
f 175 168 171
f 171 183 175
f 204 124 72
f 204 209 124
f 72 205 204
f 227 209 204
f 94 133 151
f 151 133 114
f 151 134 94
f 114 134 151
f 150 133 94
f 168 133 150
f 94 213 150
f 213 168 150
f 132 133 168
f 132 168 175
f 175 125 132
f 114 133 132
f 132 125 114
f 199 200 80
f 80 159 199
f 207 200 199
f 199 159 104
f 199 104 6
f 6 207 199
f 90 91 89
f 75 109 89
f 109 90 89
f 89 91 271
f 89 271 75
f 137 292 628
f 628 91 137
f 292 630 628
f 628 630 242
f 628 242 271
f 271 91 628
f 613 361 486
f 486 496 319
f 319 613 486
f 486 490 496
f 491 490 486
f 313 314 543
f 543 361 313
f 543 486 361
f 475 492 507
f 469 475 507
f 507 511 469
f 471 457 626
f 501 506 478
f 478 486 501
f 568 594 592
f 575 573 568
f 568 573 539
f 576 575 568
f 568 592 576
f 539 540 568
f 558 522 511
f 529 522 558
f 539 529 558
f 558 540 539
f 205 286 238
f 238 204 205
f 223 225 231
f 231 221 223
f 223 221 225
f 196 198 219
f 219 198 225
f 219 221 196
f 225 221 219
f 394 392 195
f 195 194 394
f 395 353 394
f 394 398 395
f 394 194 398
f 353 390 394
f 390 392 394
f 160 138 172
f 160 172 162
f 162 158 160
f 160 158 149
f 149 161 160
f 446 445 448
f 406 446 448
f 448 604 602
f 445 604 448
f 448 407 406
f 602 407 448
f 589 604 581
f 581 582 589
f 581 571 582
f 577 571 581
f 435 590 597
f 597 590 577
f 597 445 435
f 597 604 445
f 577 581 597
f 597 581 604
f 602 604 404
f 419 407 404
f 404 407 602
f 404 604 589
f 404 422 419
f 596 422 404
f 589 582 404
f 404 582 596
f 598 599 596
f 598 582 585
f 596 582 598
f 585 572 598
f 468 410 423
f 410 424 423
f 423 424 474
f 623 145 189
f 189 145 619
f 189 624 623
f 189 619 624
f 92 112 88
f 112 102 88
f 85 83 84
f 84 118 295
f 295 85 84
f 126 144 149
f 122 117 126
f 99 83 85
f 144 83 99
f 149 144 99
f 299 121 101
f 85 121 299
f 101 99 299
f 299 99 85
f 110 99 101
f 111 138 110
f 110 161 149
f 149 99 110
f 138 160 110
f 110 160 161
f 120 121 112
f 120 112 100
f 111 110 120
f 100 143 120
f 120 143 111
f 101 121 120
f 120 110 101
f 113 117 116
f 116 117 122
f 122 169 116
f 141 113 116
f 116 169 141
f 148 170 122
f 122 126 148
f 148 152 164
f 164 170 148
f 148 126 149
f 149 156 148
f 156 152 148
f 260 259 253
f 250 222 245
f 253 222 250
f 250 260 253
f 202 222 191
f 191 103 202
f 202 103 154
f 245 222 206
f 206 241 245
f 222 202 206
f 206 202 154
f 206 154 175
f 175 241 206
f 257 246 245
f 245 241 257
f 257 241 175
f 296 277 297
f 297 85 296
f 97 85 297
f 275 277 296
f 273 277 275
f 296 289 275
f 275 289 273
f 500 492 475
f 515 526 500
f 491 486 472
f 472 486 476
f 472 471 626
f 476 471 472
f 626 627 472
f 627 485 472
f 485 490 472
f 472 490 491
f 566 314 612
f 458 506 475
f 457 463 458
f 475 625 458
f 458 625 457
f 476 486 502
f 502 478 476
f 486 478 502
f 473 471 476
f 476 478 473
f 509 507 492
f 492 526 509
f 511 507 509
f 286 263 237
f 237 238 286
f 237 290 227
f 227 204 237
f 204 238 237
f 237 283 290
f 237 263 283
f 599 598 593
f 593 584 600
f 600 599 593
f 576 584 593
f 593 572 576
f 593 598 572
f 438 474 467
f 87 84 83
f 87 126 117
f 87 117 118
f 118 84 87
f 87 83 144
f 144 126 87
f 217 246 208
f 208 257 175
f 175 216 208
f 208 216 217
f 302 79 92
f 302 301 79
f 501 486 505
f 475 506 505
f 505 506 501
f 498 526 492
f 492 500 498
f 498 500 526
f 508 486 515
f 515 500 508
f 567 543 314
f 565 612 402
f 565 566 612
f 462 458 463
f 462 463 457
f 462 478 506
f 506 458 462
f 462 473 478
f 457 471 462
f 471 473 462
f 518 526 525
f 518 509 526
f 518 558 511
f 511 509 518
f 433 423 474
f 474 438 433
f 468 423 433
f 467 468 433
f 433 438 467
f 276 277 259
f 259 260 276
f 246 257 203
f 203 208 246
f 257 208 203
f 86 302 92
f 92 88 86
f 86 88 102
f 97 297 300
f 300 86 102
f 302 86 300
f 297 301 300
f 301 302 300
f 300 112 97
f 300 102 112
f 516 505 486
f 500 505 516
f 486 508 516
f 516 508 500
f 487 500 475
f 475 505 487
f 487 505 500
f 314 566 360
f 360 567 314
f 566 567 360
f 578 565 402
f 594 565 578
f 402 584 578
f 584 594 578
f 520 518 525
f 558 518 520
f 245 246 258
f 258 246 248
f 248 281 258
f 279 276 260
f 288 276 279
f 278 276 288
f 277 276 278
f 278 297 277
f 278 301 297
f 540 558 538
f 538 520 525
f 558 520 538
f 525 526 527
f 527 538 525
f 579 563 566
f 566 565 579
f 532 517 544
f 486 543 533
f 515 486 533
f 543 544 533
f 533 544 517
f 533 526 515
f 533 527 526
f 533 517 532
f 532 527 533
f 244 250 245
f 245 258 244
f 244 258 250
f 254 258 281
f 254 279 260
f 260 250 254
f 250 258 254
f 281 284 272
f 272 254 281
f 279 254 272
f 288 279 272
f 79 288 272
f 272 284 79
f 79 284 287
f 287 298 95
f 95 79 287
f 214 298 287
f 248 214 287
f 287 281 248
f 287 284 281
f 291 278 288
f 291 288 79
f 79 301 291
f 301 278 291
f 538 527 528
f 532 549 528
f 528 527 532
f 563 579 548
f 579 544 548
f 555 544 579
f 555 565 594
f 555 579 565
f 543 567 557
f 557 548 543
f 557 567 566
f 566 563 557
f 563 548 557
f 542 544 543
f 543 548 542
f 542 548 544
f 550 549 532
f 532 555 550
f 550 528 549
f 540 538 550
f 538 528 550
f 550 568 540
f 594 568 550
f 550 555 594
f 532 544 556
f 556 555 532
f 544 555 556

