# https://github.com/mikedh/trimesh
v -0.02950668 0.00304977 -0.04135047
v -0.02077102 -0.02095231 -0.04135065
v 0.01387786 -0.02612599 -0.04135053
v 0.02365779 -0.01775082 -0.04135071
v 0.03048115 -0.00982484 -0.03355049
v 0.03166806 0.00287095 -0.04135047
v 0.03108751 0.00610301 -0.03355043
v 0.01710224 0.02688679 -0.03355049
v 0.02679514 0.01737723 -0.04135047
v 0.01756858 0.02649769 -0.04135059
v -0.01110458 0.03011212 -0.04135047
v -0.00941086 0.03068694 -0.03355049
v 0.00558662 0.03140017 -0.03355043
v 0.00561619 0.03152886 -0.04135041
v -0.02651476 0.01827082 -0.04135041
v -0.02221298 0.02280983 -0.03355043
v -0.03042602 0.00989756 -0.03355049
v -0.03082120 -0.00805112 -0.03355043
v 0.00086695 0.02996966 -0.04135047
v -0.03136801 0.00400195 -0.04135041
v 0.01886749 -0.02534588 -0.04135041
v 0.00329137 -0.03162321 -0.04135047
v -0.03029292 -0.01008972 -0.04135047
v 0.02656316 0.01760515 -0.03355055
v -0.02400016 -0.02042015 -0.03355019
v -0.02132797 -0.02324780 -0.04135059
v -0.01154136 -0.02926262 -0.04135059
v 0.02027130 -0.02424630 -0.03355061
v 0.02900362 -0.01309737 -0.04135047
v -0.00209415 -0.03772791 -0.01505535
v -0.00341105 -0.03780480 -0.01672583
v 0.00142473 -0.03727581 -0.02149217
v 0.00336337 -0.03779330 -0.01857387
v 0.03133547 0.00485060 -0.00254880
v 0.03167182 -0.00048682 -0.03355049
v 0.02837073 0.01502237 -0.03355037
v 0.01423978 0.02886757 -0.03355043
v 0.00029784 0.03182062 -0.00254958
v -0.01139163 0.02983078 -0.00254767
v -0.00432062 0.03181770 -0.03355043
v -0.01805877 0.02622685 -0.03355031
v -0.02217960 0.02282032 -0.00255071
v -0.02848434 0.01393494 -0.00254964
v -0.03179484 0.00151930 -0.00254564
v -0.03104645 0.00612220 -0.03355043
v -0.03130984 -0.00475904 -0.03355049
v -0.02856504 0.01221630 -0.00154679
v -0.03038257 -0.00492605 -0.00154881
v -0.02183568 0.02093586 -0.00162111
v -0.00706863 0.03037217 -0.00154643
v 0.01293087 0.02927574 -0.00254517
v 0.01014518 0.02929398 -0.00154893
v 0.02006816 0.02253565 -0.00153272
v 0.02185583 0.02106032 -0.00152628
v 0.02869760 0.01254091 -0.00175660
v 0.02325630 0.02162632 -0.00254916
v -0.02045714 -0.02243920 -0.00154530
v 0.00991249 -0.02927144 -0.00154548
v 0.02052140 -0.02173861 -0.00155108
v -0.00924969 -0.02927955 -0.00154810
v -0.02873468 -0.01251992 -0.00185828
v 0.02238094 -0.01953312 -0.00152861
v -0.01950836 0.02282861 -0.00151746
v 0.02655982 -0.01643761 -0.00185208
v 0.03056353 -0.00238920 -0.00154983
v 0.03084707 -0.00701102 -0.00254904
v 0.01894760 -0.02523526 -0.00258546
v 0.00785065 -0.03059324 -0.00257962
v -0.00617409 -0.03093537 -0.00254409
v -0.02663373 -0.01707562 -0.03355049
v -0.02326202 -0.02122124 -0.00254791
v -0.01617813 -0.02691468 -0.00254898
v 0.01932430 -0.02516516 -0.03355055
v -0.00009060 -0.03781279 -0.01508026
v 0.00040340 -0.03680738 -0.01324110
v 0.00193214 -0.03762551 -0.01489650
f 35 34 66
f 26 70 23
f 3 21 22
f 22 21 33
f 74 31 33
f 23 18 46
f 46 18 44
f 43 17 44
f 16 42 41
f 74 69 30
f 30 31 74
f 75 69 74
f 75 68 69
f 69 68 58
f 44 18 48
f 72 30 69
f 31 30 72
f 70 26 25
f 17 43 15
f 41 11 15
f 15 16 41
f 15 43 42
f 42 16 15
f 41 42 39
f 39 11 41
f 39 50 38
f 31 26 27
f 74 33 76
f 76 75 74
f 68 75 76
f 76 58 68
f 22 33 32
f 32 33 31
f 32 27 22
f 31 27 32
f 67 64 59
f 59 58 67
f 67 76 33
f 58 76 67
f 59 64 62
f 62 58 59
f 65 66 34
f 65 64 66
f 54 62 65
f 65 62 64
f 44 17 45
f 47 49 42
f 42 43 47
f 47 43 44
f 44 48 47
f 69 58 60
f 60 72 69
f 57 72 60
f 60 62 57
f 58 62 60
f 57 48 61
f 61 48 18
f 61 18 23
f 23 70 61
f 71 72 57
f 57 61 71
f 71 25 26
f 70 25 71
f 71 61 70
f 71 26 31
f 31 72 71
f 38 50 52
f 11 39 12
f 34 7 36
f 11 14 19
f 11 19 10
f 10 19 14
f 10 14 37
f 64 67 28
f 21 29 28
f 28 29 64
f 66 64 5
f 64 29 5
f 35 66 5
f 21 3 4
f 4 29 21
f 4 3 22
f 22 27 4
f 55 65 34
f 54 65 55
f 34 36 55
f 17 15 20
f 20 45 17
f 23 46 20
f 20 46 44
f 44 45 20
f 49 47 63
f 42 49 63
f 63 39 42
f 50 39 63
f 54 52 63
f 63 52 50
f 63 62 54
f 57 62 63
f 63 48 57
f 63 47 48
f 37 14 51
f 38 52 51
f 11 12 40
f 40 14 11
f 38 14 40
f 40 39 38
f 40 12 39
f 73 67 33
f 73 28 67
f 73 33 21
f 21 28 73
f 29 4 6
f 6 4 10
f 35 5 6
f 6 5 29
f 6 34 35
f 6 7 34
f 6 36 7
f 2 27 26
f 2 4 27
f 10 4 2
f 11 10 2
f 2 26 23
f 53 52 54
f 53 51 52
f 8 10 37
f 37 51 8
f 13 14 38
f 38 51 13
f 13 51 14
f 56 55 36
f 36 24 56
f 54 55 56
f 56 8 51
f 10 8 56
f 56 53 54
f 51 53 56
f 9 6 10
f 36 6 9
f 9 24 36
f 10 56 9
f 9 56 24
f 1 20 15
f 1 15 11
f 11 2 1
f 23 20 1
f 1 2 23

